<?xml version="1.0" encoding="UTF-8"?>
<svg id="Cena_1_-_Frame_1" data-name="Cena 1 - Frame 1" xmlns="http://www.w3.org/2000/svg" xmlns:xlink="http://www.w3.org/1999/xlink" viewBox="0 0 1920 918.04">
  <defs>
    <style>
      .cls-1 {
        fill: #4d3d3d;
      }

      .cls-2 {
        fill: #a0aeb9;
      }

      .cls-3 {
        fill: #bbb4aa;
      }

      .cls-4 {
        fill: #fff;
      }

      .cls-5 {
        fill: #535353;
        stroke: #000;
      }

      .cls-6 {
        fill: #3b322b;
      }

      .cls-7 {
        fill: #85888d;
      }

      .cls-8 {
        fill: #7c6453;
      }

      .cls-9, .cls-10, .cls-11 {
        fill: none;
      }

      .cls-12 {
        fill: #534e48;
      }

      .cls-13 {
        fill: #7b685a;
      }

      .cls-14 {
        fill: #554b42;
      }

      .cls-15 {
        fill: #aab4be;
      }

      .cls-16 {
        fill: #574944;
      }

      .cls-17 {
        fill: #7f605e;
      }

      .cls-18 {
        clip-path: url(#clippath-1);
      }

      .cls-19 {
        fill: #bcb8ad;
      }

      .cls-20 {
        fill: #afb1b3;
      }

      .cls-21 {
        fill: #5f6567;
      }

      .cls-22 {
        fill: #50504e;
      }

      .cls-23 {
        fill: #8e969c;
      }

      .cls-10 {
        isolation: isolate;
        opacity: .5;
        stroke: #9d9a92;
      }

      .cls-24 {
        fill: #7d7872;
      }

      .cls-25 {
        fill: #aeaba9;
      }

      .cls-26 {
        fill: #a4a39e;
      }

      .cls-11 {
        stroke: #ada9a0;
      }

      .cls-27 {
        fill: #cbd0d4;
      }

      .cls-28 {
        clip-path: url(#clippath);
      }

      .cls-29 {
        fill: #d9d9d9;
      }

      .cls-30 {
        fill: #948a80;
      }
    </style>
    <clipPath id="clippath">
      <polygon class="cls-9" points="46.77 44.04 1212.45 44.04 1196.84 889.73 46.93 876.48 46.77 44.04"/>
    </clipPath>
    <clipPath id="clippath-1">
      <rect class="cls-9" x="39.16" y="42.42" width="1165.49" height="837.28"/>
    </clipPath>
  </defs>
  <polygon class="cls-20" points="59.34 61.33 1224.06 58.39 1209.06 899.61 59.5 893.76 59.34 61.33"/>
  <g class="cls-28">
    <g class="cls-18">
      <g>
        <rect class="cls-4" x="39.16" y="42.42" width="1165.49" height="837.28"/>
        <path class="cls-5" d="M-36.49,290.37V-59.45s430.19,212.46,430.19,212.46L-36.49,290.37Z"/>
        <path class="cls-29" d="M68.83,186.54l-5.27,2.16,5.27,2.9v-5.06Z"/>
        <path class="cls-3" d="M103.58,228.31l-156.13,76.14L1.38,557.34l208.93-17.16L103.58,228.31Z"/>
        <path class="cls-11" d="M68.09,530.84l-41.13-26.02"/>
        <path class="cls-11" d="M77.76,457.84l-44.94-29.56M93.54,403.82l-76.36-57.52M106.89,337.03l-76.36-57.52"/>
        <path class="cls-5" d="M302.88,891.57H34.63v-168.09l268.25,168.09Z"/>
        <path class="cls-15" d="M39.04,754.7v-12.23l218.59,133.49v7.44l-19.3-3.35-199.29-125.35Z"/>
        <path class="cls-27" d="M9.63,274.45l79.13-39.19-11.63-8.79-54.66,25.75-12.84,22.24Z"/>
        <path class="cls-8" d="M67.79,39.57h493.4l-1.67,759.95L67.79,531.32V39.57Z"/>
        <path class="cls-17" d="M555.3,133.22l424.3,229.51v669.46l-424.3-234.28V133.22Z"/>
        <path class="cls-1" d="M1217.56,233.11l-237.97,129.61v524.34h237.97V233.11Z"/>
        <path class="cls-3" d="M710.33,879.7L39.16,515.92v226.46l216.41,137.32h454.76Z"/>
        <path class="cls-2" d="M135.41,264.22l109.46,59.22v121.4l-109.46-59.27v-121.35Z"/>
        <path class="cls-2" d="M363.19,387.58l109.46,59.21v121.41l-109.46-59.27v-121.35Z"/>
        <path class="cls-10" d="M38.79,727.97l208.24-100.72M103.2,769.06l210.48-105.8M168.81,810.5l210.96-109.97M242.56,856.83l214.55-115.2M333.11,906.64l214.55-115.2M429.32,958.88l214.55-115.2M-34.98,687.62l206.79-99.99M-96.66,654.51l206.36-100.34M-138.47,631.61l206.36-100.34"/>
        <path class="cls-2" d="M363.2,229.61l109.46,59.21v121.41l-109.46-59.27v-121.35Z"/>
        <path class="cls-2" d="M363.2,71.59l109.46,59.21v121.41l-109.46-59.27v-121.35Z"/>
        <path class="cls-2" d="M363.2-90.32l109.46,59.21v121.4l-109.46-59.27v-121.35Z"/>
        <path class="cls-2" d="M135.41,106.23l109.46,59.21v121.41l-109.46-59.27v-121.35Z"/>
        <path class="cls-14" d="M765.48,42.05l-210.18,91.24V42.05h210.18Z"/>
        <path class="cls-19" d="M648.67,694.64l63.23,33.83-.71,134.14-62.52-33.16v-134.82Z"/>
        <path class="cls-16" d="M635.95,687.8l12.72,6.82v134.8l-12.72,9.96v-151.58Z"/>
        <path class="cls-29" d="M63.56,188.69l491.74,266.27v19.88L57.34,204.71l6.22-16.02Z"/>
        <path class="cls-26" d="M57.25,204.61l498.04,270.22v6.34L57.25,211.76v-7.15Z"/>
        <path class="cls-26" d="M58.19,47.67l497.03,269.19v6.5L58.19,54.17v-6.5Z"/>
        <path class="cls-26" d="M63.6-111.29l491.67,266.32v6.5L63.6-104.78v-6.5Z"/>
        <path class="cls-29" d="M63.55,30.65l491.67,266.32v19.9L58.22,47.68l5.33-17.03Z"/>
        <path class="cls-29" d="M63.63-131.19l491.67,266.32v19.9L63.63-111.29v-19.9Z"/>
        <path class="cls-7" d="M135.41,385.56l14.79-8.82,94.67,49.57v18.53l-109.46-59.28Z"/>
        <path class="cls-7" d="M363.19,508.92l14.79-8.82,94.67,49.57v18.53l-109.46-59.28Z"/>
        <path class="cls-7" d="M363.19,350.95l14.79-8.82,94.67,49.57v18.53l-109.46-59.28Z"/>
        <path class="cls-7" d="M363.19,192.93l14.79-8.82,94.67,49.57v18.53l-109.46-59.28Z"/>
        <path class="cls-7" d="M363.2,31.02l14.79-8.82,94.67,49.57v18.53l-109.46-59.28Z"/>
        <path class="cls-7" d="M135.41,227.57l14.79-8.82,94.67,49.57v18.53l-109.46-59.28Z"/>
        <path class="cls-21" d="M135.41,264.23l14.79,8v104.51l-14.79,8.82v-121.33Z"/>
        <path class="cls-21" d="M363.19,387.6l14.79,8v104.51l-14.79,8.82v-121.33Z"/>
        <path class="cls-2" d="M624.09,524.61l92.71,49.17v121.41l-92.71-49.22v-121.35Z"/>
        <path class="cls-7" d="M623.01,647.12l15.87-9.99,77.95,40.57v18.53l-93.82-49.11Z"/>
        <path class="cls-21" d="M623.03,524l15.85,8.43v104.71l-15.85,9.97v-123.1Z"/>
        <path class="cls-2" d="M624.11,368.57l92.71,49.17v121.41l-92.71-49.22v-121.35Z"/>
        <path class="cls-7" d="M623.03,491.08l15.87-9.99,77.95,40.57v18.53l-93.82-49.11Z"/>
        <path class="cls-21" d="M623.05,367.95l15.85,8.43v104.71l-15.85,9.97v-123.1Z"/>
        <path class="cls-2" d="M624.11,210.06l92.71,49.17v121.41l-92.71-49.22v-121.35Z"/>
        <path class="cls-7" d="M623.03,332.57l15.87-9.99,77.95,40.57v18.53l-93.82-49.11Z"/>
        <path class="cls-21" d="M623.05,209.44l15.85,8.43v104.71l-15.85,9.97v-123.1Z"/>
        <path class="cls-2" d="M790.7,611.36l92.72,49.17v121.41l-92.72-49.22v-121.35Z"/>
        <path class="cls-7" d="M789.62,733.87l15.87-9.99,77.95,40.57v18.53l-93.82-49.11Z"/>
        <path class="cls-21" d="M789.64,610.74l15.85,8.43v104.71l-15.85,9.97v-123.1Z"/>
        <path class="cls-2" d="M790.72,455.31l92.71,49.17v121.41l-92.71-49.22v-121.35Z"/>
        <path class="cls-7" d="M789.64,577.82l15.87-9.99,77.95,40.57v18.53l-93.82-49.11Z"/>
        <path class="cls-21" d="M789.66,454.7l15.85,8.43v104.71l-15.85,9.97v-123.1Z"/>
        <path class="cls-23" d="M1167.18,455.53l-92.72,49.17v121.41l92.72-49.22v-121.35Z"/>
        <path class="cls-7" d="M1168.26,578.04l-15.87-9.99-77.95,40.57v18.53l93.82-49.11Z"/>
        <path class="cls-21" d="M1168.24,454.91l-15.85,8.43v104.71l15.85,9.97v-123.1Z"/>
        <path class="cls-23" d="M1167.18,611.63l-92.72,49.17v121.41l92.72-49.22v-121.35Z"/>
        <path class="cls-7" d="M1168.26,734.14l-15.87-9.99-77.95,40.57v18.53l93.82-49.11Z"/>
        <path class="cls-21" d="M1168.24,611.02l-15.85,8.43v104.71l15.85,9.97v-123.1Z"/>
        <path class="cls-23" d="M1167.18,297.5l-92.72,49.17v121.4l92.72-49.22v-121.35Z"/>
        <path class="cls-7" d="M1168.26,420.01l-15.87-9.99-77.95,40.57v18.53l93.82-49.11Z"/>
        <path class="cls-21" d="M1168.24,296.89l-15.85,8.43v104.71l15.85,9.97v-123.1Z"/>
        <path class="cls-2" d="M790.84,297.5l92.71,49.17v121.4l-92.71-49.22v-121.35Z"/>
        <path class="cls-7" d="M789.76,420.01l15.87-9.99,77.95,40.57v18.53l-93.82-49.11Z"/>
        <path class="cls-21" d="M789.78,296.89l15.85,8.43v104.71l-15.85,9.97v-123.1Z"/>
        <path class="cls-21" d="M363.2,229.62l14.79,8v104.51l-14.79,8.82v-121.33Z"/>
        <path class="cls-21" d="M363.2,71.61l14.79,8v104.51l-14.79,8.82v-121.33Z"/>
        <path class="cls-21" d="M135.41,106.24l14.79,8v104.51l-14.79,8.82v-121.33Z"/>
        <path class="cls-2" d="M135.41-68.56L244.87-9.34v138.15l-109.46-59.27V-68.56Z"/>
        <path class="cls-7" d="M135.41,69.53l14.79-8.82,94.67,49.57v18.53l-109.46-59.28Z"/>
        <path class="cls-21" d="M135.41-68.54l14.79,8V60.71l-14.79,8.82V-68.54Z"/>
        <path class="cls-13" d="M265.64,481.96l53.75,29.46v139.15l-53.75-28.77v-139.84Z"/>
        <path class="cls-2" d="M276.45,513.27l32.24,17.46v92.51l-32.24-17.24v-92.74Z"/>
        <path class="cls-13" d="M319.39,510.97l55.29,29.48v139.66l-55.29-29.54v-139.6Z"/>
        <path class="cls-2" d="M329.44,543.65l32.24,17.46v90.19l-32.24-17.24v-90.42Z"/>
        <path class="cls-14" d="M252.94,473.46l12.72,6.7v141.62l-12.72,9.96v-158.28Z"/>
        <path class="cls-21" d="M276.43,513.27l1.64.86v92.76l-1.64-.88v-92.74Z"/>
        <path class="cls-21" d="M329.44,543.65l1.64.86v90.43l-1.64-.88v-90.41Z"/>
        <path class="cls-21" d="M278.07,605.22l30.63,16.39v1.68l-30.63-16.39v-1.68Z"/>
        <path class="cls-7" d="M701.73,782.24l3.35,1.81v24.14l-3.35-1.81v-24.13Z"/>
        <path class="cls-21" d="M331.09,633.26l30.63,16.39v1.68l-30.63-16.39v-1.68Z"/>
        <path class="cls-25" d="M321.98,575.34l3.35,1.81v24.14l-3.35-1.81v-24.13Z"/>
        <path class="cls-25" d="M312.3,570.11l3.35,1.81v24.12l-3.35-1.81v-24.13Z"/>
        <path class="cls-6" d="M252.95,631.73l12.7-9.94,108.93,58.31-.04,17.52-121.59-65.9Z"/>
        <path class="cls-26" d="M635.95,839.39l12.7-9.94,62.55,33.18v17.54l-75.25-40.79Z"/>
        <path class="cls-27" d="M281.61,880.81l-242.58-152.63v14.33l216.9,138.3h25.68Z"/>
        <path class="cls-22" d="M896.83-32.16l-341.52,165.42,424.28,229.47,241.19-131.35-10.94-247-313.01-16.54Z"/>
        <path class="cls-30" d="M544.75,136.76l434.84,229.28v18.69l-424.3-229.41-10.54-18.56Z"/>
        <path class="cls-30" d="M544.14,624.11l435.46,231.05v18.69l-424.3-229.41-11.17-20.33Z"/>
        <path class="cls-24" d="M566.64,127.79l412.97,216.23v22.09l-434.86-229.36,21.89-8.96Z"/>
        <path class="cls-24" d="M555.33,611.02l424.27,222.21v21.93l-435.46-231.04,11.19-13.11Z"/>
        <path class="cls-24" d="M555.33,455.49l424.27,222.61v21.93l-424.27-226.85v-17.69Z"/>
        <path class="cls-24" d="M946.4,858.64l33.19,17.58v21.93l-33.19-17.76v-21.75Z"/>
        <path class="cls-24" d="M946.4,786.93l33.19,17.58v21.93l-33.19-17.76v-21.75Z"/>
        <path class="cls-24" d="M946.4,630.33l33.19,17.58v21.93l-33.19-17.76v-21.75Z"/>
        <path class="cls-24" d="M946.4,472.99l33.2,17.58v21.93l-33.2-17.76v-21.75Z"/>
        <path class="cls-24" d="M946.4,762.42l33.19,17.58v21.93l-33.19-17.76v-21.75Z"/>
        <path class="cls-24" d="M946.4,605.82l33.19,17.58v21.93l-33.19-17.76v-21.75Z"/>
        <path class="cls-24" d="M946.4,448.47l33.2,17.58v21.93l-33.2-17.76v-21.75Z"/>
        <path class="cls-29" d="M63.57,346.64l491.67,266.32v19.9L53.47,345.97l10.1.67Z"/>
        <path class="cls-26" d="M53.53,345.97l501.72,278.04v19.9L53.53,365.87v-19.9Z"/>
        <path class="cls-24" d="M946.4,737.56l33.19,17.58v21.93l-33.19-17.76v-21.75Z"/>
        <path class="cls-24" d="M946.4,580.96l33.19,17.58v21.93l-33.19-17.76v-21.75Z"/>
        <path class="cls-24" d="M946.4,423.62l33.2,17.58v21.93l-33.2-17.76v-21.75Z"/>
        <path class="cls-24" d="M946.4,713.05l33.19,17.58v21.93l-33.19-17.76v-21.75Z"/>
        <path class="cls-24" d="M946.4,556.45l33.19,17.58v21.93l-33.19-17.76v-21.75Z"/>
        <path class="cls-24" d="M946.4,399.1l33.2,17.58v21.93l-33.2-17.76v-21.75Z"/>
        <path class="cls-24" d="M946.4,688.19l33.19,17.58v21.93l-33.19-17.76v-21.75Z"/>
        <path class="cls-24" d="M946.4,531.59l33.19,17.58v21.93l-33.19-17.76v-21.75Z"/>
        <path class="cls-24" d="M946.4,374.24l33.2,17.58v21.93l-33.2-17.76v-21.75Z"/>
        <path class="cls-24" d="M979.62,344.04l225-121.15v19.74l-225,123.32v-21.9Z"/>
        <path class="cls-24" d="M979.59,833.26l225-121.15v19.74l-225,123.32v-21.9Z"/>
        <path class="cls-12" d="M979.6,678.11l225-121.15v19.74l-225,123.32v-21.9Z"/>
        <path class="cls-12" d="M979.6,876.28l32.72-18.17v22.74l-32.72,17.34v-21.9Z"/>
        <path class="cls-12" d="M979.6,804.57l32.72-18.17v22.74l-32.72,17.34v-21.9Z"/>
        <path class="cls-12" d="M979.6,647.97l32.72-18.17v22.74l-32.72,17.34v-21.9Z"/>
        <path class="cls-12" d="M979.6,490.62l32.72-18.17v22.74l-32.72,17.34v-21.9Z"/>
        <path class="cls-12" d="M979.6,780.05l32.72-18.17v22.74l-32.72,17.34v-21.9Z"/>
        <path class="cls-12" d="M979.6,623.45l32.72-18.17v22.74l-32.72,17.34v-21.9Z"/>
        <path class="cls-12" d="M979.6,466.11l32.72-18.17v22.74l-32.72,17.34v-21.9Z"/>
        <path class="cls-12" d="M979.6,755.2l32.72-18.17v22.74l-32.72,17.34v-21.9Z"/>
        <path class="cls-12" d="M979.6,598.6l32.72-18.17v22.74l-32.72,17.34v-21.9Z"/>
        <path class="cls-12" d="M979.6,441.25l32.72-18.17v22.74l-32.72,17.34v-21.9Z"/>
        <path class="cls-12" d="M979.6,730.68l32.72-18.17v22.74l-32.72,17.34v-21.9Z"/>
        <path class="cls-12" d="M979.6,574.08l32.72-18.17v22.74l-32.72,17.34v-21.9Z"/>
        <path class="cls-12" d="M979.6,416.74l32.72-18.17v22.74l-32.72,17.34v-21.9Z"/>
        <path class="cls-12" d="M979.6,705.83l32.72-18.17v22.74l-32.72,17.34v-21.9Z"/>
        <path class="cls-12" d="M979.6,549.23l32.72-18.17v22.74l-32.72,17.34v-21.9Z"/>
        <path class="cls-12" d="M979.6,391.88l32.72-18.17v22.74l-32.72,17.34v-21.9Z"/>
        <path class="cls-12" d="M979.59,519.66l225-121.15v19.74l-225,123.32v-21.9Z"/>
        <path class="cls-12" d="M979.41,366l226.75-124.24v16.12l-226.75,126.81v-18.69Z"/>
        <path class="cls-12" d="M979.6,855.15l226.75-124.24v16.12l-226.75,126.81v-18.69Z"/>
        <path class="cls-29" d="M67.85,338.56v10.28l-14.4-2.91,14.4-7.37Z"/>
        <path class="cls-24" d="M555.31,297.03l424.27,222.61v21.93l-424.27-226.85v-17.69Z"/>
      </g>
    </g>
  </g>
</svg>