<?xml version="1.0" encoding="UTF-8"?>
<svg id="Camada_2" data-name="Camada 2" xmlns="http://www.w3.org/2000/svg" xmlns:xlink="http://www.w3.org/1999/xlink" viewBox="0 0 1177.29 855.57">
  <defs>
    <style>
      .cls-1 {
        fill: #4d3d3d;
      }

      .cls-2 {
        fill: #a0aeb9;
      }

      .cls-3 {
        fill: #bbb4aa;
      }

      .cls-4 {
        fill: #fff;
      }

      .cls-5 {
        fill: #535353;
        stroke: #000;
      }

      .cls-6 {
        fill: #3b322b;
      }

      .cls-7 {
        fill: #85888d;
      }

      .cls-8 {
        fill: #7c6453;
      }

      .cls-9, .cls-10, .cls-11 {
        fill: none;
      }

      .cls-12 {
        fill: #534e48;
      }

      .cls-13 {
        fill: #7b685a;
      }

      .cls-14 {
        fill: #554b42;
      }

      .cls-15 {
        fill: #aab4be;
      }

      .cls-16 {
        fill: #574944;
      }

      .cls-17 {
        fill: #7f605e;
      }

      .cls-18 {
        clip-path: url(#clippath-1);
      }

      .cls-19 {
        fill: #bcb8ad;
      }

      .cls-20 {
        fill: #afb1b3;
      }

      .cls-21 {
        fill: #5f6567;
      }

      .cls-22 {
        fill: #50504e;
      }

      .cls-23 {
        fill: #8e969c;
      }

      .cls-10 {
        isolation: isolate;
        opacity: .5;
        stroke: #9d9a92;
      }

      .cls-24 {
        fill: #7d7872;
      }

      .cls-25 {
        fill: #aeaba9;
      }

      .cls-26 {
        fill: #a4a39e;
      }

      .cls-11 {
        stroke: #ada9a0;
      }

      .cls-27 {
        fill: #cbd0d4;
      }

      .cls-28 {
        clip-path: url(#clippath);
      }

      .cls-29 {
        fill: #d9d9d9;
      }

      .cls-30 {
        fill: #948a80;
      }
    </style>
    <clipPath id="clippath">
      <polygon class="cls-9" points="0 0 1165.68 0 1150.07 845.69 .15 832.43 0 0"/>
    </clipPath>
    <clipPath id="clippath-1">
      <rect class="cls-9" x="-7.61" y="-1.62" width="1165.49" height="837.28"/>
    </clipPath>
  </defs>
  <g id="Cena_1_-_Frame_1" data-name="Cena 1 - Frame 1">
    <g>
      <polygon class="cls-20" points="12.57 17.28 1177.29 14.35 1162.29 855.57 12.72 849.72 12.57 17.28"/>
      <g class="cls-28">
        <g class="cls-18">
          <g>
            <rect class="cls-4" x="-7.61" y="-1.62" width="1165.49" height="837.28"/>
            <path class="cls-5" d="M-83.26,246.33V-103.49S346.93,108.97,346.93,108.97L-83.26,246.33Z"/>
            <path class="cls-29" d="M22.06,142.5l-5.27,2.16,5.27,2.9v-5.06Z"/>
            <path class="cls-3" d="M56.81,184.27l-156.13,76.14,53.93,252.89,208.93-17.16L56.81,184.27Z"/>
            <path class="cls-11" d="M21.32,486.8l-41.13-26.02"/>
            <path class="cls-11" d="M30.99,413.8l-44.94-29.56M46.76,359.78l-76.36-57.52M60.12,292.99l-76.36-57.52"/>
            <path class="cls-5" d="M256.11,847.53H-12.14v-168.09l268.25,168.09Z"/>
            <path class="cls-15" d="M-7.73,710.66v-12.23l218.59,133.49v7.44l-19.3-3.35L-7.73,710.66Z"/>
            <path class="cls-27" d="M-37.14,230.41l79.13-39.19-11.63-8.79-54.66,25.75-12.84,22.24Z"/>
            <path class="cls-8" d="M21.02-4.47h493.4l-1.67,759.95L21.02,487.28V-4.47Z"/>
            <path class="cls-17" d="M508.53,89.18l424.3,229.51v669.46l-424.3-234.28V89.18Z"/>
            <path class="cls-1" d="M1170.79,189.07l-237.97,129.61v524.34h237.97V189.07Z"/>
            <path class="cls-3" d="M663.56,835.66L-7.61,471.88v226.46l216.41,137.32h454.76Z"/>
            <path class="cls-2" d="M88.64,220.18l109.46,59.22v121.4l-109.46-59.27v-121.35Z"/>
            <path class="cls-2" d="M316.42,343.54l109.46,59.21v121.41l-109.46-59.27v-121.35Z"/>
            <path class="cls-10" d="M-7.98,683.93l208.24-100.72M56.43,725.02l210.48-105.8M122.03,766.46l210.96-109.97M195.78,812.79l214.55-115.2M286.34,862.6l214.55-115.2M382.55,914.84l214.55-115.2M-81.75,643.58l206.79-99.99M-143.43,610.47l206.36-100.34M-185.25,587.57L21.11,487.23"/>
            <path class="cls-2" d="M316.42,185.57l109.46,59.21v121.41l-109.46-59.27v-121.35Z"/>
            <path class="cls-2" d="M316.42,27.55l109.46,59.21v121.41l-109.46-59.27V27.55Z"/>
            <path class="cls-2" d="M316.43-134.36l109.46,59.21V46.26l-109.46-59.27v-121.35Z"/>
            <path class="cls-2" d="M88.64,62.19l109.46,59.21v121.41l-109.46-59.27V62.19Z"/>
            <path class="cls-14" d="M718.71-1.99l-210.18,91.24V-1.99h210.18Z"/>
            <path class="cls-19" d="M601.9,650.6l63.23,33.83-.71,134.14-62.52-33.16v-134.82Z"/>
            <path class="cls-16" d="M589.18,643.76l12.72,6.82v134.8l-12.72,9.96v-151.58Z"/>
            <path class="cls-29" d="M16.78,144.65l491.74,266.27v19.88L10.57,160.67l6.22-16.02Z"/>
            <path class="cls-26" d="M10.48,160.57l498.04,270.22v6.34L10.48,167.72v-7.15Z"/>
            <path class="cls-26" d="M11.42,3.63l497.03,269.19v6.5L11.42,10.13V3.63Z"/>
            <path class="cls-26" d="M16.83-155.33L508.5,110.99v6.5L16.83-148.82v-6.5Z"/>
            <path class="cls-29" d="M16.77-13.39L508.45,252.92v19.9L11.45,3.64l5.33-17.03Z"/>
            <path class="cls-29" d="M16.86-175.23L508.53,91.09v19.9L16.86-155.33v-19.9Z"/>
            <path class="cls-7" d="M88.63,341.52l14.79-8.82,94.67,49.57v18.53l-109.46-59.28Z"/>
            <path class="cls-7" d="M316.42,464.88l14.79-8.82,94.67,49.57v18.53l-109.46-59.28Z"/>
            <path class="cls-7" d="M316.42,306.91l14.79-8.82,94.67,49.57v18.53l-109.46-59.28Z"/>
            <path class="cls-7" d="M316.42,148.89l14.79-8.82,94.67,49.57v18.53l-109.46-59.28Z"/>
            <path class="cls-7" d="M316.42-13.02l14.79-8.82,94.67,49.57v18.53l-109.46-59.28Z"/>
            <path class="cls-7" d="M88.64,183.53l14.79-8.82,94.67,49.57v18.53l-109.46-59.28Z"/>
            <path class="cls-21" d="M88.64,220.19l14.79,8v104.51l-14.79,8.82v-121.33Z"/>
            <path class="cls-21" d="M316.42,343.56l14.79,8v104.51l-14.79,8.82v-121.33Z"/>
            <path class="cls-2" d="M577.32,480.57l92.71,49.17v121.41l-92.71-49.22v-121.35Z"/>
            <path class="cls-7" d="M576.23,603.08l15.87-9.99,77.95,40.57v18.53l-93.82-49.11Z"/>
            <path class="cls-21" d="M576.26,479.96l15.85,8.43v104.71l-15.85,9.97v-123.1Z"/>
            <path class="cls-2" d="M577.34,324.53l92.71,49.17v121.41l-92.71-49.22v-121.35Z"/>
            <path class="cls-7" d="M576.26,447.03l15.87-9.99,77.95,40.57v18.53l-93.82-49.11Z"/>
            <path class="cls-21" d="M576.28,323.91l15.85,8.43v104.71l-15.85,9.97v-123.1Z"/>
            <path class="cls-2" d="M577.34,166.02l92.71,49.17v121.41l-92.71-49.22v-121.35Z"/>
            <path class="cls-7" d="M576.26,288.53l15.87-9.99,77.95,40.57v18.53l-93.82-49.11Z"/>
            <path class="cls-21" d="M576.28,165.4l15.85,8.43v104.71l-15.85,9.97v-123.1Z"/>
            <path class="cls-2" d="M743.93,567.32l92.72,49.17v121.41l-92.72-49.22v-121.35Z"/>
            <path class="cls-7" d="M742.85,689.83l15.87-9.99,77.95,40.57v18.53l-93.82-49.11Z"/>
            <path class="cls-21" d="M742.87,566.7l15.85,8.43v104.71l-15.85,9.97v-123.1Z"/>
            <path class="cls-2" d="M743.95,411.27l92.71,49.17v121.41l-92.71-49.22v-121.35Z"/>
            <path class="cls-7" d="M742.87,533.78l15.87-9.99,77.95,40.57v18.53l-93.82-49.11Z"/>
            <path class="cls-21" d="M742.89,410.65l15.85,8.43v104.71l-15.85,9.97v-123.1Z"/>
            <path class="cls-23" d="M1120.41,411.49l-92.72,49.17v121.41l92.72-49.22v-121.35Z"/>
            <path class="cls-7" d="M1121.49,534l-15.87-9.99-77.95,40.57v18.53l93.82-49.11Z"/>
            <path class="cls-21" d="M1121.47,410.87l-15.85,8.43v104.71l15.85,9.97v-123.1Z"/>
            <path class="cls-23" d="M1120.41,567.59l-92.72,49.17v121.41l92.72-49.22v-121.35Z"/>
            <path class="cls-7" d="M1121.49,690.1l-15.87-9.99-77.95,40.57v18.53l93.82-49.11Z"/>
            <path class="cls-21" d="M1121.47,566.98l-15.85,8.43v104.71l15.85,9.97v-123.1Z"/>
            <path class="cls-23" d="M1120.41,253.46l-92.72,49.17v121.4l92.72-49.22v-121.35Z"/>
            <path class="cls-7" d="M1121.49,375.97l-15.87-9.99-77.95,40.57v18.53l93.82-49.11Z"/>
            <path class="cls-21" d="M1121.47,252.85l-15.85,8.43v104.71l15.85,9.97v-123.1Z"/>
            <path class="cls-2" d="M744.06,253.46l92.71,49.17v121.4l-92.71-49.22v-121.35Z"/>
            <path class="cls-7" d="M742.98,375.97l15.87-9.99,77.95,40.57v18.53l-93.82-49.11Z"/>
            <path class="cls-21" d="M743,252.85l15.85,8.43v104.71l-15.85,9.97v-123.1Z"/>
            <path class="cls-21" d="M316.42,185.58l14.79,8v104.51l-14.79,8.82v-121.33Z"/>
            <path class="cls-21" d="M316.42,27.57l14.79,8v104.51l-14.79,8.82V27.57Z"/>
            <path class="cls-21" d="M88.64,62.2l14.79,8v104.51l-14.79,8.82V62.2Z"/>
            <path class="cls-2" d="M88.64-112.6l109.46,59.21V84.76L88.64,25.5V-112.6Z"/>
            <path class="cls-7" d="M88.64,25.49l14.79-8.82,94.67,49.57v18.53L88.64,25.49Z"/>
            <path class="cls-21" d="M88.64-112.59l14.79,8V16.67l-14.79,8.82V-112.59Z"/>
            <path class="cls-13" d="M218.87,437.92l53.75,29.46v139.15l-53.75-28.77v-139.84Z"/>
            <path class="cls-2" d="M229.67,469.23l32.24,17.46v92.51l-32.24-17.24v-92.74Z"/>
            <path class="cls-13" d="M272.62,466.92l55.29,29.48v139.66l-55.29-29.54v-139.6Z"/>
            <path class="cls-2" d="M282.67,499.61l32.24,17.46v90.19l-32.24-17.24v-90.42Z"/>
            <path class="cls-14" d="M206.17,429.42l12.72,6.7v141.62l-12.72,9.96v-158.28Z"/>
            <path class="cls-21" d="M229.66,469.23l1.64.86v92.76l-1.64-.88v-92.74Z"/>
            <path class="cls-21" d="M282.67,499.61l1.64.86v90.43l-1.64-.88v-90.41Z"/>
            <path class="cls-21" d="M231.3,561.18l30.63,16.39v1.68l-30.63-16.39v-1.68Z"/>
            <path class="cls-7" d="M654.96,738.2l3.35,1.81v24.14l-3.35-1.81v-24.13Z"/>
            <path class="cls-21" d="M284.32,589.22l30.63,16.39v1.68l-30.63-16.39v-1.68Z"/>
            <path class="cls-25" d="M275.21,531.3l3.35,1.81v24.14l-3.35-1.81v-24.13Z"/>
            <path class="cls-25" d="M265.53,526.06l3.35,1.81v24.12l-3.35-1.81v-24.13Z"/>
            <path class="cls-6" d="M206.18,587.69l12.7-9.94,108.93,58.31-.04,17.52-121.59-65.9Z"/>
            <path class="cls-26" d="M589.18,795.35l12.7-9.94,62.55,33.18v17.54l-75.25-40.79Z"/>
            <path class="cls-27" d="M234.84,836.77L-7.74,684.14v14.33l216.9,138.3h25.68Z"/>
            <path class="cls-22" d="M850.06-76.2L508.54,89.22l424.28,229.47,241.19-131.35-10.94-247-313.01-16.54Z"/>
            <path class="cls-30" d="M497.98,92.72l434.84,229.28v18.69L508.52,111.27l-10.54-18.56Z"/>
            <path class="cls-30" d="M497.36,580.07l435.46,231.05v18.69l-424.3-229.41-11.17-20.33Z"/>
            <path class="cls-24" d="M519.87,83.75l412.97,216.23v22.09L497.98,92.72l21.89-8.96Z"/>
            <path class="cls-24" d="M508.56,566.98l424.27,222.21v21.93l-435.46-231.04,11.19-13.11Z"/>
            <path class="cls-24" d="M508.55,411.44l424.27,222.61v21.93l-424.27-226.85v-17.69Z"/>
            <path class="cls-24" d="M899.63,814.6l33.19,17.58v21.93l-33.19-17.76v-21.75Z"/>
            <path class="cls-24" d="M899.63,742.89l33.19,17.58v21.93l-33.19-17.76v-21.75Z"/>
            <path class="cls-24" d="M899.63,586.29l33.19,17.58v21.93l-33.19-17.76v-21.75Z"/>
            <path class="cls-24" d="M899.63,428.95l33.2,17.58v21.93l-33.2-17.76v-21.75Z"/>
            <path class="cls-24" d="M899.63,718.38l33.19,17.58v21.93l-33.19-17.76v-21.75Z"/>
            <path class="cls-24" d="M899.63,561.78l33.19,17.58v21.93l-33.19-17.76v-21.75Z"/>
            <path class="cls-24" d="M899.63,404.43l33.2,17.58v21.93l-33.2-17.76v-21.75Z"/>
            <path class="cls-29" d="M16.8,302.6l491.67,266.32v19.9L6.7,301.93l10.1.67Z"/>
            <path class="cls-26" d="M6.76,301.93l501.72,278.04v19.9L6.76,321.83v-19.9Z"/>
            <path class="cls-24" d="M899.63,693.52l33.19,17.58v21.93l-33.19-17.76v-21.75Z"/>
            <path class="cls-24" d="M899.63,536.92l33.19,17.58v21.93l-33.19-17.76v-21.75Z"/>
            <path class="cls-24" d="M899.63,379.57l33.2,17.58v21.93l-33.2-17.76v-21.75Z"/>
            <path class="cls-24" d="M899.63,669l33.19,17.58v21.93l-33.19-17.76v-21.75Z"/>
            <path class="cls-24" d="M899.63,512.41l33.19,17.58v21.93l-33.19-17.76v-21.75Z"/>
            <path class="cls-24" d="M899.63,355.06l33.2,17.58v21.93l-33.2-17.76v-21.75Z"/>
            <path class="cls-24" d="M899.63,644.15l33.19,17.58v21.93l-33.19-17.76v-21.75Z"/>
            <path class="cls-24" d="M899.63,487.55l33.19,17.58v21.93l-33.19-17.76v-21.75Z"/>
            <path class="cls-24" d="M899.63,330.2l33.2,17.58v21.93l-33.2-17.76v-21.75Z"/>
            <path class="cls-24" d="M932.85,300l225-121.15v19.74l-225,123.32v-21.9Z"/>
            <path class="cls-24" d="M932.82,789.22l225-121.15v19.74l-225,123.32v-21.9Z"/>
            <path class="cls-12" d="M932.83,634.07l225-121.15v19.74l-225,123.32v-21.9Z"/>
            <path class="cls-12" d="M932.83,832.24l32.72-18.17v22.74l-32.72,17.34v-21.9Z"/>
            <path class="cls-12" d="M932.83,760.53l32.72-18.17v22.74l-32.72,17.34v-21.9Z"/>
            <path class="cls-12" d="M932.83,603.93l32.72-18.17v22.74l-32.72,17.34v-21.9Z"/>
            <path class="cls-12" d="M932.83,446.58l32.72-18.17v22.74l-32.72,17.34v-21.9Z"/>
            <path class="cls-12" d="M932.83,736.01l32.72-18.17v22.74l-32.72,17.34v-21.9Z"/>
            <path class="cls-12" d="M932.83,579.41l32.72-18.17v22.74l-32.72,17.34v-21.9Z"/>
            <path class="cls-12" d="M932.83,422.06l32.72-18.17v22.74l-32.72,17.34v-21.9Z"/>
            <path class="cls-12" d="M932.83,711.16l32.72-18.17v22.74l-32.72,17.34v-21.9Z"/>
            <path class="cls-12" d="M932.83,554.56l32.72-18.17v22.74l-32.72,17.34v-21.9Z"/>
            <path class="cls-12" d="M932.83,397.21l32.72-18.17v22.74l-32.72,17.34v-21.9Z"/>
            <path class="cls-12" d="M932.83,686.64l32.72-18.17v22.74l-32.72,17.34v-21.9Z"/>
            <path class="cls-12" d="M932.83,530.04l32.72-18.17v22.74l-32.72,17.34v-21.9Z"/>
            <path class="cls-12" d="M932.83,372.7l32.72-18.17v22.74l-32.72,17.34v-21.9Z"/>
            <path class="cls-12" d="M932.83,661.79l32.72-18.17v22.74l-32.72,17.34v-21.9Z"/>
            <path class="cls-12" d="M932.83,505.19l32.72-18.17v22.74l-32.72,17.34v-21.9Z"/>
            <path class="cls-12" d="M932.83,347.84l32.72-18.17v22.74l-32.72,17.34v-21.9Z"/>
            <path class="cls-12" d="M932.82,475.62l225-121.15v19.74l-225,123.32v-21.9Z"/>
            <path class="cls-12" d="M932.64,321.96l226.75-124.24v16.12l-226.75,126.81v-18.69Z"/>
            <path class="cls-12" d="M932.83,811.11l226.75-124.24v16.12l-226.75,126.81v-18.69Z"/>
            <path class="cls-29" d="M21.08,294.52v10.28l-14.4-2.91,14.4-7.37Z"/>
            <path class="cls-24" d="M508.54,252.99l424.27,222.61v21.93l-424.27-226.85v-17.69Z"/>
          </g>
        </g>
      </g>
    </g>
  </g>
</svg>