<?xml version="1.0" encoding="UTF-8"?>
<svg id="Cena_1_-_Frame_1" xmlns="http://www.w3.org/2000/svg" version="1.1" xmlns:xlink="http://www.w3.org/1999/xlink" viewBox="0 0 1920 1080">
  <!-- Generator: Adobe Illustrator 29.0.1, SVG Export Plug-In . SVG Version: 2.1.0 Build 192)  -->
  <defs>
    <style>
      .st0 {
        fill: #4d3d3d;
      }

      .st1 {
        fill: #a0aeb9;
      }

      .st2 {
        fill: #bbb4aa;
      }

      .st3 {
        fill: #fff;
      }

      .st4 {
        fill: #535353;
        stroke: #000;
      }

      .st5 {
        fill: #3b322b;
      }

      .st6 {
        fill: #85888d;
      }

      .st7 {
        fill: #7c6453;
      }

      .st8, .st9, .st10 {
        fill: none;
      }

      .st11 {
        fill: #534e48;
      }

      .st12 {
        fill: #7b685a;
      }

      .st13 {
        fill: #554b42;
      }

      .st14 {
        fill: #aab4be;
      }

      .st15 {
        fill: #574944;
      }

      .st16 {
        fill: #7f605e;
      }

      .st17 {
        clip-path: url(#clippath-1);
      }

      .st18 {
        fill: #bcb8ad;
      }

      .st19 {
        fill: #afb1b3;
      }

      .st20 {
        fill: #5f6567;
      }

      .st21 {
        fill: #50504e;
      }

      .st22 {
        fill: #8e969c;
      }

      .st9 {
        isolation: isolate;
        opacity: .5;
        stroke: #9d9a92;
      }

      .st23 {
        fill: #7d7872;
      }

      .st24 {
        fill: #aeaba9;
      }

      .st25 {
        fill: #a4a39e;
      }

      .st10 {
        stroke: #ada9a0;
      }

      .st26 {
        fill: #cbd0d4;
      }

      .st27 {
        clip-path: url(#clippath);
      }

      .st28 {
        fill: #d9d9d9;
      }

      .st29 {
        fill: #948a80;
      }
    </style>
    <clipPath id="clippath">
      <polygon class="st8" points="46.8 44 1212.4 44 1196.8 889.7 46.9 876.5 46.8 44"/>
    </clipPath>
    <clipPath id="clippath-1">
      <rect class="st8" x="39.2" y="42.4" width="1165.5" height="837.3"/>
    </clipPath>
  </defs>
  <polygon class="st19" points="59.3 61.3 1224.1 58.4 1209.1 899.6 59.5 893.8 59.3 61.3"/>
  <g class="st27">
    <g class="st17">
      <g>
        <rect class="st3" x="39.2" y="42.4" width="1165.5" height="837.3"/>
        <path class="st4" d="M-36.5,290.4V-59.5l430.2,212.5L-36.5,290.4Z"/>
        <path class="st28" d="M68.8,186.5l-5.3,2.2,5.3,2.9v-5.1Z"/>
        <path class="st2" d="M103.6,228.3l-156.1,76.1L1.4,557.3l208.9-17.2L103.6,228.3Z"/>
        <path class="st10" d="M68.1,530.8l-41.1-26"/>
        <path class="st10" d="M77.8,457.8l-44.9-29.6M93.5,403.8l-76.4-57.5M106.9,337l-76.4-57.5"/>
        <path class="st4" d="M302.9,891.6H34.6v-168.1l268.3,168.1h0Z"/>
        <path class="st14" d="M39,754.7v-12.2l218.6,133.5v7.4l-19.3-3.3-199.3-125.3h0Z"/>
        <path class="st26" d="M9.6,274.5l79.1-39.2-11.6-8.8-54.7,25.8-12.8,22.2h0Z"/>
        <path class="st7" d="M67.8,39.6h493.4l-1.7,760L67.8,531.3V39.6Z"/>
        <path class="st16" d="M555.3,133.2l424.3,229.5v669.5l-424.3-234.3V133.2Z"/>
        <path class="st0" d="M1217.6,233.1l-238,129.6v524.3h238V233.1Z"/>
        <path class="st2" d="M710.3,879.7L39.2,515.9v226.5l216.4,137.3h454.8Z"/>
        <path class="st1" d="M135.4,264.2l109.5,59.2v121.4l-109.5-59.3v-121.4Z"/>
        <path class="st1" d="M363.2,387.6l109.5,59.2v121.4l-109.5-59.3v-121.4h0Z"/>
        <path class="st9" d="M38.8,728l208.2-100.7M103.2,769.1l210.5-105.8M168.8,810.5l211-110M242.6,856.8l214.5-115.2M333.1,906.6l214.5-115.2M429.3,958.9l214.5-115.2M-35,687.6l206.8-100M-96.7,654.5l206.4-100.3M-138.5,631.6l206.4-100.3"/>
        <path class="st1" d="M363.2,229.6l109.5,59.2v121.4l-109.5-59.3v-121.4h0Z"/>
        <path class="st1" d="M363.2,71.6l109.5,59.2v121.4l-109.5-59.3s0-121.3,0-121.3Z"/>
        <path class="st1" d="M363.2-90.3l109.5,59.2v121.4l-109.5-59.3v-121.4h0Z"/>
        <path class="st1" d="M135.4,106.2l109.5,59.2v121.4l-109.5-59.3v-121.3Z"/>
        <path class="st13" d="M765.5,42l-210.2,91.2V42h210.2Z"/>
        <path class="st18" d="M648.7,694.6l63.2,33.8-.7,134.1-62.5-33.2v-134.8h0Z"/>
        <path class="st15" d="M636,687.8l12.7,6.8v134.8l-12.7,10v-151.6Z"/>
        <path class="st28" d="M63.6,188.7l491.7,266.3v19.9L57.3,204.7l6.2-16Z"/>
        <path class="st25" d="M57.2,204.6l498,270.2v6.3L57.2,211.8v-7.1Z"/>
        <path class="st25" d="M58.2,47.7l497,269.2v6.5L58.2,54.2v-6.5Z"/>
        <path class="st25" d="M63.6-111.3l491.7,266.3v6.5L63.6-104.8v-6.5h0Z"/>
        <path class="st28" d="M63.5,30.6l491.7,266.3v19.9L58.2,47.7s5.3-17,5.3-17Z"/>
        <path class="st28" d="M63.6-131.2l491.7,266.3v19.9L63.6-111.3v-19.9Z"/>
        <path class="st6" d="M135.4,385.6l14.8-8.8,94.7,49.6v18.5l-109.5-59.3Z"/>
        <path class="st6" d="M363.2,508.9l14.8-8.8,94.7,49.6v18.5l-109.5-59.3h0Z"/>
        <path class="st6" d="M363.2,351l14.8-8.8,94.7,49.6v18.5l-109.5-59.3h0Z"/>
        <path class="st6" d="M363.2,192.9l14.8-8.8,94.7,49.6v18.5l-109.5-59.3h0Z"/>
        <path class="st6" d="M363.2,31l14.8-8.8,94.7,49.6v18.5l-109.5-59.3h0Z"/>
        <path class="st6" d="M135.4,227.6l14.8-8.8,94.7,49.6v18.5l-109.5-59.3Z"/>
        <path class="st20" d="M135.4,264.2l14.8,8v104.5l-14.8,8.8v-121.3h0Z"/>
        <path class="st20" d="M363.2,387.6l14.8,8v104.5l-14.8,8.8v-121.3h0Z"/>
        <path class="st1" d="M624.1,524.6l92.7,49.2v121.4l-92.7-49.2v-121.3h0Z"/>
        <path class="st6" d="M623,647.1l15.9-10,78,40.6v18.5l-93.8-49.1h0Z"/>
        <path class="st20" d="M623,524l15.8,8.4v104.7l-15.8,10v-123.1h0Z"/>
        <path class="st1" d="M624.1,368.6l92.7,49.2v121.4l-92.7-49.2v-121.4h0Z"/>
        <path class="st6" d="M623,491.1l15.9-10,78,40.6v18.5l-93.8-49.1h0Z"/>
        <path class="st20" d="M623,368l15.8,8.4v104.7l-15.8,10v-123.1h0Z"/>
        <path class="st1" d="M624.1,210.1l92.7,49.2v121.4l-92.7-49.2v-121.4h0Z"/>
        <path class="st6" d="M623,332.6l15.9-10,78,40.6v18.5l-93.8-49.1Z"/>
        <path class="st20" d="M623,209.4l15.8,8.4v104.7l-15.8,10v-123.1h0Z"/>
        <path class="st1" d="M790.7,611.4l92.7,49.2v121.4l-92.7-49.2v-121.3h0Z"/>
        <path class="st6" d="M789.6,733.9l15.9-10,78,40.6v18.5l-93.8-49.1h0Z"/>
        <path class="st20" d="M789.6,610.7l15.8,8.4v104.7l-15.8,10v-123.1h0Z"/>
        <path class="st1" d="M790.7,455.3l92.7,49.2v121.4l-92.7-49.2v-121.4h0Z"/>
        <path class="st6" d="M789.6,577.8l15.9-10,78,40.6v18.5l-93.8-49.1h0Z"/>
        <path class="st20" d="M789.7,454.7l15.8,8.4v104.7l-15.8,10v-123.1h0Z"/>
        <path class="st22" d="M1167.2,455.5l-92.7,49.2v121.4l92.7-49.2v-121.4h0Z"/>
        <path class="st6" d="M1168.3,578l-15.9-10-77.9,40.6v18.5l93.8-49.1h0Z"/>
        <path class="st20" d="M1168.2,454.9l-15.8,8.4v104.7l15.8,10v-123.1h0Z"/>
        <path class="st22" d="M1167.2,611.6l-92.7,49.2v121.4l92.7-49.2v-121.3h0Z"/>
        <path class="st6" d="M1168.3,734.1l-15.9-10-77.9,40.6v18.5l93.8-49.1h0Z"/>
        <path class="st20" d="M1168.2,611l-15.8,8.4v104.7l15.8,10v-123.1h0Z"/>
        <path class="st22" d="M1167.2,297.5l-92.7,49.2v121.4l92.7-49.2v-121.4h0Z"/>
        <path class="st6" d="M1168.3,420l-15.9-10-77.9,40.6v18.5l93.8-49.1Z"/>
        <path class="st20" d="M1168.2,296.9l-15.8,8.4v104.7l15.8,10v-123.1h0Z"/>
        <path class="st1" d="M790.8,297.5l92.7,49.2v121.4l-92.7-49.2v-121.4h0Z"/>
        <path class="st6" d="M789.8,420l15.9-10,78,40.6v18.5l-93.8-49.1Z"/>
        <path class="st20" d="M789.8,296.9l15.8,8.4v104.7l-15.8,10v-123.1h0Z"/>
        <path class="st20" d="M363.2,229.6l14.8,8v104.5l-14.8,8.8v-121.3h0Z"/>
        <path class="st20" d="M363.2,71.6l14.8,8v104.5l-14.8,8.8v-121.3Z"/>
        <path class="st20" d="M135.4,106.2l14.8,8v104.5l-14.8,8.8v-121.3Z"/>
        <path class="st1" d="M135.4-68.6L244.9-9.3v138.1l-109.5-59.3V-68.6Z"/>
        <path class="st6" d="M135.4,69.5l14.8-8.8,94.7,49.6v18.5l-109.5-59.3Z"/>
        <path class="st20" d="M135.4-68.5l14.8,8V60.7l-14.8,8.8V-68.5Z"/>
        <path class="st12" d="M265.6,482l53.8,29.5v139.1l-53.8-28.8v-139.8h0Z"/>
        <path class="st1" d="M276.5,513.3l32.2,17.5v92.5l-32.2-17.2v-92.7h0Z"/>
        <path class="st12" d="M319.4,511l55.3,29.5v139.7l-55.3-29.5v-139.6Z"/>
        <path class="st1" d="M329.4,543.7l32.2,17.5v90.2l-32.2-17.2v-90.4h0Z"/>
        <path class="st13" d="M252.9,473.5l12.7,6.7v141.6l-12.7,10v-158.3h0Z"/>
        <path class="st20" d="M276.4,513.3l1.6.9v92.8l-1.6-.9v-92.7Z"/>
        <path class="st20" d="M329.4,543.7l1.6.9v90.4l-1.6-.9v-90.4Z"/>
        <path class="st20" d="M278.1,605.2l30.6,16.4v1.7l-30.6-16.4v-1.7Z"/>
        <path class="st6" d="M701.7,782.2l3.3,1.8v24.1l-3.3-1.8v-24.1h0Z"/>
        <path class="st20" d="M331.1,633.3l30.6,16.4v1.7l-30.6-16.4v-1.7Z"/>
        <path class="st24" d="M322,575.3l3.4,1.8v24.1l-3.4-1.8v-24.1h0Z"/>
        <path class="st24" d="M312.3,570.1l3.4,1.8v24.1l-3.4-1.8v-24.1h0Z"/>
        <path class="st5" d="M252.9,631.7l12.7-9.9,108.9,58.3v17.5s-121.6-65.9-121.6-65.9h0Z"/>
        <path class="st25" d="M636,839.4l12.7-9.9,62.5,33.2v17.5l-75.2-40.8h0Z"/>
        <path class="st26" d="M281.6,880.8l-242.6-152.6v14.3l216.9,138.3h25.7Z"/>
        <path class="st21" d="M896.8-32.2l-341.5,165.4,424.3,229.5,241.2-131.4-10.9-247-313-16.5h0Z"/>
        <path class="st29" d="M544.8,136.8l434.8,229.3v18.7l-424.3-229.4-10.5-18.6h0Z"/>
        <path class="st29" d="M544.1,624.1l435.5,231v18.7l-424.3-229.4-11.2-20.3h0Z"/>
        <path class="st23" d="M566.6,127.8l413,216.2v22.1l-434.9-229.4,21.9-9h0Z"/>
        <path class="st23" d="M555.3,611l424.3,222.2v21.9l-435.5-231,11.2-13.1h0Z"/>
        <path class="st23" d="M555.3,455.5l424.3,222.6v21.9l-424.3-226.9v-17.7h0Z"/>
        <path class="st23" d="M946.4,858.6l33.2,17.6v21.9l-33.2-17.8v-21.8Z"/>
        <path class="st23" d="M946.4,786.9l33.2,17.6v21.9l-33.2-17.8v-21.8Z"/>
        <path class="st23" d="M946.4,630.3l33.2,17.6v21.9l-33.2-17.8v-21.8Z"/>
        <path class="st23" d="M946.4,473l33.2,17.6v21.9l-33.2-17.8v-21.8Z"/>
        <path class="st23" d="M946.4,762.4l33.2,17.6v21.9l-33.2-17.8v-21.8Z"/>
        <path class="st23" d="M946.4,605.8l33.2,17.6v21.9l-33.2-17.8v-21.8Z"/>
        <path class="st23" d="M946.4,448.5l33.2,17.6v21.9l-33.2-17.8v-21.8h0Z"/>
        <path class="st28" d="M63.6,346.6l491.7,266.3v19.9L53.5,346l10.1.7Z"/>
        <path class="st25" d="M53.5,346l501.7,278v19.9L53.5,365.9v-19.9Z"/>
        <path class="st23" d="M946.4,737.6l33.2,17.6v21.9l-33.2-17.8v-21.8Z"/>
        <path class="st23" d="M946.4,581l33.2,17.6v21.9l-33.2-17.8v-21.8Z"/>
        <path class="st23" d="M946.4,423.6l33.2,17.6v21.9l-33.2-17.8v-21.8h0Z"/>
        <path class="st23" d="M946.4,713l33.2,17.6v21.9l-33.2-17.8v-21.8Z"/>
        <path class="st23" d="M946.4,556.5l33.2,17.6v21.9l-33.2-17.8v-21.8Z"/>
        <path class="st23" d="M946.4,399.1l33.2,17.6v21.9l-33.2-17.8v-21.8h0Z"/>
        <path class="st23" d="M946.4,688.2l33.2,17.6v21.9l-33.2-17.8v-21.8Z"/>
        <path class="st23" d="M946.4,531.6l33.2,17.6v21.9l-33.2-17.8v-21.8Z"/>
        <path class="st23" d="M946.4,374.2l33.2,17.6v21.9l-33.2-17.8v-21.8h0Z"/>
        <path class="st23" d="M979.6,344l225-121.1v19.7l-225,123.3v-21.9h0Z"/>
        <path class="st23" d="M979.6,833.3l225-121.2v19.7l-225,123.3v-21.9h0Z"/>
        <path class="st11" d="M979.6,678.1l225-121.2v19.7l-225,123.3v-21.9h0Z"/>
        <path class="st11" d="M979.6,876.3l32.7-18.2v22.7l-32.7,17.3v-21.9h0Z"/>
        <path class="st11" d="M979.6,804.6l32.7-18.2v22.7l-32.7,17.3v-21.9h0Z"/>
        <path class="st11" d="M979.6,648l32.7-18.2v22.7l-32.7,17.3v-21.9h0Z"/>
        <path class="st11" d="M979.6,490.6l32.7-18.2v22.7l-32.7,17.3v-21.9h0Z"/>
        <path class="st11" d="M979.6,780l32.7-18.2v22.7l-32.7,17.3v-21.9h0Z"/>
        <path class="st11" d="M979.6,623.5l32.7-18.2v22.7l-32.7,17.3v-21.9h0Z"/>
        <path class="st11" d="M979.6,466.1l32.7-18.2v22.7l-32.7,17.3v-21.9h0Z"/>
        <path class="st11" d="M979.6,755.2l32.7-18.2v22.7l-32.7,17.3v-21.9h0Z"/>
        <path class="st11" d="M979.6,598.6l32.7-18.2v22.7l-32.7,17.3v-21.9h0Z"/>
        <path class="st11" d="M979.6,441.2l32.7-18.2v22.7l-32.7,17.3v-21.9h0Z"/>
        <path class="st11" d="M979.6,730.7l32.7-18.2v22.7l-32.7,17.3v-21.9h0Z"/>
        <path class="st11" d="M979.6,574.1l32.7-18.2v22.7l-32.7,17.3v-21.9h0Z"/>
        <path class="st11" d="M979.6,416.7l32.7-18.2v22.7l-32.7,17.3v-21.9h0Z"/>
        <path class="st11" d="M979.6,705.8l32.7-18.2v22.7l-32.7,17.3v-21.9h0Z"/>
        <path class="st11" d="M979.6,549.2l32.7-18.2v22.7l-32.7,17.3v-21.9h0Z"/>
        <path class="st11" d="M979.6,391.9l32.7-18.2v22.7l-32.7,17.3v-21.9h0Z"/>
        <path class="st11" d="M979.6,519.7l225-121.1v19.7l-225,123.3v-21.9h0Z"/>
        <path class="st11" d="M979.4,366l226.7-124.2v16.1l-226.8,126.8v-18.7h0Z"/>
        <path class="st11" d="M979.6,855.2l226.8-124.2v16.1l-226.8,126.8v-18.7Z"/>
        <path class="st28" d="M67.8,338.6v10.3l-14.4-2.9,14.4-7.4Z"/>
        <path class="st23" d="M555.3,297l424.3,222.6v21.9l-424.3-226.9v-17.7h0Z"/>
      </g>
    </g>
  </g>
</svg>