<?xml version="1.0" encoding="UTF-8"?>
<svg id="Camada_2" data-name="Camada 2" xmlns="http://www.w3.org/2000/svg" xmlns:xlink="http://www.w3.org/1999/xlink" viewBox="0 0 1920 918">
  <defs>
    <style>
      .cls-1 {
        opacity: .6;
      }

      .cls-2 {
        fill: #7c7971;
      }

      .cls-3 {
        fill: #938f85;
      }

      .cls-4 {
        fill: #848280;
      }

      .cls-5 {
        fill: #725844;
      }

      .cls-6 {
        fill: #261a17;
      }

      .cls-7 {
        fill: #605a5c;
      }

      .cls-8 {
        clip-path: url(#clippath-4);
      }

      .cls-9 {
        fill: #565b66;
      }

      .cls-10 {
        fill: #4f3c2f;
      }

      .cls-11 {
        fill: #fff;
      }

      .cls-12 {
        opacity: .25;
      }

      .cls-13 {
        fill: #a99363;
      }

      .cls-14 {
        fill: #fdc901;
      }

      .cls-15 {
        fill: #726f68;
      }

      .cls-16, .cls-17, .cls-18 {
        fill: none;
      }

      .cls-19 {
        fill: #777772;
      }

      .cls-20 {
        clip-path: url(#clippath-1);
      }

      .cls-21 {
        fill: #5d4038;
      }

      .cls-22 {
        fill: #c9c6c0;
      }

      .cls-23 {
        fill: #afb1b3;
      }

      .cls-24 {
        clip-path: url(#clippath-5);
      }

      .cls-17 {
        stroke: #1d1e1c;
      }

      .cls-17, .cls-18 {
        stroke-miterlimit: 10;
      }

      .cls-25 {
        fill: #0b0e0d;
      }

      .cls-26 {
        fill: #6d737b;
      }

      .cls-27 {
        fill: #734e42;
      }

      .cls-28 {
        clip-path: url(#clippath-3);
      }

      .cls-29 {
        fill: #aaa7a3;
      }

      .cls-30 {
        fill: #956754;
      }

      .cls-31 {
        fill: #9e9c98;
      }

      .cls-32 {
        opacity: .43;
      }

      .cls-33 {
        fill: #8c8c89;
      }

      .cls-34 {
        fill: #009340;
      }

      .cls-35 {
        fill: #98755b;
      }

      .cls-36 {
        fill: #33231f;
      }

      .cls-37 {
        fill: #2e2c7c;
      }

      .cls-38 {
        fill: #bcbbb2;
      }

      .cls-39 {
        fill: #a8a6a3;
      }

      .cls-40 {
        fill: #6f6d69;
      }

      .cls-41 {
        clip-path: url(#clippath-2);
      }

      .cls-42 {
        fill: #c1bebc;
      }

      .cls-43 {
        fill: #a09d9a;
      }

      .cls-44 {
        fill: #666663;
      }

      .cls-45 {
        clip-path: url(#clippath);
      }

      .cls-46 {
        fill: #5d6862;
      }

      .cls-18 {
        stroke: #aeb1b2;
      }
    </style>
    <clipPath id="clippath">
      <polygon class="cls-16" points="46.41 847.23 923.8 842.59 910.39 52.1 46.77 54.18 46.41 847.23"/>
    </clipPath>
    <clipPath id="clippath-1">
      <polygon class="cls-16" points="970.81 837.49 1879.83 835.98 1873.23 46.71 957.06 52.1 970.81 837.49"/>
    </clipPath>
    <clipPath id="clippath-2">
      <path class="cls-16" d="M1362.35,581.12l345.81-11.77s5.01-3.6,5.01-8.39,3.32-36.73.71-68.78c-1.14-3.92-5.72-10.95-5.72-10.95l-341.72,9.32-5.89,6.38.98,22.56.82,61.64Z"/>
    </clipPath>
    <clipPath id="clippath-3">
      <path class="cls-16" d="M1326.21,519.48l1.96-72.65s1.8-7.06,12.26-7.06h32.43l289.82-4.19h11.46l34.01,45.64-332.86,11.37c-2.57.09-5.11.74-7.31,2.06-2.49,1.49-4.99,3.99-4.99,7.99,0,8.01-.65,78.48-.65,78.48l-36.13-61.64Z"/>
    </clipPath>
    <clipPath id="clippath-4">
      <path class="cls-16" d="M1429.09,246.43c-2.17.19-4.15,1.42-4.83,3.3-.06.17-.12.36-.16.55-1.42,4.1-2.83,64.51-2.69,86.02.13,18.9,1.83,63.74,4.21,75.51,1.04,8.2,6.05,9.34,8.98,9.83,8.18,1.39,10.41,1.5,30.6,1.76,0,0,81.88.16,165.78-5.27,16.49-1.92,21.16-1.82,24.45-5.51,1.25-1.4,1.96-3.13,2.2-4.92.98-7.15,3.2-25.91,2.66-75.44-.69-63.42-2.88-73.14-3.29-76.85-1.6-7.63-4.38-10.57-18.02-12.63-18.75-1.97-94.67-6.45-209.89,3.64Z"/>
    </clipPath>
    <clipPath id="clippath-5">
      <path class="cls-16" d="M1544.37,301.8c20.3-.28,37.31,14.9,38.25,33.9.94,19-14.51,35.03-34.79,35.82-20.58.8-38.28-14.36-39.25-33.87-.97-19.52,15.18-35.57,35.79-35.85Z"/>
    </clipPath>
  </defs>
  <g id="Cena_1c" data-name="Cena 1c">
    <rect class="cls-16" width="1920" height="918"/>
  </g>
  <g id="Cena_3B" data-name="Cena 3B">
    <polygon class="cls-23" points="56.87 858.91 937.03 856.1 922.1 69.2 56.87 74.87 56.87 858.91"/>
    <polygon class="cls-23" points="984.42 854.39 1893.44 852.88 1886.83 63.61 970.67 69 984.42 854.39"/>
    <g class="cls-45">
      <polygon class="cls-5" points="29.09 271.24 46.77 859.22 945.98 872.9 931.36 233.14 29.09 271.24"/>
      <polygon class="cls-10" points="170.28 693.29 -47.25 397.33 80.02 325.27 498.34 222.09 641.85 259.5 748.72 327.24 170.28 693.29"/>
      <g>
        <path class="cls-3" d="M871.35,586.8l-4.25,6.37h0s-5.52,8.28-5.52,8.28l-30.27-3.6-.99.08-93.44,7.8-100.11,10.01-87.9,6.34-61.53,6.34-93.76,15.14-132.33,20.41h0s-13.19,2.04-13.19,2.04l-17.77-18.18-23.44,36.44-16.67-2.02-28.99-205.4-2.3-122.67-.68-36.66c.72.25,35.4,12.93,35.4,12.93l51.79,10.72,39.05,8.09,167.86-15.88,7.08,7.93,13.92-12.21,36.14-2.92v33.21l23.68-34.43,204-15.47,5.25-.4,20.03,76.92,30.52,49.32,4.39,12.82,10.98,10.44-1.1,23.08,13.37,17.46,50.79,87.65Z"/>
        <polyline class="cls-40" points="830.31 597.93 830.31 597.92 803.71 568.98 781.93 551.58 733.09 562.38 714.04 564.59 602.71 574.83 434.71 592.17 308.72 601.2 246.52 609.14 248.72 629.47 261.24 663.98"/>
        <polygon class="cls-40" points="479.88 375.53 486.29 394.21 493.01 410.94 502.16 445.12 533.91 441.95 581.52 437.31 727.9 423.27 714.71 392.75 701.04 349.53 663.44 352.46 657.09 359.05 646.83 354.9 489.1 371.75 479.88 375.53"/>
        <polygon class="cls-40" points="504.3 452.63 509.31 462.64 554.84 457.64 605.88 456.05 663.74 449.52 697.25 447.14 735.53 442.01 729.85 430.29 709.89 432.85 699.09 432.3 680.77 436.7 630.23 439.99 580.6 445.12 504.3 452.63"/>
        <polygon class="cls-40" points="513.52 471.06 517.91 480.83 551.36 475.95 584.82 473.26 690.78 466.43 743.28 461.3 737.42 451.04 693.23 453.24 645.86 458.61 594.83 462.64 539.4 465.94 513.52 471.06"/>
        <polygon class="cls-40" points="522.67 488.89 528.05 500.61 578.1 494.75 633.04 488.89 699.94 480.83 752.44 477.66 746.33 465.94 646.47 476.44 581.52 480.83 522.67 488.89"/>
        <polygon class="cls-40" points="530.92 508.06 534.7 517.21 567.54 514.77 603.89 510.62 677.9 503.78 759.7 496.7 754.57 485.23 681.32 491.57 603.89 498.17 557.77 502.32 530.92 508.06"/>
        <polygon class="cls-40" points="535.8 523.38 540.01 536.2 585.06 531.62 651.17 525.21 708.49 520.08 753.54 513.31 765.99 512.39 761.41 502.13 697.13 508.54 654.65 514.4 599.34 517.21 560.15 521.55 535.8 523.38"/>
        <polygon class="cls-40" points="543.12 542.42 546.42 554.51 601.36 551.58 656.6 545.66 679.06 542.42 720.57 540.53 753.78 531.5 771.36 530.27 768.92 520.75 721.31 527.34 655.62 532.23 592.14 538.82 543.12 542.42"/>
        <polygon class="cls-40" points="209.04 376.94 209.04 385.73 268.13 390.86 299.14 394.03 383.13 390.86 458.21 388.17 454.31 379.14 369.34 382.55 292.67 385.48 209.04 376.94"/>
        <polygon class="cls-40" points="393.27 394.03 394.73 402.09 461.63 399.65 458.21 391.59 393.27 394.03"/>
        <polygon class="cls-40" points="209.59 405.08 210.32 416.55 245.24 419 321.66 417.04 465.97 410.94 462.79 405.08 390.03 407.28 330.94 409.23 256.96 410.69 209.59 405.08"/>
        <polygon class="cls-40" points="311.71 421.44 311.71 430.47 408.65 425.95 469.2 424.12 467 415.82 311.71 421.44"/>
        <polygon class="cls-40" points="209.59 437.67 209.59 447.69 322.09 444.02 397.78 442.68 474.7 437.67 471.52 428.4 362.87 435.23 290.35 436.94 209.59 437.67"/>
        <polygon class="cls-40" points="209.59 452.08 212.46 462.58 286.2 460.38 376.54 457.33 458.21 452.08 454.67 445.12 332.59 449.64 258.85 451.59 209.59 452.08"/>
        <polygon class="cls-40" points="213.92 469.42 217.34 479.92 307.93 476.25 384.6 470.88 470.79 467.22 483.24 464.78 481.53 456.72 317.94 468.32 213.92 469.42"/>
        <polygon class="cls-40" points="217.22 483.94 220.33 493.65 291.69 489.99 385.21 485.59 448.2 479.92 485.81 475.34 483.24 470.7 217.22 483.94"/>
        <polygon class="cls-40" points="333.9 496.7 337.78 504.76 400.16 502.01 396.32 492.49 333.9 496.7"/>
        <polygon class="cls-40" points="226.56 521.06 228.94 532.05 332.77 523.8 406.21 519.15 403.52 509.14 226.56 521.06"/>
        <polygon class="cls-40" points="396.32 492.49 424.52 572.82 519.5 561.35 489.47 483.27 396.32 492.49"/>
        <polygon class="cls-40" points="231.14 540.38 233.21 549.41 299.08 546.12 350.11 541.96 412.04 537.26 408.17 526.26 328.62 532.05 278.81 534.4 253.66 536.1 231.14 540.38"/>
        <polygon class="cls-40" points="235.35 555.88 236.82 568.46 295.54 564.43 370.07 558.02 417.63 553.2 413.93 542.67 349.38 549.41 300.12 551.58 235.35 555.88"/>
        <polygon class="cls-40" points="238.4 577.06 240.6 586.95 298.83 582.01 392.05 576.15 423.76 570.64 421.2 563.38 333.9 570.1 238.4 577.06"/>
        <polygon class="cls-40" points="182.36 684.28 182.36 693.29 170.28 693.29 165.15 642.38 162.95 604.29 145.74 523.72 131.09 468.32 119.74 428.39 113.51 405.08 100.94 379.53 107.03 372.94 109.24 359.51 125.23 391.59 155.63 519.31 160.02 553.38 169.18 586.95 172.11 622.6 182.36 684.28"/>
        <polygon class="cls-2" points="182.36 693.29 182.36 684.28 172.11 622.6 169.18 586.95 160.02 553.38 155.63 519.31 125.23 391.59 109.24 359.51 158.88 354.2 161.18 476.87 190.18 682.27 206.85 684.28 182.36 693.29"/>
        <polygon class="cls-2" points="737.12 309.52 533.12 324.99 509.43 359.42 509.43 326.22 473.29 329.14 459.38 341.35 452.3 333.41 284.43 349.29 245.39 341.2 725.76 279.96 737.12 309.52"/>
        <polygon class="cls-15" points="867.1 593.18 853.27 635.96 688.95 653.78 559.31 664 367.03 693.29 182.36 693.29 206.85 684.28 230.28 647.85 248.05 666.03 261.24 664 261.24 663.98 393.57 643.57 487.34 628.43 548.87 622.08 636.76 615.74 736.87 605.73 830.31 597.92 831.31 597.84 861.58 601.45 867.1 593.18"/>
        <line class="cls-18" x1="867.1" y1="593.18" x2="867.1" y2="593.17"/>
      </g>
      <polygon class="cls-46" points="29.09 271.24 46.77 44.04 927.11 24.42 931.36 233.14 29.09 271.24"/>
    </g>
    <g class="cls-20">
      <polygon class="cls-9" points="917.01 454.02 1904.78 139.4 1904.78 641.77 917.01 641.77 917.01 454.02"/>
      <polygon class="cls-26" points="917.01 395.18 1904.78 80.56 1904.78 139.4 917.01 454.02 917.01 395.18"/>
      <polygon class="cls-7" points="917.01 26.19 1904.78 15.88 1904.78 81.92 917.01 396.54 917.01 26.19"/>
      <g>
        <g>
          <polygon class="cls-6" points="1077.03 652.08 1889.03 778.01 1889.03 874.36 1077.03 869.79 1077.03 652.08"/>
          <path class="cls-36" d="M1138.71,662.38c-.44,2.27,0,207.77,0,207.77h-208.85v-239.74l208.85,31.96Z"/>
          <polygon class="cls-27" points="937.72 635 1889.03 781.06 1889.03 737.89 964.3 608.32 937.72 625.19 937.72 635"/>
          <polygon class="cls-21" points="917.01 630.42 937.72 635.18 937.72 870.15 917.01 870.15 917.01 630.42"/>
          <polygon class="cls-30" points="917.01 630.42 945.35 605.65 970.24 609.16 937.72 635 917.01 630.42"/>
          <polygon class="cls-35" points="945.35 605.65 1250.77 499.62 1889.03 569.81 1889.03 737.89 945.35 605.65"/>
          <polygon class="cls-30" points="945.35 605.65 1250.77 499.62 1267.88 501.5 970.24 609.16 945.35 605.65"/>
          <polygon class="cls-21" points="937.72 635 1889.03 781.06 1889.03 810.2 937.72 663.98 937.72 635"/>
        </g>
        <g>
          <polygon class="cls-12" points="945.35 605.65 917.01 630.42 937.72 635 981.81 641.77 1378.97 610.99 1353.6 510.93 1250.77 499.62 1018.72 580.17 945.35 605.65"/>
          <polygon class="cls-29" points="1378.97 570.9 1703.03 564.99 1701.45 598.51 1378.97 610.99 1378.97 570.9"/>
          <polygon class="cls-4" points="1328.86 548.46 1328.86 521.83 1378.97 569.18 1378.97 610.99 1328.86 548.46"/>
          <path class="cls-22" d="M1371.91,580.8l332.28-11.31c3.71-.13,7.13-2.34,8.45-5.81.32-.84.52-1.76.52-2.71,0-4.8,1.71-26.75.71-68.78-1.14-3.92-5.72-10.95-5.72-10.95l-341.72,9.32-5.89,6.38.98,22.56.69,52.07c.07,5.25,4.44,9.43,9.69,9.25Z"/>
          <g class="cls-41">
            <polygon class="cls-29" points="1360.4 505.09 1717.23 491.99 1715.78 480.41 1713.17 477.35 1356.95 487.11 1360.4 505.09"/>
          </g>
          <path class="cls-43" d="M1326.31,519.88l1.86-73.05s1.8-7.06,12.26-7.06h32.43l289.82-4.19h11.46l34.01,45.64-332.86,11.37c-2.57.09-5.11.74-7.31,2.06-2.49,1.49-4.99,3.99-4.99,7.99,0,8.01-.72,69.83-.72,69.83l-33.72-45.49c-1.52-2.05-2.31-4.55-2.24-7.1Z"/>
          <g class="cls-28">
            <polygon class="cls-4" points="1328.07 446.56 1366.85 511.46 1380.33 500.19 1338.15 436.91 1328.67 441 1328.07 446.56"/>
          </g>
          <polygon class="cls-4" points="1391.94 487.11 1368.76 458.32 1368.76 445.89 1391.83 461.98 1391.94 487.11"/>
          <polygon class="cls-22" points="1391.94 487.11 1391.94 462.09 1682.65 453.7 1682.65 478.55 1391.94 487.11"/>
          <polygon class="cls-13" points="1391.83 469.94 1682.65 461 1682.65 454.02 1391.83 461.98 1391.83 469.94"/>
          <path class="cls-4" d="M1646.17,477.57l-16.54.54c-1.95.06-3.56-1.5-3.56-3.45v-10.39c0-1.87,1.48-3.4,3.35-3.45l16.54-.48c1.94-.06,3.55,1.5,3.55,3.45v10.33c0,1.86-1.48,3.39-3.34,3.45Z"/>
          <polygon class="cls-4" points="1391.83 469.94 1682.65 461 1682.65 454.02 1391.83 461.98 1391.83 469.94"/>
          <polygon class="cls-22" points="1359.41 223.05 1375.26 221.4 1375.26 228.29 1359.35 228.29 1359.41 223.05"/>
          <polygon class="cls-43" points="1359.41 223.05 1367.09 226.98 1371.18 194.41 1382.78 209.81 1382.78 464.55 1367.99 449.75 1356.95 409.77 1359.41 223.05"/>
          <polygon class="cls-22" points="1371.18 194.41 1681.01 189.7 1699 205.72 1382.78 209.81 1371.18 194.41"/>
          <path class="cls-22" d="M1677.35,227.56l-.81,207.04-272.2,7.77v-211.28l273.01-3.53M1699,205.72l-316.21,4.09v254.74l315.23-8.99.98-249.83h0Z"/>
          <polygon class="cls-42" points="1404.33 226.98 1404.33 442.47 1411.21 435.59 1411.21 234.01 1404.33 226.98"/>
          <polygon class="cls-42" points="1678.72 436.79 1678.72 221.4 1671.84 228.29 1671.84 429.87 1678.72 436.79"/>
          <polygon class="cls-39" points="1404.33 442.47 1678.72 436.79 1671.84 429.9 1411.21 435.59 1404.33 442.47"/>
          <polygon class="cls-43" points="1404.33 226.98 1678.72 221.4 1671.84 228.29 1411.21 234.01 1404.33 226.98"/>
          <polygon class="cls-44" points="1411.21 435.59 1432.88 413.92 1433.86 256.33 1411.21 234.01 1411.21 435.59"/>
          <polygon class="cls-38" points="1671.84 429.88 1649.94 407.99 1645.83 253.98 1671.84 228.31 1671.84 429.88"/>
          <polygon class="cls-33" points="1411.21 435.59 1430.3 416.5 1649.29 406.99 1671.84 429.87 1411.21 435.59"/>
          <polygon class="cls-19" points="1671.84 228.29 1644.8 255.02 1432.68 255.15 1411.21 234.01 1671.84 228.29"/>
          <g>
            <path class="cls-17" d="M1429.09,246.43c-2.17.19-4.15,1.42-4.83,3.3-.06.17-.12.36-.16.55-1.42,4.1-2.83,64.51-2.69,86.02.13,18.9,1.83,63.74,4.21,75.51,1.04,8.2,6.05,9.34,8.98,9.83,8.18,1.39,10.41,1.5,30.6,1.76,0,0,81.88.16,165.78-5.27,16.49-1.92,21.16-1.82,24.45-5.51,1.25-1.4,1.96-3.13,2.2-4.92.98-7.15,3.2-25.91,2.66-75.44-.69-63.42-2.88-73.14-3.29-76.85-1.6-7.63-4.38-10.57-18.02-12.63-18.75-1.97-94.67-6.45-209.89,3.64Z"/>
            <g class="cls-8">
              <g id="_0" data-name="0">
                <g>
                  <path class="cls-37" d="M1399.48,270.36h280.46l4.74,127.43-278.57,6.15-6.63-133.58Z"/>
                  <path class="cls-14" d="M1455.43,339.05l93.29,50.41,82.44-55.03-87.68-50.55-88.05,55.18Z"/>
                  <path class="cls-34" d="M1544.37,301.8c20.3-.28,37.31,14.9,38.25,33.9.94,19-14.51,35.03-34.79,35.82-20.58.8-38.28-14.36-39.25-33.87-.97-19.52,15.18-35.57,35.79-35.85Z"/>
                  <g class="cls-24">
                    <path class="cls-11" d="M1433.99,412.36c-2.42-48.73,38.68-89.12,90.04-90.2,49.53-1.03,90.24,35.14,92.5,80.76l-5.04.26c-2.13-43.02-40.56-77.06-87.22-76-48.29,1.1-86.84,39.11-84.57,84.88l-5.72.3Z"/>
                  </g>
                  <g id="a">
                    <g id="s">
                      <g id="c">
                        <path id="t" class="cls-11" d="M1515.16,329.62l-.43,1.45.78.21"/>
                        <path id="t-2" data-name="t" class="cls-11" d="M1515.16,329.62l.57,1.42-.76.25"/>
                      </g>
                      <g id="c-2" data-name="c">
                        <path id="t-3" data-name="t" class="cls-11" d="M1516.75,330.63l-1.62.04.04.76"/>
                        <path id="t-4" data-name="t" class="cls-11" d="M1516.75,330.63l-1.27.92-.51-.6"/>
                      </g>
                      <g id="c-3" data-name="c">
                        <path id="t-5" data-name="t" class="cls-11" d="M1513.67,330.7l1.36.86.45-.62"/>
                        <path id="t-6" data-name="t" class="cls-11" d="M1513.67,330.7l1.62-.04.04.76"/>
                      </g>
                      <g id="c-4" data-name="c">
                        <path id="t-7" data-name="t" class="cls-11" d="M1516.25,332.33l-.57-1.42-.76.25"/>
                        <path id="t-8" data-name="t" class="cls-11" d="M1516.25,332.33l-1.36-.86.45-.62"/>
                      </g>
                      <g id="c-5" data-name="c">
                        <path id="t-9" data-name="t" class="cls-11" d="M1514.34,332.38l1.27-.92-.51-.6"/>
                        <path id="t-10" data-name="t" class="cls-11" d="M1514.34,332.38l.43-1.45.78.21"/>
                      </g>
                    </g>
                  </g>
                  <g id="a-2" data-name="a">
                    <g id="s-2" data-name="s">
                      <g id="c-6" data-name="c">
                        <path id="t-11" data-name="t" class="cls-11" d="M1519.23,344.35l-.43,1.45.78.21"/>
                        <path id="t-12" data-name="t" class="cls-11" d="M1519.23,344.35l.57,1.42-.76.26"/>
                      </g>
                      <g id="c-7" data-name="c">
                        <path id="t-13" data-name="t" class="cls-11" d="M1520.82,345.34l-1.62.05.04.75"/>
                        <path id="t-14" data-name="t" class="cls-11" d="M1520.82,345.34l-1.26.93-.51-.6"/>
                      </g>
                      <g id="c-8" data-name="c">
                        <path id="t-15" data-name="t" class="cls-11" d="M1517.75,345.43l1.35.85.45-.62"/>
                        <path id="t-16" data-name="t" class="cls-11" d="M1517.75,345.43l1.62-.05.04.75"/>
                      </g>
                      <g id="c-9" data-name="c">
                        <path id="t-17" data-name="t" class="cls-11" d="M1520.32,347.05l-.57-1.42-.76.26"/>
                        <path id="t-18" data-name="t" class="cls-11" d="M1520.32,347.05l-1.35-.85.45-.62"/>
                      </g>
                      <g id="c-10" data-name="c">
                        <path id="t-19" data-name="t" class="cls-11" d="M1518.42,347.1l1.26-.93-.51-.6"/>
                        <path id="t-20" data-name="t" class="cls-11" d="M1518.42,347.1l.43-1.45.78.21"/>
                      </g>
                    </g>
                  </g>
                  <g id="b">
                    <g id="s-3" data-name="s">
                      <g id="c-11" data-name="c">
                        <path id="t-21" data-name="t" class="cls-11" d="M1514.77,347.9l-.36,1.21.65.17"/>
                        <path id="t-22" data-name="t" class="cls-11" d="M1514.77,347.9l.48,1.19-.63.21"/>
                      </g>
                      <g id="c-12" data-name="c">
                        <path id="t-23" data-name="t" class="cls-11" d="M1516.1,348.73l-1.35.04.03.63"/>
                        <path id="t-24" data-name="t" class="cls-11" d="M1516.1,348.73l-1.06.77-.42-.5"/>
                      </g>
                      <g id="c-13" data-name="c">
                        <path id="t-25" data-name="t" class="cls-11" d="M1513.53,348.81l1.13.71.37-.52"/>
                        <path id="t-26" data-name="t" class="cls-11" d="M1513.53,348.81l1.35-.04.03.63"/>
                      </g>
                      <g id="c-14" data-name="c">
                        <path id="t-27" data-name="t" class="cls-11" d="M1515.68,350.15l-.48-1.18-.63.21"/>
                        <path id="t-28" data-name="t" class="cls-11" d="M1515.68,350.15l-1.13-.71.37-.52"/>
                      </g>
                      <g id="c-15" data-name="c">
                        <path id="t-29" data-name="t" class="cls-11" d="M1514.09,350.2l1.06-.77-.42-.5"/>
                        <path id="t-30" data-name="t" class="cls-11" d="M1514.09,350.2l.36-1.21.65.18"/>
                      </g>
                    </g>
                  </g>
                  <g id="h">
                    <g id="s-4" data-name="s">
                      <g id="c-16" data-name="c">
                        <path id="t-31" data-name="t" class="cls-11" d="M1522.86,342.88l-.2.69.37.1"/>
                        <path id="t-32" data-name="t" class="cls-11" d="M1522.86,342.88l.27.68-.36.12"/>
                      </g>
                      <g id="c-17" data-name="c">
                        <path id="t-33" data-name="t" class="cls-11" d="M1523.61,343.35l-.77.02.02.36"/>
                        <path id="t-34" data-name="t" class="cls-11" d="M1523.61,343.35l-.6.44-.24-.28"/>
                      </g>
                      <g id="c-18" data-name="c">
                        <path id="t-35" data-name="t" class="cls-11" d="M1522.15,343.39l.64.4.21-.3"/>
                        <path id="t-36" data-name="t" class="cls-11" d="M1522.15,343.39l.77-.02.02.36"/>
                      </g>
                      <g id="c-19" data-name="c">
                        <path id="t-37" data-name="t" class="cls-11" d="M1523.38,344.16l-.27-.68-.36.12"/>
                        <path id="t-38" data-name="t" class="cls-11" d="M1523.38,344.16l-.64-.4.21-.3"/>
                      </g>
                      <g id="c-20" data-name="c">
                        <path id="t-39" data-name="t" class="cls-11" d="M1522.47,344.19l.6-.44-.24-.28"/>
                        <path id="t-40" data-name="t" class="cls-11" d="M1522.47,344.19l.2-.69.37.1"/>
                      </g>
                    </g>
                  </g>
                  <g id="b-2" data-name="b">
                    <g id="s-5" data-name="s">
                      <g id="c-21" data-name="c">
                        <path id="t-41" data-name="t" class="cls-11" d="M1527.25,347.86l-.36,1.21.65.17"/>
                        <path id="t-42" data-name="t" class="cls-11" d="M1527.25,347.86l.47,1.18-.63.21"/>
                      </g>
                      <g id="c-22" data-name="c">
                        <path id="t-43" data-name="t" class="cls-11" d="M1528.57,348.69l-1.34.04.03.63"/>
                        <path id="t-44" data-name="t" class="cls-11" d="M1528.57,348.69l-1.05.77-.42-.5"/>
                      </g>
                      <g id="c-23" data-name="c">
                        <path id="t-45" data-name="t" class="cls-11" d="M1526.02,348.76l1.12.7.37-.52"/>
                        <path id="t-46" data-name="t" class="cls-11" d="M1526.02,348.76l1.34-.04.03.63"/>
                      </g>
                      <g id="c-24" data-name="c">
                        <path id="t-47" data-name="t" class="cls-11" d="M1528.16,350.1l-.47-1.18-.63.21"/>
                        <path id="t-48" data-name="t" class="cls-11" d="M1528.16,350.1l-1.12-.7.37-.52"/>
                      </g>
                      <g id="c-25" data-name="c">
                        <path id="t-49" data-name="t" class="cls-11" d="M1526.58,350.15l1.05-.77-.42-.5"/>
                        <path id="t-50" data-name="t" class="cls-11" d="M1526.58,350.15l.36-1.21.65.17"/>
                      </g>
                    </g>
                  </g>
                  <g id="f">
                    <g id="s-6" data-name="s">
                      <g id="c-26" data-name="c">
                        <path id="t-51" data-name="t" class="cls-11" d="M1526.32,351.63l-.28.96.52.14"/>
                        <path id="t-52" data-name="t" class="cls-11" d="M1526.32,351.63l.38.94-.5.17"/>
                      </g>
                      <g id="c-27" data-name="c">
                        <path id="t-53" data-name="t" class="cls-11" d="M1527.37,352.29l-1.07.03.02.5"/>
                        <path id="t-54" data-name="t" class="cls-11" d="M1527.37,352.29l-.84.62-.34-.4"/>
                      </g>
                      <g id="c-28" data-name="c">
                        <path id="t-55" data-name="t" class="cls-11" d="M1525.33,352.36l.9.56.3-.42"/>
                        <path id="t-56" data-name="t" class="cls-11" d="M1525.33,352.36l1.07-.03.02.5"/>
                      </g>
                      <g id="c-29" data-name="c">
                        <path id="t-57" data-name="t" class="cls-11" d="M1527.04,353.43l-.38-.94-.5.17"/>
                        <path id="t-58" data-name="t" class="cls-11" d="M1527.04,353.43l-.9-.56.3-.42"/>
                      </g>
                      <g id="c-30" data-name="c">
                        <path id="t-59" data-name="t" class="cls-11" d="M1525.78,353.47l.84-.62-.34-.4"/>
                        <path id="t-60" data-name="t" class="cls-11" d="M1525.78,353.47l.28-.97.52.14"/>
                      </g>
                    </g>
                  </g>
                  <g id="a-3" data-name="a">
                    <g id="s-7" data-name="s">
                      <g id="c-31" data-name="c">
                        <path id="t-61" data-name="t" class="cls-11" d="M1557.16,323.57l-.42,1.43.76.21"/>
                        <path id="t-62" data-name="t" class="cls-11" d="M1557.16,323.57l.56,1.4-.74.25"/>
                      </g>
                      <g id="c-32" data-name="c">
                        <path id="t-63" data-name="t" class="cls-11" d="M1558.71,324.57l-1.57.03.04.74"/>
                        <path id="t-64" data-name="t" class="cls-11" d="M1558.71,324.57l-1.23.9-.49-.59"/>
                      </g>
                      <g id="c-33" data-name="c">
                        <path id="t-65" data-name="t" class="cls-11" d="M1555.71,324.63l1.32.85.43-.61"/>
                        <path id="t-66" data-name="t" class="cls-11" d="M1555.71,324.63l1.57-.03.04.74"/>
                      </g>
                      <g id="c-34" data-name="c">
                        <path id="t-67" data-name="t" class="cls-11" d="M1558.22,326.24l-.56-1.4-.74.25"/>
                        <path id="t-68" data-name="t" class="cls-11" d="M1558.22,326.24l-1.32-.85.43-.61"/>
                      </g>
                      <g id="c-35" data-name="c">
                        <path id="t-69" data-name="t" class="cls-11" d="M1556.37,326.29l1.23-.9-.49-.59"/>
                        <path id="t-70" data-name="t" class="cls-11" d="M1556.37,326.29l.42-1.43.76.21"/>
                      </g>
                    </g>
                  </g>
                  <g id="a-4" data-name="a">
                    <g id="s-8" data-name="s">
                      <g id="c-36" data-name="c">
                        <path id="t-71" data-name="t" class="cls-11" d="M1572.32,346.63l-.41,1.42.75.21"/>
                        <path id="t-72" data-name="t" class="cls-11" d="M1572.32,346.63l.55,1.39-.73.25"/>
                      </g>
                      <g id="c-37" data-name="c">
                        <path id="t-73" data-name="t" class="cls-11" d="M1573.85,347.61l-1.56.05.04.74"/>
                        <path id="t-74" data-name="t" class="cls-11" d="M1573.85,347.61l-1.22.91-.49-.58"/>
                      </g>
                      <g id="c-38" data-name="c">
                        <path id="t-75" data-name="t" class="cls-11" d="M1570.89,347.7l1.3.83.43-.61"/>
                        <path id="t-76" data-name="t" class="cls-11" d="M1570.89,347.7l1.56-.05.04.74"/>
                      </g>
                      <g id="c-39" data-name="c">
                        <path id="t-77" data-name="t" class="cls-11" d="M1573.37,349.28l-.55-1.39-.73.25"/>
                        <path id="t-78" data-name="t" class="cls-11" d="M1573.37,349.28l-1.3-.83.43-.61"/>
                      </g>
                      <g id="c-40" data-name="c">
                        <path id="t-79" data-name="t" class="cls-11" d="M1571.54,349.33l1.22-.91-.49-.58"/>
                        <path id="t-80" data-name="t" class="cls-11" d="M1571.54,349.33l.41-1.42.75.21"/>
                      </g>
                    </g>
                  </g>
                  <g id="f-2" data-name="f">
                    <g id="s-9" data-name="s">
                      <g id="c-41" data-name="c">
                        <path id="t-81" data-name="t" class="cls-11" d="M1577.39,347.3l-.27.95.5.14"/>
                        <path id="t-82" data-name="t" class="cls-11" d="M1577.39,347.3l.37.93-.48.17"/>
                      </g>
                      <g id="c-42" data-name="c">
                        <path id="t-83" data-name="t" class="cls-11" d="M1578.41,347.95l-1.03.03.02.49"/>
                        <path id="t-84" data-name="t" class="cls-11" d="M1578.41,347.95l-.81.6-.32-.39"/>
                      </g>
                      <g id="c-43" data-name="c">
                        <path id="t-85" data-name="t" class="cls-11" d="M1576.44,348.01l.87.55.28-.41"/>
                        <path id="t-86" data-name="t" class="cls-11" d="M1576.44,348.01l1.03-.03.02.49"/>
                      </g>
                      <g id="c-44" data-name="c">
                        <path id="t-87" data-name="t" class="cls-11" d="M1578.09,349.06l-.37-.93-.48.17"/>
                        <path id="t-88" data-name="t" class="cls-11" d="M1578.09,349.06l-.86-.55.28-.41"/>
                      </g>
                      <g id="c-45" data-name="c">
                        <path id="t-89" data-name="t" class="cls-11" d="M1576.87,349.1l.81-.6-.32-.39"/>
                        <path id="t-90" data-name="t" class="cls-11" d="M1576.87,349.1l.27-.95.5.14"/>
                      </g>
                    </g>
                  </g>
                  <g id="b-3" data-name="b">
                    <g id="s-10" data-name="s">
                      <g id="c-46" data-name="c">
                        <path id="t-91" data-name="t" class="cls-11" d="M1573.96,349.88l-.34,1.19.63.17"/>
                        <path id="t-92" data-name="t" class="cls-11" d="M1573.96,349.88l.46,1.16-.61.21"/>
                      </g>
                      <g id="c-47" data-name="c">
                        <path id="t-93" data-name="t" class="cls-11" d="M1575.24,350.69l-1.3.04.03.62"/>
                        <path id="t-94" data-name="t" class="cls-11" d="M1575.24,350.69l-1.01.76-.41-.49"/>
                      </g>
                      <g id="c-48" data-name="c">
                        <path id="t-95" data-name="t" class="cls-11" d="M1572.77,350.77l1.08.69.36-.51"/>
                        <path id="t-96" data-name="t" class="cls-11" d="M1572.77,350.77l1.3-.04.03.62"/>
                      </g>
                      <g id="c-49" data-name="c">
                        <path id="t-97" data-name="t" class="cls-11" d="M1574.84,352.09l-.46-1.16-.61.21"/>
                        <path id="t-98" data-name="t" class="cls-11" d="M1574.84,352.09l-1.08-.69.36-.51"/>
                      </g>
                      <g id="c-50" data-name="c">
                        <path id="t-99" data-name="t" class="cls-11" d="M1573.31,352.14l1.01-.76-.41-.49"/>
                        <path id="t-100" data-name="t" class="cls-11" d="M1573.31,352.14l.34-1.19.63.17"/>
                      </g>
                    </g>
                  </g>
                  <g id="b-4" data-name="b">
                    <g id="s-11" data-name="s">
                      <g id="c-51" data-name="c">
                        <path id="t-101" data-name="t" class="cls-11" d="M1565.56,357.41l-.34,1.19.63.17"/>
                        <path id="t-102" data-name="t" class="cls-11" d="M1565.56,357.41l.46,1.16-.61.21"/>
                      </g>
                      <g id="c-52" data-name="c">
                        <path id="t-103" data-name="t" class="cls-11" d="M1566.84,358.23l-1.3.04.03.62"/>
                        <path id="t-104" data-name="t" class="cls-11" d="M1566.84,358.23l-1.02.76-.41-.49"/>
                      </g>
                      <g id="c-53" data-name="c">
                        <path id="t-105" data-name="t" class="cls-11" d="M1564.36,358.31l1.09.69.36-.51"/>
                        <path id="t-106" data-name="t" class="cls-11" d="M1564.36,358.31l1.3-.04.03.62"/>
                      </g>
                      <g id="c-54" data-name="c">
                        <path id="t-107" data-name="t" class="cls-11" d="M1566.44,359.62l-.46-1.16-.61.21"/>
                        <path id="t-108" data-name="t" class="cls-11" d="M1566.44,359.62l-1.09-.69.36-.51"/>
                      </g>
                      <g id="c-55" data-name="c">
                        <path id="t-109" data-name="t" class="cls-11" d="M1564.9,359.68l1.02-.76-.41-.49"/>
                        <path id="t-110" data-name="t" class="cls-11" d="M1564.9,359.68l.34-1.19.63.17"/>
                      </g>
                    </g>
                  </g>
                  <g id="f-3" data-name="f">
                    <g id="s-12" data-name="s">
                      <g id="c-56" data-name="c">
                        <path id="t-111" data-name="t" class="cls-11" d="M1565.69,361.15l-.28.95.5.14"/>
                        <path id="t-112" data-name="t" class="cls-11" d="M1565.69,361.15l.37.93-.49.17"/>
                      </g>
                      <g id="c-57" data-name="c">
                        <path id="t-113" data-name="t" class="cls-11" d="M1566.72,361.8l-1.04.04.02.49"/>
                        <path id="t-114" data-name="t" class="cls-11" d="M1566.72,361.8l-.81.61-.33-.39"/>
                      </g>
                      <g id="c-58" data-name="c">
                        <path id="t-115" data-name="t" class="cls-11" d="M1564.74,361.87l.87.55.29-.41"/>
                        <path id="t-116" data-name="t" class="cls-11" d="M1564.74,361.87l1.04-.04.02.49"/>
                      </g>
                      <g id="c-59" data-name="c">
                        <path id="t-117" data-name="t" class="cls-11" d="M1566.4,362.92l-.37-.93-.49.17"/>
                        <path id="t-118" data-name="t" class="cls-11" d="M1566.4,362.92l-.87-.55.29-.41"/>
                      </g>
                      <g id="c-60" data-name="c">
                        <path id="t-119" data-name="t" class="cls-11" d="M1565.17,362.96l.82-.61-.33-.39"/>
                        <path id="t-120" data-name="t" class="cls-11" d="M1565.17,362.96l.28-.95.5.14"/>
                      </g>
                    </g>
                  </g>
                  <g id="f-4" data-name="f">
                    <g id="s-13" data-name="s">
                      <g id="c-61" data-name="c">
                        <path id="t-121" data-name="t" class="cls-11" d="M1569.06,354.81l-.27.95.5.14"/>
                        <path id="t-122" data-name="t" class="cls-11" d="M1569.06,354.81l.37.93-.49.17"/>
                      </g>
                      <g id="c-62" data-name="c">
                        <path id="t-123" data-name="t" class="cls-11" d="M1570.08,355.46l-1.04.03.02.49"/>
                        <path id="t-124" data-name="t" class="cls-11" d="M1570.08,355.46l-.81.61-.33-.39"/>
                      </g>
                      <g id="c-63" data-name="c">
                        <path id="t-125" data-name="t" class="cls-11" d="M1568.1,355.52l.87.55.29-.41"/>
                        <path id="t-126" data-name="t" class="cls-11" d="M1568.1,355.52l1.04-.03.02.49"/>
                      </g>
                      <g id="c-64" data-name="c">
                        <path id="t-127" data-name="t" class="cls-11" d="M1569.76,356.57l-.37-.93-.49.17"/>
                        <path id="t-128" data-name="t" class="cls-11" d="M1569.76,356.57l-.87-.55.29-.41"/>
                      </g>
                      <g id="c-65" data-name="c">
                        <path id="t-129" data-name="t" class="cls-11" d="M1568.53,356.62l.81-.61-.33-.39"/>
                        <path id="t-130" data-name="t" class="cls-11" d="M1568.53,356.62l.27-.95.5.14"/>
                      </g>
                    </g>
                  </g>
                  <g id="b-5" data-name="b">
                    <g id="s-14" data-name="s">
                      <g id="c-66" data-name="c">
                        <path id="t-131" data-name="t" class="cls-11" d="M1571.88,352.73l-.34,1.19.63.17"/>
                        <path id="t-132" data-name="t" class="cls-11" d="M1571.88,352.73l.46,1.16-.61.21"/>
                      </g>
                      <g id="c-67" data-name="c">
                        <path id="t-133" data-name="t" class="cls-11" d="M1573.15,353.54l-1.3.04.03.62"/>
                        <path id="t-134" data-name="t" class="cls-11" d="M1573.15,353.54l-1.01.76-.41-.49"/>
                      </g>
                      <g id="c-68" data-name="c">
                        <path id="t-135" data-name="t" class="cls-11" d="M1570.69,353.62l1.09.69.36-.51"/>
                        <path id="t-136" data-name="t" class="cls-11" d="M1570.69,353.62l1.3-.04.03.62"/>
                      </g>
                      <g id="c-69" data-name="c">
                        <path id="t-137" data-name="t" class="cls-11" d="M1572.75,354.93l-.46-1.16-.61.21"/>
                        <path id="t-138" data-name="t" class="cls-11" d="M1572.75,354.93l-1.09-.69.36-.51"/>
                      </g>
                      <g id="c-70" data-name="c">
                        <path id="t-139" data-name="t" class="cls-11" d="M1571.23,354.98l1.01-.76-.41-.49"/>
                        <path id="t-140" data-name="t" class="cls-11" d="M1571.23,354.98l.34-1.19.63.17"/>
                      </g>
                    </g>
                  </g>
                  <g id="f-5" data-name="f">
                    <g id="s-15" data-name="s">
                      <g id="c-71" data-name="c">
                        <path id="t-141" data-name="t" class="cls-11" d="M1565.25,354.27l-.28.95.5.14"/>
                        <path id="t-142" data-name="t" class="cls-11" d="M1565.25,354.27l.37.93-.49.17"/>
                      </g>
                      <g id="c-72" data-name="c">
                        <path id="t-143" data-name="t" class="cls-11" d="M1566.28,354.92l-1.04.03.02.49"/>
                        <path id="t-144" data-name="t" class="cls-11" d="M1566.28,354.92l-.81.61-.33-.39"/>
                      </g>
                      <g id="c-73" data-name="c">
                        <path id="t-145" data-name="t" class="cls-11" d="M1564.3,354.99l.87.55.29-.41"/>
                        <path id="t-146" data-name="t" class="cls-11" d="M1564.3,354.99l1.04-.03.02.49"/>
                      </g>
                      <g id="c-74" data-name="c">
                        <path id="t-147" data-name="t" class="cls-11" d="M1565.96,356.04l-.37-.93-.49.17"/>
                        <path id="t-148" data-name="t" class="cls-11" d="M1565.96,356.04l-.87-.55.29-.41"/>
                      </g>
                      <g id="c-75" data-name="c">
                        <path id="t-149" data-name="t" class="cls-11" d="M1564.73,356.08l.82-.61-.33-.39"/>
                        <path id="t-150" data-name="t" class="cls-11" d="M1564.73,356.08l.28-.95.5.14"/>
                      </g>
                    </g>
                  </g>
                  <g id="b-6" data-name="b">
                    <g id="s-16" data-name="s">
                      <g id="c-76" data-name="c">
                        <path id="t-151" data-name="t" class="cls-11" d="M1531.93,337.21l-.35,1.2.64.18"/>
                        <path id="t-152" data-name="t" class="cls-11" d="M1531.93,337.21l.47,1.18-.63.21"/>
                      </g>
                      <g id="c-77" data-name="c">
                        <path id="t-153" data-name="t" class="cls-11" d="M1533.25,338.04l-1.33.04.03.63"/>
                        <path id="t-154" data-name="t" class="cls-11" d="M1533.25,338.04l-1.04.76-.42-.5"/>
                      </g>
                      <g id="c-78" data-name="c">
                        <path id="t-155" data-name="t" class="cls-11" d="M1530.71,338.11l1.12.71.37-.52"/>
                        <path id="t-156" data-name="t" class="cls-11" d="M1530.71,338.11l1.34-.04.03.63"/>
                      </g>
                      <g id="c-79" data-name="c">
                        <path id="t-157" data-name="t" class="cls-11" d="M1532.83,339.46l-.47-1.18-.63.21"/>
                        <path id="t-158" data-name="t" class="cls-11" d="M1532.83,339.46l-1.12-.71.37-.52"/>
                      </g>
                      <g id="c-80" data-name="c">
                        <path id="t-159" data-name="t" class="cls-11" d="M1531.26,339.5l1.04-.76-.42-.5"/>
                        <path id="t-160" data-name="t" class="cls-11" d="M1531.26,339.5l.35-1.2.64.18"/>
                      </g>
                    </g>
                  </g>
                  <g id="f-6" data-name="f">
                    <g id="s-17" data-name="s">
                      <g id="c-81" data-name="c">
                        <path id="t-161" data-name="t" class="cls-11" d="M1556,333.66l-.28.95.51.14"/>
                        <path id="t-162" data-name="t" class="cls-11" d="M1556,333.66l.37.94-.49.17"/>
                      </g>
                      <g id="c-82" data-name="c">
                        <path id="t-163" data-name="t" class="cls-11" d="M1557.03,334.32l-1.05.03.02.5"/>
                        <path id="t-164" data-name="t" class="cls-11" d="M1557.03,334.32l-.82.61-.33-.39"/>
                      </g>
                      <g id="c-83" data-name="c">
                        <path id="t-165" data-name="t" class="cls-11" d="M1555.03,334.37l.88.56.29-.41"/>
                        <path id="t-166" data-name="t" class="cls-11" d="M1555.03,334.37l1.05-.03.02.5"/>
                      </g>
                      <g id="c-84" data-name="c">
                        <path id="t-167" data-name="t" class="cls-11" d="M1556.7,335.43l-.37-.94-.49.17"/>
                        <path id="t-168" data-name="t" class="cls-11" d="M1556.7,335.43l-.88-.56.29-.41"/>
                      </g>
                      <g id="c-85" data-name="c">
                        <path id="t-169" data-name="t" class="cls-11" d="M1555.47,335.47l.82-.61-.33-.39"/>
                        <path id="t-170" data-name="t" class="cls-11" d="M1555.47,335.47l.28-.95.51.14"/>
                      </g>
                    </g>
                  </g>
                  <g id="a-5" data-name="a">
                    <g id="s-18" data-name="s">
                      <g id="c-86" data-name="c">
                        <path id="t-171" data-name="t" class="cls-11" d="M1546.8,350.82l-.42,1.44.77.21"/>
                        <path id="t-172" data-name="t" class="cls-11" d="M1546.8,350.82l.56,1.41-.74.25"/>
                      </g>
                      <g id="c-87" data-name="c">
                        <path id="t-173" data-name="t" class="cls-11" d="M1548.36,351.8l-1.59.05.04.75"/>
                        <path id="t-174" data-name="t" class="cls-11" d="M1548.36,351.8l-1.24.92-.5-.59"/>
                      </g>
                      <g id="c-88" data-name="c">
                        <path id="t-175" data-name="t" class="cls-11" d="M1545.34,351.9l1.33.84.44-.62"/>
                        <path id="t-176" data-name="t" class="cls-11" d="M1545.34,351.9l1.59-.05.04.75"/>
                      </g>
                      <g id="c-89" data-name="c">
                        <path id="t-177" data-name="t" class="cls-11" d="M1547.87,353.49l-.56-1.4-.74.25"/>
                        <path id="t-178" data-name="t" class="cls-11" d="M1547.87,353.49l-1.33-.84.44-.62"/>
                      </g>
                      <g id="c-90" data-name="c">
                        <path id="t-179" data-name="t" class="cls-11" d="M1546,353.55l1.24-.92-.5-.59"/>
                        <path id="t-180" data-name="t" class="cls-11" d="M1546,353.55l.42-1.44.77.21"/>
                      </g>
                    </g>
                  </g>
                  <g id="b-7" data-name="b">
                    <g id="s-19" data-name="s">
                      <g id="c-91" data-name="c">
                        <path id="t-181" data-name="t" class="cls-11" d="M1550.74,344.02l-.35,1.19.64.17"/>
                        <path id="t-182" data-name="t" class="cls-11" d="M1550.74,344.02l.47,1.17-.62.21"/>
                      </g>
                      <g id="c-92" data-name="c">
                        <path id="t-183" data-name="t" class="cls-11" d="M1552.04,344.84l-1.32.04.03.62"/>
                        <path id="t-184" data-name="t" class="cls-11" d="M1552.04,344.84l-1.03.76-.41-.49"/>
                      </g>
                      <g id="c-93" data-name="c">
                        <path id="t-185" data-name="t" class="cls-11" d="M1549.53,344.91l1.1.7.36-.51"/>
                        <path id="t-186" data-name="t" class="cls-11" d="M1549.53,344.91l1.32-.04.03.62"/>
                      </g>
                      <g id="c-94" data-name="c">
                        <path id="t-187" data-name="t" class="cls-11" d="M1551.63,346.24l-.47-1.17-.62.21"/>
                        <path id="t-188" data-name="t" class="cls-11" d="M1551.63,346.24l-1.1-.7.36-.51"/>
                      </g>
                      <g id="c-95" data-name="c">
                        <path id="t-189" data-name="t" class="cls-11" d="M1550.08,346.29l1.03-.76-.41-.49"/>
                        <path id="t-190" data-name="t" class="cls-11" d="M1550.08,346.29l.35-1.19.64.17"/>
                      </g>
                    </g>
                  </g>
                  <g id="b-8" data-name="b">
                    <g id="s-20" data-name="s">
                      <g id="c-96" data-name="c">
                        <path id="t-191" data-name="t" class="cls-11" d="M1546.31,341.01l-.35,1.2.64.17"/>
                        <path id="t-192" data-name="t" class="cls-11" d="M1546.31,341.01l.47,1.17-.62.21"/>
                      </g>
                      <g id="c-97" data-name="c">
                        <path id="t-193" data-name="t" class="cls-11" d="M1547.61,341.84l-1.32.04.03.62"/>
                        <path id="t-194" data-name="t" class="cls-11" d="M1547.61,341.84l-1.03.76-.41-.49"/>
                      </g>
                      <g id="c-98" data-name="c">
                        <path id="t-195" data-name="t" class="cls-11" d="M1545.1,341.91l1.11.7.36-.51"/>
                        <path id="t-196" data-name="t" class="cls-11" d="M1545.1,341.91l1.32-.04.03.62"/>
                      </g>
                      <g id="c-99" data-name="c">
                        <path id="t-197" data-name="t" class="cls-11" d="M1547.2,343.24l-.47-1.17-.62.21"/>
                        <path id="t-198" data-name="t" class="cls-11" d="M1547.2,343.24l-1.11-.7.36-.51"/>
                      </g>
                      <g id="c-100" data-name="c">
                        <path id="t-199" data-name="t" class="cls-11" d="M1545.65,343.29l1.03-.76-.41-.49"/>
                        <path id="t-200" data-name="t" class="cls-11" d="M1545.65,343.29l.35-1.2.64.17"/>
                      </g>
                    </g>
                  </g>
                  <g id="f-7" data-name="f">
                    <g id="s-21" data-name="s">
                      <g id="c-101" data-name="c">
                        <path id="t-201" data-name="t" class="cls-11" d="M1542.75,344.5l-.28.96.51.14"/>
                        <path id="t-202" data-name="t" class="cls-11" d="M1542.75,344.5l.37.94-.5.17"/>
                      </g>
                      <g id="c-102" data-name="c">
                        <path id="t-203" data-name="t" class="cls-11" d="M1543.79,345.16l-1.06.03.02.5"/>
                        <path id="t-204" data-name="t" class="cls-11" d="M1543.79,345.16l-.83.61-.33-.39"/>
                      </g>
                      <g id="c-103" data-name="c">
                        <path id="t-205" data-name="t" class="cls-11" d="M1541.78,345.22l.89.56.29-.41"/>
                        <path id="t-206" data-name="t" class="cls-11" d="M1541.78,345.22l1.06-.03.02.5"/>
                      </g>
                      <g id="c-104" data-name="c">
                        <path id="t-207" data-name="t" class="cls-11" d="M1543.46,346.29l-.37-.94-.5.17"/>
                        <path id="t-208" data-name="t" class="cls-11" d="M1543.46,346.29l-.89-.56.29-.41"/>
                      </g>
                      <g id="c-105" data-name="c">
                        <path id="t-209" data-name="t" class="cls-11" d="M1542.22,346.32l.83-.61-.33-.39"/>
                        <path id="t-210" data-name="t" class="cls-11" d="M1542.22,346.32l.28-.96.51.14"/>
                      </g>
                    </g>
                  </g>
                  <g id="h-2" data-name="h">
                    <g id="s-22" data-name="s">
                      <g id="c-106" data-name="c">
                        <path id="t-211" data-name="t" class="cls-11" d="M1544.75,347.15l-.2.68.37.1"/>
                        <path id="t-212" data-name="t" class="cls-11" d="M1544.75,347.15l.27.67-.35.12"/>
                      </g>
                      <g id="c-107" data-name="c">
                        <path id="t-213" data-name="t" class="cls-11" d="M1545.49,347.62l-.76.02.02.36"/>
                        <path id="t-214" data-name="t" class="cls-11" d="M1545.49,347.62l-.59.44-.24-.28"/>
                      </g>
                      <g id="c-108" data-name="c">
                        <path id="t-215" data-name="t" class="cls-11" d="M1544.06,347.67l.63.4.21-.29"/>
                        <path id="t-216" data-name="t" class="cls-11" d="M1544.06,347.67l.76-.02.02.36"/>
                      </g>
                      <g id="c-109" data-name="c">
                        <path id="t-217" data-name="t" class="cls-11" d="M1545.26,348.43l-.27-.67-.35.12"/>
                        <path id="t-218" data-name="t" class="cls-11" d="M1545.26,348.43l-.63-.4.21-.29"/>
                      </g>
                      <g id="c-110" data-name="c">
                        <path id="t-219" data-name="t" class="cls-11" d="M1544.37,348.45l.59-.44-.24-.28"/>
                        <path id="t-220" data-name="t" class="cls-11" d="M1544.37,348.45l.2-.68.37.1"/>
                      </g>
                    </g>
                  </g>
                  <g id="b-9" data-name="b">
                    <g id="s-23" data-name="s">
                      <g id="c-111" data-name="c">
                        <path id="t-221" data-name="t" class="cls-11" d="M1558.23,358.51l-.35,1.19.63.17"/>
                        <path id="t-222" data-name="t" class="cls-11" d="M1558.23,358.51l.46,1.17-.61.21"/>
                      </g>
                      <g id="c-112" data-name="c">
                        <path id="t-223" data-name="t" class="cls-11" d="M1559.52,359.33l-1.31.05.03.62"/>
                        <path id="t-224" data-name="t" class="cls-11" d="M1559.52,359.33l-1.02.77-.41-.49"/>
                      </g>
                      <g id="c-113" data-name="c">
                        <path id="t-225" data-name="t" class="cls-11" d="M1557.03,359.42l1.1.69.36-.52"/>
                        <path id="t-226" data-name="t" class="cls-11" d="M1557.03,359.42l1.31-.05.03.62"/>
                      </g>
                      <g id="c-114" data-name="c">
                        <path id="t-227" data-name="t" class="cls-11" d="M1559.11,360.73l-.46-1.16-.61.21"/>
                        <path id="t-228" data-name="t" class="cls-11" d="M1559.11,360.73l-1.1-.69.36-.52"/>
                      </g>
                      <g id="c-115" data-name="c">
                        <path id="t-229" data-name="t" class="cls-11" d="M1557.57,360.79l1.02-.77-.41-.49"/>
                        <path id="t-230" data-name="t" class="cls-11" d="M1557.57,360.79l.35-1.19.63.17"/>
                      </g>
                    </g>
                  </g>
                  <g id="f-8" data-name="f">
                    <g id="s-24" data-name="s">
                      <g id="c-116" data-name="c">
                        <path id="t-231" data-name="t" class="cls-11" d="M1561.23,355.59l-.28.95.51.14"/>
                        <path id="t-232" data-name="t" class="cls-11" d="M1561.23,355.59l.37.93-.49.17"/>
                      </g>
                      <g id="c-117" data-name="c">
                        <path id="t-233" data-name="t" class="cls-11" d="M1562.26,356.24l-1.05.04.02.5"/>
                        <path id="t-234" data-name="t" class="cls-11" d="M1562.26,356.24l-.82.61-.33-.39"/>
                      </g>
                      <g id="c-118" data-name="c">
                        <path id="t-235" data-name="t" class="cls-11" d="M1560.27,356.31l.88.55.29-.41"/>
                        <path id="t-236" data-name="t" class="cls-11" d="M1560.27,356.31l1.05-.04.02.5"/>
                      </g>
                      <g id="c-119" data-name="c">
                        <path id="t-237" data-name="t" class="cls-11" d="M1561.94,357.36l-.37-.93-.49.17"/>
                        <path id="t-238" data-name="t" class="cls-11" d="M1561.94,357.36l-.88-.55.29-.41"/>
                      </g>
                      <g id="c-120" data-name="c">
                        <path id="t-239" data-name="t" class="cls-11" d="M1560.71,357.4l.82-.61-.33-.39"/>
                        <path id="t-240" data-name="t" class="cls-11" d="M1560.71,357.4l.28-.95.51.14"/>
                      </g>
                    </g>
                  </g>
                  <g id="f-9" data-name="f">
                    <g id="s-25" data-name="s">
                      <g id="c-121" data-name="c">
                        <path id="t-241" data-name="t" class="cls-11" d="M1555.15,354.94l-.28.96.51.14"/>
                        <path id="t-242" data-name="t" class="cls-11" d="M1555.15,354.94l.37.93-.49.17"/>
                      </g>
                      <g id="c-122" data-name="c">
                        <path id="t-243" data-name="t" class="cls-11" d="M1556.18,355.59l-1.05.03.02.5"/>
                        <path id="t-244" data-name="t" class="cls-11" d="M1556.18,355.59l-.82.61-.33-.39"/>
                      </g>
                      <g id="c-123" data-name="c">
                        <path id="t-245" data-name="t" class="cls-11" d="M1554.18,355.66l.88.56.29-.41"/>
                        <path id="t-246" data-name="t" class="cls-11" d="M1554.18,355.66l1.05-.04.02.5"/>
                      </g>
                      <g id="c-124" data-name="c">
                        <path id="t-247" data-name="t" class="cls-11" d="M1555.86,356.71l-.37-.93-.49.17"/>
                        <path id="t-248" data-name="t" class="cls-11" d="M1555.86,356.71l-.88-.56.29-.41"/>
                      </g>
                      <g id="c-125" data-name="c">
                        <path id="t-249" data-name="t" class="cls-11" d="M1554.62,356.76l.82-.61-.33-.39"/>
                        <path id="t-250" data-name="t" class="cls-11" d="M1554.62,356.76l.28-.96.51.14"/>
                      </g>
                    </g>
                  </g>
                  <g id="a-6" data-name="a">
                    <g id="s-26" data-name="s">
                      <g id="c-126" data-name="c">
                        <path id="t-251" data-name="t" class="cls-11" d="M1532.01,354.15l-.42,1.45.77.21"/>
                        <path id="t-252" data-name="t" class="cls-11" d="M1532.01,354.15l.57,1.41-.75.26"/>
                      </g>
                      <g id="c-127" data-name="c">
                        <path id="t-253" data-name="t" class="cls-11" d="M1533.58,355.14l-1.6.05.04.75"/>
                        <path id="t-254" data-name="t" class="cls-11" d="M1533.58,355.14l-1.25.93-.5-.59"/>
                      </g>
                      <g id="c-128" data-name="c">
                        <path id="t-255" data-name="t" class="cls-11" d="M1530.54,355.24l1.34.84.44-.62"/>
                        <path id="t-256" data-name="t" class="cls-11" d="M1530.54,355.24l1.6-.05.04.75"/>
                      </g>
                      <g id="c-129" data-name="c">
                        <path id="t-257" data-name="t" class="cls-11" d="M1533.09,356.84l-.57-1.41-.75.26"/>
                        <path id="t-258" data-name="t" class="cls-11" d="M1533.09,356.84l-1.34-.84.44-.62"/>
                      </g>
                      <g id="c-130" data-name="c">
                        <path id="t-259" data-name="t" class="cls-11" d="M1531.2,356.9l1.25-.93-.5-.59"/>
                        <path id="t-260" data-name="t" class="cls-11" d="M1531.2,356.9l.42-1.45.77.21"/>
                      </g>
                    </g>
                  </g>
                  <g id="i">
                    <g id="s-27" data-name="s">
                      <g id="c-131" data-name="c">
                        <path id="t-261" data-name="t" class="cls-11" d="M1547.43,363.44l-.14.48.26.07"/>
                        <path id="t-262" data-name="t" class="cls-11" d="M1547.43,363.44l.19.47-.25.09"/>
                      </g>
                      <g id="c-132" data-name="c">
                        <path id="t-263" data-name="t" class="cls-11" d="M1547.95,363.76l-.53.02v.25"/>
                        <path id="t-264" data-name="t" class="cls-11" d="M1547.95,363.76l-.41.31-.17-.2"/>
                      </g>
                      <g id="c-133" data-name="c">
                        <path id="t-265" data-name="t" class="cls-11" d="M1546.94,363.8l.44.28.15-.21"/>
                        <path id="t-266" data-name="t" class="cls-11" d="M1546.94,363.8l.53-.02v.25"/>
                      </g>
                      <g id="c-134" data-name="c">
                        <path id="t-267" data-name="t" class="cls-11" d="M1547.78,364.33l-.19-.47-.25.09"/>
                        <path id="t-268" data-name="t" class="cls-11" d="M1547.78,364.33l-.44-.28.15-.21"/>
                      </g>
                      <g id="c-135" data-name="c">
                        <path id="t-269" data-name="t" class="cls-11" d="M1547.16,364.35l.41-.31-.17-.2"/>
                        <path id="t-270" data-name="t" class="cls-11" d="M1547.16,364.35l.14-.48.26.07"/>
                      </g>
                    </g>
                  </g>
                </g>
                <polygon points="1677.37 274.82 1399.59 275.03 1397.12 225.24 1676.89 224.46 1677.37 274.82"/>
                <polygon points="1685.75 419.22 1407.7 435.88 1406.06 402.85 1684.89 395.04 1685.75 419.22"/>
                <g>
                  <path class="cls-11" d="M1442.33,251.48h1.88c.2,0,.37.05.51.14.13.09.23.21.29.35l2.2,5.19c.1.23.2.47.3.74.1.27.2.55.29.84.05-.29.11-.57.18-.84.07-.27.14-.51.22-.74l1.68-5.18c.04-.12.12-.24.25-.33.13-.1.29-.15.48-.15h1.89s-3.55,9.67-3.55,9.67h-2.11s-4.51-9.7-4.51-9.7Z"/>
                  <path class="cls-11" d="M1456.33,261.17h-2.33s-.47-9.66-.47-9.66h2.33s.47,9.66.47,9.66Z"/>
                  <path class="cls-11" d="M1459.19,251.54c.07,0,.13.03.19.05s.11.06.16.1c.05.04.11.1.18.18l5.01,5.79c-.03-.19-.05-.36-.07-.54-.02-.17-.03-.34-.04-.49l-.25-5.09h2.03s.47,9.62.47,9.62h-1.2c-.18,0-.33-.03-.45-.08-.12-.05-.25-.15-.37-.29l-4.97-5.74c.02.17.04.33.06.49s.03.31.04.45l.25,5.17h-2.04s-.47-9.65-.47-9.65h1.22c.1,0,.18,0,.25.02Z"/>
                  <path class="cls-11" d="M1473.08,259.56c.32,0,.59-.03.84-.08s.47-.12.68-.21l-.07-1.45h-.98c-.14,0-.26-.04-.34-.11-.08-.07-.13-.17-.14-.28l-.06-1.22h3.51s.2,4.05.2,4.05c-.24.18-.5.33-.77.46-.27.13-.55.24-.86.32-.31.08-.63.15-.98.18-.35.04-.72.06-1.13.06-.72,0-1.4-.12-2.03-.37-.63-.25-1.18-.59-1.65-1.03-.47-.44-.85-.96-1.14-1.56-.29-.6-.44-1.25-.48-1.96s.06-1.38.27-1.98c.21-.6.54-1.12.98-1.55.43-.43.97-.77,1.6-1.01.63-.24,1.35-.36,2.14-.36.41,0,.8.04,1.16.1s.7.16,1.01.27.59.25.86.41.49.33.7.51l-.62.98c-.06.09-.13.16-.22.22-.09.05-.18.08-.28.08-.14,0-.28-.04-.43-.13-.19-.11-.36-.2-.52-.27-.16-.08-.33-.14-.5-.19-.17-.05-.35-.08-.53-.11-.19-.02-.39-.03-.63-.03-.43,0-.81.07-1.15.22s-.62.35-.85.62c-.23.27-.4.59-.51.96-.11.38-.16.79-.14,1.26.02.51.12.96.28,1.36s.38.73.65,1c.27.27.58.48.94.62s.74.21,1.16.21Z"/>
                  <path class="cls-11" d="M1487.28,261.16h-1.76c-.2,0-.36-.04-.49-.13-.13-.09-.23-.2-.28-.34l-.66-1.67h-3.73s-.5,1.67-.5,1.67c-.04.12-.12.23-.25.33-.13.1-.28.15-.47.15h-1.78s3.34-9.57,3.34-9.57h2.33s4.25,9.57,4.25,9.57ZM1480.81,257.5h2.68s-1.03-2.62-1.03-2.62c-.07-.17-.15-.36-.23-.59s-.18-.47-.27-.73c-.06.27-.12.51-.19.74-.07.23-.13.42-.19.59l-.78,2.61Z"/>
                  <path class="cls-11" d="M1496.68,256.39c.03.69-.06,1.32-.27,1.9s-.53,1.08-.95,1.51-.93.76-1.54.99c-.61.24-1.29.36-2.05.36h-3.79s-.46-9.54-.46-9.54h3.79c.76.01,1.45.14,2.09.38.63.24,1.18.57,1.64,1,.46.42.83.93,1.1,1.51.27.58.42,1.21.46,1.9ZM1494.37,256.39c-.02-.47-.11-.9-.25-1.27-.14-.38-.34-.7-.58-.97-.25-.26-.54-.47-.89-.61-.35-.14-.73-.21-1.17-.22h-1.51s.3,6.13.3,6.13h1.51c.43,0,.82-.07,1.15-.21s.61-.34.83-.61c.22-.26.38-.58.49-.96.11-.38.15-.81.12-1.28Z"/>
                  <path class="cls-11" d="M1507.31,256.41c.03.69-.06,1.32-.27,1.91-.21.59-.53,1.1-.94,1.54s-.93.78-1.53,1.03c-.6.25-1.28.37-2.03.37-.75,0-1.45-.12-2.08-.37-.63-.25-1.18-.59-1.64-1.03s-.83-.95-1.1-1.54c-.27-.59-.42-1.23-.46-1.92s.06-1.33.27-1.92.53-1.1.95-1.54.94-.77,1.54-1.02c.61-.25,1.29-.37,2.04-.37s1.44.13,2.07.38c.63.25,1.17.59,1.63,1.03s.82.95,1.09,1.54c.27.59.42,1.23.45,1.91ZM1505.02,256.4c-.02-.47-.11-.89-.25-1.27s-.34-.69-.58-.95c-.24-.26-.54-.46-.88-.6-.34-.14-.73-.21-1.16-.21s-.82.07-1.15.21c-.33.14-.61.34-.83.6-.22.26-.38.58-.49.95s-.15.8-.12,1.27.11.9.25,1.28c.14.38.34.69.58.96.24.26.54.46.89.6s.73.21,1.17.21.81-.07,1.14-.21.6-.34.82-.6c.22-.26.38-.58.49-.95.11-.38.15-.8.12-1.27Z"/>
                  <path class="cls-11" d="M1510.67,257.64l.17,3.5h-2.23s-.46-9.47-.46-9.47h3.13c.69.01,1.29.08,1.79.23.5.14.9.34,1.23.59.32.25.56.55.72.89.16.34.25.71.26,1.12.01.31-.01.6-.08.87-.07.27-.18.52-.34.76-.15.23-.34.44-.57.62-.23.18-.5.33-.81.45.15.07.3.16.43.27.14.11.25.24.36.4l2.2,3.29h-2.01c-.37,0-.65-.14-.82-.41l-1.73-2.75c-.08-.12-.16-.21-.26-.26-.1-.05-.23-.08-.4-.08h-.57ZM1510.6,256.13h.9c.3,0,.56-.04.77-.11.21-.08.38-.18.51-.31.13-.13.22-.29.27-.47.05-.18.07-.37.06-.58-.02-.42-.17-.74-.46-.97-.29-.23-.72-.35-1.29-.35h-.9s.14,2.81.14,2.81Z"/>
                  <path class="cls-11" d="M1523.06,251.72l.08,1.68h-3.92s.11,2.19.11,2.19h3s.08,1.62.08,1.62h-3s.11,2.25.11,2.25h3.92s.08,1.68.08,1.68h-6.15s-.46-9.44-.46-9.44l6.15.02Z"/>
                  <path class="cls-11" d="M1529.7,253.64c-.06.1-.12.18-.19.23-.07.05-.16.08-.27.08-.1,0-.21-.03-.33-.09-.12-.06-.25-.13-.4-.21-.15-.08-.32-.15-.51-.21s-.4-.09-.64-.1c-.41,0-.72.09-.91.26-.19.17-.28.41-.27.71,0,.19.08.35.21.47.13.13.29.23.49.32.2.09.43.17.69.25.26.08.52.16.79.25s.53.2.79.33.49.28.7.48c.21.19.38.43.51.71.13.28.21.61.23,1,.02.43-.03.84-.17,1.22-.13.38-.34.71-.61.99-.27.28-.62.5-1.04.66-.42.16-.89.24-1.43.24-.3,0-.6-.03-.91-.09-.31-.06-.61-.14-.9-.26-.29-.11-.57-.24-.83-.39-.26-.15-.49-.32-.68-.5l.6-1.02c.04-.08.11-.14.19-.19.08-.05.18-.07.28-.07.13,0,.26.04.4.12.14.08.29.17.46.27.17.1.37.19.59.27.22.08.48.12.78.12.4,0,.71-.09.92-.26s.31-.45.29-.83c-.01-.22-.08-.4-.21-.54-.13-.14-.29-.25-.5-.34s-.43-.17-.69-.24c-.26-.07-.52-.15-.79-.23-.27-.08-.53-.19-.79-.31-.26-.12-.49-.28-.7-.49-.21-.2-.38-.45-.52-.75s-.22-.67-.24-1.11c-.02-.35.04-.7.17-1.03.13-.34.32-.63.59-.9.27-.26.6-.47.99-.63.4-.16.86-.23,1.38-.23.29,0,.58.02.85.07.28.05.54.11.79.2s.49.2.71.32c.22.12.42.26.6.42l-.5,1.01Z"/>
                  <path class="cls-11" d="M1542.66,256.45c.03.68-.05,1.3-.26,1.87s-.51,1.07-.92,1.48-.9.74-1.49.98c-.59.23-1.25.35-1.98.35h-3.67s-.45-9.39-.45-9.39h3.67c.73.01,1.41.13,2.02.37.61.24,1.14.56,1.59.98s.8.91,1.06,1.48c.26.57.41,1.19.44,1.87ZM1540.43,256.45c-.02-.46-.1-.88-.24-1.25-.14-.37-.33-.69-.57-.95-.24-.26-.52-.46-.86-.6-.33-.14-.71-.21-1.13-.21h-1.46s.29,6.03.29,6.03h1.46c.42,0,.79-.07,1.11-.21s.59-.34.8-.6c.21-.26.37-.58.47-.95.1-.37.14-.79.12-1.26Z"/>
                  <path class="cls-11" d="M1552.26,261.13h-1.68c-.19,0-.35-.04-.47-.13-.13-.09-.22-.2-.27-.34l-.63-1.63h-3.56s-.47,1.63-.47,1.63c-.04.12-.12.23-.23.32-.12.1-.27.14-.45.14h-1.7s3.18-9.35,3.18-9.35h2.22s4.07,9.34,4.07,9.34ZM1546.08,257.56h2.56s-.98-2.56-.98-2.56c-.06-.16-.14-.35-.22-.57s-.17-.46-.26-.72c-.06.26-.11.5-.18.72-.06.22-.12.41-.18.58l-.74,2.55Z"/>
                  <path class="cls-11" d="M1563.68,256.47c.03.67-.05,1.29-.26,1.86s-.5,1.06-.9,1.47-.89.74-1.47.97c-.58.23-1.23.35-1.95.35h-3.61s-.45-9.31-.45-9.31h3.61c.72.01,1.39.13,1.99.37.6.24,1.12.56,1.56.97s.79.9,1.05,1.47c.26.57.4,1.18.44,1.85ZM1561.48,256.47c-.02-.46-.1-.87-.24-1.24-.14-.37-.32-.68-.56-.94-.24-.26-.52-.46-.85-.6-.33-.14-.7-.21-1.11-.21h-1.44s.29,5.98.29,5.98h1.44c.41,0,.78-.07,1.09-.21s.58-.34.79-.59c.21-.26.37-.57.47-.94.1-.37.14-.79.12-1.25Z"/>
                  <path class="cls-11" d="M1570.42,251.85l.08,1.65h-3.78s.1,2.16.1,2.16h2.9s.08,1.59.08,1.59h-2.9s.11,2.21.11,2.21h3.78s.08,1.65.08,1.65h-5.94s-.45-9.28-.45-9.28l5.94.02Z"/>
                  <path class="cls-11" d="M1576.84,257.39c.09.17.17.35.25.53.06-.19.13-.37.2-.54.07-.18.14-.35.22-.51l2.12-4.67c.04-.08.08-.14.12-.19s.09-.08.14-.1c.05-.02.11-.03.18-.03h.24s1.62,0,1.62,0l.45,9.22h-1.87s-.26-5.31-.26-5.31c-.01-.26-.01-.54,0-.84l-2.19,4.75c-.07.15-.16.26-.29.34s-.27.11-.43.11h-.29c-.16,0-.31-.04-.44-.11-.13-.08-.24-.19-.32-.34l-2.67-4.76c.02.15.04.3.06.44.02.15.03.28.03.4l.26,5.32h-1.88s-.45-9.25-.45-9.25h1.63c.09,0,.17,0,.24,0s.13.01.19.03c.06.02.11.05.15.1s.09.11.14.19l2.59,4.7c.09.16.18.33.27.5Z"/>
                  <path class="cls-11" d="M1592.63,256.51c.03.66-.05,1.28-.25,1.85-.2.57-.49,1.07-.88,1.49s-.87.75-1.44.99c-.57.24-1.21.36-1.91.36s-1.36-.12-1.95-.36c-.59-.24-1.11-.57-1.55-1s-.78-.92-1.04-1.5c-.26-.57-.4-1.19-.43-1.86-.03-.67.05-1.29.25-1.86s.5-1.07.89-1.49.88-.75,1.45-.99c.57-.24,1.21-.36,1.92-.35s1.36.12,1.95.37c.59.24,1.1.58,1.53,1s.77.92,1.03,1.49c.25.57.4,1.19.43,1.85ZM1590.48,256.51c-.02-.45-.1-.86-.23-1.23s-.32-.67-.55-.93c-.23-.25-.51-.45-.83-.58-.32-.14-.69-.2-1.09-.2s-.77.07-1.08.2c-.31.13-.57.33-.78.58-.21.25-.36.56-.46.93s-.14.77-.11,1.23.1.87.23,1.24c.13.37.32.67.55.93.23.25.51.45.83.58s.69.2,1.1.2.76-.07,1.07-.2.57-.32.77-.58c.21-.25.36-.56.46-.92.1-.36.14-.77.12-1.23Z"/>
                  <path class="cls-11" d="M1599.81,258.73s.1,0,.15.03.1.05.15.1l.87.89c-.34.48-.78.85-1.31,1.09-.53.25-1.18.37-1.92.37-.69,0-1.31-.12-1.86-.36-.56-.24-1.03-.56-1.43-.98-.4-.42-.71-.91-.94-1.49-.23-.57-.36-1.2-.4-1.87s.05-1.31.26-1.89c.2-.57.5-1.07.9-1.48.4-.41.88-.74,1.44-.97.57-.23,1.2-.34,1.9-.34.34,0,.66.03.96.09s.59.15.85.25.51.24.74.39c.23.15.43.31.6.49l-.66.96c-.04.06-.09.11-.15.16-.06.05-.14.07-.26.07-.07,0-.15-.02-.21-.05s-.14-.07-.22-.12c-.08-.05-.16-.1-.25-.16-.09-.06-.2-.11-.32-.16-.12-.05-.27-.09-.43-.12-.16-.03-.36-.05-.58-.05-.38,0-.72.07-1.03.2s-.57.33-.78.58c-.21.25-.37.56-.48.92s-.15.77-.13,1.22.11.89.25,1.25.33.67.56.92c.23.25.49.44.79.57s.61.2.94.2c.19,0,.36,0,.52-.03.16-.02.3-.05.43-.1.13-.05.26-.11.37-.18s.24-.16.35-.27c.05-.04.1-.08.16-.1.06-.03.12-.04.18-.04Z"/>
                  <path class="cls-11" d="M1603.91,257.72l.16,3.39h-2.09s-.44-9.16-.44-9.16h2.92c.65.01,1.2.08,1.67.22.46.14.85.33,1.15.57.3.24.53.53.67.86.15.33.23.69.25,1.08.01.3-.01.58-.08.84-.07.26-.17.51-.31.73-.14.22-.32.42-.54.6-.22.18-.47.32-.75.43.14.07.28.16.4.26.13.1.24.23.34.38l2.06,3.18h-1.88c-.35,0-.61-.13-.77-.4l-1.62-2.66c-.07-.12-.15-.2-.24-.25-.09-.05-.22-.08-.38-.08h-.53ZM1603.84,256.25h.84c.28,0,.52-.03.72-.11.19-.07.35-.17.47-.3.12-.13.21-.28.26-.45.05-.17.07-.36.06-.56-.02-.4-.16-.72-.43-.94-.27-.23-.67-.34-1.21-.34h-.84s.13,2.71.13,2.71Z"/>
                  <path class="cls-11" d="M1618.47,261.1h-1.6c-.18,0-.33-.04-.45-.13-.12-.09-.21-.2-.26-.33l-.6-1.59h-3.39s-.45,1.59-.45,1.59c-.04.12-.11.22-.22.32-.11.09-.26.14-.43.14h-1.62s3.02-9.12,3.02-9.12h2.12s3.89,9.12,3.89,9.12ZM1612.58,257.61h2.44s-.94-2.5-.94-2.5c-.06-.16-.13-.35-.21-.56s-.16-.45-.25-.7c-.05.25-.11.49-.17.71-.06.22-.12.4-.17.56l-.7,2.48Z"/>
                  <path class="cls-11" d="M1624.67,258.74s.1,0,.15.03.1.05.14.1l.86.88c-.33.48-.76.84-1.29,1.08-.52.24-1.15.37-1.89.37-.67,0-1.28-.12-1.83-.35-.55-.23-1.01-.56-1.41-.97-.39-.41-.7-.91-.93-1.47-.23-.57-.36-1.19-.39-1.85s.05-1.3.25-1.87c.2-.57.49-1.06.88-1.47.39-.41.86-.73,1.42-.96.56-.23,1.18-.34,1.86-.34.33,0,.65.03.94.09s.58.15.84.25.5.23.72.38c.22.15.42.31.59.49l-.65.95c-.04.06-.09.11-.15.16-.06.05-.14.07-.25.07-.07,0-.14-.02-.21-.05s-.14-.07-.21-.12c-.07-.05-.16-.1-.25-.16-.09-.06-.2-.11-.32-.16-.12-.05-.26-.09-.43-.12-.16-.03-.35-.05-.56-.05-.37,0-.71.07-1.01.2s-.56.33-.77.58c-.21.25-.37.56-.47.91s-.15.76-.13,1.2.11.88.25,1.24.32.67.55.91c.22.25.48.44.77.57s.6.19.92.19c.19,0,.36,0,.51-.03.15-.02.29-.05.42-.1.13-.05.25-.1.37-.18s.23-.16.35-.27c.05-.04.1-.08.15-.1.06-.03.11-.04.17-.04Z"/>
                  <path class="cls-11" d="M1629.06,261.09h-2.06s-.44-9.07-.44-9.07h2.06s.44,9.07.44,9.07Z"/>
                  <path class="cls-11" d="M1638.86,261.09h-1.57c-.18,0-.32-.04-.44-.13-.12-.08-.2-.19-.25-.33l-.59-1.58h-3.34s-.44,1.58-.44,1.58c-.03.12-.11.22-.22.31-.11.09-.25.14-.42.14h-1.6s2.97-9.05,2.97-9.05h2.09s3.83,9.05,3.83,9.05ZM1633.06,257.63h2.4s-.93-2.48-.93-2.48c-.06-.16-.13-.34-.21-.56s-.16-.44-.24-.69c-.05.25-.11.49-.16.7-.06.22-.11.4-.17.56l-.69,2.46Z"/>
                </g>
              </g>
            </g>
          </g>
          <g class="cls-1">
            <path class="cls-25" d="M1387.85,516.36v6.65c0,.85.7,1.53,1.54,1.5l83-2.37c.81-.02,1.46-.69,1.46-1.5v-6.96c0-.85-.7-1.53-1.55-1.5l-83,2.68c-.81.03-1.45.69-1.45,1.5Z"/>
            <path class="cls-31" d="M1389.35,525.59c-.67,0-1.31-.26-1.79-.73-.5-.49-.78-1.15-.78-1.85v-6.65c0-1.4,1.1-2.53,2.5-2.58l83-2.68c.66-.03,1.37.23,1.88.73.51.49.79,1.15.79,1.85v6.96c0,1.41-1.1,2.54-2.51,2.58l-83,2.37s-.05,0-.08,0ZM1472.35,513.25s0,0-.01,0l-83,2.68c-.23,0-.41.19-.41.42v6.65c0,.16.08.26.13.3.05.05.15.12.31.12l83-2.37c.23,0,.41-.19.41-.42v-6.96c0-.16-.08-.26-.13-.3-.05-.05-.15-.12-.29-.12Z"/>
          </g>
          <path class="cls-31" d="M1682.43,565.47l-115.96,3.71c-1.91.06-3.5-1.41-3.5-3.25v-61.24c0-1.76,1.45-3.2,3.28-3.25l115.96-3.37c1.91-.06,3.49,1.42,3.49,3.25v60.89c0,1.76-1.45,3.2-3.27,3.25Z"/>
          <g class="cls-32">
            <path class="cls-25" d="M1674.65,555.6l-100.06,3.21c-1.65.05-3.03-.34-3.04-.86l-.37-17.36c-.01-.5,1.24-.93,2.81-.98l100.06-3.12c1.65-.05,3.02.34,3.03.86l.37,17.26c.01.5-1.23.93-2.81.98Z"/>
          </g>
          <g class="cls-32">
            <path class="cls-25" d="M1674.65,527.46l-100.06,3.21c-1.65.05-3.03-.34-3.04-.86l-.37-17.36c-.01-.5,1.24-.93,2.81-.98l100.06-3.12c1.65-.05,3.02.34,3.03.86l.37,17.26c.01.5-1.23.93-2.81.98Z"/>
          </g>
        </g>
      </g>
    </g>
  </g>
</svg>