<?xml version="1.0" encoding="UTF-8"?>
<svg id="Camada_2" data-name="Camada 2" xmlns="http://www.w3.org/2000/svg" xmlns:xlink="http://www.w3.org/1999/xlink" viewBox="0 0 1920 918">
  <defs>
    <style>
      .cls-1 {
        fill: #5f4e47;
      }

      .cls-2 {
        fill: #e0c1a1;
      }

      .cls-3 {
        fill: #b18a72;
      }

      .cls-4, .cls-5 {
        fill: none;
      }

      .cls-6 {
        fill: #7c716a;
      }

      .cls-7 {
        fill: #a78e75;
        opacity: .8;
      }

      .cls-8 {
        fill: #ad9b80;
      }

      .cls-9 {
        fill: #1d1d1b;
      }

      .cls-10 {
        fill: #aeb1b2;
      }

      .cls-5 {
        stroke: #ae957c;
        stroke-miterlimit: 10;
        stroke-width: 3px;
      }

      .cls-11 {
        clip-path: url(#clippath);
      }
    </style>
    <clipPath id="clippath">
      <polygon class="cls-4" points="55.53 54.22 45.77 863.51 1872.23 863.51 1863.46 45.54 55.53 54.22"/>
    </clipPath>
  </defs>
  <g id="Cena_1c" data-name="Cena 1c">
    <rect class="cls-4" x="0" width="1920" height="918"/>
  </g>
  <g id="Cena_1f" data-name="Cena 1f">
    <polygon class="cls-10" points="43.53 41.22 33.77 850.51 1860.23 850.51 1851.46 32.54 43.53 41.22"/>
    <g class="cls-11">
      <g>
        <polygon class="cls-1" points="45.77 45.04 1872.23 45.54 1872.23 863.51 45.77 863.51 45.77 45.04"/>
        <path class="cls-2" d="M45.77,206l52.27-8.91,45.73,4.45,21.98,12.18,7.33-10.15c11.58-16.05,28.98-26.95,48.48-30.36L954.23,45.04l704.73.74,139.58,817.73H45.77V206Z"/>
        <polygon class="cls-3" points="259.75 166.06 252.32 99.83 391.9 79.94 400.81 140.52 259.75 166.06"/>
        <polygon class="cls-6" points="1665.9 45.04 1698.98 45.04 1841.19 863.51 1808.23 863.51 1665.9 45.04"/>
        <polygon class="cls-8" points="1658.96 45.78 1665.9 45.54 1808.23 863.51 1798.54 863.51 1658.96 45.78"/>
        <path class="cls-5" d="M45.77,277.41s67.38-18.93,130.19-7.13c3.12.45,17.52-16.78,71.2-26.8,53.68-10.02,1177.15-198.44,1177.15-198.44"/>
        <path class="cls-5" d="M45.77,355.59s104.94-24.28,144.44-2.02c3.12.45,18.49-22.78,72.17-32.8S1672.96,86.11,1672.96,86.11"/>
        <path class="cls-5" d="M45.77,438.74s119.86-27.48,159.35-5.22c3.12.45,18.49-22.78,72.17-32.8,53.68-10.02,1409.57-234.66,1409.57-234.66"/>
        <path class="cls-5" d="M45.77,517.29s128.85-27.84,173.45-6.98c3.12.45,18.49-22.78,72.17-32.8,53.68-10.02,1408.93-234.12,1408.93-234.12"/>
        <path class="cls-5" d="M45.77,597.85s143.05-29.62,187.65-8.76c3.12.45,18.49-22.78,72.17-32.8,53.68-10.02,1407.41-240.02,1407.41-240.02"/>
        <path class="cls-5" d="M45.77,678.7s157.11-34,201.71-13.14c3.12.45,18.49-22.78,72.17-32.8,53.68-10.02,1399.08-236.75,1399.08-236.75"/>
        <path class="cls-5" d="M45.77,758.59s174.41-35.14,219.01-14.28c3.12.45,18.49-22.78,72.17-32.8,53.68-10.02,1403.34-238.41,1403.34-238.41"/>
        <path class="cls-5" d="M45.77,839.37s189.63-38.42,234.23-17.56c3.12.45,18.49-22.78,72.17-32.8,53.68-10.02,1401.66-238.12,1401.66-238.12"/>
        <line class="cls-5" x1="367.88" y1="863.51" x2="1758.28" y2="627.65"/>
        <line class="cls-5" x1="165.75" y1="213.72" x2="286.66" y2="864.79"/>
        <line class="cls-5" x1="1771.52" y1="705.23" x2="840.23" y2="863.51"/>
        <line class="cls-5" x1="1311.09" y1="863.51" x2="1784.69" y2="782.38"/>
        <path class="cls-7" d="M1460.14,47.25s13.91,21.29,13.63,22.14,8.23,38.89,8.23,38.89c0,0,17.03,7.95,19.02,8.52s16.18,5.68,16.18,5.68l9.65,32.64,4.83,15.33,27.82,8.8,23.28,13.63,8.23,20.72,21.29,17.32,11.92,9.08,15.33,3.41,52.41-4.31-2.5-8.2-39.12,5.7-22.71-11.35-30.09-22.43-14.19-15.9-36.05-26.4-11.64-7.38-16.75-42.3-24.41-4.54-7.38-27.82-6.24-17.32-13.91-15.61-7.47.03"/>
      </g>
    </g>
    <g>
      <g>
        <path d="M676.83,436.61c.14,10.06-4.8,20.07-6.78,29.64-6.84,32.97-11.16,107.12-.94,138.4.39,1.21,5.41,10.1,5.95,10.37s2.38-1.31,3.19-1.66l3.11,5.31c.64-12.24,2.89-24.34,4.34-36.47.38-3.18-.61-7.98.11-10.71.61-2.32,6.55-3.78,5.77-7.57l2.49,1.38c1,1.96-1.52,1.72-1.81,2.84-.45,1.71.1,4.96-.62,5.91-.62.81-2.74.4-3.74,2.74-1.12,2.61.1,6.95-.34,9.8-1.54,9.93-6.62,29.72-3.72,38.96,2.43,7.72,9.25,16.88,11.66,25.1.17.93-2.12,1.14-2.75,1.03-1.79-.29-8.69-19.41-10.41-22.71-3.09-5.91-10.89-16.17-15.36-21.11-1.35-1.49-21.37-14.83-23.15-15.22-5.68-1.24-10.09,4-9.77-3.78,6.76,1.36,10.09-2.47,14.54-6.87l8.26-10.48c.51,7.17-8.24,11.42-10.77,15.41-3.33,5.24,4.86,6.25,7.28,7.75,1.79,1.11,13.07,10.36,14.12,8.76-1.45-6.23-3.91-13.27-5.03-19.47-1.17-6.51,2.43-18.53-7.57-17.43-2.02-17.14-7.48-33.49-11.09-50.25-1.53-17.98-7.1-35.67-8.35-53.42,4.69-7.18,2.55-.55,3.01,3.24,1.59,13.11,4.78,27.93,8.17,40.62.48,1.8-.99,4.85.74,6.08,3.33-7.09,2.42-16.86,2.61-24.68l-2.07-.02c4.6-12.79,2.11-28.6,8.66-40.32-1.25,15.29-2.33,30.64-3.75,45.93-1.29,13.92-6.04,30.48-1.1,44.4.47,1.33,2.99-.2,3.57.1-3.34,5.33.03,8.65.83,13.18.7,3.94.86,8.81,1.9,12.44.44,1.53,1.12,3.21,2.5,1.33.65-16.65,1.64-33.38,2.3-50.03.52-13.18,1.37-22.57,2.87-36.04.72-6.46-.36-7.23,1.54-14.94,1.9-7.68,4.62-16.73,7.2-24.86.55-1.73-.69-2.8,2.41-2.68Z"/>
        <path d="M697.65,375.61c7.03-4.1,19.48-4.1,25.8-7.62,2.38-1.32,4.19-14.39,4.38.7,2.28-1.01,15.14-2.92,15.6-3.57.15-.21-.53-3.12.34-5.26,1.65-4.02,6.84-11.66,9.35-16.22,3.88-7.05,5.44,6.96,7.55,11.12,2.55,5.03,7.8,8.95,11.23,13.39l9.58,7.41c3.34-2.82-.76-6.1-.71-8.53.02-.84,1.5-2.65,2.75-1.03,1.86,2.41-.49,8.58,2.11,13.52,2.04,3.88,18.94,11.85,18.82,13.95-.22,3.98-6.23.06-7.83-.94-5.94-3.71-16.95-16.38-21.64-17.66-5.75-1.58-2.32,5.6-6.56,2.11,6.28-6.59-.09-6.97-3.83-11.19-3.7-4.17-7.01-9.11-9.84-13.91-3.18,3.17,1.54,5.84.3,9.22-.63,1.72-6.99,7.23-7.12,10.86l-10.7,35.78c-1.98-5.1,10.82-37.28,9.18-38.4-4.19.26-6.61,1.81-7.79,5.82-1.31.12-.52-2.86-1.1-3.31-.57-.44-11.05,2.96-13.99,3.33-9.3,1.18-18.5-.82-27.79,2.97-3.14-9.97-10.32-18.56-13.53-28.67-.48-1.51-3.16-12.4-3.09-13.07.19-1.87,3.41-3.39,2.42-6.31-.33-.97-3.13-.49-3.7-1.88-.15-.36-.67-8.13,1.57-7.69,2.36,1.94,4,6.3,4.4,9.17.51,3.63-1.13,5.55-1.09,8.3.23,14.43,10.02,25.13,14.91,37.59Z"/>
        <path d="M700.2,445.78c8.52-.46,8.04-.79,11.57-7.55-.76,6.29,7.9,9.07,12.79,11.94l4.68-11.12c.61,4.97-2.89,9.38-1.24,14.56,1.67,5.22,11.51,10.62,10.75,17.53-2.86.99-2.08-.25-3.12-1.83-6.51-9.84-5.8-11.8-16.28-18.87-2.64-1.78-3.79-6.12-7.97-3.97-1.93.99-.22,4.6-3.55,3.91l.61-3.54-12.1,4.15c-.52,2.89,2.47,5.12,2.89,7.05.5,2.33-.96,6.14-.48,9.36,2.55,17.15,4.97,37.56,8.3,54.3.28,1.41,6.82,17.18,1.06,14.25-.43-.22-1.87-4.83-2.13-5.98-5.15-22.86-3.61-51.9-11.86-72.56-1.26-3.16-.05-8.38-4.5-4.86-4.65,3.68,3.81,19.08,5.49,24,.52,1.52,2.34,3.63-.66,3.63-5.12-5.1-5.57-12.63-8.21-18.85-1.55-3.66-3.61-8.65-7.97-7.61-.85-.87,4.5-7.47,4.85-9.95,12.9,13.62,15.09-1.84,14.69-13.81,2.1-.55,1.27,2.23,1.35,3.5.24,4.11-.19,8.25,1.04,12.33Z"/>
        <path d="M531.07,473.74c.74.36,2.79-1.8,3.09-1.6,4.09,9.87,16.54,15.14,23.74,22.99,1.55-5.55,3.03-11.06,4.77-16.55,1.83-5.75,6.6-12.08,4.39-18.36,3.53-1.86,3.05,5.57,4.43,6.27.74.37,3.33-1.96,4.73-1.99,1.12-.02,1.61,2.93,3.59,3.6.43.14,8.38,1.47,8.98,1.48,2.27.05,9.09-1.62,10.92-2.72,1.66-1-1.2-4.16,1.89-3.81,1.11.13,1.42,3.36,4.28,3.77,5.88.85,18.41-1.12,16.87-9.3l1.6,6.7c2.44.53,3.76-3.99,4.57-4.14,1.19-.21,2.95,3.54,2.39,4.24-.24.3-2.78.09-3.85.65-8.47,4.42-15.66,2.76-24.95,3.69-4.55.46-8.66,2.74-12.18,3.02-5.63.45-16.02-3.92-20.99-1.25-1.18.63-7.66,18.64-7.97,21.24-.25,2.11,1.74,17.58-2.3,14.87-2.58-1.74-.97-8.79-1.37-9.03-.29-.18-2.15.72-3.13.24-.9-.44-1.46-2.92-2.68-3.93-14.35-11.98-35.23-32.26-52.85-37.35-11.61-3.36-24.02-3.07-36.04-3.57-.85-2.61.05-2.7,2.44-2.63,26.53.77,42.36,4.14,63.37,20.38,1.13.87,2.1,3.02,2.27,3.11Z"/>
        <path d="M707.64,555.68l-4.73-5.14c-4.42-7.06-3.65-13.12-5.04-21.13l-2.86,3.9c-.26-5.49,1.81-11.17.83-16.71-.8-4.49-6.62-22.12-8.61-26.36-.45-.95-2.29-.52-2.48-1.21-.41-1.56.65-3.83,0-6.45-.36-1.48-2.41-6.89-4.33-7.19l-2.38,51.98c.19,17.53,2.64,35.16,3.22,52.6.06,1.72-.39,3.58-2.01,2.01-.69-6.91-1.65-14.16-2.04-21.07-1.35-23.81-2.88-45.99-.86-69.92.36-4.26.66-14.13,1.3-17.04.56-2.52,3.38-2.81,3.64-6.48.24-3.45-1.28-5.11-2.16-8.08,6.27,2.31,4.72,12.01,6.33,17.98,3.58,13.25,9.86,26.47,12.84,39.84,1.66,7.42,1.56,16.61,3.7,23.62,1.52,4.99,6.52,8.33,5.62,14.86Z"/>
        <path d="M675.63,277.3c.53.25,1.17,2.91,4.54,4.04,4.61,1.54,20.95-1.43,22.33,3.91,1.01,3.91-4.08,5.77-6.28,8.47-4.09,5.03-9.18,10.89-9.51,17.61-2.55-.39-2.05-1.01-1.95-2.88.38-7.15,8.74-14.69,13.52-19.24,7.74-7.38-13.1-4.46-17.08-5.15-7.53-1.29-20.56-5.54-25.65-11.53-2.64-3.11-4.78-7.09-6.42-10.32-.56-1.09-.6-2.09-2.08-2.66-3.61,8.35-10,16.05-11.85,24.9l-1.46-2.08c-1.98-1.11-10.82,11.81-9.25,15.28-6.36-4.7-6.36,5.42-10.39,7.95-1.36.85-3.17-.09-4.5.64-2.88,1.59-5.13,4.63-8.43,5.35,18.06-16.58,37.82-34.37,44.85-58.83,4.16,2.51,4.44,7.96,7.04,12.24,3.74,6.17,9.8,12.42,17.35,13.38,2.77.35,5-1.2,5.24-1.08Z"/>
        <path d="M562.17,382.3l-3.37.55c.45,5.3,4.79,11.47,9.52,13.63,1.86.85,3.61.14,5.02.68.76.29,1.18,2.08,3.49,2.71,9.38,2.59,21.49-7.61,31.42-7.21,1.7.07,3.53-.53,4.32,1.64-3.49.69-7.13.78-10.57,1.77-10.51,3.01-19.43,10.68-30.72,4.48-1.05-.58-1.58-2.19-2.51-2.67-2.01-1.05-7.43-2.18-9.12-3.97-1.91-2.02-2.31-10.52-5.78-9.18-.94.37-9.97,13.94-11.99,16.29-11.56,13.49-25.5,25.37-41.15,33.97-5.76,3.16-10.88,5.35-17.62,5.59l15.2-6.37c21.97-12.19,38.82-29.98,53.84-49.77,3.04-4,3.4-8.54,10.02-2.15Z"/>
        <path d="M624.9,308c1.01.63-4.04,8.38-4.69,10.09-5.4,14.12-5.68,26.35-1.48,41.24.6,2.12,2.56,1.22,2.6,1.76.18,2.38-1.44,5.72-.84,9.41.99,6.12,4.93,13.45,5.4,19.95l-3.31,1.17c-3.04-15.91-5.78-32.07-9.17-47.96-.37-1.71.37-3.62-.12-5.45-1.57-5.88-9.46-7.88-11.36-14.01l3.2-1.65c.25,4.82,4.33,7.79,7.95,10.34,2.07-.32,4.91-20.67,6.9-23.01,1.04-1.22,4.09-2.41,4.92-1.89Z"/>
        <path d="M733.45,565.65c.62,8.12-17.13,2.78-17.91,3.87-.5.7,1.97,4.6-.44,4.69.51-9.03-5.72-5.83-7.82-7.11-.64-.39-2.28-6.62-5.33-7.05-3.37,6.88-1.14,13.83.25,20.75-1.35.88-1.96-4.58-3.72-1.74-.67,1.09.61,21.32.06,25.67-.15,1.22.26,3.47-1.42,3.45l1.02-57.98c8.25,12.22,19.9,22.1,35.3,15.46Z"/>
        <path d="M737.7,570.79c3.74,3.18-5.32,5.12-7.03,6.41-.79.6-2.49,4.26-3.65,5.53-7.82,8.56-15.01,13.54-14.7,26.61l-2.19-3.12c-2.72,4.11-7.1,10.45-1.9,14.15-5.52-.31-3.77,8.7-4.63,13.21-.37,1.92,1.05,2.93-2.17,2.86-.02-6.11-.19-20.69,1.84-26.02.6-1.57,2.65-1.26,3.58-2.58,3.22-4.59,7.02-14.91,6.76-20.67l3.31,2.95c2.34-2.95,17.25-22.34,20.78-19.34Z"/>
        <path d="M645.14,547.84c-4.49-2.23-3.54-10.36-4.52-14.97-4.05-19.02-10.98-37.85-13.41-57.49,3.97.98,2.72,6.19,3.78,9.17,5.98,16.72,9.06,28.24,11.44,45.73.8,5.86,1.96,11.7,2.71,17.56Z"/>
        <path d="M781.4,409.14c1.89,1.36,10.95-10.36,15.17-10.4,6.4-.06-3.52,4.6-4.08,5.01-2.66,1.96-10.48,8.22-11.17,10.87-.31,1.19.5,3.41.31,3.74-.14.25-2.44-1.24-4.54.06-.81.5-10.08,10.01-11.61,11.64-9.04,9.64-16.1,20.69-22.26,32.31.95-12.91,11.18-21.67,19.05-30.7.92-1.05,1.04-2.66,2.02-3.77,3.21-3.62,12.39-10.47,14.37-14.24,2.22-4.22,1.24-17.59,2.25-22.95,2.02-.52,1.74,3.6,1.75,4.8.04,4.6-1.64,9.02-1.27,13.62Z"/>
        <path d="M536.33,387.4c2.78,1.83-7.57,9.73-8.23,10.5-7.97,9.24-16.62,19.28-26.59,26.62-4.17,3.07-8.66,6.67-13.94,7.29l16.11-11.73c3.92-5.27,10.77-9.44,14.98-13.85,2.3-2.41,14.74-20.78,17.68-18.84Z"/>
        <path d="M666.54,642.9c-.71.94-2.66.8-3.89-.86-5.91-7.93-8.46-19.12-15.51-26.66l-11.65-9.4c4.37-.39,10.64,3.73,13.56,6.8,2.62,2.75,18.54,28.72,17.49,30.11Z"/>
        <path d="M699.49,311.71c-.23,14.67-.55,29.7,2.1,44.19.45,2.46,4.87,8.8.16,8.67-4.71-14.45-4.7-29.86-5.65-44.83-.24-3.75-.88-8.94,3.39-8.04Z"/>
        <path d="M670.73,569.11c.25.32,1.93-.03,2.07.63.23,1.1-.68,3.6-.38,5.7,1.49,10.48,4.41,20.71,4.23,31.23-1.28.19-2.21-13.36-2.86-15.23-.99-2.85-3.48-1.36-4.2-3.91-2.03-7.18,1.06-18-3.76-25.48,5.05-1.01,3.26,4.97,4.91,7.06Z"/>
        <path d="M696.97,264.66c2.63,5.58-5.82,3.99-9.8,3.09-12.7-2.87-12.86-8.79-19.9-16.27-1.54-1.64-7.53-1.94-5.19-6.98,2.57-5.54,7.99,8.97,9.31,10.58,4.65,5.7,18.26,13.52,25.57,9.59Z"/>
        <path d="M631.42,259.58c.59,2.12.13,3.97-.92,5.84-.74,1.33-9.54,10.78-11.39,12.7-5.18,5.38-11.92,11.57-17.99,15.89-1.25.89-2.44,2.64-3.75.23-.65-1.2,19.12-14.76,20.27-18.2l13.78-16.46Z"/>
        <path d="M722.15,620.58c-.47-1.86-.48-3.63.03-5.49.91-3.32,15.24-25.77,17.72-26.1,1.03-.14,2.14,1.12,1.01,2.73-1.88,2.68-5.36,5.84-7.23,8.74-4.18,6.48-7.02,13.88-11.53,20.12Z"/>
        <path d="M625.42,349.55c-2.49.33-1.31-4.08-1.05-5.29,1.66-7.76,5.61-19.3,8.27-27.05,1.61-4.7,3.7-10.74,6.43-14.84l-13.66,47.18Z"/>
        <path d="M518.55,478.4c3.62,2.35,9.41,10.67,11.96,11.8,1.87.83,3.64-1.02,3.97-.75.57.47,5.95,15.36-1.31,7.94-3.84-3.93-13.89-12.87-16.21-16.18-.88-1.26-1.78-2.12-1.66-3.87.1-.17,2.7.7,3.24,1.06Z"/>
        <path d="M674.72,308.53c-3.5,15.83-5.61,32.15-9.2,47.95-.29,1.27.18,3.42-1.48,3.4l4.79-33.11c2.28-4.9,1.99-10.54,3.47-15.57.53-1.81-.6-2.77,2.43-2.67Z"/>
        <path d="M711.19,571.36c-3.09,7.53-2.33,16.05-3.93,23.71-.51,2.44-2.01,6.94-3.86,8.69l-1.37-9.04,3.55.62c-.62-1.9.97-27.46,5.62-23.98Z"/>
        <path d="M641.36,393.41l-.53-6.82,4.02-15.68c1.03,2.25-.28,5.35.3,7.29.3,1.01,2.34,1.8,2.34,3.14,0,.68-4.6,11.24-6.14,12.08Z"/>
        <path d="M656.99,404.91c-1.96-8.53,5.31-17.04,10.28-23.54.87,4.49-3.78,7.27-5.31,10.64-1.84,4.06-2.21,9.43-4.97,12.9Z"/>
        <path d="M762.79,408.51c-1.21,1.48-3.75,26.43-8.04,23.18,2.41-6.65,3.52-13.76,5.62-20.5.55-1.75-.67-2.8,2.42-2.68Z"/>
        <path d="M545.31,407.82c-3.69,1.24-34.48,41.29-38.59,31.13,11.24-8.82,20.71-19.82,31.5-29.13,2.81-2.42,1.78-5.51,7.08-2Z"/>
        <path d="M556.1,484.9c-.54-1.26-15.53-10.94-12.07-12.68,3.43,3.7,7.58,6.72,11.16,10.25.93.92,1.99.47.91,2.44Z"/>
        <path d="M649.34,347.08l-1.72-5.79c4.83-13.61,5-29.18,11.81-42.01-2.64,16.07-9.03,31.43-10.09,47.8Z"/>
        <path d="M657.15,367.88c2.08-.57,1.22,2.15,1.13,3.34-.18,2.44-1.81,17.47-3.15,17.75-2.47.52-1.19-2.92-1.13-3.81.45-5.81,2.33-11.55,3.14-17.29Z"/>
        <path d="M621.6,393c.45.43-2.16,5.35-3.09,6.19l-.12-4.6-4.53.67.91-9.38c2.64.24,2.33,4.66,3.9,6.33.9.96,2.76.63,2.92.78Z"/>
        <path d="M719.61,443.98c-.06-4.04,1.36-8.83,2.48-12.72.53-1.84,1.04-5.68,2.66-6.56.73,6.47-1.16,14.13-5.14,19.28Z"/>
        <polygon points="691.06 400.88 689.8 396.44 695.88 379.34 691.06 400.88"/>
        <path d="M751.52,395.17c1.17-6.78,3.59-15.05,7.23-20.76-1.53,6.8-3.36,15.03-7.23,20.76Z"/>
        <path d="M685.97,519.65l-1.87-4.89.7-18.05c2.23,7.62.31,15.24,1.17,22.95Z"/>
        <path d="M680.4,292.63l.24,9.21c-2.16.7-1.03-2.71-1.64-3.23-2.28-1.93-2.19,3.65-3.99,4.09-.92-2.01,3.35-11.77,5.39-10.07Z"/>
        <path d="M490.96,469.47c-.79,1.03-10.49-2.45-8.76-4.44,3.52-1.22,7.89.59,8.76,4.44Z"/>
      </g>
      <g>
        <path class="cls-9" d="M599.38,716.5c.17,1.04-1.53,1.95-5.11,2.72-1.53.3-3.81.75-6.86,1.35-.12.11-.16.3-.11.58.44,2.66,1.88,6.42,4.31,11.27,2.43,4.85,3.87,8.63,4.32,11.34l.03.2c-.28.28-.72.65-1.33,1.12-.3-.13-.74-.29-1.32-.48l-.05.08-.25.18c-.23,0-.36-.1-.39-.28-1.4.14-2.51-.74-3.33-2.64-2.14-5.02-4.63-11.62-7.48-19.81-.77.13-1.84.53-3.22,1.2-1.38.67-2.45,1.07-3.22,1.2-1.27.21-2.55.08-3.84-.4-1.58-.57-2.42-1.43-2.52-2.57.99-1,2.73-1.98,5.21-2.95.78-.31,2.76-.95,5.94-1.89l-3.42-14.3c-.15-.9-.26-1.99-.34-3.28,1.1-.04,1.96-.05,2.57-.01,1.26.07,2.05.26,2.36.58.31.32.79,2.02,1.44,5.11l1.26,5.91c.91,3.28,1.67,4.87,2.25,4.77.77-.13,1.91-.4,3.44-.82s2.68-.69,3.44-.82c.09-.01,1.84.32,5.24,1,.62.96.95,1.51.97,1.65Z"/>
        <path class="cls-9" d="M632.53,720.65c.31,1.85-.74,3.48-3.15,4.9-1.77,1.04-3.79,1.74-6.04,2.12l-4.12.69c-1.26.21-3.13.01-5.59-.6-2.76-.7-4.21-1.52-4.37-2.47-.07-.45.07-.95.45-1.5.37-.55.78-.86,1.23-.94.63-.1,1.65.05,3.06.46,1.41.41,2.19.61,2.32.59l7.24-1.2c.77-.13,1.46-.43,2.07-.9.79-.55,1.13-1.16,1.01-1.84-.33-1.98-1.35-3.48-3.08-4.49-1.72-1.01-3.6-1.39-5.65-1.15-.3-.13-.58-.18-.86-.13l-2.5,1.25c-2.22,1.11-3.94,2.92-5.14,5.44-1.2,2.52-1.59,5.04-1.17,7.56.6,3.61,2.68,6.07,6.23,7.37,2.87,1.1,6.24,1.33,10.12.68.5-.08,1.04-.45,1.62-1.1.75-.77,1.21-1.22,1.38-1.34,1.27.39,2.3,1.17,3.1,2.33.13.77-.16,1.53-.87,2.3-.71.77-1.47,1.22-2.28,1.35-3.61.6-6.51.67-8.72.2l-.23-.52-.26.11c-.72.12-2.04-.17-3.97-.87-3.2-1.13-5.62-2.31-7.26-3.52-2.43-1.77-3.85-3.95-4.28-6.52-.78-4.69.27-8.82,3.15-12.41,2.76-3.47,6.5-5.6,11.24-6.39.41.21.86.27,1.35.19,1.13-.19,2.97.32,5.53,1.51,2.16.99,3.89,1.97,5.22,2.96.64.5,1.29,1.37,1.97,2.63s1.08,2.33,1.23,3.24Z"/>
        <path class="cls-9" d="M678.64,727.58c.08.5-.11.96-.57,1.38-.46.43-.96.68-1.5.77-.05-.04-.43-.23-1.14-.57-1.97-.97-3.21-1.9-3.73-2.79-1.19-2.12-3.33-5.93-6.42-11.44-.16.44-.38,3.17-.66,8.17-.23,4.21-.79,6.39-1.69,6.54-1.58.26-2.83-.04-3.76-.9-.67-.68-1.33-1.86-1.98-3.56-1.62-4.46-3.51-8.03-5.68-10.73-.4.67-.9,2.79-1.51,6.37l.17.6c.13.77,0,4.61-.38,11.53-.08,1.22-.33,2.07-.76,2.56-.43.49-1.25.83-2.47,1.04-1.17.2-2.17-.4-3.01-1.79-.57-.92-1.8-4.57-3.69-10.92-1.81-6.14-2.85-10.02-3.12-11.64-.13-.81.2-1.29,1.01-1.42.14-.02.34.07.6.28.27.21.47.33.61.35l.91-.36c1.1.75,2.15,2.41,3.16,5,1.01,2.59,1.64,3.93,1.89,4.03l.52-6.07c.47-2.21,1.4-4.01,2.79-5.4.34.13.9.25,1.66.35l.08-.36.19-.1.98.46c.52-.23.75-.34.71-.33,1.49-.25,2.85.73,4.1,2.93,1.58,2.84,2.56,4.39,2.93,4.66.52-2.45.89-3.99,1.11-4.63.71-2.16,1.49-3.3,2.35-3.45.23-.04,1.61.2,4.15.7,1.65.75,3.62,3.25,5.9,7.5,1.03,2.01,2.57,4.99,4.62,8.96.07.17.36.54.84,1.11.49.57.75.96.79,1.19Z"/>
        <path class="cls-9" d="M707.67,713.68c.29,1.71-.27,3.65-1.67,5.82-.77,1.19-2.16,2.88-4.16,5.06-1.61,1.75-2.43,2.83-2.45,3.25l-7.1,1.18c3.12,11.81,4.88,18.88,5.26,21.19.43,2.59-.28,4.04-2.13,4.35-.99.17-2.01-.41-3.06-1.71l-.82-.35c.14-.86.11-1.87-.09-3.04-.37-2.21-1.13-5.48-2.29-9.8-1.16-4.32-1.92-7.59-2.29-9.8-.32-1.94-.62-3.74-.9-5.41-.44-2.94-.75-4.81-.93-5.61-.43-2.01-.91-3.81-1.45-5.39-.38.48-.69.74-.91.78-.9.15-1.75-.19-2.53-1.01-.79-.82-1.26-1.71-1.42-2.66-.26-1.58.87-3.71,3.39-6.36-.16-.39-.28-.84-.36-1.34-.14-.82-.2-1.64-.2-2.48l.68-.11c.36-.06,1.08.26,2.14.96,1.07.7,1.8,1.02,2.21.95.31-.05.78-.2,1.39-.44.61-.24,1.07-.39,1.39-.44.22-.04.89.08,2.01.36,1.11.28,1.81.42,2.08.42l.37-.27c.45.2,1.12.44,1.99.71,2.54.5,5.05,1.89,7.54,4.15,2.49,2.27,3.93,4.62,4.33,7.04ZM701.95,711.82c-.25-1.49-1.8-2.87-4.65-4.16-2.67-1.27-4.79-1.77-6.37-1.51-.32.05-1.34.45-3.07,1.21l1.15,6.9c.17.99.49,2.43.96,4.32.48,1.89.8,3.33.96,4.32.13.77.05,1.31-.21,1.63l1.16-.19,1.94-1.36c.58.13,1.46.27,2.65.39,1.1-.41,2.34-2.12,3.72-5.14s1.97-5.15,1.76-6.41Z"/>
        <path class="cls-9" d="M725,719.24c.03.18.03.48.01.9-.02.42-.02.72.01.9-.46.87-1.12,1.37-1.97,1.51-2.71.45-6.43-5.93-11.17-19.13-3.79-10.53-6.32-19.03-7.58-25.5.31-.37.62-.59.94-.64,1.17-.2,2.45.38,3.83,1.72,3.69,10.46,7.18,20.03,10.47,28.7.32.83,1.33,2.81,3.01,5.96,1.48,2.77,2.3,4.62,2.46,5.57Z"/>
        <path class="cls-9" d="M761.16,716.42c.2,1.17-.32,1.86-1.53,2.06-1.67.28-2.94-.14-3.82-1.24-.53-.7-1.08-2.01-1.63-3.93-.55-1.92-1.05-3.22-1.48-3.89-3.08,5.47-7.11,8.62-12.12,9.45-.59.1-1.35.11-2.29.03-1.13-.14-1.91-.19-2.32-.17v-.42l-.29-.09.04.27-.18.17c-.32.05-2.01-.68-5.09-2.21-.64-.77-1.6-1.93-2.87-3.48-.95-1.23-1.54-2.57-1.78-4.01-.65-3.92.01-7.58,2-10.97,2.08-3.64,5.04-5.77,8.87-6.41.54-.09,1.33-.03,2.36.16,1.03.2,1.81.25,2.36.16l.17-.24.2-.03c.77-.13,1.97.14,3.61.79,1.64.66,2.79,1.3,3.45,1.93,1.98-.37,3.44.24,4.41,1.84.19.29.74,1.96,1.67,5,.39,1.23,1.52,3.87,3.4,7.91,1.73,3.7,2.69,6.13,2.88,7.3ZM749.74,702.48c-.17-.99-.55-2.22-1.17-3.7-.94-.12-2.17-.82-3.67-2.1-1.29-1.08-2.92-1.46-4.9-1.13-3.19.53-5.68,2.01-7.47,4.44-1.79,2.43-2.42,5.24-1.88,8.44.28,1.67.89,3.28,1.84,4.84,1.26,2.02,2.56,2.91,3.91,2.69l2.49-.42c2.61-.43,5.13-2.06,7.57-4.87,2.6-2.93,3.7-5.66,3.28-8.19ZM743.71,679.23c.17,1.04-1.39,3.08-4.68,6.13-3.29,3.05-5.57,4.68-6.83,4.89l-.44-.14c.1-.2.42-.79.96-1.76.43-.77.61-1.35.54-1.76-.15-.9.87-2.76,3.07-5.58,2.2-2.82,3.74-4.31,4.65-4.46,1.13-.19,1.84-.07,2.14.34.18.25.38,1.03.6,2.33Z"/>
        <path class="cls-9" d="M787.83,687.94c.04.27,0,.88-.11,1.83-.46.03-1.11,0-1.96-.09-.24-.05-.52-.08-.85-.07-.36.06-.94,1.15-1.75,3.28-1.16,3.06-1.67,6.42-1.52,10.05l.6,10.32c-.25-.1-.48-.13-.71-.09-.14.02-.33.17-.59.44-.26.27-.45.42-.59.45-2.57.43-4.61-1.25-6.12-5.03-2.63-6.65-4-10.94-4.09-12.87-.53-.65-1.14-2.13-1.85-4.42-.66-2.02-1.09-3.62-1.28-4.79.49-.13,1.24-.32,2.27-.58.39.12.73.34,1.01.67l.14-.44c1.55.39,2.63,1.74,3.24,4.05.77,2.93,1.35,4.64,1.76,5.13,1.41-4.03,2.16-6.1,2.23-6.21,1.21-2.47,2.78-3.87,4.72-4.19,1.17-.2,2.28-.1,3.31.28,1.23.44,1.94,1.21,2.12,2.29Z"/>
        <path class="cls-9" d="M790.62,676.7c.06.36-.17.76-.7,1.2-.53.44-1,.69-1.4.75-.9.15-1.84-.19-2.81-1.03-.97-.83-1.54-1.73-1.69-2.67-.21-1.26.27-1.99,1.44-2.18,1.17-.2,2.28.12,3.32.94,1.04.82,1.66,1.82,1.85,2.99ZM807.69,706.6c.32,1.94-.04,2.99-1.07,3.17-.68.11-1.96-.39-3.87-1.51-.92-3.55-2.8-8.64-5.66-15.25-.85-1.48-2.04-3.76-3.57-6.84.12-.95.54-1.48,1.26-1.6,1.71-.29,3.3.61,4.76,2.68.9,1.24,2.42,4.42,4.57,9.53,2.15,5.11,3.34,8.39,3.58,9.83Z"/>
        <path class="cls-9" d="M846.43,690.5c.26,1.58.2,3.14-.19,4.69-.5,1.98-2.39,4.23-5.65,6.74-3.27,2.51-5.98,3.93-8.16,4.24-.18.03-.44.07-.78.13-.34.06-.6.1-.78.13l-.13.02c-.16.16-.42.28-.78.34-3.7.61-7.29.17-10.79-1.33-3.95-1.75-6.22-4.39-6.8-7.9-.26-1.58-.02-3.73.73-6.45,1.29-4.52,3.13-7.66,5.53-9.4,1.95-1.39,5.42-2.5,10.43-3.33,1.53-.25,4.21-.03,8.04.68,2.71,2.38,4.23,3.72,4.56,4.04,1.62,1.63,2.79,3.29,3.54,4.97.07.13.28.51.64,1.14.36.64.56,1.07.6,1.29ZM841.1,689.37c-.34-2.07-1.42-3.78-3.22-5.13s-3.74-1.85-5.81-1.5c-.53-.14-.87-.2-1-.18-2.3.38-4.01.97-5.13,1.76.27,1.62,0,2.5-.81,2.64-.14.02-.65-.13-1.54-.47-.89-.34-1.4-.5-1.54-.47-1.22.2-2.35,1.9-3.39,5.08-.94,2.98-1.29,5.17-1.06,6.57.68,4.06,3.83,5.62,9.47,4.68.99-.17,2.45-.59,4.37-1.28,2.19-.78,3.42-1.43,3.71-1.94,4.54-3.07,6.52-6.32,5.95-9.75Z"/>
        <path class="cls-9" d="M874.57,689.64c.26,1.58-.53,3.1-2.37,4.56-1.06.87-2.95,1.96-5.68,3.27-2.72,1.31-4.51,2.34-5.36,3.08-.42-.02-1.08-.05-1.96-.09l-.95.57c-1.53.25-2.55.19-3.05-.19-.5-.38-.89-.71-1.17-.99l-.02.28-.18.17c-.36-.22-.92-.5-1.67-.83l-.26-1.56c5.45-.91,10.83-3.56,16.12-7.96-12.92-4.99-19.73-9.58-20.43-13.77-.34-2.07,2.73-3.65,9.22-4.73l.61-.52c1.04-.17,2.56.06,4.56.7,2.24.65,3.43,1.42,3.58,2.32-.37,1.13-.78,1.73-1.23,1.8-.72.12-1.79.12-3.19.01-1.41-.11-2.47-.11-3.2,0-3.02.5-4.48,1.05-4.38,1.63.12.72,1.17,1.87,3.14,3.44,1.76,1.38,3.12,2.3,4.07,2.76.96.47,2.83,1.16,5.63,2.09.31.5.67.72,1.08.65l.04-.15.25-.18c.41.26,1.07.56,1.96.92,1.55.39,2.49.65,2.84.78,1.19.45,1.85,1.08,1.98,1.89Z"/>
      </g>
    </g>
    <g>
      <g>
        <path d="M1302.45,294.38c-1.07-7.42,1.17-14.75-2.23-21.92l-4.37,9.76-9.19-28.77c-7.73,8.96.73,18.76,1.59,27.73l-2.45,15.75c-3.11-5.79.91-15.18-.04-19.97-.6-3.03-3.3-5.65-4.11-9.16s.97-16.23-2.75-17.54c-7.2-2.55-4.88,11.66-4.77,15.06-5.16-.66.25-10.07-4.74-11.8-1.64-.57-8.45,3.03-9.36,4.17-.96,1.21,2.87,23.35-3.66,19.15-.7-.45,1.48-10.28-.16-14.74-1.11-3.02-4.03-1.33-4.31-2.39-1.09-4.13,2.28-7.04-3.91-11.84-3.2-2.48-12.34-3.79-14.95-.62-2.33,2.83,2.28,21.8-3.52,26.14-1.8-6.48,1.43-13.48.08-19.91-.69-3.3-2.49-2.86-4.74-1.42-.88.56-5.4,17.25-5.85,19.97-3.26,19.67,4.33,39.83,6.48,59.54l2.79-2.48,2.6,16.65,5.2-6.53c4.35,9.37-2.61,8.06-9.66,9.41l2.52,9.73c6.53-3.72,14.59-3.64,10.47-13.09l8.52-.45c-3.35-8.85-.72-18.14-1.81-27.22,2.77-1.15,2.52,3.23,2.59,4.97.18,4.57-3.12,20.9,3.43,21.09,3.28-1.36,11.01-6.17,12.33-9.03,1.59-3.47-.41-12.43-.03-13.1,3.99-7.11,2.28,11.46,6.95,10.28,2.06-.52,13.4-17.84,15.31-21.21.68,4.23,5.55,4.23,5.51,4.62-1.37,12.25-54.27,43.67-67.3,47.68-4.63-12.55-3.15-26.61-5.02-39.41-3.31-22.68-11.66-45.1-1.02-68.01,2.44-5.27,7.08-6.6,10.07-10.57,1.15-1.54,1.79-6.34,2.74-6.62.54-.15,3.37,2.58,5.18,2.85,4.56.67,8.31-.54,13.14,1.04,4.11,1.34,10.93,8.58,12.86,8.63,2.15.06,6.96-3.76,12.03-4.29,3.34-.35,17.45,2.01,19.76,3.93,6.51,5.39,15.12,35.69,7.79,43.98Z"/>
        <path d="M1258.57,380.49c5.65,2.58,8.54-4.89,7.58-9.59,2.86.75,2.59,5.91,4.63,6.12,4.12.42,12.5-2.84,17.9-3.01,9.63-.31,22.85,6.47,28.8,6.67,2.54.09,6.14-3.01,6.8-2.55.2.14.48,3.1,1.78,4.59,9.26,10.62,11.86,13.78,12.34,29.48.52,17.09-18.66,26.87-33.05,20.07l-1.92,3.74c-.84-4.09-1.24-8.31-2.1-12.4-.42-1.99.22-6.35-2.6-5.48-.84,7.86.52,16.52.18,24.16-.07,1.65.24,5.05-2.08,5.03-3.05-19.87.92-40.02.22-59.5,3.83-.89,2.82-1.04,3.71,1.89,3.21,10.6.36,27.95,4.65,36.37,2.2,4.32,6.17-.19,6.47.04,2.31,1.74-1.15,9.3,11.09,4.21,13.79-5.73,16.33-30.06,6.55-40.1-1.13-1.16-9.3-5.76-10.52-5.86-6.28-.54-5.43,6.02-12.36-4.98-2.21-.11-3.93,4.04-4.38,4.11-1.27.19-12.03-15.61-9.52,3.42l-2,13.84c-.91-20.2,1.94-27.35-21-18.69l-2.97,17.61c-1.24-3.79-.74-13.69-4.23-15.51-5.28-2.75-4.95,3.5-5.49,3.65-4.7,1.35-17.5-7.03-18.67-5.47-.38,7.44-5.31,15.85-4.27,23.59,1.36,10.23,10.2,25.3,14,35.25.48,1.27,1.69,5.73-1,3.4l-4.54-6.85c1.15,4.64,4.09,18.33,10.48,16.98,1.09-1.74-.39-4.25,2.72-3.89,3.36,2.71,21.59,15.58,24.82,11.13-5.03-15.71-6.4-31.63-8.01-47.93l5.86,15.08c-1.19,5.87-3.29,12.26.48,17.83,7.05-13.61,1.4-30.17,4.38-44.92,2.72-.47,3.83,32.62,3.07,35.73-.6,2.47-3.3,2.77-3.87,4.83-.4,1.43-.67,14.85-.37,16.67,2.1,12.42,32.27,7.43,33.62-6.55.42-4.31-2.89-7.12-2.79-10.56.17-6.17,6.81-.49,6.2,8.76-.85,12.96-9.74,13.64-19.31,16.8-1.35.45-2.43,2.79-3.65,3.21-1.13.39-21.69-4.42-23.41-5.18-.56-.25-9.83-5.47-10.34-5.81-3.04-2.07-2.03-7.63-6.92-5.64.02,9.13,19.55,28.08,26.71,17.61-2.38,14.47-11.6,7.75-19.28,1.55-12.98-10.47-25.16-26.64-30.94-42.34-5.36-14.55,2.4-8.88,2.49-11.62.18-5.98-3.53-14.62-3.58-21.31-.05-6.28,5.23-12.63,1.66-19.92,6.97-1.56,12.26,5.38,19.68,1.91,1.89-.88-.44-6.58,3.16-7.44.43,1.66,2.31,7.4,3.18,7.8Z"/>
        <path d="M1118.19,517.18c1.44,2.86,7.54,1.48,10.33.81-.03-9.09-2.75-5.04-6.08-6.68-5.85-2.88.14-6.11,1.31-10.47,2.78-10.39,1.07-24.64,3.23-35.61.47-2.41,2.56-8.9,4.5-10.59,1.85,8.54-6.93,47.75-4.69,52.4,3.02,6.25,19.52-2.82,22.7-6.83l2.65-43.93c4.62,6.36-1.57,24.23-.38,28.06,2.1,6.78,6.28-5.4,7.57-5.48-1.36,16.4-3.53,26,8.31,39.36-8.83.08-12-9.59-14.63-16.22-.8-.42-8.7,11.56-11.48,12.99-2.55,1.32-4.52-.22-5.65.09-1.49.42-.58,3.65-3,5.25-6.56,4.31-15.84,6.03-19.36-2.72-13.42-33.34,3.87-65.32,22.46-92.59,3.14-4.61-.64-6.82,8.44-4.83-8.55,12.86-18.8,24.26-23.24,39.45-3.54,12.13-3.43,26.95-.96,39.35-4.99-.67.04-13.62-6.88-10.73,2.67,7.18,1.87,23.03,4.85,28.93Z"/>
        <path d="M1106.43,275.33c.28.14,1.54,3.82,2.89,5.18,7.7,7.77,23.19,12.59,32.84,19.32,3.66,2.55,7.88,8.89,9.79,9.89,1.19.62,3.76-.53,4.28-.13,1.4,1.09.28,7.58,2.62,9.75,1.51,1.4,5.13.15,5.92.85,1.04.93.39,3.9,1.18,5.01,1.08,1.54,3.28.74,3.36,1.49.13,1.2-1.24,3.45-.62,5.24,1.4,4.12,6.76,16.05,6.41,19.04-.57,4.96-13.29,13.36-17.6,15.22-4.08,1.76-8.11,1.71-11.82,3.22-23.21,9.4-45.91,21.76-71.03,10.46,2.51-9.77,1.62-19.84,1.95-29.89,2.76-.89,2.41,3.62,2.57,5.47.41,4.73-2.03,20.55-1.25,22.12,4.05,8.19,45.93,1.63,52.54-5.91,2.78-3.17,4.71-19.68,5.09-24.76,2.75-.92,2.44,3.65,2.44,5.37,0,5.96-3.07,10.84-2.16,16.65,12.71-1.34,23.28-9.7,34.9-14.41l-3.26-19.77-4.66,2.47c3.73-11.66-5.47-12.19-8.84-17.25-13.71-20.63-21.59-19.88-41.85-31.09-6.47-3.58-12.91-12.91-21.84-9.18l5.79,24.53c-8.02-2.22-3.42-28.32-13.77-26.64-6.35,1.03-1.89,11.86-1.64,15.64l3-2.23.28,11.86c-6.57-.67-4.64-16.37-6.34-17.62-11.14,2.23-10.61,14.78-6.32,23.13-9.5.6-7.69-11.86-5.37-17.65,2.29-5.72,6.36-7.29,10.26-10.9.87-.81.62-3.94,2.38-4.68,3.89-1.63,17.84,2.09,22.64,2.24,1.75.06,4.38-2.45,5.22-2.05Z"/>
        <path d="M1180.2,390.39c2.11,7.79,7.33,14.61,11.46,21.7.77,1.32,3.23,2.12,4.34,4.12,10.55,19.03,22.45,60.97,22.63,82.33.04,4.99-2.64,8.32-5.54,12.06-3.28-6.98.74-18.63,0-24.75-.38-3.16-5.64-27-6.51-29.06-.54-1.29-3.07.06-3.99-2.94-1.61-5.25-.93-13.1-2.91-17.99-.53-1.32-3.15-.69-4.32-2.51-.9-1.39-4.84-16.65-8.24-11.86-.67.95-.89,19.77-1.18,23.25-.25,2.85,2.5,4.56-2.66,4.58-1.95-15.08,8.2-30.85-2.27-43.79l-4.35,4.12c-.23-7.7-10.47-1.48-11.84,1.39-3.2,6.72-1.05,28.4-3.89,36.92-2.91.89-2.1-3.34-2.11-5.14-.07-7.65,3.94-20.81,3.32-26.83-.63-6.01-10.88-1.45-12.36,1.54-1.11,2.26,5.64,22.7-3.41,24.39-1.17-1.02,1.87-13.95,1.9-16.85.02-2.4-1.99-4.35-2.19-6.15-1.01-9.05,21.34-9.86,18.45-20.82l4.41,6.06c10.2-2.94,4.28-11.06,11.26-13.77Z"/>
        <path d="M1176.83,319.57c-1.55,2.5-4.88-1.95-5.88-2.95-10.48-10.4-37.35-44.6-50.28-47.95-3.69-.95-11.24,5.15-10.81-4.13,22.06-.38,42.04,21.73,55.27,37.8,2.11,2.57,13.08,15.03,11.71,17.23Z"/>
        <path d="M1071.35,379.74c-22.53-17.37-18.45-49.58,4.35-65.3.89,3.92-2.82,6.17-3.03,10.2-.22,4.25,1.73,8.38,1.37,12.62-.74,8.79-5.82,26.78-5.48,33.99.15,3.2,2.62,5.33,2.78,8.49ZM1070.76,325.47c-13.25,3.46-13.26,38.78-6.27,43.52,5.42,3.67,3.05-14.61,3.17-15.91.87-9.52,4.08-18.34,3.1-27.61Z"/>
        <path d="M1130.89,400.36c3.53,2.78-6.05,12.91-7.51,15.73-12.23,23.53-24.97,49.03-23.8,76.16-3.94-2.44-4.79-9.37-4.72-13.55.26-15.3,22.07-60.05,31-73.94.79-1.23,3.09-5.93,5.04-4.4Z"/>
        <path d="M1319.59,253.62c.46,2.27,2.26,4.12,2.45,6.46.8,9.84-.89,38.95-2.29,49.33-.67,4.95-2.1,9.68-3.71,14.37-.76,2.19,1.49,4.09-3.17,4.26-.33-9.74,3.68-18.35,4.27-28.42.56-9.47.38-23.07.26-32.87-.06-4.71-4.73-11.57,2.2-13.13Z"/>
        <path d="M1205.49,508.19c.56.46,2.07.02,2.91-.16l.27,1.61c-5.72,5.88-31.72,9.29-36.5,4.25-.3-.32-.1-8.65,1.77-8.6-3.47,11.3,25.34,8.06,27.65,5.17,4.26-5.32-8.72-32.31.42-40.47,1.4,5.62.99,36.18,3.46,38.2Z"/>
        <path d="M1237.57,264.41c-1.97,15.7,1.57,31.4,1.63,47.03.01,3.07.68,9.92-1.98,11.88-.65-16.99-4.99-38-2.79-54.66.38-2.87-1.2-3.93,3.14-4.26Z"/>
        <path d="M1270.07,450.09c-1.59,3.03-3,.47-3.71-1.89-4.66-15.46-2.93-33.36-5.7-49.22-.07,5.19,5.61,10.45,6.3,13.31.84,3.53-1.03,10.86-.59,15.51.71,7.46,2.82,14.85,3.7,22.28Z"/>
        <path d="M1248.55,264.59c.43.55,2.87-.95,3.44,1.91.77,3.84-.83,9.74.02,13.98l-3.53,26.1c-2.86-17.55,6.12-39.76-10.17-52.74,8.49-2.05,7.37,7.12,10.24,10.75Z"/>
        <path d="M1136.75,455.45c2.9-.87,2.22,3.44,2.37,5.33.81,10.17,1.09,20.29,2,30.54.16,1.83,1.12,7.28-1.32,7.76-3.32.65-2.26-4.68-2.39-6.02-1.26-12.46.37-25.15-.65-37.61Z"/>
        <path d="M1168.4,451.83c-3.2.81-2.15-4.81-2.01-6.53.5-6.15,2.1-16.22,3.55-22.22.53-2.18.07-5.03,2.85-5.96l-4.38,34.71Z"/>
        <path d="M1195.45,471.09l-1.28-10.36,1.78-16.9c-.23,7.92,4.29,20.94-.49,27.26Z"/>
        <path d="M1255.18,442.39c-6.82-2.6-4.59-13.47-6.6-19.29,6.82,2.6,4.59,13.47,6.6,19.29Z"/>
        <path d="M1147.96,360.1l.33-7.75,4.3-15.1c.91,6.98-.27,17.02-4.63,22.86Z"/>
      </g>
      <g>
        <path class="cls-9" d="M1204.26,608.06c.43,2.62.7,5.91.81,9.87.04,2.22.13,5.54.27,9.96.14,1.69.32,4.72.54,9.08.18,4.97-.41,7.57-1.76,7.8-1.62.27-2.66-.95-3.11-3.65-.74-4.46-1.05-8.93-.91-13.4-1.1-.19-4.03.02-8.79.63-4.22.52-6.82.53-7.78.04-.96-.49-1.61-1.77-1.96-3.84-.09-.54-.02-3.73.22-9.56.23-5.83.41-8.85.51-9.05.17-.4.45-.63.86-.7.68-.11,1.39.22,2.15,1,.75.78,1.19,1.53,1.31,2.25.24,1.44.28,3.64.12,6.58-.16,2.95-.11,5.16.13,6.65l.02.13c2.89-.11,7.21-.34,12.96-.7.25-.97.28-3.2.06-6.68-.18-3.03-.41-5.35-.68-6.98-.08-.5-.34-1.22-.78-2.16-.43-.95-.69-1.67-.78-2.17-.04-.22-.05-.56-.03-1,.02-.44,0-.78-.03-1,.29-.23.61-.38.97-.44,1.49-.25,2.78.58,3.89,2.48.89,1.47,1.49,3.09,1.78,4.85Z"/>
        <path class="cls-9" d="M1248.14,637.94c-1.84.91-4.93,1.72-9.25,2.44l-.61.52c-.33-.04-.8-.1-1.42-.18-.75.26-1.07.39-.98.37.23-.04-.71-.09-2.81-.16l-.47.5c-.9.15-2.93-.05-6.07-.59-2.62-.44-4.62-1.04-6-1.78-.46-.25-2.17-1.38-5.15-3.38-.11-.68-.17-1.04-.18-1.08-.13-.21-.42-.28-.87-.2-.45.07-.74-.27-.87-1.04-.12-.72-.22-2.36-.3-4.92s-.05-4.01.07-4.36c.89-2.42,2.2-4.6,3.91-6.56,2.06-2.38,4.15-3.75,6.27-4.1,4.96-.83,9.17-.44,12.63,1.17,2.11.99,3.23,1.85,3.35,2.57.18,1.08-.49,1.75-2.02,2-.31.05-1.84-.4-4.59-1.36-2.75-.96-4.7-1.34-5.87-1.14-3.15.52-5.46,2.16-6.94,4.91-1.39,2.5-1.81,5.37-1.27,8.62.67,4.06,3.06,6.44,7.15,7.15,2.33.4,6.02.18,11.05-.66.81-.13,2.02-.45,3.62-.95,1.61-.5,2.81-.81,3.62-.95,2.25-.37,3.58.68,3.99,3.16Z"/>
        <path class="cls-9" d="M1280.02,633.19c.07.45-.36,1.06-1.3,1.81-1.06.04-1.61-.08-1.66-.35-.02-.14.04-.19.18-.17-1.74-.41-3-1.45-3.79-3.12-.56-1.67-1.11-3.36-1.68-5.07-1.25-3.64-2.4-6.37-3.45-8.18-1.61-2.7-3.27-3.9-4.98-3.62-4.42.73-6.09,7.54-5.01,20.43-.98.77-1.7,1.19-2.15,1.26-1.49.25-2.75-.51-3.79-2.29-2.34-4.05-5.23-10.96-8.66-20.73-3.43-9.77-5.54-17.02-6.33-21.75-.08-.45.16-.95.72-1.51.42.3.81.42,1.17.36.07-.1.2-.19.37-.27.68.21,1.23.42,1.63.63.8.38,1.64,2.09,2.52,5.14,1.95,6.72,4.74,14.57,8.37,23.56l.34-.47c.53-2.36,1.5-4.35,2.9-5.97,1.59-1.84,3.5-2.95,5.7-3.31.33.04,1.25.14,2.76.31,3.3.38,6.28,2.52,8.92,6.44,1.47,2.17,3.14,5.64,5,10.43,1.28,3.26,2.01,5.41,2.19,6.45Z"/>
        <path class="cls-9" d="M1316.3,626.95c.2,1.17-.32,1.86-1.53,2.06-1.67.28-2.94-.14-3.82-1.24-.53-.7-1.08-2.01-1.63-3.93-.55-1.92-1.05-3.22-1.48-3.89-3.08,5.47-7.11,8.62-12.12,9.45-.59.1-1.35.11-2.29.03-1.13-.14-1.91-.19-2.32-.17v-.42l-.29-.09.04.27-.18.17c-.32.05-2.01-.68-5.09-2.21-.64-.77-1.6-1.94-2.87-3.48-.95-1.23-1.54-2.57-1.78-4.01-.65-3.92.01-7.58,2-10.96,2.08-3.64,5.04-5.77,8.87-6.41.54-.09,1.33-.04,2.36.16,1.03.2,1.81.25,2.35.16l.17-.24.2-.03c.77-.13,1.97.14,3.61.79,1.64.66,2.79,1.3,3.45,1.93,1.98-.38,3.45.24,4.41,1.84.19.29.74,1.96,1.67,5,.39,1.23,1.52,3.87,3.4,7.91,1.73,3.7,2.69,6.13,2.88,7.3ZM1304.87,613c-.17-.99-.55-2.22-1.17-3.7-.94-.12-2.17-.82-3.67-2.1-1.29-1.08-2.92-1.46-4.9-1.13-3.19.53-5.68,2.01-7.47,4.44-1.79,2.43-2.42,5.24-1.89,8.44.28,1.67.89,3.28,1.84,4.84,1.26,2.02,2.56,2.91,3.91,2.69l2.49-.41c2.61-.43,5.13-2.06,7.57-4.87,2.6-2.94,3.7-5.66,3.28-8.19Z"/>
        <path class="cls-9" d="M1347.99,620.29c.07.41-.08.83-.45,1.26-.37.43-.75.68-1.16.75-1.67.28-3.16-1.03-4.47-3.91-.8-2-2.02-5.02-3.66-9.05-1.49-3.69-2.98-6.08-4.46-7.18-.88,2.23-1.42,6.12-1.6,11.67-.08,2.61-.16,6.72-.24,12.34l-4.26.71c-.27.04-.67-.26-1.19-.91-3.29-4.18-6.29-12.78-9.02-25.81l.18-.58,1.49-.25c1.04.66,1.82,1.18,2.34,1.55,1.1.79,2.08,3.01,2.92,6.67.99,4.28,1.75,6.91,2.29,7.89.23-.83.48-4.04.76-9.65.2-4.39.89-7.33,2.08-8.82,6.59-.77,12.23,5.56,16.92,19.01,1.07,3.07,1.58,4.51,1.55,4.33Z"/>
      </g>
    </g>
  </g>
</svg>