<?xml version="1.0" encoding="UTF-8"?>
<svg id="Camada_2" data-name="Camada 2" xmlns="http://www.w3.org/2000/svg" xmlns:xlink="http://www.w3.org/1999/xlink" viewBox="0 0 1920 918">
  <defs>
    <style>
      .cls-1 {
        fill: #604b45;
      }

      .cls-2 {
        fill: #3d443d;
      }

      .cls-3 {
        fill: #201e20;
        opacity: .7;
      }

      .cls-4 {
        fill: #a68074;
      }

      .cls-5 {
        fill: #240d0c;
      }

      .cls-6 {
        fill: #493324;
      }

      .cls-7 {
        fill: none;
      }

      .cls-8 {
        fill: #566055;
      }

      .cls-9 {
        fill: #030203;
      }

      .cls-10 {
        fill: #fbd7b6;
      }

      .cls-11 {
        fill: #e4d5d8;
      }

      .cls-12 {
        fill: #8f7263;
      }

      .cls-13 {
        fill: #aeb1b2;
      }

      .cls-14 {
        fill: #51403a;
      }

      .cls-15 {
        clip-path: url(#clippath);
      }

      .cls-16 {
        fill: #9a9091;
      }
    </style>
    <clipPath id="clippath">
      <polygon class="cls-7" points="49.72 45.97 58.66 883.48 1873.23 875.08 1873.23 44.04 49.72 45.97"/>
    </clipPath>
  </defs>
  <g id="Cena_1c" data-name="Cena 1c">
    <rect class="cls-7" width="1920" height="918"/>
  </g>
  <g id="Cena_2_A2" data-name="Cena 2 A2">
    <polygon class="cls-13" points="65.59 60.87 74.53 898.38 1889.09 889.98 1889.09 58.94 65.59 60.87"/>
    <g class="cls-15">
      <polygon class="cls-8" points="58.66 883.48 46.77 44.04 1867.62 45.71 1873.23 875.08 58.66 883.48"/>
      <polyline class="cls-6" points="1171.3 883.48 54.9 618.14 58.66 883.48 1171.3 883.48"/>
      <polyline class="cls-2" points="1230.83 883.76 1217.83 45.1 1873.23 44.04 1873.23 875.08 1230.83 883.76"/>
      <g>
        <polygon class="cls-1" points="717.9 858.44 719.58 883.47 676.69 878.66 717.9 858.44"/>
        <path class="cls-4" d="M681.55,386.66l.57,28.69-10.31,19.08-9.61,25.9-14.2,19.5-30.71,7.31-21.72-.97-32.87-16.71-23.68-18.38-11.62-11.53h0s-.66-4.27-.66-4.27l-2.13-14.01s24.89-8.51,74.19-15.2c49.3-6.68,82.75-19.4,82.75-19.4Z"/>
        <path class="cls-10" d="M679.75,254.56l-6.05-16.61-7.25-5.37-2.45-5.64-1.69-17.04-4.22-19.32-7-11.27-17.98-5.56-6.86-3.52,6.45-.64-2.74-4.34-10.14-4.87-16.92,7.14-10.81,1.07,10.51,17.01-10.7-10.48,6.68,14.45-15.37-17.37-.76,13.51-15.24,11.38-12.27,1.22-6.69-1.85,2.4-3.38,9.57-5.15-9.98.99-7.44,3.26-.07,5.67,8.67,2.71-11.27.7-4.45,3.8-10.43-1.48-9.23-2.02-9.25,1.97-3.06-3.27-5.36,3.05-7.11-1.81-6,28.31.47,29.83-2.89,13.16,1.57,4.6.98,21.18,4.55,23.33-.88,1.76,31.92,81.89,3.29-9.14,3.25-1.03,3.9-7.24,7.6,6.1,3.21-5.01,8.06-6.89,1.61,16.21,8.78-.31-.26,4.36,6.15,1.35,7.9-.78,2.46,3.95,4.11,8.55,5-7.35-1.39,9.94,7.79-1.89-.34-3.46,8.97,3.72,6.73-4.87,2.43,4.8,7.03-2.52,1.26-7.12,2.39,4.38,4.8-5.24,4.89-4.26,4.33,5.86,1.8-10.39,3.4-9.43,6.12,8.06-3.88-15.14,1.67-7.16,9,4.63,1.12,4.15,3.88-8.78,5.15-1.64,2.88,10.63,5.12,7.82,8.36-11.68.15-.32,3.11-78.6.81-27.79-3.83-17.47ZM526.01,300.96l1-6.82,6.3-4.19-12.64,1.68-6.1,4.17-4.88,1.53-9.1-4.97,3.6-8.12,6.76-5.92,10.02-4.77-1.28-2.39,4.79-6.78-12.58,2.3-8.66,5.9-8.12.59,3.54-10.84,12.21-8.14,25.78-2.56,15.42,3.09,4.77,3.62-2.82,3.32,5.54,5.11,5.3,6.82,2.42,9.63.54,5.4-34.69,8.9-7.12,3.43ZM609.29,380.79l-2.86,3.02-.48,2.22-5.2.52,2.98,2.5-6.68,1.15-3.26.32-1.34-1.55-3.98,2.91-5.02-1.25-8.61-4.18,12.43-7.33,10.37-2.64,11.96.7,5.03,2.72-5.37.88ZM645.05,363.24l-2.44,5-12.25-6.48-19.38,7.79,2.9-6.03s-35.34,6.31-35.3,6.72l.29,2.91,14.62.64-7.77,2.17-32.21-1.7-5.34,4.02-4.74-2.6-3.18-6.4,1-11.44,7.82-10.01,1.19,3.52,10.45-4.67,1.21-3.34-5.09-17.41,5.81,6.42,2.33.89,2.14-3.85,7.48.66,7.97,7.33,4.92,2.59,7.15-1.27s5.16-5.83,5.2-5.41,3.04-8.84,3.04-8.84l4.81-.9,3.16,3.6-3.35,9.99,12.01-1.61,12.65,4.77,10.83,6.21,2.89,7.97-.81,8.75ZM635.98,253.52l11.81,2.04,14.17,4.61.83,4.12-.18,2.4-8.63,1.84-9.44,2.2-8.56,4.06-1.41,4.06,14.27-1.42-8.31,5.02-16.53-.17-15.45-3.37-2.82-3.07-.92-3.55-4.48-2.84-3.47-5.32,1.32-6.43.38-7.45-.99-2.84,16.63-8.79,18.88-4.39,15.5-.28,11.86,2.39-6.14,3.06,8.19,3.53-7.9.78-12.16-2.58-9.48,3.18-4.77,5.51-5.37,3.75,13.15-.05Z"/>
        <path class="cls-5" d="M709.13,207.99l1.59,16.01-6,17.8,1.24,12.47-2.67,13.28-5.61-9.94s-.46,5.54-1.29,5.62-2.85,8.84-2.85,8.84l.88,7.69-4.36,15.34-7.3,4.72.81-27.79-3.83-17.47-6.05-16.61-7.25-5.37-2.45-5.64-1.69-17.04-4.22-19.32-7-11.27-17.98-5.56-6.86-3.52,6.45-.64-2.74-4.34-10.14-4.87-16.92,7.14-10.81,1.07,10.51,17.01-10.7-10.48,6.68,14.45-15.37-17.37-.76,13.51-15.24,11.38-12.27,1.22-6.69-1.85,2.4-3.38,9.57-5.15-9.98.99-7.44,3.26-.07,5.67,8.67,2.71-11.27.7-4.45,3.8-10.43-1.48-9.23-2.02-9.25,1.97-3.06-3.27-5.36,3.05-7.11-1.81-6,28.31.47,29.83-2.89,13.16,1.57,4.6.98,21.18,4.55,23.33-.88,1.76-.67,1.33-7.65-9.31-15.91-39.78-5.05-10.62-3.79-12.85-2.29-14.67,2.6-9.71-5.24,4.3-.22-14.88-5.49,3.9.07-7.78-9.55,5.36,2.71-14.97,20.7-19.89,1.2-4.74-9.34,3.24,18.35-11.9.74-13.71,10.74-14.5,9.08-18.53,16.55-10.88,9.24-10.57,12.61-10.49,15.76-6.18,13.27-1.32,19.74,1.82,25.98,7.92,21.92,9.37,9.67,2.19,7.58,10.8,14.42,5.7-6.44-7.76,10.58,2.94,3.13,12.49,11.76,4.29-7.48.74,15.07,14.45,14.28,21.26,6.05,25.01,5.42,12.27Z"/>
        <polygon class="cls-12" points="567.28 283.22 567.81 288.63 533.12 297.53 526.01 300.96 527.01 294.14 533.31 289.95 520.67 291.62 514.58 295.8 509.69 297.32 500.6 292.36 504.2 284.23 510.95 278.31 520.97 273.54 519.69 271.15 524.48 264.37 511.9 266.67 503.25 272.57 495.12 273.16 498.66 262.32 510.87 254.18 536.65 251.62 552.07 254.71 556.83 258.33 554.02 261.66 559.56 266.77 564.86 273.59 567.28 283.22"/>
        <polygon class="cls-12" points="661.97 260.18 662.8 264.3 662.62 266.69 653.99 268.53 644.55 270.73 635.99 274.79 634.58 278.85 648.85 277.43 640.53 282.46 624 282.28 608.56 278.91 605.73 275.84 604.82 272.28 600.34 269.44 596.87 264.12 598.19 257.69 598.57 250.24 597.59 247.4 614.21 238.61 633.09 234.22 648.59 233.94 660.45 236.33 654.31 239.39 662.5 242.92 654.6 243.7 642.45 241.12 632.97 244.31 628.2 249.82 622.83 253.57 635.98 253.52 647.8 255.56 661.97 260.18"/>
        <path class="cls-12" d="M645.05,363.24l-2.44,5-12.25-6.48-19.38,7.79,2.9-6.03s-35.34,6.31-35.3,6.72l.29,2.91,14.62.64-7.77,2.17-32.21-1.7-1.65,1.24,3.14-7.64s5.53-3.55,6.11-3.69l10.6-3.15,13.05-1.4h13.69s.37-3.7.37-3.7l6.32,3.36,11.52-1.25-6.87-2.57,19.9-.4,8.53,3.08,6.84,5.08Z"/>
        <polygon class="cls-12" points="560.71 346.71 561.91 343.37 556.83 325.96 562.64 332.38 564.97 333.27 567.11 329.42 574.58 330.08 582.55 337.4 587.47 339.99 560.71 346.71"/>
        <path class="cls-12" d="M610.83,327.18l-3.35,9.99-12.86,1.56s5.16-5.83,5.2-5.41,3.04-8.84,3.04-8.84l4.81-.9,3.16,3.6Z"/>
        <path class="cls-5" d="M645.86,354.49l-.81,8.75-6.84-5.08-8.53-3.08-19.9.4,6.87,2.57-11.52,1.25-6.32-3.36-.37,3.71h-13.69s-13.05,1.39-13.05,1.39l-10.6,3.15c-.58.14-6.11,3.69-6.11,3.69l-3.14,7.64-3.69,2.79-4.74-2.6-3.18-6.4,1-11.44,7.82-10.01,1.19,3.52,10.45-4.67,26.76-6.71,7.15-1.27,12.86-1.56,12.01-1.61,12.65,4.77,10.83,6.21,2.89,7.97Z"/>
        <polygon class="cls-12" points="614.66 379.91 609.29 380.79 606.43 383.8 605.96 386.02 600.76 386.53 603.74 389.04 597.06 390.19 593.81 390.51 592.47 388.96 588.48 391.88 583.46 390.63 574.86 386.45 587.29 379.12 597.66 376.48 609.63 377.18 614.66 379.91"/>
        <polygon class="cls-10" points="609.78 355.48 616.65 358.05 605.13 359.3 598.81 355.94 598.45 359.65 584.76 359.64 571.71 361.04 561.11 364.19 562.86 358.56 576.48 357.21 585.82 347.67 590.23 347.76 595.73 350.26 618.91 347.02 629.69 355.08 609.78 355.48"/>
        <polygon class="cls-5" points="681.55 386.66 678.15 401.7 670.43 421.22 658.85 440 645.66 452.22 631.06 460.25 614.39 465.68 586.59 466.2 559.16 456.32 540.84 442.33 524.61 421.27 520.96 405.54 524.25 396.4 527.5 395.37 531.4 388.13 539.01 394.23 542.22 389.22 550.28 382.34 551.89 398.55 560.67 398.24 560.41 402.6 566.56 403.95 574.45 403.17 576.91 407.12 581.02 415.67 586.02 408.32 584.63 418.25 592.42 416.36 592.07 412.9 601.05 416.62 607.78 411.76 610.21 416.56 617.24 414.04 618.49 406.92 620.88 411.3 625.68 406.06 630.57 401.8 634.9 407.67 636.7 397.28 640.1 387.84 646.22 395.91 642.34 380.77 644.01 373.6 653.01 378.23 654.12 382.39 658.01 373.61 663.16 371.98 666.04 382.61 671.15 390.43 679.66 378.43 679.83 380.01 679.84 380.02 681.55 386.66"/>
        <path class="cls-9" d="M551.47,829.81l-9.34,21.08,31.96,5.64-25.7,10.65-38.22,10.66-255.4-20.33-14.62-5.43-20.05-18.17-3.76-20.89,3.55-38.44-2.3-5.22,1.25-10.45,5.01-10.02,8.98-12.95v-13.57l2.72-6.68,7.31-6.48,10.24-21.1v-3.99c0-1.93,1-3.73,2.65-4.75l1.74-1.08,20.26-36.84-1.05-3.24c-.63-1.95.01-4.08,1.61-5.36l1.53-1.22,2.72-6.68,9.82-10.24-1.6-4.42c-1.19-3.3-.41-7,2.02-9.53l1.25-1.3-.93-4.4c-.76-3.58,1.5-7.11,5.07-7.92l2.75-.63-2.09-8.98,3.54-15.04,8.57-13.57,1.46-6.27,2.08-34.02c.79-12.85,8.24-24.35,19.64-30.31h0s32.59-20.06,32.59-20.06l21.72-7.1,19.64-4.6,48.88-15.87,20.88-12.53,43.1-12.62,3.66,15.73,2.13,14.01.66,4.26h0s4.77,30.84,4.77,30.84l7.1,21.72,2.93,30.49v42.19l2.35,63.42.15,4.26-1.53,39.25-1.81,46.39-7.17,44.63,55.56,12.33,16.5,7.94-20.26,4.59-34.52,42.21Z"/>
        <path d="M1124.81,656.06l-23.4-36.76-56.4-59.32-33.7-25.07-7.52-19.77-22.7-3.91-4.74-23.39-17.27-9.75-20.89-39.27-4.31-6.19c-8.68-12.48-21.82-21.16-36.7-24.24h0s-47.63-3.6-47.63-3.6l-90.65-9.76-74.47-19.06,14.62,25.48,11.28,76.03,23.82,181.73,11.69,56.82,58.07,176.8h289.51l16.33-48.35-2.51-26.31,20.89-64.76,2.09-28.41,6.27-26.31v-20.89l-11.7-21.72ZM976.36,730.5l-.83,15.87-.83,20.47-18.53,17.97v12.67l6.68,25.9-8.22,5.71-7.25-11.14,2.91-101.91,17.29,5.68,14.2.42-5.43,8.36Z"/>
        <polygon class="cls-11" points="595.57 486.17 589.44 491.18 575.42 509.46 564.65 523.49 544.88 547.44 542.2 547.44 539.27 492.1 532.18 470.38 527.4 439.54 527.41 439.55 539.03 451.08 562.71 469.46 595.57 486.17"/>
        <polygon class="cls-11" points="714.82 511.56 679.72 494.89 648 479.83 662.2 460.33 671.81 434.43 679.79 415.42 681.49 386.74 679.66 378.43 684.45 375.96 699.07 401.44 714.82 511.56"/>
        <polygon class="cls-11" points="803.93 892.82 719.58 883.47 717.9 861.33 717.9 857.15 722.92 852.56 729.81 850.67 734.41 841.48 735.66 833.96 738.45 822.34 732.18 806.46 697.71 775.48 677.24 774.85 647.37 776.1 613.32 783.01 606.26 783.01 589.76 775.07 534.19 762.74 541.36 718.11 543.17 671.72 544.55 628.21 545.12 609.92 545.12 579.56 542.2 547.44 545.16 539 589.44 491.18 595.57 486.17 617.29 487.14 648 479.83 714.82 511.56 745.86 716.02 803.93 892.82"/>
        <polygon class="cls-1" points="709.37 785.96 697.71 775.48 647.37 776.1 619.1 781.84 616.49 741.23 611.48 672.16 610.64 629.28 610.64 601.7 615.38 585.55 624.29 560.2 627.07 549.62 619.43 539.26 650.47 531.79 651.31 544.58 672.47 575.24 687.51 626.49 693.36 657.68 703.67 734.55 709.37 785.96"/>
        <path class="cls-14" d="M679.72,494.89l-15.32,19.07-5.99-.14-4.18,5.71-3.76,12.25h0c.29,6.3-4.35,11.75-10.61,12.47l-2.04.23c-6.86.78-13.74-1.29-19.02-5.74l-21.81-18.37-21.58-10.92-.32-.16,14.35-18.11,6.13-5.01,21.72.97,30.71-7.31,31.72,15.06Z"/>
        <polygon class="cls-16" points="728.13 884.42 724.46 851.96 720.87 852.83 717.37 857.17 719.58 883.47 728.13 884.42"/>
        <path class="cls-10" d="M738.45,822.34l-2.79,11.63-1.25,7.52-4.6,9.19-6.89,1.89-5.02,4.59v1.3l-1.02,2.3-11.07,3.97-4.6-8.18.63,11.52-5.85,9.79-15.67,1.08-4.38-8.27-.83,8.89-6.28,2.47-11.45,2.26-12.77-3.9-11.69-13.15v4.18l-18.18,2.51-29.45-10.45-11.19-6.92-31.96-5.64,1.35-10.51c1.15-9.01,5.37-17.35,11.95-23.62l30.57-29.16,20.26-4.59h7.07l34.05-6.9,29.87-1.25,20.47.63,34.46,30.98,6.27,15.88Z"/>
        <polygon class="cls-16" points="543.86 565.69 573.13 540.09 578.7 523.65 586.7 515.17 575.09 509.29 544.88 547.44 542.2 547.44 543.86 565.69"/>
        <polygon class="cls-16" points="803.93 892.82 793.44 870.96 776.15 824.72 754.42 755.65 737.43 716.04 735.5 672.23 728.79 613.33 713.79 526.26 711.26 519.74 705.01 520.21 691.08 506.98 679.87 501.95 662.39 520.73 654.56 531.17 660.62 543.5 664.07 554.12 671.17 560.28 674.2 568.53 681.05 583.05 684.45 598.09 695.82 627.61 700.55 668.83 709.37 714.23 709.37 739.57 718.74 794.38 709.37 785.96 693.36 657.68 687.51 626.49 672.47 575.24 669.06 570.53 654.99 551.12 650.95 544.53 650.47 531.79 654.23 519.54 658.41 513.83 664.4 513.97 675.6 500.02 679.72 494.89 714.82 511.56 716 519.37 745.86 716.02 803.93 892.82"/>
        <polyline class="cls-12" points="722.92 852.56 722.92 833.78 711.1 816.86 709.37 804.54 711.52 804.54 713.61 815.4 719.58 822.71 725.09 831.9 727.81 839 729.81 850.67"/>
        <polyline class="cls-12" points="701.84 868.05 698.57 852.56 695.75 844.54 692.4 836.91 693.14 833.99 695.43 833.99 699.19 843.91 703.37 854.14 704.41 859.37 705.81 864.72"/>
        <polyline class="cls-12" points="675.1 879.54 674.34 868.14 673.57 863.89 671.9 860.2 669.53 857.07 670.23 855.4 672.87 855.4 676.22 865.5 677.68 870.51 680.32 878.92"/>
        <path class="cls-12" d="M674.35,879.96s-7.55,4.52-13.54,4.8c-5.99.28-11.79-2.23-16.2-4.39-5.18-2.53-10.86-8.5-10.86-8.5l-.83-.48-18.18,2.51-29.45-10.45-1.55-.96c-6.37-3.94-13.43-6.63-20.8-7.93l-2.41-.43-18.39-3.25,1.67-13.02c.95-7.38,4.41-14.22,9.79-19.36l32.4-30.91,20.26-4.59h3.04s-22.56,22.15-40.1,36.08c-8.87,7.04-10.99,15.92-10.91,22.98.43.31,16.09,11.25,39.88,17.9,17.55,4.9,34.74,7.25,34.74,7.25,0,0,15.33,7.15,20.71,8.78,5.05,1.53,20.72,3.96,20.72,3.96Z"/>
        <path class="cls-3" d="M457.49,749.99l-27.29-6.68c-2.28-.56-4.58-1.01-6.89-1.34l-21.99-3.21c-3.07-.45-6.17-.67-9.27-.67h-7.96c-7.12,0-13.51-4.39-16.05-11.05l-1.98-5.18c-1.17-3.07-4.1-5.12-7.38-5.18l-39.41-.7c-1.51-.03-1.94-2.08-.57-2.71l8.74-5.68c14.41-6.59,35.7-7.07,50.11-.49l86.97,40.36c7.45,2.99,24.14,10.24,23.19,10.03l-30.22-7.5Z"/>
      </g>
    </g>
  </g>
</svg>