<?xml version="1.0" encoding="UTF-8"?>
<svg id="Camada_2" data-name="Camada 2" xmlns="http://www.w3.org/2000/svg" viewBox="0 0 984 656">
  <defs>
    <style>
      .cls-1 {
        fill: #e5e4e3;
      }

      .cls-2 {
        fill: #9e9b9c;
      }

      .cls-3 {
        fill: #514d4f;
      }

      .cls-4 {
        fill: #535f5e;
      }

      .cls-5 {
        fill: #423a33;
      }

      .cls-6 {
        fill: #e7e6e6;
      }

      .cls-7 {
        fill: #e31313;
      }

      .cls-8 {
        fill: #dbdadc;
      }

      .cls-9 {
        fill: #c4bfc0;
      }

      .cls-10 {
        fill: #555d5d;
      }

      .cls-11 {
        fill: #c5c2c2;
      }

      .cls-12 {
        fill: #4d5351;
      }

      .cls-13 {
        fill: #dad9db;
      }

      .cls-14 {
        fill: #4e4a48;
      }

      .cls-15 {
        fill: #d2cfd2;
      }

      .cls-16 {
        fill: #505653;
      }

      .cls-17 {
        fill: #a8a8a6;
      }

      .cls-18 {
        fill: #312d2b;
      }

      .cls-19 {
        fill: #57585a;
      }

      .cls-20 {
        fill: #8a8885;
      }
    </style>
  </defs>
  <g id="Camada_24" data-name="Camada 24">
    <g>
      <rect class="cls-3" width="984" height="656"/>
      <path class="cls-9" d="M662.7,125.94l32.04,21.3,15.94,32.27,13.29,39.17-3.71,46.98-11.99,48.75-14.93,23.88s-15.37,14.7-17,15.74c-1.62,1.04-32.57,8.08-32.57,8.08l-35.9-18.4-28.42-29.3,2.19-129.83,6.61-38.43,25.1-20.21h49.35Z"/>
      <rect class="cls-7" x="588.25" y="206.64" width="39.24" height="85.52"/>
      <path class="cls-4" d="M508.75,380.25l10.28,35.72-8.66,27.87-2.84,21.04-49.66,4.94-39.65-6.09,3.82-20.6s-15.6-8.22-13.97-37.72c-1.35-8.66-20.84-59.27-20.84-59.27l68.94,4.6,52.57,29.5Z"/>
      <path class="cls-8" d="M517.68,357.59l14.61,37.96s5.89,21.52-2.44,34.3c-8.32,12.79-25.14,20.87-25.14,20.87l-.2-10.05s12.55-7.58,7.27-34.37c-5.28-26.79-5.89-23.54-5.89-23.54h-28.42l3.38,26.74c.96,7.6.81,15.33-.77,22.82-1.6,7.6-4.64,15.36-10.43,15.97-11.57,1.22-32.98.85-32.98.85,0,0,26.18-6.5,24.15-35.32-2.03-28.82-13.64-57.23-13.64-57.23l70.47,1Z"/>
      <path class="cls-5" d="M643.76,310.33s29.53-12.08,25.67-49.22c-3.86-37.15-25.67-66.17-25.67-66.17l-24.66-15.43-12.18,13.19-6.49,17.66s24.56,9.54,22.73,43.44c-1.83,33.9-17.25,28.82-17.25,28.82,0,0,5.69,25.37,37.86,27.71"/>
      <path class="cls-14" d="M641.76,311.78s30.03-23.81,19.92-76.51c-10.11-52.7-48.34-53.94-48.34-53.94l17.32-13.26h24.09l18.94,10.01,20.03,27.06,5.68,53.85-6.23,33.02-19.48,18.13-31.93,1.62Z"/>
      <path class="cls-10" d="M257.69,428.69s-22.35-3.86-22.35,12.18v95.4s-1.57,11.35,22.35,10.42c23.92-.93,0-118,0-118"/>
      <path class="cls-18" d="M329.81,248.21s-60.16,8.23-56.92,82.92c3.25,74.69,8.86,100.27,8.86,100.27l-20.03-2.71s-8.52-98.71-.81-132c7.71-33.29,40.15-70.42,69.06-64.61,0,5.95-.17,16.12-.17,16.12"/>
      <polygon class="cls-1" points="320.53 432.75 320.53 544.25 257.69 546.69 257.69 428.7 320.53 432.75"/>
      <path class="cls-16" d="M732.09,248.93s-1.22-115.08-80.38-132.54c-18.67,0-79.97,2.23-79.97,2.23,0,0,65.36-40.46,128.28-38.29,62.92,2.16,53.49,84.65,52.4,103.8-.91,16.03-4.91,72.92-20.33,64.8"/>
      <polygon class="cls-17" points="420.29 475.21 316.37 463.74 275.47 464.89 418.94 484.95 420.29 475.21"/>
      <path class="cls-12" d="M643.18,155.2s-66.64,8.55-61.16,89.4c8.12,82.81,73.51,83.4,73.51,83.4l-65.8-4.24s-59.94-79.73-5.34-164.74c12.16-4.95,58.79-3.81,58.79-3.81"/>
      <path class="cls-20" d="M638.56,125.94c18.48,0,47.89,7.1,67,47.05,14.99,31.35,16.17,63.85,13.67,88.32-2.51,24.59-11.3,48.23-25.82,68.23-8.4,11.57-19.02,22.43-30.71,23.85-3.57.43-7.08.66-10.56.66-19.32,0-37.45-7.13-56.18-26.24-20.68-21.1-28.42-41.81-28.69-109.2-.27-67.39,54.26-90.53,54.26-90.53,0,0,6.85-2.15,17.03-2.15M638.56,114.49c-11.59,0-19.58,2.4-20.45,2.67l-.53.17-.52.22c-2.51,1.06-61.55,26.97-61.25,101.12.27,65.86,7.44,92.14,31.96,117.17,19.57,19.97,40.62,29.68,64.36,29.68,3.84,0,7.86-.25,11.94-.75,13.21-1.61,25.84-10.93,38.6-28.49,15.54-21.39,25.2-46.91,27.95-73.8,2.45-23.92,1.87-59.72-14.73-94.43-22.29-46.6-58.02-53.56-77.34-53.56"/>
      <path class="cls-19" d="M643.48,172.38h0c6.66,0,13.23,1.99,18.99,5.76,18.61,12.17,28.91,31.56,30.62,57.63,2.82,43.11-9.59,69.61-34.94,74.64-.74.15-2.75.39-5.6.39-19.28,0-51.89-9.15-53.66-70.41-1.02-35.49,10.29-57.73,33.62-66.11,3.51-1.26,7.21-1.9,10.97-1.9M643.47,155.2c-5.65,0-11.32.95-16.78,2.92-20.5,7.36-46.57,27.57-44.99,82.77,2.2,76.43,49.06,87.11,70.83,87.11,3.94,0,7.06-.35,8.95-.72,22.17-4.4,53.21-24.43,48.74-92.63-2.59-39.55-22.27-60.37-38.35-70.89-8.57-5.6-18.45-8.56-28.4-8.56"/>
      <polygon class="cls-6" points="507.53 464.89 507.53 523.96 456.18 527.41 456.18 464.89 507.53 464.89"/>
      <polygon class="cls-11" points="456.18 464.89 418.22 463.74 418.22 480.25 275.47 464.89 275.47 520.44 456.18 527.41 456.18 464.89"/>
      <path class="cls-2" d="M639.53,114.61s-92.56-1.12-80.91,143.78c2.15,26.74,12.63,52.44,31.06,71.93,29.33,31.02,65.24,35.12,65.24,35.12l-235.55-10.56s-64.95-.54-81.19-58.45c-16.24-57.92-4.33-83.89-4.33-83.89,0,0,31.93-2.17,33.02,1.62,1.08,3.79,35.18,42.76,35.18,42.76l72.53,2.16,48.48.54-11.13-110.42,24.36-22.73,29.23-10.96,74.02-.9Z"/>
      <path class="cls-13" d="M698.26,80.33s-185.65-1.62-171.58,181.32c-1.08,5.41-157.51,3.79-157.51,3.79l-28.69-47.09s-47.09.54-41.14-30.31c2.64-13.69,10.08-33.24,17.53-50.75,10.58-24.84,34.42-41.42,61.39-42.63l319.98-14.33Z"/>
      <path class="cls-15" d="M454.49,414.89c0,13.6-9.27,24.63-20.7,24.63s-20.7-11.02-20.7-24.63,9.27-24.63,20.7-24.63,20.7,11.02,20.7,24.63"/>
    </g>
  </g>
</svg>