<?xml version="1.0" encoding="UTF-8"?>
<svg id="Camada_2" data-name="Camada 2" xmlns="http://www.w3.org/2000/svg" xmlns:xlink="http://www.w3.org/1999/xlink" viewBox="0 0 984 656.05">
  <defs>
    <style>
      .cls-1 {
        fill: #493324;
      }

      .cls-2 {
        opacity: .4;
      }

      .cls-3 {
        fill: none;
      }

      .cls-4 {
        fill: #566055;
      }

      .cls-5 {
        clip-path: url(#clippath);
      }
    </style>
    <clipPath id="clippath">
      <rect class="cls-3" width="984" height="656.05"/>
    </clipPath>
  </defs>
  <g id="Camada_36" data-name="Camada 36">
    <g class="cls-5">
      <polygon class="cls-1" points="-20.21 656.05 984 656.05 -20.21 419.35 -20.21 656.05"/>
      <polygon class="cls-4" points="-20.21 419.35 984 656.05 984 -78.69 -20.21 -78.69 -20.21 419.35"/>
      <g class="cls-2">
        <polygon points="352.84 647.04 504.97 539.44 502.66 443.35 498.48 396.04 487.43 386.92 482.56 381.82 481.4 381.82 481.47 390.09 475.06 385.76 472.51 389.09 478.85 399.14 475.21 402.23 462.61 387.69 461.38 361.64 479.16 223.74 490.67 164.14 535.2 136 539.53 126.41 534.12 112.5 533.34 88.53 539.53 65.19 552.21 50.19 562.87 48.49 577.72 54.06 587.3 70.45 589.62 82.2 586.99 97.81 581.43 110.02 579.57 120.54 579.26 129.2 587.3 140.17 605 149.45 619.07 156.41 629.89 172.95 641.57 222.89 647.44 272.05 647.44 317.2 649.3 354.92 646.75 391.68 645.47 405.36 638.4 420.66 627.73 424.84 622.98 422.29 626.34 418.35 629.24 408.72 625.18 404.89 621.93 409.07 621.35 414.06 612.66 414.4 610.92 414.63 604.69 445.32 598.44 534.99 599.24 570.44 506.64 656.05 446.81 656.05 464.31 633.48 492.76 606.58 523.99 581.22 555.84 555.4 557.69 528.73 555.38 498.12 553.29 474.7 551.43 466.81 548.88 467.97 546.56 495.57 543.78 516.21 542.62 549.37 439.89 631.24 412.48 656.53 352.84 656.05 352.84 647.04"/>
      </g>
    </g>
  </g>
</svg>