<?xml version="1.0" encoding="UTF-8"?>
<svg id="Camada_2" data-name="Camada 2" xmlns="http://www.w3.org/2000/svg" xmlns:xlink="http://www.w3.org/1999/xlink" viewBox="0 0 984 656">
  <defs>
    <style>
      .cls-1 {
        fill: #010101;
      }

      .cls-2 {
        fill: #727272;
      }

      .cls-3 {
        fill: #d9382e;
      }

      .cls-4 {
        fill: #493324;
      }

      .cls-5 {
        fill: #170c22;
      }

      .cls-6 {
        fill: none;
      }

      .cls-7 {
        fill: #015425;
      }

      .cls-8 {
        fill: #a02724;
      }

      .cls-9 {
        fill: #037230;
      }

      .cls-10 {
        fill: #e5f2f9;
      }

      .cls-11 {
        fill: #fbd7b6;
      }

      .cls-12 {
        fill: #8f7263;
      }

      .cls-13 {
        fill: #a7a7a8;
      }

      .cls-14 {
        fill: #919191;
      }

      .cls-15 {
        fill: #8f9699;
      }

      .cls-16 {
        fill: #b59b85;
      }

      .cls-17 {
        fill: #82201d;
      }

      .cls-18 {
        fill: #c0cace;
      }

      .cls-19 {
        clip-path: url(#clippath);
      }
    </style>
    <clipPath id="clippath">
      <rect class="cls-6" width="984" height="656"/>
    </clipPath>
  </defs>
  <g id="Camada_29" data-name="Camada 29">
    <g>
      <rect class="cls-4" width="984" height="656"/>
      <g class="cls-19">
        <g>
          <path class="cls-13" d="M181.54,546.31s-2.5,1.07-1.43-6.07c1.07-7.14,4.76-9.05,5.47-13.69s-.12-6.31,3.69-10.35c3.81-4.05,7.14-5.83,7.38-7.86s0-20.35,0-20.35c0,0-3.57-8.57-2.86-10.83s1.96-16.66,2.14-20.41-.71-8.93-.71-13.92-.36-8.39,2.68-12.5,2.32-9.1,4.82-16.96c2.5-7.86-1.25-12.14,5.53-18.75,6.78-6.61,8.48-16.96,13.92-23.57,5.45-6.61,5.45-10.8,10.89-13.03,5.45-2.23,7.68-5.8,8.75-10.18s1.52-6.9,6.07-11.19,5.71-18.83,18.57-21.51,4.64,3.75,14.1-8.93-4.28-12.14,9.46-22.49c13.75-10.35,21.24-28.74,23.57-31.42s1.61-2.86,18.75-8.39c17.14-5.53,22.14-10.38,22.14-10.38l13.92-10.5h16.25l8.87-6.61,26.66-10.71,4.25-.91,155.47-8.61,22.6-6.78,19.17-2.5,28.56,11.07,18.92-.71,24.99,38.32,16.42,22.14,32.49,20.35,33.21,51.89,16.19,36.67,15.71,40.45,12.85,15.71.53,5.09,4.23,3.95,4.76,16.66,2.86,17.14,3.81,13.33v7.62l-24.77-.64-23.79,9.68-9.52-18.57-10.47-14.28-6.19-18.09-24.76-21.42-16.66-26.18-1.9-13.81-25.71-16.65-4.28-10.96-17.14-40.47-18.57,47.04,3.33,19.13-.95,25.71,2.38,30.94,8.09,5.71,2.86,26.18,6.19,12.38,9.52,12.38,1.9,18.09-9.05,17.61-1.9,15.98.95,23.06-4.76,47.97-25.71,37.13-44.75,23.33-51.42,10.95-59.51-9.52-58.56-18.09-42.85-31.9-6.66-7.62-1.43-100.1,1.43-9.64.36-40.7-10-22.14,3.57-15-13.21-44.99-19.64,18.57-22.49,20.35-16.78,18.57-15,22.14-8.21,16.07-1.07,16.42-13.92,11.07-33.21-2.86-12.14-2.5-17.14,12.5-11.43,11.07-10.71,15.8Z"/>
          <path class="cls-14" d="M413.12,148.91s3.03-22.43,3.57-32.43c.54-10,1.61-18.39,2.32-20.71s12.14-18.57,14.64-24.1,10.18-19.46,15.17-25.53c5-6.07,16.78-19.28,24.46-22.49,7.68-3.21,14.46-12.08,23.09-11.01,8.63,1.07,33.74,14.4,42.31,21.54s11.19,8.09,20.11,20.47c8.93,12.38,27.25,44.99,29.4,48.92,2.14,3.93.24,6.78,1.9,10.35s2.74,12.5,4.76,16.07,8.69,15.12,10.83,21.3c2.14,6.19,5.36,18.09,2.98,26.42s-1.31,13.33-7.02,17.97c-5.71,4.64-10.59,11.9-22.26,18.33-11.66,6.43-29.47,12.22-46.03,15.71-16.56,3.49-49.18,1.19-56.8,0-7.62-1.19-11.66-1.9-26.42-7.86-14.76-5.95-19.52-13.09-23.33-15.23s-14.52-14.52-16.9-20.71-4.28-13.45-2.86-21.07c1.43-7.62,3.57-11.54,6.07-15.95Z"/>
          <path class="cls-1" d="M445.25,138.02s-15.95,0-21.78,8.09c-5.83,8.09-8.09,10.83-8.57,17.38s-3.21,12.26,0,19.28c3.21,7.02,7.74,16.42,19.04,23.21,11.31,6.78,26.42,15.35,36.3,16.9,9.88,1.55,56,6.43,78.67-1.25s33.21-13.21,37.85-16.96,13.15-8.59,14.7-22.74c1.55-14.15,1.19-20.58,0-23.08s-5.71-12.97-13.81-17.38-21.63-18.21-29.62-20.49-75.38,1.77-75.38,1.77l-24.99,16.9-10.18-.74-2.23-.89Z"/>
          <path class="cls-11" d="M446.23,139.51s4.28,35.47,9.52,48.8c5.24,13.33,8.57,23.33,18.33,31.66,9.76,8.33,21.42,13.57,31.9,13.57s18.33-.48,27.37-3.81c9.05-3.33,18.57-15.95,19.99-19.52s7.14-33.56,7.62-38.56,3.33-19.28,1.43-29.52c-1.9-10.24-3.33-19.76-3.81-20.71s-12.62-5.47-14.76-7.86c-2.14-2.38-2.62-5.24-5.71-5.24s-10-.15-14.7-2.17-18.75,2.11-28.15,1.87-14.34-1.18-17.61-2.43-10.44-.07-11.87,1.09-5.62,3.93-5.36,6.25,4.55,4.11,4.11,6.69,2.32,4.55-.8,8.21-9.64,7.97-17.5,11.66Z"/>
          <polygon class="cls-5" points="183.56 556.4 118.22 592.46 115.37 600.85 118.04 611.38 128.04 618.52 133.76 622.81 204.99 581.21 192.19 575.14 185.41 564.61 183.56 556.4"/>
          <polygon class="cls-10" points="118.22 592.46 110.84 591.62 97.04 592.46 84.54 602.34 81.8 610.67 80.85 626.97 90.97 638.28 107.27 641.73 120.37 640.3 129.41 633.99 132.89 624.73 133.76 622.81 118.04 611.38 115.37 600.85 118.22 592.46"/>
          <polygon class="cls-7" points="364.17 396.02 367.15 443.51 369.53 486.35 371.19 530.63 373.57 571.81 373.57 602.99 383.86 664.81 426.13 656.78 391.23 624.35 382.56 592.28 381.13 521.58 384.09 496.01 374.64 452.91 372.92 449.1 376.49 434.11 364.17 396.02"/>
          <polygon class="cls-9" points="386.19 223.68 398.33 222.38 449.27 237.97 470.93 246.54 488.31 251.3 484.73 259.39 483.54 266.53 491.4 271.77 499.25 263.91 500.45 252.72 533.23 250.7 548.53 250.7 544.48 259.15 548.53 267.13 557.22 265.58 563.88 252.61 564.83 242.49 564.83 232.61 582.54 212.15 568.97 218.95 543.83 227.25 525.44 230.91 504.64 231.57 479.84 230.14 449.25 221.51 436.77 214.64 425.17 204.84 418.49 198.6 411.51 204.89 393.51 216.42 384.64 223.03 386.19 223.68"/>
          <polygon class="cls-2" points="762.46 444.7 777.47 438.05 785.92 428.17 782.71 428.17 773.19 435.31 764.38 435.67 757.83 434.24 746.03 430.48 762.46 444.7"/>
          <polygon class="cls-2" points="571.2 438.77 537.3 429.54 519.09 425.97 540.15 417.4 575.5 429 571.2 438.77"/>
          <polygon class="cls-2" points="362.56 389.31 379.78 384.73 387.16 388.78 409.06 385.68 432.98 384.73 444.64 388.06 459.88 395.2 467.14 411.39 446.78 419.72 375.15 454.05 372.92 449.1 376.49 434.11 364.17 396.02 362.56 389.31"/>
          <polygon class="cls-2" points="402.18 539 413.61 549.36 428.25 557.69 422.65 563.88 406.59 554.95 398.61 549.83 398.02 543.76 392.66 539.6 392.66 537.69 402.18 539"/>
          <polygon class="cls-2" points="720.14 390.56 735.31 380.47 733.88 360.96 735.31 341.44 733.42 330.29 687.6 352.03 693.43 366.64 719.14 383.29 720.14 390.56"/>
          <polygon class="cls-5" points="314.8 524.54 347.37 555.37 347.37 563.22 340.35 566.08 324.17 566.79 310 565.6 293.46 559.77 290.6 555.01 291.45 551.32 277.57 553.11 275.55 553.23 263.88 553.58 251.75 554.77 249.6 551.92 252.46 544.06 252.94 524.54 239.84 516 229.76 494.49 230.74 479.14 238.95 466.64 278.94 496.19 286.62 493.6 296.44 496.91 291.45 499.33 291.45 516.94 305.02 529.08 314.8 524.54"/>
          <polygon class="cls-2" points="360.52 391.73 301.26 385.74 281.74 379.08 296.73 394.55 333.63 405.26 323.39 405.26 279.6 396.02 253.17 388.36 268.65 403.35 276.5 415.49 286.97 431.92 293.4 440.73 306.85 429.3 310.55 439.76 322.89 426.46 360.52 391.73"/>
          <polygon class="cls-2" points="415.45 532.9 448.12 549.33 492.58 563.88 498.29 565.75 495.25 573.07 465.26 563.88 447.94 554.51 430.81 549.51 407.95 530.58 415.45 532.9"/>
          <polygon class="cls-2" points="383.32 421.39 399.5 444.71 436.15 458.04 459.49 471.13 478.77 493.75 477.1 480.64 456.42 461.69 439.02 451.38 411.41 438.77 383.32 421.39"/>
          <polygon class="cls-11" points="837.2 486.59 841 498.45 828.5 513.98 824.57 520.41 818.15 524.16 807.79 521.48 797.79 515.77 795.29 507.73 790.82 494.75 812.43 485.95 837.2 486.59"/>
          <polygon class="cls-16" points="808.27 487.65 809.61 500.68 810.14 513.36 811.93 518.18 811.93 508 817.91 508.54 813.62 503.72 822.01 497.56 811.75 500.06 809.66 487.08 808.27 487.65"/>
          <polygon class="cls-11" points="181.54 546.31 183.56 556.4 185.41 564.61 192.19 575.14 204.99 581.21 210.45 581.61 214.46 577.77 231.69 578.04 234.9 570.28 244.22 570.54 248.56 572.86 258.74 569.29 271.23 567.87 276.11 561.68 276.11 553.19 263.88 553.58 251.75 554.77 249.6 551.92 252.46 544.06 252.94 524.54 239.84 516 236.93 509.79 220.82 506.94 203.68 519.44 192.25 530.51 181.54 546.31"/>
          <polygon class="cls-16" points="230.8 527.61 233.42 542.01 239.61 552.96 245.66 557.78 251.75 554.77 249.6 551.92 240.68 552.13 234.96 541.77 231.99 527.61 230.8 527.61"/>
          <polygon class="cls-16" points="211.99 527.61 211.99 546.41 216.4 557.72 225.92 570.1 233.83 572.87 234.9 570.28 227.47 567.6 219.61 558.55 214.14 547.13 213.3 527.61 211.99 527.61"/>
          <polygon class="cls-16" points="194.83 538.68 195.99 551.53 199.65 562.87 204.99 570.45 212.59 577.42 213.68 578.52 214.91 577.78 211.99 573.49 203.57 565.19 199.65 556.4 196.79 539.12 194.83 538.68"/>
          <polygon class="cls-2" points="195.05 467.77 203.78 462.65 211.76 467.77 217.23 462.65 212.11 452.3 195.22 440.73 195.68 450.64 195.96 455.75 195.05 467.77"/>
          <polygon class="cls-2" points="361.72 371.07 429.38 338.04 459.61 328.52 506.5 333.76 471.03 319.72 442.47 320.91 408.67 330.67 358.32 367.86 361.72 371.07"/>
          <polygon class="cls-3" points="504.64 278.19 526.99 278.19 534.91 272.12 579.47 269.62 579.47 307.12 579.47 334.61 584.11 362.25 629.46 358.89 649.45 355.32 657.53 351.9 653.44 362.25 656.77 381.38 651.6 390.31 636.24 385.67 602.49 381.38 585.54 384.24 584.47 399.59 599.82 430.65 623.75 442.08 640.53 466.36 563.04 480.64 565.9 466 570.55 446.01 572.33 426.37 566.26 409.95 558.76 399.23 526.99 399.95 508.52 402.8 476.64 413.16 463.43 421.73 446.23 362.25 470.93 367.46 497.71 369.24 560.19 369.24 550.19 340.68 534.91 317.11 520.2 296.4 504.64 278.19"/>
          <polygon class="cls-17" points="573.02 439.6 617.47 457.57 613.72 446.02 589.98 434.06 572.11 428.75 571.2 438.77 573.02 439.6"/>
          <polygon class="cls-10" points="291.45 499.33 291.45 516.94 305.02 529.08 344.53 510.75 359.53 507.66 444.03 463.62 556.5 412.09 611.13 386.74 742.17 326.87 868.33 266.29 894.39 249.87 908.67 233.09 902.6 222.38 876.18 222.38 816.2 243.8 636.72 325.8 435.11 423.16 330.13 474.81 323.05 484.03 291.45 499.33"/>
          <polygon class="cls-15" points="344.12 500.76 426.71 462.91 487.89 431.37 576.79 390.31 670.7 346.03 838.63 269.62 873.86 253.44 900.28 236.78 907.7 234.23 894.39 249.87 865.44 269.64 359.53 507.66 344.53 510.75 344.12 500.76"/>
          <polygon class="cls-8" points="455.12 392.97 480.86 401.06 460.32 410.98 455.12 392.97"/>
          <polygon class="cls-18" points="81.95 626.81 93.26 618.6 112.78 617.64 123.85 622.23 127.42 627.64 128.37 632.64 127.56 635.29 119.71 640.37 106.59 641.58 90.97 638.28 81.42 627.6 81.95 626.81"/>
          <polygon class="cls-2" points="218.1 377.73 233.52 374.73 244.71 379.08 232.09 369.49 222.59 370.55 218.1 377.73"/>
          <polygon class="cls-2" points="225.65 366.17 239.47 366.17 260.3 371.76 270.18 382.23 263.51 369.49 243.99 362.25 228.57 361.52 225.65 366.17"/>
          <polygon class="cls-12" points="524.58 166.54 517.43 150.83 511.87 139.47 512.94 129.56 516.16 118.94 525.88 116.26 544.18 118.13 555.61 126.61 550.79 133.48 538.29 137.41 518.92 132.5 518.48 139.55 522.23 147.5 524.58 166.54"/>
          <polygon class="cls-12" points="488.51 195.85 506.46 188.53 518.12 186.91 535.64 196.65 511.32 193.28 502.08 194.33 487 198.97 488.51 195.85"/>
          <polygon class="cls-12" points="464.74 208.75 467 194.81 457.6 173.06 453.79 149.7 457.6 143.63 475.33 135.78 491.52 135.78 497.47 130.18 488.54 116.26 471.64 113.16 465.1 114.23 462.82 116.26 464.47 118.61 464.72 121.73 465.22 124.66 464.39 126.96 462.08 129.55 455.17 134.69 446.23 139.51 450.31 166.32 452.44 176.77 455.53 187.72 459.13 196.9 464.74 208.75"/>
        </g>
      </g>
    </g>
  </g>
</svg>