<?xml version="1.0" encoding="UTF-8"?>
<svg id="Camada_2" data-name="Camada 2" xmlns="http://www.w3.org/2000/svg" viewBox="0 0 984 656.05">
  <defs>
    <style>
      .cls-1 {
        fill: none;
        stroke: #000;
        stroke-miterlimit: 10;
      }

      .cls-2 {
        fill: #fff7f5;
      }

      .cls-3 {
        fill: #29292b;
      }

      .cls-4 {
        fill: #514c4d;
      }

      .cls-5 {
        fill: #3f3e44;
      }

      .cls-6 {
        fill: #38383a;
      }

      .cls-7 {
        fill: #493324;
      }

      .cls-8 {
        fill: #4c4c4c;
      }

      .cls-9 {
        fill: #1f1f1f;
      }

      .cls-10 {
        fill: #4f5954;
      }

      .cls-11 {
        fill: #e0c68d;
      }

      .cls-12 {
        fill: #191818;
      }

      .cls-13 {
        fill: #363233;
      }

      .cls-14 {
        fill: #f7efec;
      }

      .cls-15 {
        fill: #727172;
      }
    </style>
  </defs>
  <g id="Camada_26" data-name="Camada 26">
    <g>
      <polygon class="cls-10" points="0 0 984 0 984 547.94 0 557.32 0 0"/>
      <polygon class="cls-7" points="0 485.34 934.14 462 984 515.13 984 656 0 656.05 0 485.34"/>
      <g>
        <polyline class="cls-8" points="867.11 445.4 884.39 443.8 887.79 446.06 901.05 444.93 889.24 457.22 885.69 462.72 882.63 465.63 882.63 458.66 867.11 445.4"/>
        <polygon points="897.41 448.71 931.95 462.53 908.65 463.14 889.24 457.22 897.41 448.71"/>
        <polygon class="cls-9" points="230.67 479.87 223.98 481.16 223.98 494.27 205.87 497.11 196.82 496.04 194.47 494.27 194.88 490 194.45 484.82 187.33 479.66 187.33 434.49 171.22 434.97 164.1 434.32 156.78 430.44 145.78 372.56 154.67 366.04 173.65 363.6 222.68 370.14 228.08 407.21 229.15 419.5 225.92 427.47 230.67 479.87"/>
        <polygon class="cls-5" points="206.11 637.76 197.87 635.6 191.89 625.26 194.69 606.72 200.29 601.76 214.54 601.76 220.99 607.79 220.99 619.76 220.99 631.29 211.29 637.76 206.11 637.76"/>
        <path class="cls-6" d="M183.68,322.66l-9.1,34.93-4.85,31.37s-3.72,12.61,16.17,14.55c19.89,1.94,23.12.97,26.68-1.46s16.49-27,16.49-27l14.88-24.9s-1.03-5.4-3.59-5.94c0,0,1.07,2.24-3.6,7.34s-5.85,8.04-16.95,12.05-25.65-6.2-27.46-7.56-7.13-3.71-8.33-14.1,1.65-16.37,2.13-17.63-2.47-1.65-2.47-1.65Z"/>
        <polygon class="cls-5" points="41.51 520.37 36.12 527.27 36.77 535.77 43.02 542.25 51.64 541.18 61.45 538.16 62.24 535.48 59.03 523.81 56.14 520.7 41.51 520.37"/>
        <path class="cls-2" d="M60,535.77l101.54-13.26v-10.67l-102.51,11.97s-7.11,9.05.97,11.97Z"/>
        <polygon class="cls-3" points="161.54 503.17 194.47 494.27 230.69 494.27 257.21 499.77 240.23 506.24 222.12 519.82 195.12 519.17 179.76 509.15 161.54 503.17"/>
        <polygon class="cls-3" points="161.54 503.17 161.54 527.74 189.3 530.17 194.96 533.4 197.87 563.31 219.86 563.31 225.36 561.7 225.36 531.3 257.21 524.83 257.21 499.77 240.23 506.24 222.12 519.82 195.12 519.17 179.76 509.15 161.54 503.17"/>
        <polygon class="cls-3" points="187.33 434.49 187.33 475.07 156.45 477.82 141.09 473.94 138.01 468.6 130.25 424.3 130.25 416.22 145.78 372.56 156.78 430.44 164.1 434.32 171.22 434.97 187.33 434.49"/>
        <polygon class="cls-2" points="257.21 504.82 296.69 507.05 299.78 521.86 257.21 520.67 257.21 504.82"/>
        <polygon class="cls-14" points="267.58 434.11 365.89 380.48 373.44 380.48 378.83 382.21 437.68 481.81 439.41 485.69 437.9 491.94 332.91 552.95 324.07 551.66 316.09 548.86 260.47 456.8 258.53 445.81 263.7 437.61 267.58 434.11"/>
        <polygon class="cls-11" points="272.65 443.11 314.85 418.28 370.47 388.19 392.46 418.59 431.92 487.74 329.78 546.59 272.65 443.11"/>
        <polygon class="cls-4" points="636.46 551.33 626.75 565.56 596.68 582.38 562.4 587.87 522.63 589.49 491.25 589.49 433.37 580.77 397.8 561.04 393.92 546.59 408.48 535.17 444.69 523.2 480.59 517.05 534.59 517.05 575.66 521.8 609.93 529.99 630.31 539.37 636.46 551.33"/>
        <polygon class="cls-13" points="644.59 600.28 634.03 613.85 601.26 631.1 552.97 640.59 494.97 642.1 448.84 635.85 410.52 621.88 387.07 605.4 384.82 595.37 384.82 577.42 393.92 546.59 397.8 561.04 433.37 580.77 491.25 589.49 522.63 589.49 562.4 587.87 596.68 582.38 626.75 565.56 636.46 551.33 644.59 600.28"/>
        <path class="cls-9" d="M536.43,546.59c-.21,1.21-3.45,3.79-3.45,3.79l-12.5,2.58-18.54,1.3s-8.19-2.36-9.06-4.31c-.86-1.94,0-4.73,0-4.73l4.33-1.08-3.25-3.66,5.17-68.55,6.1-1.03,4.24-.71h22.43v27.6l3.66,42.69-1.51,3.23s2.58,1.69,2.36,2.9Z"/>
        <polygon class="cls-3" points="550.02 395.91 550.02 408.63 549.64 409.4 542.9 423.5 532.34 434.72 524.14 442.48 520.92 452.17 519.41 470.18 509.48 470.18 507.11 444.2 501.73 440.32 488.36 425.23 478.98 410.56 478.44 409.71 478.44 393.97 482.1 391.16 484.68 392.66 486.2 393.54 486.63 400.22 491.38 411.87 509.05 427.6 519.41 428.25 530.18 423.29 539.89 410.13 542.04 396.34 544.63 393.54 545.83 394.06 550.02 395.91"/>
        <polygon class="cls-9" points="509.48 470.18 505.24 470.88 502.8 463.45 496.98 459.57 488.57 456.76 480.16 446.2 478.98 410.56 488.36 425.23 501.73 440.32 507.11 444.2 509.48 470.18"/>
        <line class="cls-1" x1="505.47" y1="471.58" x2="505.24" y2="470.88"/>
        <polygon class="cls-9" points="550.02 416 548.22 435.06 542.96 450.27 532.77 457.22 524.85 461.02 523.86 470.18 519.41 470.18 520.92 452.17 524.14 442.48 532.34 434.72 542.9 423.5 549.64 409.4 550.02 416"/>
        <line class="cls-1" x1="523.86" y1="470.18" x2="523.77" y2="471"/>
        <path class="cls-15" d="M545.83,394.06l-1.2-.52-2.59,2.81-2.16,13.79-9.71,13.15-10.77,4.96-10.36-.65-17.67-15.73-4.75-11.65-.43-6.69-1.52-.88,1.43-16.99c7.53,3.6,15.71,5.91,24.36,6.65,12.28,1.06,24.17-1.14,35-5.94l.36,17.68Z"/>
        <line class="cls-1" x1="484.68" y1="392.66" x2="484.65" y2="393.03"/>
        <line class="cls-1" x1="545.84" y1="394.86" x2="545.83" y2="394.06"/>
        <line class="cls-1" x1="545.47" y1="376.38" x2="545.47" y2="376.37"/>
        <polygon class="cls-15" points="759.1 523.01 840.91 447.66 859.67 447.66 867.11 445.4 882.63 458.66 882.63 466.42 802.11 572.17 798.23 550.82 788.53 539.83 770.09 527.22 759.1 523.01"/>
        <path class="cls-12" d="M596.52,300.22c-3.02,35.17-23.66,64-51.05,76.16-10.83,4.8-22.73,7-35,5.94-8.65-.74-16.83-3.05-24.36-6.65-30.16-14.42-49.79-49.68-46.4-88.95,4.22-49.08,42.75-85.84,86.05-82.1s74.98,46.53,70.75,95.6Z"/>
        <ellipse class="cls-12" cx="749.2" cy="576.76" rx="58.53" ry="48.19" transform="translate(-179.41 754.6) rotate(-48.43)"/>
        <ellipse class="cls-12" cx="359.29" cy="466.57" rx="63.02" ry="66.34" transform="translate(-203.31 640.52) rotate(-69.58)"/>
        <path class="cls-15" d="M193.45,305.42l-8.95,23.18s-4.1,18.11,6.04,26.09,24.44,13.31,35.87,6.19c11.43-7.11,13.5-15.25,13.5-15.25l5.57-17.2-52.03-23.01Z"/>
        <ellipse class="cls-12" cx="248.72" cy="245.98" rx="83.73" ry="73.15" transform="translate(-68.57 393.26) rotate(-69.58)"/>
        <path class="cls-2" d="M203.04,532.11l-5.17,70.82s13.91-.32,16.17,0,2.91-70.82,2.91-70.82c0,0-7.44-8.08-13.91,0Z"/>
      </g>
    </g>
  </g>
</svg>