<?xml version="1.0" encoding="UTF-8"?>
<svg id="Camada_2" data-name="Camada 2" xmlns="http://www.w3.org/2000/svg" viewBox="0 0 984 656.05">
  <defs>
    <style>
      .cls-1 {
        fill: #8e2c09;
      }

      .cls-2 {
        fill: #b9b6b1;
      }

      .cls-3 {
        fill: #687178;
      }

      .cls-4 {
        fill: #c9bbb8;
      }

      .cls-5 {
        fill: #493324;
      }

      .cls-6 {
        fill: none;
      }

      .cls-7 {
        fill: #566055;
      }

      .cls-8 {
        fill: #272b2c;
      }

      .cls-9 {
        fill: #296842;
      }

      .cls-10 {
        fill: #42ab70;
      }

      .cls-11 {
        fill: #efefef;
      }

      .cls-12 {
        fill: #cececc;
      }

      .cls-13 {
        fill: #fffffd;
      }

      .cls-14 {
        fill: #e35b1f;
      }

      .cls-15 {
        fill: #36353a;
      }

      .cls-16 {
        fill: #090a0c;
      }
    </style>
  </defs>
  <g id="Camada_24" data-name="Camada 24">
    <g>
      <rect class="cls-7" width="984" height="656"/>
      <rect class="cls-5" y="399.29" width="984" height="256.71"/>
      <polygon class="cls-11" points="0 432.03 747.49 656 763.27 656 763.27 641.04 958.58 158.2 117.06 29.98 0 250.71 0 432.03"/>
      <polygon class="cls-15" points="570.84 191.04 884.92 244.9 732.42 611.13 422.31 519.86 570.84 191.04"/>
      <polygon class="cls-8" points="593.14 253.12 635.95 260.77 650.69 227.32 608.17 218.82 593.14 253.12"/>
      <polygon class="cls-6" points="733.36 280.33 747.72 245.75 794.97 253.61 780.23 289.59 733.36 280.33"/>
      <polygon class="cls-6" points="579.25 278.32 564.89 311.23 610.24 321.43 625.17 286.85 579.25 278.32"/>
      <polygon class="cls-6" points="633.58 326.35 649.27 291.95 695.19 299.88 679.88 336.55 633.58 326.35"/>
      <polygon class="cls-6" points="706.53 341.84 721.65 306.13 770.02 316.71 754.72 352.61 706.53 341.84"/>
      <polygon class="cls-6" points="678.94 404.58 727.88 415.17 742.81 379.45 695.19 368.49 678.94 404.58"/>
      <polygon class="cls-6" points="606.75 388.9 653.24 399.29 667.32 363.29 621.96 352.33 606.75 388.9"/>
      <polygon class="cls-6" points="538.81 371.13 582.94 381.72 599 345.91 552.89 337.21 538.81 371.13"/>
      <polygon class="cls-6" points="579.72 452.02 625.79 463.78 640.39 425.8 594.46 414.46 579.72 452.02"/>
      <polygon class="cls-13" points="449.09 486.17 515.99 505.35 531.96 467.37 465.72 448.94 449.09 486.17"/>
      <polygon class="cls-14" points="540.18 512.58 556.52 475.21 625.22 493.66 610.06 532.65 540.18 512.58"/>
      <polygon class="cls-10" points="659.65 491.93 639.29 546.96 714.73 567.12 735.79 510.09 659.65 491.93"/>
      <polygon class="cls-16" points="593.14 253.12 593.57 262.59 641.76 271.8 658.32 232.28 650.69 227.32 635.95 260.77 593.14 253.12"/>
      <polygon class="cls-8" points="660.9 267.3 703.7 274.96 718.45 241.51 675.93 233 660.9 267.3"/>
      <polygon class="cls-16" points="660.9 267.3 661.33 276.78 709.52 285.99 726.08 246.47 718.45 241.51 703.7 274.96 660.9 267.3"/>
      <polygon class="cls-8" points="733.36 281.19 776.17 288.85 790.91 255.4 748.39 246.89 733.36 281.19"/>
      <polygon class="cls-16" points="733.36 281.19 733.79 290.67 781.98 299.88 798.54 260.36 790.91 255.4 776.17 288.85 733.36 281.19"/>
      <polygon class="cls-8" points="564.62 312.7 607.42 320.36 622.16 286.91 579.64 278.41 564.62 312.7"/>
      <polygon class="cls-16" points="564.62 312.7 565.04 322.18 613.23 331.39 629.79 291.87 622.16 286.91 607.42 320.36 564.62 312.7"/>
      <polygon class="cls-8" points="632.38 326.89 675.18 334.54 689.92 301.09 647.4 292.59 632.38 326.89"/>
      <polygon class="cls-16" points="632.38 326.89 632.8 336.36 680.99 345.57 697.55 306.06 689.92 301.09 675.18 334.54 632.38 326.89"/>
      <polygon class="cls-8" points="704.84 340.78 747.64 348.43 762.38 314.98 719.86 306.48 704.84 340.78"/>
      <polygon class="cls-16" points="704.84 340.78 705.26 350.25 753.45 359.46 770.01 319.94 762.38 314.98 747.64 348.43 704.84 340.78"/>
      <polygon class="cls-8" points="538.81 371.54 581.61 379.19 596.35 345.74 553.83 337.24 538.81 371.54"/>
      <polygon class="cls-16" points="538.81 371.54 539.24 381.01 587.43 390.22 603.98 350.7 596.35 345.74 581.61 379.19 538.81 371.54"/>
      <polygon class="cls-8" points="606.57 385.72 649.37 393.37 664.11 359.93 621.59 351.42 606.57 385.72"/>
      <polygon class="cls-16" points="606.57 385.72 607 395.19 655.19 404.41 671.74 364.89 664.11 359.93 649.37 393.37 606.57 385.72"/>
      <polygon class="cls-8" points="679.03 399.61 721.83 407.26 736.58 373.81 694.06 365.31 679.03 399.61"/>
      <polygon class="cls-16" points="679.03 399.61 679.46 409.08 727.65 418.3 744.2 378.78 736.58 373.81 721.83 407.26 679.03 399.61"/>
      <polygon class="cls-8" points="581.52 449.46 624.32 457.12 639.06 423.67 596.54 415.17 581.52 449.46"/>
      <polygon class="cls-16" points="581.52 449.46 581.95 458.94 630.13 468.15 646.69 428.63 639.06 423.67 624.32 457.12 581.52 449.46"/>
      <polygon class="cls-2" points="777.16 656.05 984 486.36 984 144.03 958.58 158.2 763.27 641.04 763.27 656 777.16 656.05"/>
      <polygon class="cls-12" points="117.06 29.98 258.04 0 575.52 0 984 55.59 984 144.03 958.58 158.2 117.06 29.98"/>
      <polygon class="cls-3" points="3.02 347.28 394.29 459.24 529.41 163.02 132.28 97.4 3.02 347.28"/>
      <polygon class="cls-4" points="449.09 486.17 454.85 495.57 521.46 514.76 541.02 472.71 531.96 467.37 515.99 505.35 449.09 486.17"/>
      <polygon class="cls-1" points="540.18 512.58 544.37 520.47 618.08 541.45 635.22 498.08 625.22 493.66 610.06 532.65 540.18 512.58"/>
      <polygon class="cls-9" points="639.29 546.96 641.11 553.38 719.72 575.25 742.18 512.51 735.79 510.09 714.73 567.12 639.29 546.96"/>
    </g>
  </g>
</svg>