<?xml version="1.0" encoding="UTF-8"?>
<svg id="Camada_2" data-name="Camada 2" xmlns="http://www.w3.org/2000/svg" xmlns:xlink="http://www.w3.org/1999/xlink" viewBox="0 0 984 656.05">
  <defs>
    <style>
      .cls-1 {
        fill: #939393;
      }

      .cls-2 {
        fill: #f9f5f3;
      }

      .cls-3 {
        fill: #dadada;
      }

      .cls-4 {
        fill: #141414;
      }

      .cls-5 {
        fill: #414141;
      }

      .cls-6 {
        fill: #515151;
      }

      .cls-7 {
        fill: #444;
      }

      .cls-8 {
        fill: #dedede;
      }

      .cls-9, .cls-10 {
        fill: none;
      }

      .cls-11 {
        fill: #fffcfa;
      }

      .cls-12 {
        fill: #020202;
      }

      .cls-13 {
        fill: #566055;
      }

      .cls-14 {
        fill: #8a8a8a;
      }

      .cls-15 {
        fill: #383838;
      }

      .cls-16 {
        fill: #44262b;
      }

      .cls-17 {
        fill: #bfbdbb;
      }

      .cls-18 {
        fill: #797979;
      }

      .cls-19 {
        fill: #5c5c5c;
      }

      .cls-20 {
        fill: #66373d;
      }

      .cls-21 {
        clip-path: url(#clippath);
      }

      .cls-10 {
        stroke: #000;
        stroke-miterlimit: 10;
        stroke-width: 7px;
      }

      .cls-22 {
        fill: #1f1f1f;
        opacity: .7;
      }

      .cls-23 {
        font-family: WorkSansRoman-ExtraBold, 'Work Sans';
        font-size: 95.75px;
        font-variation-settings: 'wght' 800;
        font-weight: 700;
      }
    </style>
    <clipPath id="clippath">
      <polygon class="cls-9" points="328.65 376.23 325.43 656 744.96 656 744.96 375.59 328.65 376.23"/>
    </clipPath>
  </defs>
  <g id="Camada_30" data-name="Camada 30">
    <g>
      <rect class="cls-13" width="984" height="656"/>
      <g>
        <polyline class="cls-11" points="292.58 656 301.65 229.11 526.84 79.66 531.49 67.91 582.57 67.91 582.57 77.42 790.95 233.42 787.81 656 292.58 656"/>
        <polyline class="cls-17" points="485.94 120.55 531.88 88.51 539.5 67.91 572.66 67.91 576.69 83.58 777 240.42 768.26 242.21"/>
        <polyline class="cls-10" points="318.4 656 318.4 295.04 757.34 295.04 752.03 656"/>
        <text class="cls-23" transform="translate(330.69 368.58)"><tspan x="0" y="0">MISSING</tspan></text>
        <g class="cls-21">
          <polygon class="cls-19" points="141.06 722.69 136.09 371.9 897 372.6 899.35 719.18 141.06 722.69"/>
          <polyline class="cls-15" points="606.02 722.69 139.49 611.81 141.06 722.69 606.02 722.69"/>
          <polyline class="cls-5" points="630.9 722.8 625.46 372.34 899.35 371.9 899.35 719.18 630.9 722.8"/>
          <g>
            <path class="cls-14" d="M554.88,511.17l.24,11.99-4.31,7.97-4.02,10.82-5.93,8.15-12.83,3.05-9.08-.41-13.73-6.98-9.89-7.68-4.86-4.82h0s-.27-1.78-.27-1.78l-.89-5.86s10.4-3.56,31-6.35c20.6-2.79,34.58-8.11,34.58-8.11Z"/>
            <path class="cls-8" d="M554.13,455.97l-2.53-6.94-3.03-2.24-1.03-2.36-.71-7.12-1.76-8.07-2.92-4.71-7.51-2.32-2.87-1.47,2.69-.27-1.15-1.81-4.24-2.04-7.07,2.98-4.52.45,4.39,7.11-4.47-4.38,2.79,6.04-6.42-7.26-.32,5.64-6.37,4.75-5.13.51-2.8-.77,1-1.41,4-2.15-4.17.41-3.11,1.36-.03,2.37,3.62,1.13-4.71.29-1.86,1.59-4.36-.62-3.86-.85-3.86.82-1.28-1.36-2.24,1.27-2.97-.76-2.51,11.83.2,12.46-1.21,5.5.66,1.92.41,8.85,1.9,9.75-.37.74,13.34,34.22,1.38-3.82,1.36-.43,1.63-3.03,3.18,2.55,1.34-2.09,3.37-2.88.67,6.78,3.67-.13-.11,1.82,2.57.57,3.3-.33,1.03,1.65,1.72,3.57,2.09-3.07-.58,4.15,3.25-.79-.14-1.45,3.75,1.56,2.81-2.03,1.02,2.01,2.94-1.05.52-2.98,1,1.83,2-2.19,2.05-1.78,1.81,2.45.75-4.34,1.42-3.94,2.56,3.37-1.62-6.33.7-2.99,3.76,1.94.47,1.74,1.62-3.67,2.15-.68,1.2,4.44,2.14,3.27,3.49-4.88.06-.14,1.3-32.85.34-11.61-1.6-7.3ZM489.88,475.36l.42-2.85,2.63-1.75-5.28.7-2.55,1.74-2.04.64-3.8-2.08,1.5-3.4,2.82-2.47,4.19-1.99-.54-1,2-2.83-5.26.96-3.62,2.47-3.39.25,1.48-4.53,5.1-3.4,10.77-1.07,6.44,1.29,1.99,1.51-1.18,1.39,2.32,2.14,2.21,2.85,1.01,4.02.22,2.26-14.5,3.72-2.97,1.43ZM524.68,508.72l-1.19,1.26-.2.93-2.17.22,1.25,1.05-2.79.48-1.36.13-.56-.65-1.66,1.22-2.1-.52-3.6-1.75,5.2-3.06,4.33-1.1,5,.29,2.1,1.14-2.24.37ZM539.62,501.39l-1.02,2.09-5.12-2.71-8.1,3.26,1.21-2.52s-14.77,2.63-14.75,2.81l.12,1.22,6.11.27-3.25.91-13.46-.71-2.23,1.68-1.98-1.09-1.33-2.67.42-4.78,3.27-4.18.5,1.47,4.37-1.95.51-1.4-2.13-7.27,2.43,2.68.97.37.89-1.61,3.12.27,3.33,3.06,2.05,1.08,2.99-.53s2.16-2.44,2.17-2.26,1.27-3.69,1.27-3.69l2.01-.38,1.32,1.51-1.4,4.17,5.02-.67,5.28,1.99,4.52,2.59,1.21,3.33-.34,3.66ZM535.84,455.54l4.94.85,5.92,1.93.35,1.72-.08,1-3.61.77-3.94.92-3.58,1.7-.59,1.7,5.96-.59-3.47,2.1-6.91-.07-6.46-1.41-1.18-1.28-.38-1.48-1.87-1.19-1.45-2.22.55-2.69.16-3.11-.41-1.19,6.95-3.67,7.89-1.83,6.48-.12,4.95,1-2.57,1.28,3.42,1.47-3.3.33-5.08-1.08-3.96,1.33-1.99,2.3-2.24,1.57,5.5-.02Z"/>
            <path class="cls-4" d="M566.4,436.51l.66,6.69-2.51,7.44.52,5.21-1.11,5.55-2.34-4.16s-.19,2.32-.54,2.35-1.19,3.7-1.19,3.7l.37,3.21-1.82,6.41-3.05,1.97.34-11.61-1.6-7.3-2.53-6.94-3.03-2.24-1.03-2.36-.71-7.12-1.76-8.07-2.92-4.71-7.51-2.32-2.87-1.47,2.69-.27-1.15-1.81-4.24-2.04-7.07,2.98-4.52.45,4.39,7.11-4.47-4.38,2.79,6.04-6.42-7.26-.32,5.64-6.37,4.75-5.13.51-2.8-.77,1-1.41,4-2.15-4.17.41-3.11,1.36-.03,2.37,3.62,1.13-4.71.29-1.86,1.59-4.36-.62-3.86-.85-3.86.82-1.28-1.36-2.24,1.27-2.97-.76-2.51,11.83.2,12.46-1.21,5.5.66,1.92.41,8.85,1.9,9.75-.37.74-.28.56-3.2-3.89-6.65-16.62-2.11-4.44-1.58-5.37-.96-6.13,1.09-4.06-2.19,1.8-.09-6.22-2.3,1.63.03-3.25-3.99,2.24,1.13-6.26,8.65-8.31.5-1.98-3.9,1.35,7.67-4.97.31-5.73,4.49-6.06,3.79-7.74,6.92-4.55,3.86-4.42,5.27-4.38,6.59-2.58,5.54-.55,8.25.76,10.86,3.31,9.16,3.92,4.04.91,3.17,4.51,6.03,2.38-2.69-3.24,4.42,1.23,1.31,5.22,4.92,1.79-3.13.31,6.3,6.04,5.97,8.88,2.53,10.45,2.26,5.13Z"/>
            <polygon class="cls-18" points="507.13 467.95 507.35 470.2 492.85 473.92 489.88 475.36 490.3 472.51 492.93 470.76 487.65 471.46 485.1 473.2 483.06 473.84 479.26 471.76 480.76 468.37 483.59 465.89 487.78 463.9 487.24 462.9 489.24 460.07 483.99 461.03 480.37 463.5 476.97 463.74 478.45 459.21 483.55 455.81 494.33 454.74 500.77 456.03 502.76 457.55 501.58 458.93 503.9 461.07 506.11 463.92 507.13 467.95"/>
            <polygon class="cls-18" points="546.7 458.32 547.04 460.04 546.97 461.04 543.36 461.81 539.42 462.73 535.84 464.42 535.25 466.12 541.21 465.53 537.74 467.63 530.83 467.55 524.38 466.15 523.2 464.86 522.81 463.38 520.94 462.19 519.49 459.96 520.04 457.28 520.2 454.16 519.79 452.97 526.74 449.3 534.63 447.47 541.11 447.35 546.06 448.35 543.49 449.63 546.92 451.1 543.62 451.43 538.54 450.35 534.58 451.68 532.58 453.99 530.34 455.55 535.84 455.54 540.77 456.39 546.7 458.32"/>
            <path class="cls-18" d="M539.62,501.39l-1.02,2.09-5.12-2.71-8.1,3.26,1.21-2.52s-14.77,2.63-14.75,2.81l.12,1.22,6.11.27-3.25.91-13.46-.71-.69.52,1.31-3.19s2.31-1.49,2.55-1.54l4.43-1.32,5.45-.58h5.72s.15-1.55.15-1.55l2.64,1.41,4.82-.52-2.87-1.07,8.32-.17,3.56,1.29,2.86,2.12Z"/>
            <polygon class="cls-18" points="504.38 494.48 504.88 493.08 502.76 485.8 505.19 488.49 506.16 488.86 507.05 487.25 510.18 487.53 513.51 490.59 515.56 491.67 504.38 494.48"/>
            <path class="cls-18" d="M525.32,486.31l-1.4,4.17-5.38.65s2.16-2.44,2.17-2.26,1.27-3.69,1.27-3.69l2.01-.38,1.32,1.51Z"/>
            <path class="cls-4" d="M539.96,497.73l-.34,3.66-2.86-2.12-3.56-1.29-8.32.17,2.87,1.07-4.82.52-2.64-1.41-.15,1.55h-5.72s-5.45.58-5.45.58l-4.43,1.32c-.24.06-2.55,1.54-2.55,1.54l-1.31,3.19-1.54,1.17-1.98-1.09-1.33-2.67.42-4.78,3.27-4.18.5,1.47,4.37-1.95,11.18-2.81,2.99-.53,5.38-.65,5.02-.67,5.28,1.99,4.52,2.59,1.21,3.33Z"/>
            <polygon class="cls-18" points="526.93 508.35 524.68 508.72 523.49 509.98 523.29 510.9 521.12 511.12 522.36 512.17 519.57 512.65 518.21 512.78 517.65 512.13 515.99 513.35 513.89 512.83 510.29 511.08 515.49 508.02 519.82 506.92 524.82 507.21 526.93 508.35"/>
            <polygon class="cls-8" points="524.89 498.14 527.76 499.22 522.94 499.74 520.3 498.33 520.15 499.88 514.43 499.88 508.98 500.47 504.55 501.78 505.28 499.43 510.97 498.87 514.87 494.88 516.72 494.92 519.02 495.96 528.7 494.61 533.21 497.98 524.89 498.14"/>
            <polygon class="cls-4" points="554.88 511.17 553.46 517.46 550.23 525.61 545.39 533.46 539.88 538.57 533.78 541.92 526.81 544.19 515.19 544.41 503.73 540.28 496.08 534.44 489.3 525.63 487.77 519.06 489.14 515.24 490.5 514.81 492.13 511.79 495.31 514.34 496.65 512.24 500.02 509.37 500.7 516.14 504.37 516.01 504.26 517.83 506.82 518.4 510.12 518.07 511.15 519.72 512.87 523.29 514.96 520.22 514.38 524.37 517.63 523.58 517.49 522.14 521.24 523.69 524.05 521.66 525.07 523.67 528 522.61 528.53 519.64 529.53 521.47 531.53 519.28 533.58 517.5 535.39 519.95 536.14 515.61 537.56 511.67 540.12 515.04 538.49 508.71 539.19 505.71 542.95 507.65 543.42 509.39 545.04 505.72 547.19 505.04 548.4 509.48 550.53 512.75 554.09 507.73 554.16 508.39 554.16 508.4 554.88 511.17"/>
            <path class="cls-12" d="M500.52,696.36l-3.9,8.81,13.36,2.36-10.74,4.45-15.97,4.45-106.73-8.5-6.11-2.27-8.38-7.59-1.57-8.73,1.48-16.06-.96-2.18.52-4.37,2.09-4.19,3.75-5.41v-5.67l1.14-2.79,3.05-2.71,4.28-8.82v-1.67c0-.81.42-1.56,1.11-1.98l.73-.45,8.47-15.39-.44-1.35c-.26-.81,0-1.7.67-2.24l.64-.51,1.14-2.79,4.1-4.28-.67-1.85c-.5-1.38-.17-2.92.85-3.98l.52-.54-.39-1.84c-.32-1.5.63-2.97,2.12-3.31l1.15-.26-.87-3.75,1.48-6.29,3.58-5.67.61-2.62.87-14.22c.33-5.37,3.44-10.17,8.21-12.67h0s13.62-8.38,13.62-8.38l9.08-2.97,8.21-1.92,20.43-6.63,8.73-5.24,18.01-5.27,1.53,6.57.89,5.86.27,1.78h0s1.99,12.89,1.99,12.89l2.97,9.08,1.22,12.74v17.63l.98,26.5.06,1.78-.64,16.4-.75,19.38-3,18.65,23.22,5.15,6.89,3.32-8.47,1.92-14.42,17.64Z"/>
            <path d="M740.11,623.75l-9.78-15.36-23.57-24.79-14.08-10.48-3.14-8.26-9.48-1.63-1.98-9.77-7.22-4.07-8.73-16.41-1.8-2.59c-3.63-5.22-9.12-8.84-15.34-10.13h0s-19.9-1.51-19.9-1.51l-37.88-4.08-31.12-7.97,6.11,10.65,4.71,31.77,9.95,75.94,4.89,23.74,24.27,73.88h120.98l6.82-20.2-1.05-11,8.73-27.06.87-11.87,2.62-11v-8.73l-4.89-9.08ZM678.08,654.86l-.35,6.63-.35,8.55-7.74,7.51v5.29l2.79,10.82-3.43,2.39-3.03-4.65,1.22-42.59,7.22,2.37,5.93.18-2.27,3.49Z"/>
            <polygon class="cls-3" points="518.95 552.76 516.39 554.85 510.53 562.49 506.03 568.35 497.77 578.36 496.64 578.36 495.42 555.23 492.46 546.16 490.46 533.27 490.46 533.27 495.32 538.09 505.21 545.77 518.95 552.76"/>
            <polygon class="cls-3" points="568.78 563.36 554.11 556.4 540.86 550.11 546.79 541.96 550.81 531.14 554.15 523.19 554.85 511.2 554.09 507.73 556.09 506.7 562.2 517.35 568.78 563.36"/>
            <polygon class="cls-3" points="606.02 722.69 570.77 718.78 570.07 709.53 570.07 707.78 572.17 705.86 575.05 705.08 576.97 701.24 577.49 698.09 578.66 693.24 576.04 686.6 561.63 673.65 553.08 673.39 540.6 673.92 526.37 676.8 523.41 676.8 516.52 673.48 493.3 668.33 496.3 649.68 497.05 630.3 497.63 612.11 497.87 604.47 497.87 591.78 496.64 578.36 497.88 574.83 516.39 554.85 518.95 552.76 528.03 553.16 540.86 550.11 568.78 563.36 581.75 648.81 606.02 722.69"/>
            <polygon class="cls-6" points="566.5 678.03 561.63 673.65 540.6 673.92 528.78 676.31 527.69 659.34 525.6 630.48 525.25 612.56 525.25 601.03 527.23 594.28 530.95 583.69 532.11 579.27 528.92 574.94 541.89 571.82 542.24 577.16 551.09 589.98 557.37 611.39 559.82 624.43 564.12 656.55 566.5 678.03"/>
            <path class="cls-7" d="M554.11,556.4l-6.4,7.97-2.5-.06-1.75,2.39-1.57,5.12h0c.12,2.63-1.82,4.91-4.43,5.21l-.85.1c-2.87.33-5.74-.54-7.95-2.4l-9.11-7.68-9.02-4.56-.14-.07,6-7.57,2.56-2.09,9.08.41,12.83-3.05,13.25,6.29Z"/>
            <polygon class="cls-1" points="497.34 585.99 509.57 575.29 511.9 568.42 515.24 564.87 510.39 562.42 497.77 578.36 496.64 578.36 497.34 585.99"/>
            <polygon class="cls-1" points="606.02 722.69 601.63 713.55 594.41 694.23 585.33 665.37 578.23 648.82 577.42 630.51 574.62 605.89 568.35 569.51 567.29 566.78 564.68 566.98 558.86 561.45 554.18 559.35 546.87 567.2 543.6 571.56 546.13 576.71 547.57 581.15 550.54 583.73 551.81 587.17 554.67 593.24 556.09 599.53 560.84 611.86 562.82 629.09 566.5 648.06 566.5 658.65 570.42 681.55 566.5 678.03 559.82 624.43 557.37 611.39 551.09 589.98 549.66 588.01 543.78 579.9 542.09 577.14 541.89 571.82 543.46 566.7 545.21 564.31 547.71 564.37 552.39 558.55 554.11 556.4 568.78 563.36 569.28 566.63 581.75 648.81 606.02 722.69"/>
            <path class="cls-22" d="M461.25,663l-11.4-2.79c-.95-.23-1.91-.42-2.88-.56l-9.19-1.34c-1.28-.19-2.58-.28-3.87-.28h-3.32c-2.98,0-5.64-1.84-6.71-4.62l-.83-2.16c-.49-1.28-1.71-2.14-3.09-2.16l-16.47-.29c-.63-.01-.81-.87-.24-1.13l3.65-2.37c6.02-2.76,14.92-2.96,20.94-.2l36.34,16.87c3.11,1.25,10.09,4.28,9.69,4.19l-12.63-3.14Z"/>
          </g>
        </g>
        <polygon class="cls-20" points="292.58 656 301.65 229.11 183.68 229.11 183.68 250.28 188.73 656 292.58 656"/>
        <polygon class="cls-16" points="183.68 229.11 383.44 77.42 526.84 79.66 301.65 229.11 183.68 229.11"/>
        <polygon class="cls-2" points="304.45 242.21 768.26 242.21 485.94 120.55 304.45 242.21"/>
        <polygon class="cls-20" points="383.44 77.42 404.69 61.67 538.48 61.67 526.84 79.66 383.44 77.42"/>
        <polygon class="cls-2" points="185.29 379.67 204.3 328.14 215.95 313.35 237.01 306.63 269.28 329.93 282.27 359.51 298.05 398.48 295.42 522.15 294.91 546.38 285.41 571.92 267.04 605.53 250.01 622.56 226.26 614.49 204.75 573.71 191.75 542.79 186.98 515.79 185.29 379.67"/>
      </g>
      <polygon class="cls-20" points="404.69 61.67 420.86 57.99 449.77 54.96 560.03 58.56 582.57 67.91 534.44 67.91 538.48 61.67 404.69 61.67"/>
    </g>
  </g>
</svg>