<?xml version="1.0" encoding="UTF-8"?>
<svg id="Camada_2" data-name="Camada 2" xmlns="http://www.w3.org/2000/svg" xmlns:xlink="http://www.w3.org/1999/xlink" viewBox="0 0 984 656">
  <defs>
    <style>
      .cls-1 {
        opacity: .33;
      }

      .cls-2 {
        fill: #1f272a;
      }

      .cls-3 {
        letter-spacing: -.02em;
      }

      .cls-4 {
        letter-spacing: 0em;
      }

      .cls-5 {
        letter-spacing: 0em;
      }

      .cls-6, .cls-7, .cls-8 {
        fill: #fff;
      }

      .cls-9 {
        fill: #081110;
      }

      .cls-7 {
        font-size: 23.8px;
      }

      .cls-7, .cls-8, .cls-10 {
        font-family: WorkSansRoman-Medium, 'Work Sans';
        font-variation-settings: 'wght' 500;
        font-weight: 500;
      }

      .cls-11 {
        fill: #cfd8df;
      }

      .cls-12 {
        fill: #767072;
      }

      .cls-13, .cls-14, .cls-15 {
        fill: none;
      }

      .cls-16 {
        letter-spacing: 0em;
      }

      .cls-17 {
        clip-path: url(#clippath-1);
      }

      .cls-18 {
        letter-spacing: 0em;
      }

      .cls-19 {
        fill: #627885;
      }

      .cls-20 {
        letter-spacing: 0em;
      }

      .cls-8 {
        font-size: 22.23px;
      }

      .cls-21 {
        letter-spacing: 0em;
      }

      .cls-14 {
        stroke-width: 3px;
      }

      .cls-14, .cls-15 {
        stroke: #fff;
        stroke-miterlimit: 10;
      }

      .cls-22 {
        fill: #141d23;
      }

      .cls-15 {
        stroke-width: 2px;
      }

      .cls-23 {
        fill: #124d37;
      }

      .cls-10 {
        fill: #5d6568;
        font-size: 28.75px;
      }

      .cls-24 {
        fill: #1ec063;
      }

      .cls-25 {
        clip-path: url(#clippath);
      }
    </style>
    <clipPath id="clippath">
      <rect class="cls-13" x="254.29" y="43.12" width="494.26" height="554.1" rx="31.35" ry="31.35"/>
    </clipPath>
    <clipPath id="clippath-1">
      <circle class="cls-13" cx="310.95" cy="95.74" r="24.51"/>
    </clipPath>
  </defs>
  <g id="Camada_31" data-name="Camada 31">
    <g>
      <rect class="cls-12" width="984" height="656"/>
      <g>
        <rect class="cls-1" x="235.45" y="55.02" width="500.16" height="557.86" rx="31.35" ry="31.35"/>
        <g>
          <rect class="cls-14" x="254.29" y="43.12" width="494.26" height="554.1" rx="31.35" ry="31.35"/>
          <g class="cls-25">
            <g>
              <rect class="cls-9" x="254.29" y="143.01" width="494.26" height="465.53"/>
              <rect class="cls-22" x="254.29" y="43.12" width="494.26" height="99.89"/>
              <text class="cls-7" transform="translate(345.77 104.94)"><tspan x="0" y="0">Paulo G</tspan><tspan class="cls-21" x="89.87" y="0">o</tspan><tspan x="104.1" y="0">gos</tspan></text>
              <path class="cls-6" d="M611.89,107.66h-20.84v-20.84h20.84v20.84ZM592.77,105.94h17.39v-17.39h-17.39v17.39Z"/>
              <polygon class="cls-6" points="611.02 95.38 616.58 91.23 616.58 103.81 611.02 99.9 611.02 95.38"/>
              <path class="cls-6" d="M679.8,110.43l-9.57-.86-8.58-5.42-6.03-8.06-2.36-6.03,1.34-5.96h9.22l-1.17,8.75-1.36,1.78,6.47,7.85,4.72-3.36,5.64,1.63,1.67,5.98v3.71ZM670.79,107.89l7.28.65v-1.71l-1.34-4.71-3.92-1.14-5.34,3.81-8.37-10.14,1.91-2.5.84-6.34h-5.87l-.92,4.1,2.12,5.43,5.75,7.64,7.86,4.9Z"/>
              <circle class="cls-6" cx="721.32" cy="86.76" r="4.04"/>
              <circle class="cls-6" cx="721.32" cy="96.54" r="4.04"/>
              <circle class="cls-6" cx="721.32" cy="106.32" r="4.04"/>
              <rect class="cls-2" x="264.79" y="520.04" width="403.94" height="58.62" rx="17.01" ry="17.01"/>
              <circle class="cls-24" cx="704.14" cy="549.34" r="29.31"/>
              <rect class="cls-23" x="502.89" y="463.7" width="230.56" height="40.71" rx="8.98" ry="8.98"/>
              <rect class="cls-23" x="621.2" y="419.41" width="112.25" height="40.71" rx="8.98" ry="8.98"/>
              <polyline class="cls-15" points="704.84 488.22 709.86 492.53 720.72 479.67"/>
              <polyline class="cls-15" points="704.84 442.4 709.86 446.71 720.72 433.84"/>
              <text class="cls-8" transform="translate(515.3 491.01)"><tspan x="0" y="0">Paulo es</tspan><tspan class="cls-5" x="92.46" y="0">t</tspan><tspan class="cls-3" x="101.96" y="0">รก</tspan><tspan x="114.21" y="0" xml:space="preserve"> ai?</tspan></text>
              <text class="cls-10" transform="translate(287.22 558.56)"><tspan class="cls-16" x="0" y="0">M</tspan><tspan x="24.84" y="0">ens</tspan><tspan class="cls-18" x="74.46" y="0">a</tspan><tspan x="90.9" y="0">gem...</tspan></text>
              <text class="cls-8" transform="translate(632.93 446.83)"><tspan class="cls-20" x="0" y="0">O</tspan><tspan class="cls-4" x="16.47" y="0">i?</tspan></text>
              <circle class="cls-19" cx="310.95" cy="95.74" r="24.51"/>
              <g>
                <rect class="cls-11" x="265.31" y="96.15" width="18.27" height="2.41"/>
                <polygon class="cls-11" points="273.29 87.5 274.93 89.27 266.23 97.35 274.93 105.44 273.29 107.21 262.69 97.35 273.29 87.5"/>
              </g>
              <g>
                <circle class="cls-11" cx="311.16" cy="87.68" r="10.06"/>
                <g class="cls-17">
                  <ellipse class="cls-11" cx="311.16" cy="117.45" rx="20.38" ry="15.67"/>
                </g>
              </g>
            </g>
          </g>
        </g>
      </g>
    </g>
  </g>
</svg>