<?xml version="1.0" encoding="UTF-8"?>
<svg id="Camada_2" data-name="Camada 2" xmlns="http://www.w3.org/2000/svg" xmlns:xlink="http://www.w3.org/1999/xlink" viewBox="0 0 984 656.05">
  <defs>
    <style>
      .cls-1 {
        opacity: .6;
      }

      .cls-2 {
        stroke: #916568;
        stroke-miterlimit: 10;
        stroke-width: 4px;
      }

      .cls-2, .cls-3 {
        fill: none;
      }

      .cls-4 {
        fill: #766f71;
      }

      .cls-5 {
        fill: #916568;
      }

      .cls-6 {
        clip-path: url(#clippath-1);
      }

      .cls-7 {
        fill: #c0c4ce;
      }

      .cls-8 {
        opacity: .2;
      }

      .cls-9 {
        fill: #c0bcb8;
      }

      .cls-10 {
        fill: #b4b2ae;
      }

      .cls-11 {
        fill: #96171f;
      }

      .cls-12 {
        fill: #77716a;
      }

      .cls-13 {
        fill: #c4c2c0;
      }

      .cls-14 {
        fill: #5c534c;
      }

      .cls-15 {
        fill: #8e8b8c;
      }

      .cls-16 {
        fill: #fefefe;
      }

      .cls-17 {
        fill: #67615b;
      }

      .cls-18 {
        clip-path: url(#clippath);
      }

      .cls-19 {
        fill: #fbd8bd;
      }

      .cls-20 {
        fill: #9e9c9a;
      }
    </style>
    <clipPath id="clippath">
      <rect class="cls-3" width="984" height="656.05"/>
    </clipPath>
    <clipPath id="clippath-1">
      <polygon class="cls-3" points="303.4 238.72 356.25 565.13 589.52 565.13 545.26 225.56 303.4 238.72"/>
    </clipPath>
  </defs>
  <g id="Camada_24" data-name="Camada 24">
    <g class="cls-18">
      <g>
        <polygon class="cls-4" points="-475.76 -296.54 -475.76 990.53 2406.16 990.53 2406.16 -297.71 -475.76 -296.54"/>
        <g>
          <polygon class="cls-12" points="-382.63 -296.54 -59.85 665.97 2054.48 667.48 2331.6 -297.71 -382.63 -296.54"/>
          <polygon class="cls-17" points="152.5 345.55 166.07 489.94 292.66 489.94 303.4 362.41 303.4 233.14 163.14 231.01 152.5 345.55"/>
          <polygon class="cls-13" points="159.04 340.1 172.61 484.49 299.2 484.49 309.94 356.96 309.94 227.69 169.68 225.56 159.04 340.1"/>
          <polygon class="cls-10" points="169.65 286.25 172.9 315.21 286 319.01 278.27 287.42 169.65 286.25"/>
          <polygon class="cls-10" points="178.06 339.8 181.31 368.76 294.41 372.55 286.68 340.96 178.06 339.8"/>
          <polygon class="cls-10" points="187.05 395.34 190.3 424.31 303.4 428.1 295.67 396.51 187.05 395.34"/>
          <polygon class="cls-17" points="-59.85 211.22 -31.82 385.69 73.98 377.98 198.01 332.44 138.45 181.79 -59.85 211.22"/>
          <polygon class="cls-13" points="-49.98 200.94 -21.95 375.41 83.85 367.71 207.87 322.16 148.32 171.51 -49.98 200.94"/>
          <polygon class="cls-17" points="829.63 458.2 1063.31 480.63 1048.25 732.52 860 720.38 843.18 620.88 829.63 458.2"/>
          <polygon class="cls-13" points="816.32 449.8 1050 472.22 1034.93 724.12 846.68 711.97 829.87 612.47 816.32 449.8"/>
          <polygon class="cls-17" points="751.67 146.9 921.58 146.9 910.72 238.69 921.58 329.78 769.18 336.44 772.34 253.4 751.67 146.9"/>
          <polygon class="cls-13" points="742.56 138.9 912.47 138.9 901.61 230.69 912.47 321.78 760.07 328.44 763.23 245.4 742.56 138.9"/>
          <g class="cls-1">
            <polygon class="cls-17" points="586.01 174.61 600.71 611.83 321.62 610.43 243.6 174.78 586.01 174.61"/>
          </g>
          <polygon class="cls-13" points="596.41 153.94 611.12 591.16 332.02 589.76 254.01 154.11 596.41 153.94"/>
          <polygon class="cls-17" points="664.49 43.92 762.12 81.29 950.19 85.03 1005.26 -75.48 998.25 -237.71 731.52 -237.73 664.49 43.92"/>
          <polygon class="cls-13" points="673.6 36.65 771.23 74.02 959.3 77.75 1014.36 -82.76 1007.36 -244.99 740.63 -245.01 673.6 36.65"/>
          <polygon class="cls-15" points="-418.95 -296.54 -475.76 -296.54 -475.76 -206.86 -134.53 749.58 2113.28 753.08 2406.16 -219.47 2406.16 -297.71 2369.43 -297.71 2072.23 690.84 -85.07 690.26 -418.95 -296.54"/>
          <polygon class="cls-17" points="-181.82 -288.72 -101.48 20.05 -101.48 116.04 254.47 116.04 254.47 -7.98 272.45 -146.71 272.45 -289.89 -181.82 -288.72"/>
          <polygon class="cls-9" points="-166.53 -296.54 -86.18 12.23 -86.18 108.22 269.77 108.22 269.77 -15.8 287.75 -154.54 287.75 -297.71 -166.53 -296.54"/>
          <polygon class="cls-10" points="838.21 516.49 838.74 550.83 1031.6 562.31 1032.13 531.78 838.21 516.49"/>
          <polygon class="cls-10" points="838.21 562.31 838.67 592.04 1031.66 604.67 1032.13 577.59 838.21 562.31"/>
          <polygon class="cls-10" points="766.96 170.44 772.55 200.41 883.16 200.54 883.16 174.87 766.96 170.44"/>
          <polygon class="cls-10" points="774.32 211.65 777.81 240.07 883.16 237.23 883.16 210.11 774.32 211.65"/>
          <polygon class="cls-10" points="841.01 604.67 845.5 634.63 1030.03 645.05 1030.5 617.97 841.01 604.67"/>
          <polyline class="cls-2" points="135.12 -297.71 56.29 213.85 589.52 -297.71"/>
          <line class="cls-2" x1="60.61" y1="215.31" x2="993.34" y2="-297.14"/>
          <polyline class="cls-2" points="936.31 497.85 1386.5 217.4 1862.78 -297.71"/>
          <polyline class="cls-2" points="508.12 -83.08 810.7 158.81 1216.51 -83.63"/>
          <line class="cls-2" x1="817.12" y1="158.81" x2="1282.84" y2="261.4"/>
          <circle class="cls-5" cx="54.77" cy="219.1" r="11.91"/>
          <circle class="cls-5" cx="232.75" cy="250.63" r="11.91"/>
          <circle class="cls-5" cx="286" cy="186.52" r="11.91"/>
          <circle class="cls-5" cx="557.17" cy="186.52" r="11.91"/>
          <circle class="cls-5" cx="931.17" cy="501.88" r="11.91"/>
          <circle class="cls-5" cx="810.7" cy="158.81" r="11.91"/>
        </g>
        <polygon class="cls-20" points="303.4 238.72 356.25 565.13 589.52 565.13 545.26 225.56 303.4 238.72"/>
        <polygon class="cls-10" points="-26.47 248.06 -21.79 286.25 159.84 251.22 146.37 223.19 -26.47 248.06"/>
        <polygon class="cls-10" points="-16.66 298.34 -11.99 336.53 169.65 301.49 161.92 269.9 -16.66 298.34"/>
      </g>
      <g class="cls-6">
        <g>
          <polygon class="cls-7" points="386.88 567.7 457.59 569.03 557.69 567.77 551.99 513.05 563.59 503.26 557.65 492.66 547.62 383.53 489.53 381.01 444.47 398.76 387.49 391.36 384.31 415.78 373.72 496.03 373.05 553.17 386.88 567.7"/>
          <path class="cls-14" d="M439.26,335.38l2.62,18.59,6,10.61.39,8.86,4.1,2.23s-1.01,5.21-.83,5.21,9.02,1.45,9.02,1.45l19.13,2.08,5.63-.48,9.58-14,1.27-16.82,3.24-23.83-1.33-8.92-5.57,20.88-6.27.08-7.58-6.96-14.36.36-6.7,6.96-7.75.1-7.92-13.14-1.93-12.7-.71,19.44Z"/>
          <path class="cls-16" d="M364.65,568.41l-8.32-33.8,4.94-13.07-3.37-9.01,5.98-4.72-4.01-4.83,16.49-109.58,5.95-7.27,20.98-12.34,29.13-10.12,9.63-9.88s5.82,10.26,5.83,10.78.11,8.71.11,8.71l4.38,2.38.05,3.83,4.18-.05,3.51,2.22,21.09,1.3-.08-6.27,6.09-.6-.07-5.75,3.45-2.31-.11-8.53,4.16-1.79,1.51-4.61,11.08,8.8,43.95,18.43,12.23,67.6.26,20.2,4.23,22.01-3.87,6.09,5.24,10.27-5.62,33.34,7.84,27.77-15.32.19-10.6-25.64.67-29.27,12.94-9.92-10.62.19-5.72-7.07,8.25-4.34-11.18-18.84-4.05-16.93,6.15-9.48-7.21-14.54.66-30.08,8.7-14.74-11.86,12.52,1.09,58.85,5.32,21.18-.48,31.01-9.3,8.48,10.32,3.53-18.35,22.18.75,4.34,9.2-.49s-12.56,12.18-22.54,14.92c-9.98,2.74-19.47,3.03-19.47,3.03l-49-.08s-13.56-7.03-22.79-21.08c-9.23-14.05-9.96-16.13-9.96-16.13l-.57-18.64,6.52-7.63s-4.87-17.96-4.96-24.58c-.08-6.62-2.04-60.58-2.04-60.58l4.07-8.64-20.15-14.03,10.42,16.01-2.75,21.05,4.17,8.42-4.25,31.29-14.46-14.33,7.1,20,10.63,14.15-7.72,23.03-14.88,3.38,20.88,7.92-2.1,22.2-10.37,15.11,1.33,4.16-23.31.75Z"/>
          <polygon class="cls-11" points="466.12 385.78 462.63 393.95 469.89 399.31 462.14 411.49 474.75 480.3 473.37 527.22 489.2 548.5 500.66 527.57 498.25 474.43 483.97 410.28 478.04 400.49 481.32 393.71 477.62 385.63 466.12 385.78"/>
          <polygon class="cls-19" points="436.29 312.13 436.97 297.15 441.35 284.73 456.87 272.51 479.5 272.23 491.64 281.48 497.88 307.87 501.94 311.3 503.5 324 499.38 329.27 498.05 320.35 492.48 341.23 486.21 341.31 478.64 334.36 464.27 334.71 457.57 341.68 449.82 341.77 441.9 328.64 439.99 315.51 439.26 335.38 432.05 327.54 432.32 314.74 436.29 312.13"/>
          <path class="cls-19" d="M458.63,345.52s3.03-4.91,7.68-5.19c4.66-.28,13.73,1.06,13.73,1.06l2.93,4.52-3.4,3-3.49-4.14-10.66.22-1.23,2.76-4.61.19-.95-2.43Z"/>
          <polygon class="cls-8" points="439.69 323.61 436.33 311.35 436.97 297.15 439.88 288.89 441.05 322.97 439.99 315.51 439.69 323.61"/>
        </g>
      </g>
    </g>
  </g>
</svg>