<?xml version="1.0" encoding="UTF-8"?>
<svg id="Camada_2" data-name="Camada 2" xmlns="http://www.w3.org/2000/svg" xmlns:xlink="http://www.w3.org/1999/xlink" viewBox="0 0 984 656.05">
  <defs>
    <style>
      .cls-1 {
        opacity: .6;
      }

      .cls-2 {
        stroke: #916568;
        stroke-miterlimit: 10;
        stroke-width: 4px;
      }

      .cls-2, .cls-3 {
        fill: none;
      }

      .cls-4 {
        fill: #766f71;
      }

      .cls-5 {
        fill: #916568;
      }

      .cls-6 {
        fill: #c0bcb8;
      }

      .cls-7 {
        fill: #b4b2ae;
      }

      .cls-8 {
        fill: #96171f;
      }

      .cls-9 {
        fill: #77716a;
      }

      .cls-10 {
        fill: #c4c2c0;
      }

      .cls-11 {
        fill: #8e8b8c;
      }

      .cls-12 {
        fill: #67615b;
      }

      .cls-13 {
        clip-path: url(#clippath);
      }

      .cls-14 {
        fill: #9e9c9a;
      }
    </style>
    <clipPath id="clippath">
      <rect class="cls-3" width="984" height="656.05"/>
    </clipPath>
  </defs>
  <g id="Camada_24" data-name="Camada 24">
    <g>
      <g class="cls-13">
        <g>
          <polygon class="cls-4" points="-475.76 -296.54 -475.76 990.53 2406.16 990.53 2406.16 -297.71 -475.76 -296.54"/>
          <g>
            <polygon class="cls-9" points="-382.63 -296.54 -59.85 665.97 2054.48 667.48 2331.6 -297.71 -382.63 -296.54"/>
            <polygon class="cls-12" points="152.5 345.55 166.07 489.94 292.66 489.94 303.4 362.41 303.4 233.14 163.14 231.01 152.5 345.55"/>
            <polygon class="cls-10" points="159.04 340.1 172.61 484.49 299.2 484.49 309.94 356.96 309.94 227.69 169.68 225.56 159.04 340.1"/>
            <polygon class="cls-7" points="169.65 286.25 172.9 315.21 286 319.01 278.27 287.42 169.65 286.25"/>
            <polygon class="cls-7" points="178.06 339.8 181.31 368.76 294.41 372.55 286.68 340.96 178.06 339.8"/>
            <polygon class="cls-7" points="187.05 395.34 190.3 424.31 303.4 428.1 295.67 396.51 187.05 395.34"/>
            <polygon class="cls-12" points="-59.85 211.22 -31.82 385.69 73.98 377.98 198.01 332.44 138.45 181.79 -59.85 211.22"/>
            <polygon class="cls-10" points="-49.98 200.94 -21.95 375.41 83.85 367.71 207.87 322.16 148.32 171.51 -49.98 200.94"/>
            <polygon class="cls-12" points="829.63 458.2 1063.31 480.63 1048.25 732.52 860 720.38 843.18 620.88 829.63 458.2"/>
            <polygon class="cls-10" points="816.32 449.8 1050 472.22 1034.93 724.12 846.68 711.97 829.87 612.47 816.32 449.8"/>
            <polygon class="cls-12" points="751.67 146.9 921.58 146.9 910.72 238.69 921.58 329.78 769.18 336.44 772.34 253.4 751.67 146.9"/>
            <polygon class="cls-10" points="742.56 138.9 912.47 138.9 901.61 230.69 912.47 321.78 760.07 328.44 763.23 245.4 742.56 138.9"/>
            <g class="cls-1">
              <polygon class="cls-12" points="586.01 174.61 600.71 611.83 321.62 610.43 243.6 174.78 586.01 174.61"/>
            </g>
            <polygon class="cls-10" points="596.41 153.94 611.12 591.16 332.02 589.76 254.01 154.11 596.41 153.94"/>
            <polygon class="cls-12" points="664.49 43.92 762.12 81.29 950.19 85.03 1005.26 -75.48 998.25 -237.71 731.52 -237.73 664.49 43.92"/>
            <polygon class="cls-10" points="673.6 36.65 771.23 74.02 959.3 77.75 1014.36 -82.76 1007.36 -244.99 740.63 -245.01 673.6 36.65"/>
            <polygon class="cls-11" points="-418.95 -296.54 -475.76 -296.54 -475.76 -206.86 -134.53 749.58 2113.28 753.08 2406.16 -219.47 2406.16 -297.71 2369.43 -297.71 2072.23 690.84 -85.07 690.26 -418.95 -296.54"/>
            <polygon class="cls-12" points="-181.82 -288.72 -101.48 20.05 -101.48 116.04 254.47 116.04 254.47 -7.98 272.45 -146.71 272.45 -289.89 -181.82 -288.72"/>
            <polygon class="cls-6" points="-166.53 -296.54 -86.18 12.23 -86.18 108.22 269.77 108.22 269.77 -15.8 287.75 -154.54 287.75 -297.71 -166.53 -296.54"/>
            <polygon class="cls-7" points="838.21 516.49 838.74 550.83 1031.6 562.31 1032.13 531.78 838.21 516.49"/>
            <polygon class="cls-7" points="838.21 562.31 838.67 592.04 1031.66 604.67 1032.13 577.59 838.21 562.31"/>
            <polygon class="cls-7" points="766.96 170.44 772.55 200.41 883.16 200.54 883.16 174.87 766.96 170.44"/>
            <polygon class="cls-7" points="774.32 211.65 777.81 240.07 883.16 237.23 883.16 210.11 774.32 211.65"/>
            <polygon class="cls-7" points="841.01 604.67 845.5 634.63 1030.03 645.05 1030.5 617.97 841.01 604.67"/>
            <polyline class="cls-2" points="135.12 -297.71 56.29 213.85 589.52 -297.71"/>
            <line class="cls-2" x1="60.61" y1="215.31" x2="993.34" y2="-297.14"/>
            <polyline class="cls-2" points="936.31 497.85 1386.5 217.4 1862.78 -297.71"/>
            <polyline class="cls-2" points="508.12 -83.08 810.7 158.81 1216.51 -83.63"/>
            <line class="cls-2" x1="817.12" y1="158.81" x2="1282.84" y2="261.4"/>
            <circle class="cls-5" cx="54.77" cy="219.1" r="11.91"/>
            <circle class="cls-5" cx="232.75" cy="250.63" r="11.91"/>
            <circle class="cls-5" cx="286" cy="186.52" r="11.91"/>
            <circle class="cls-5" cx="557.17" cy="186.52" r="11.91"/>
            <circle class="cls-5" cx="931.17" cy="501.88" r="11.91"/>
            <circle class="cls-5" cx="810.7" cy="158.81" r="11.91"/>
          </g>
          <polygon class="cls-14" points="303.4 238.72 356.25 565.13 589.52 565.13 545.26 225.56 303.4 238.72"/>
          <polygon class="cls-7" points="-26.47 248.06 -21.79 286.25 159.84 251.22 146.37 223.19 -26.47 248.06"/>
          <polygon class="cls-7" points="-16.66 298.34 -11.99 336.53 169.65 301.49 161.92 269.9 -16.66 298.34"/>
        </g>
      </g>
      <g>
        <path class="cls-8" d="M491.06,288.29l-1.14,3.45c-12.71,16.24-22.22,34.97-27.11,55.03-3.07,12.6-3.7,24.86-4.31,37.68,11.69-3.96,22.83-7.77,33.67-13.98,18.66-10.7,34.38-25.98,46.75-43.51l2.9-1.97,17.22,117.68-3.35-1.22c-12.55-10.55-26.98-18.76-42.47-24.11-16.82-5.81-33.44-7.41-51.04-7.78,5.59,16.15,11.94,31.09,21.95,45.14s21.36,25.04,34.68,34.65l2.1,3.03-1.77.99c-23.13,3.68-46.05,7.22-68.78,10.61l-46.95,6.87,1.23-3.37c13.49-16.03,23.09-35.06,28.02-55.41,3.14-12.98,3.74-25.62,4.36-38.8-11.73,3.92-22.85,7.74-33.69,14-18.62,10.75-34.19,26.13-46.7,43.52l-2.92,1.95-17.31-118.3,3.16.94c16.7,13.26,35.92,23.62,56.68,28.8,12.45,3.11,24.44,3.7,37.1,4-5.57-16.5-11.82-31.98-21.92-46.41-10.07-14.4-22.06-24.75-35.75-35.07l-.43-1.43,115.8-16.94Z"/>
        <path class="cls-8" d="M522.98,493.33l-72.61,10.62c.5-1.13,2.28-.97,3.34-1.14,21.99-3.5,45.87-5.07,67.21-10.46.93-.24,1.65.14,2.06.98Z"/>
      </g>
    </g>
  </g>
</svg>