<?xml version="1.0" encoding="UTF-8"?>
<svg id="Camada_2" data-name="Camada 2" xmlns="http://www.w3.org/2000/svg" viewBox="0 0 984 656">
  <defs>
    <style>
      .cls-1 {
        fill: #3d443d;
      }

      .cls-2 {
        letter-spacing: -.04em;
      }

      .cls-3 {
        letter-spacing: -.03em;
      }

      .cls-4 {
        letter-spacing: -.02em;
      }

      .cls-5 {
        letter-spacing: -.11em;
      }

      .cls-6 {
        letter-spacing: -.01em;
      }

      .cls-7 {
        letter-spacing: -.03em;
      }

      .cls-8 {
        letter-spacing: -.02em;
      }

      .cls-9 {
        letter-spacing: 0em;
      }

      .cls-10 {
        letter-spacing: -.04em;
      }

      .cls-11 {
        letter-spacing: 0em;
      }

      .cls-12 {
        letter-spacing: -.02em;
      }

      .cls-13 {
        letter-spacing: 0em;
      }

      .cls-14 {
        letter-spacing: -.02em;
      }

      .cls-15 {
        letter-spacing: -.01em;
      }

      .cls-16 {
        letter-spacing: -.02em;
      }

      .cls-17 {
        letter-spacing: -.01em;
      }

      .cls-18 {
        letter-spacing: 0em;
      }

      .cls-19 {
        letter-spacing: 0em;
      }

      .cls-20 {
        letter-spacing: -.01em;
      }

      .cls-21 {
        letter-spacing: 0em;
      }

      .cls-22 {
        letter-spacing: -.11em;
      }

      .cls-23 {
        letter-spacing: -.05em;
      }

      .cls-24 {
        letter-spacing: -.03em;
      }

      .cls-25 {
        letter-spacing: 0em;
      }

      .cls-26 {
        opacity: .15;
      }

      .cls-27 {
        letter-spacing: 0em;
      }

      .cls-28 {
        letter-spacing: 0em;
      }

      .cls-29 {
        letter-spacing: -.02em;
      }

      .cls-30 {
        letter-spacing: -.01em;
      }

      .cls-31 {
        letter-spacing: -.03em;
      }

      .cls-32 {
        letter-spacing: 0em;
      }

      .cls-33 {
        letter-spacing: -.01em;
      }

      .cls-34 {
        letter-spacing: 0em;
      }

      .cls-35 {
        letter-spacing: -.04em;
      }

      .cls-36 {
        fill: #a3bbd1;
      }

      .cls-37 {
        fill: #96171f;
      }

      .cls-38 {
        letter-spacing: 0em;
      }

      .cls-39 {
        fill: #8495a5;
      }

      .cls-40 {
        letter-spacing: -.01em;
      }

      .cls-41 {
        letter-spacing: -.02em;
      }

      .cls-42 {
        letter-spacing: 0em;
      }

      .cls-43 {
        letter-spacing: -.05em;
      }

      .cls-44 {
        letter-spacing: .01em;
      }

      .cls-45 {
        fill: #fdffff;
        font-family: WorkSansRoman-SemiBold, 'Work Sans';
        font-size: 18.42px;
        font-variation-settings: 'wght' 600;
        font-weight: 600;
      }

      .cls-46 {
        letter-spacing: 0em;
      }

      .cls-47 {
        letter-spacing: -.02em;
      }

      .cls-48 {
        letter-spacing: -.02em;
      }

      .cls-49 {
        letter-spacing: -.1em;
      }

      .cls-50 {
        letter-spacing: -.01em;
      }

      .cls-51 {
        letter-spacing: -.02em;
      }

      .cls-52 {
        letter-spacing: -.02em;
      }

      .cls-53 {
        letter-spacing: 0em;
      }
    </style>
  </defs>
  <g id="Camada_35" data-name="Camada 35">
    <g>
      <rect class="cls-1" width="984" height="656"/>
      <g>
        <g class="cls-26">
          <rect x="96.74" y="99.92" width="764.28" height="485.17"/>
        </g>
        <g>
          <rect x="112.58" y="118.78" width="758.99" height="453.81"/>
          <path class="cls-36" d="M869.57,120.78v449.82H114.58V120.78h754.99M873.57,116.78H110.58v457.82h762.99V116.78h0Z"/>
        </g>
        <rect class="cls-36" x="110.59" y="85.4" width="762.81" height="35.52"/>
        <rect class="cls-37" x="841.63" y="92.14" width="23.36" height="22.05"/>
        <rect class="cls-39" x="814.01" y="92.14" width="23.36" height="22.05"/>
        <rect class="cls-39" x="786.75" y="92.14" width="23.36" height="22.05"/>
        <text class="cls-45" transform="translate(128.95 148.69)"><tspan x="0" y="0">Mic</tspan><tspan class="cls-11" x="31.97" y="0">r</tspan><tspan x="39.56" y="0">o</tspan><tspan class="cls-34" x="50.59" y="0">s</tspan><tspan class="cls-9" x="60.33" y="0">o</tspan><tspan class="cls-35" x="71.25" y="0">f</tspan><tspan x="77.99" y="0">t</tspan><tspan class="cls-48" x="85.91" y="0"> </tspan><tspan x="91.18" y="0">Wind</tspan><tspan class="cls-15" x="137.44" y="0">o</tspan><tspan class="cls-18" x="148.21" y="0">w</tspan><tspan x="164.22" y="0">s </tspan><tspan class="cls-24" x="179.63" y="0">[</tspan><tspan class="cls-53" x="186" y="0">v</tspan><tspan x="195.95" y="0">e</tspan><tspan class="cls-50" x="206.61" y="0">r</tspan><tspan x="214.14" y="0">s</tspan><tspan class="cls-34" x="223.92" y="0">ã</tspan><tspan x="234.45" y="0">o</tspan><tspan class="cls-20" x="245.49" y="0"> </tspan><tspan x="250.9" y="0">1</tspan><tspan class="cls-8" x="258.56" y="0">0.0</tspan><tspan x="286.33" y="0">.22635</tspan><tspan class="cls-9" x="346.13" y="0">.</tspan><tspan x="351.19" y="0">4655]</tspan><tspan class="cls-10" x="0" y="22.1">(</tspan><tspan class="cls-2" x="6.13" y="22.1">c</tspan><tspan x="15.86" y="22.1">) Mic</tspan><tspan class="cls-11" x="60.39" y="22.1">r</tspan><tspan x="67.97" y="22.1">o</tspan><tspan class="cls-34" x="79" y="22.1">s</tspan><tspan class="cls-9" x="88.75" y="22.1">o</tspan><tspan class="cls-35" x="99.67" y="22.1">f</tspan><tspan x="106.41" y="22.1">t Corpo</tspan><tspan class="cls-28" x="173.92" y="22.1">r</tspan><tspan class="cls-48" x="181.53" y="22.1">a</tspan><tspan x="191.73" y="22.1">tion.</tspan><tspan class="cls-51" x="232.45" y="22.1"> </tspan><tspan class="cls-49" x="237.7" y="22.1">T</tspan><tspan x="247.57" y="22.1">odos os di</tspan><tspan class="cls-6" x="339.78" y="22.1">r</tspan><tspan x="347.36" y="22.1">eitos </tspan><tspan class="cls-11" x="397.58" y="22.1">r</tspan><tspan x="405.17" y="22.1">e</tspan><tspan class="cls-34" x="415.83" y="22.1">s</tspan><tspan x="425.58" y="22.1">er</tspan><tspan class="cls-40" x="444.01" y="22.1">v</tspan><tspan class="cls-34" x="453.86" y="22.1">a</tspan><tspan x="464.4" y="22.1">dos.</tspan><tspan x="0" y="66.3">Co</tspan><tspan class="cls-38" x="23.61" y="66.3">n</tspan><tspan x="34.94" y="66.3">figu</tspan><tspan class="cls-13" x="69.12" y="66.3">r</tspan><tspan class="cls-34" x="76.72" y="66.3">a</tspan><tspan x="87.25" y="66.3">ç</tspan><tspan class="cls-21" x="97.64" y="66.3">ã</tspan><tspan x="108.17" y="66.3">o de I</tspan><tspan class="cls-15" x="158.4" y="66.3">P</tspan><tspan x="170.04" y="66.3" xml:space="preserve"> do</tspan><tspan class="cls-48" x="198.25" y="66.3"> </tspan><tspan x="203.52" y="66.3">Wind</tspan><tspan class="cls-15" x="249.78" y="66.3">o</tspan><tspan class="cls-18" x="260.55" y="66.3">w</tspan><tspan x="276.55" y="66.3">s</tspan><tspan x="0" y="88.4" xml:space="preserve">   </tspan><tspan x="0" y="132.6" xml:space="preserve">   </tspan><tspan class="cls-46" x="16.91" y="132.6">S</tspan><tspan x="28.71" y="132.6">ufi</tspan><tspan class="cls-14" x="52.78" y="132.6">x</tspan><tspan x="62.82" y="132.6">o DNS específico de con</tspan><tspan class="cls-12" x="282.47" y="132.6">e</tspan><tspan class="cls-18" x="292.69" y="132.6">x</tspan><tspan class="cls-34" x="303.04" y="132.6">ã</tspan><tspan class="cls-4" x="313.57" y="132.6">o</tspan><tspan x="324.29" y="132.6">. . . . . . </tspan><tspan class="cls-25" x="389.16" y="132.6">:</tspan><tspan x="0" y="154.69" xml:space="preserve">   Ende</tspan><tspan class="cls-11" x="62.17" y="154.69">r</tspan><tspan x="69.76" y="154.69">eço IPv6 . . . . . . . . . . </tspan><tspan class="cls-32" x="260.17" y="154.69">:</tspan><tspan x="265.84" y="154.69" xml:space="preserve"> 2804:d51:</tspan><tspan class="cls-23" x="358.18" y="154.69">4</tspan><tspan class="cls-14" x="368.91" y="154.69">7</tspan><tspan x="379.35" y="154.69">6d:8000:2f4f:4</tspan><tspan class="cls-20" x="514.56" y="154.69">0</tspan><tspan x="526.05" y="154.69">3</tspan><tspan class="cls-52" x="536.9" y="154.69">:</tspan><tspan class="cls-43" x="542" y="154.69">7</tspan><tspan x="551.94" y="154.69">d8a:9173</tspan><tspan x="0" y="176.79" xml:space="preserve">   Ende</tspan><tspan class="cls-11" x="62.17" y="176.79">r</tspan><tspan x="69.76" y="176.79">eço IPv6</tspan><tspan class="cls-51" x="146.43" y="176.79"> </tspan><tspan class="cls-49" x="151.68" y="176.79">T</tspan><tspan x="161.55" y="176.79">empo</tspan><tspan class="cls-13" x="212.19" y="176.79">r</tspan><tspan x="219.8" y="176.79">ári</tspan><tspan class="cls-4" x="243.33" y="176.79">o</tspan><tspan x="254.05" y="176.79">. . . . . . . . </tspan><tspan class="cls-32" x="340.54" y="176.79">:</tspan><tspan x="346.21" y="176.79" xml:space="preserve"> 2804:d51:</tspan><tspan class="cls-23" x="438.54" y="176.79">4</tspan><tspan class="cls-14" x="449.28" y="176.79">7</tspan><tspan x="459.72" y="176.79">6d:8000:535:5ca8:d9</tspan><tspan class="cls-46" x="649.6" y="176.79">b</tspan><tspan x="661.09" y="176.79">a:2</tspan><tspan class="cls-41" x="688.07" y="176.79">f</tspan><tspan class="cls-34" x="695.22" y="176.79">a</tspan><tspan x="705.75" y="176.79">d</tspan><tspan x="0" y="198.89" xml:space="preserve">   Ende</tspan><tspan class="cls-11" x="62.17" y="198.89">r</tspan><tspan x="69.76" y="198.89">eço IPv6 de lin</tspan><tspan class="cls-29" x="202.38" y="198.89">k</tspan><tspan x="213.15" y="198.89" xml:space="preserve"> loca</tspan><tspan class="cls-47" x="256.65" y="198.89">l</tspan><tspan x="262.12" y="198.89" xml:space="preserve"> . . . . . . . . </tspan><tspan class="cls-25" x="354.24" y="198.89">:</tspan><tspan class="cls-20" x="359.91" y="198.89"> </tspan><tspan class="cls-13" x="365.32" y="198.89">f</tspan><tspan x="372.65" y="198.89">e80::c400:5508:</tspan><tspan class="cls-44" x="518.68" y="198.89">a</tspan><tspan class="cls-35" x="529.46" y="198.89">a</tspan><tspan class="cls-41" x="539.27" y="198.89">7</tspan><tspan x="549.81" y="198.89">a:69d4%</tspan><tspan class="cls-7" x="628.48" y="198.89">7</tspan><tspan x="0" y="220.99" xml:space="preserve">   Ende</tspan><tspan class="cls-11" x="62.17" y="220.99">r</tspan><tspan x="69.76" y="220.99">eço IPv</tspan><tspan class="cls-18" x="135.14" y="220.99">4</tspan><tspan x="146.67" y="220.99" xml:space="preserve">. . . . . . . .  . . . . . . . </tspan><tspan class="cls-25" x="314.46" y="220.99">:</tspan><tspan class="cls-17" x="320.13" y="220.99"> </tspan><tspan x="325.55" y="220.99">192</tspan><tspan class="cls-5" x="355.45" y="220.99">.</tspan><tspan x="358.66" y="220.99">168</tspan><tspan class="cls-22" x="389.08" y="220.99">.</tspan><tspan x="392.29" y="220.99">1.5</tspan><tspan x="0" y="243.09" xml:space="preserve">   </tspan><tspan class="cls-38" x="16.91" y="243.09">M</tspan><tspan x="33.22" y="243.09">á</tspan><tspan class="cls-34" x="43.79" y="243.09">s</tspan><tspan x="53.54" y="243.09">ca</tspan><tspan class="cls-13" x="74.49" y="243.09">r</tspan><tspan class="cls-30" x="82.1" y="243.09">a</tspan><tspan x="92.41" y="243.09" xml:space="preserve"> de </tspan><tspan class="cls-42" x="125.89" y="243.09">S</tspan><tspan x="137.7" y="243.09">ub-</tspan><tspan class="cls-11" x="170.22" y="243.09">r</tspan><tspan x="177.81" y="243.09">ede . . . . . . . . . . . . </tspan><tspan class="cls-32" x="346.04" y="243.09">:</tspan><tspan class="cls-27" x="351.71" y="243.09" xml:space="preserve"> 255.255.255</tspan><tspan class="cls-33" x="464.66" y="243.09">.</tspan><tspan x="469.56" y="243.09">0</tspan><tspan x="0" y="265.19" xml:space="preserve">   G</tspan><tspan class="cls-48" x="30.22" y="265.19">a</tspan><tspan x="40.42" y="265.19">t</tspan><tspan class="cls-15" x="48.34" y="265.19">e</tspan><tspan class="cls-19" x="58.75" y="265.19">w</tspan><tspan class="cls-3" x="74.73" y="265.19">a</tspan><tspan class="cls-16" x="84.73" y="265.19">y</tspan><tspan x="94.36" y="265.19" xml:space="preserve"> P</tspan><tspan class="cls-21" x="111.9" y="265.19">a</tspan><tspan x="122.43" y="265.19">d</tspan><tspan class="cls-13" x="133.98" y="265.19">r</tspan><tspan class="cls-21" x="141.58" y="265.19">ã</tspan><tspan class="cls-29" x="152.12" y="265.19">o</tspan><tspan x="162.83" y="265.19">. . . . . . . . . . . . . . . </tspan><tspan class="cls-25" x="324.99" y="265.19">:</tspan><tspan class="cls-20" x="330.66" y="265.19"> </tspan><tspan class="cls-13" x="336.08" y="265.19">f</tspan><tspan x="343.41" y="265.19">e80::1%</tspan><tspan class="cls-31" x="412.69" y="265.19">7</tspan><tspan x="0" y="287.29" xml:space="preserve">                                                </tspan><tspan class="cls-20" x="270.52" y="287.29"> </tspan><tspan x="275.93" y="287.29">192</tspan><tspan class="cls-22" x="305.84" y="287.29">.</tspan><tspan x="309.04" y="287.29">168</tspan><tspan class="cls-22" x="339.46" y="287.29">.</tspan><tspan x="342.67" y="287.29">1.254</tspan></text>
      </g>
    </g>
  </g>
</svg>