<?xml version="1.0" encoding="UTF-8"?>
<svg id="Camada_2" data-name="Camada 2" xmlns="http://www.w3.org/2000/svg" viewBox="0 0 1920 1080">
  <defs>
    <style>
      .cls-1 {
        opacity: .6;
      }

      .cls-2, .cls-3 {
        fill: #605a5c;
      }

      .cls-4 {
        fill: #d8d6d2;
      }

      .cls-5 {
        stroke: #916568;
        stroke-miterlimit: 10;
        stroke-width: 4px;
      }

      .cls-5, .cls-6 {
        fill: none;
      }

      .cls-7 {
        fill: #383838;
      }

      .cls-8 {
        fill: #766f71;
      }

      .cls-3, .cls-9 {
        opacity: .95;
      }

      .cls-10 {
        fill: #916568;
      }

      .cls-9 {
        fill: #fff;
      }

      .cls-11 {
        fill: #c0bcb8;
      }

      .cls-12 {
        fill: #b4b2ae;
      }

      .cls-13 {
        fill: #77716a;
      }

      .cls-14 {
        fill: #c4c2c0;
      }

      .cls-15 {
        fill: #8e8b8c;
      }

      .cls-16 {
        fill: #a5a1a2;
      }

      .cls-17 {
        fill: #67615b;
      }

      .cls-18 {
        fill: #757372;
      }
    </style>
  </defs>
  <g id="Camada_28" data-name="Camada 28">
    <g>
      <g>
        <polygon class="cls-8" points="55.07 50.89 55.07 1030 1864.93 1030 1864.93 50 55.07 50.89"/>
        <polygon class="cls-2" points="108.04 130.56 304.33 709.1 1645.88 700.08 1836.02 50 108.04 130.56"/>
        <g>
          <polygon class="cls-13" points="140.6 50.71 336.84 635.86 1622.21 636.78 1790.69 50 140.6 50.71"/>
          <polygon class="cls-17" points="464.72 442.8 472.96 530.59 549.92 530.59 556.45 453.06 556.45 374.47 471.19 373.18 464.72 442.8"/>
          <polygon class="cls-14" points="469.91 437.75 478.15 525.53 555.11 525.53 561.64 448 561.64 369.41 476.38 368.12 469.91 437.75"/>
          <polygon class="cls-17" points="1052.83 400.15 1048.28 590.38 893.59 583.86 896.17 394.56 1052.83 400.15"/>
          <polygon class="cls-17" points="1341.5 348.65 1423.67 348.65 1479.33 352.16 1457.5 516.76 1341.5 514.42 1341.5 348.65"/>
          <polyline class="cls-17" points="968.38 54.26 980.87 138.95 979.74 150.88 1076.86 152.87 1085.38 53.9 968.38 54.26"/>
          <polyline class="cls-4" points="963.9 50.36 976.4 135.06 975.26 146.98 1072.39 148.97 1080.91 50 963.9 50.36"/>
          <polyline class="cls-17" points="1139.55 54.97 1150.34 118.87 1227.3 118.87 1265.92 127.67 1270.75 118.3 1270.75 106.66 1277.56 95.87 1271.32 66.9 1284.95 84.51 1290.34 54.97 1139.55 54.97"/>
          <polyline class="cls-14" points="1135.57 50.28 1146.36 114.18 1223.32 114.18 1261.94 122.99 1266.77 113.61 1266.77 101.97 1273.59 91.18 1267.34 62.21 1280.97 79.82 1286.37 50.28 1135.57 50.28"/>
          <polygon class="cls-12" points="476.35 405.02 478.33 422.62 547.09 424.93 542.39 405.73 476.35 405.02"/>
          <polygon class="cls-12" points="481.47 437.57 483.44 455.17 552.2 457.48 547.5 438.28 481.47 437.57"/>
          <polygon class="cls-12" points="486.93 471.34 488.91 488.94 557.67 491.25 552.97 472.05 486.93 471.34"/>
          <polyline class="cls-17" points="1424.67 59.82 1424.67 194.41 1591.22 204.63 1589.24 150.96 1600.03 59.82 1424.67 59.82"/>
          <polygon class="cls-17" points="336.84 359.4 353.87 465.47 418.2 460.78 493.59 433.1 457.39 341.51 336.84 359.4"/>
          <polygon class="cls-14" points="342.83 353.15 359.87 459.22 424.2 454.54 499.59 426.85 463.39 335.26 342.83 353.15"/>
          <polyline class="cls-14" points="1416.01 50.16 1416.01 184.75 1582.56 194.98 1580.57 141.3 1591.36 50.16 1416.01 50.16"/>
          <polygon class="cls-17" points="1435.17 213.22 1615.79 243.61 1596.9 291.03 1572.34 397.53 1473.51 382.48 1480.33 352.09 1424.67 348.57 1435.17 213.22"/>
          <polygon class="cls-14" points="1429.64 208.04 1610.25 238.43 1591.36 285.85 1566.8 392.34 1467.97 377.29 1474.79 346.91 1419.13 343.39 1429.64 208.04"/>
          <polygon class="cls-14" points="1336.95 343.39 1419.13 343.39 1474.79 346.91 1452.96 511.51 1336.95 509.17 1336.95 343.39"/>
          <polygon class="cls-17" points="1180.19 406.15 1322.26 419.78 1313.1 572.92 1193.5 564.31 1188.43 505.05 1180.19 406.15"/>
          <polygon class="cls-14" points="1172.1 401.04 1314.16 414.67 1305 567.81 1185.41 559.19 1180.34 499.94 1172.1 401.04"/>
          <polygon class="cls-17" points="1195.81 190.15 1299.11 190.15 1292.51 245.95 1299.11 301.33 1206.46 305.37 1208.38 254.9 1195.81 190.15"/>
          <polygon class="cls-14" points="1190.27 185.28 1293.57 185.28 1286.97 241.09 1293.57 296.46 1200.92 300.51 1202.84 250.03 1190.27 185.28"/>
          <g class="cls-1">
            <polygon class="cls-17" points="729.47 337.15 738.42 602.95 568.74 602.09 521.31 337.25 729.47 337.15"/>
          </g>
          <polygon class="cls-14" points="735.8 324.58 744.74 590.38 575.07 589.53 527.64 324.68 735.8 324.58"/>
          <polygon class="cls-14" points="1048.64 393.75 1040.85 583.86 885.49 577.28 888.75 388.04 1048.64 393.75"/>
          <polygon class="cls-17" points="786.42 225.99 845.77 248.71 957.23 290.96 993.58 153.39 989.32 54.77 827.17 54.76 786.42 225.99"/>
          <polygon class="cls-14" points="791.95 221.56 851.31 244.28 962.77 286.53 999.12 148.97 994.86 50.34 832.7 50.34 791.95 221.56"/>
          <polygon class="cls-16" points="140.6 50.71 336.84 635.86 321.5 650.63 118.52 50.71 140.6 50.71"/>
          <polygon class="cls-18" points="321.5 650.63 1633 650.98 1622.21 636.78 336.84 635.86 321.5 650.63"/>
          <polygon class="cls-7" points="1622.21 636.78 1790.69 50 1813.69 50 1633 650.98 1622.21 636.78"/>
          <polygon class="cls-15" points="118.52 50.71 63.67 50.71 83.98 105.24 291.43 686.69 1657.96 688.82 1836.02 97.57 1851.39 50 1813.69 50 1633 650.98 321.5 650.63 118.52 50.71"/>
          <polygon class="cls-17" points="261.19 57.54 310.03 245.25 310.03 303.61 526.43 303.61 526.43 228.21 537.36 143.87 537.36 56.83 261.19 57.54"/>
          <polygon class="cls-11" points="271.98 50.71 320.83 238.43 320.83 296.78 537.22 296.78 537.22 221.39 548.15 137.04 548.15 50 271.98 50.71"/>
          <polygon class="cls-12" points="301.69 72.19 315.32 128.99 538.53 115.92 524.34 62.53 301.69 72.19"/>
          <polygon class="cls-12" points="318.31 141.91 327.68 193.88 530.87 187.49 531.29 128.7 318.31 141.91"/>
          <path class="cls-17" d="M686.6,54.76s3.69,21.72,3.69,22.58,1.99,91.44,1.99,91.44h159.03v-92.29l2.84-21.32-167.55-.4Z"/>
          <path class="cls-4" d="M693.41,50s3.69,21.72,3.69,22.58,1.99,91.44,1.99,91.44h159.03v-92.29l2.84-21.32-167.55-.4Z"/>
          <polygon class="cls-12" points="704.7 62.53 707.93 131.68 847.22 128.99 840.41 57.99 704.7 62.53"/>
          <polygon class="cls-12" points="1002.42 64.81 1002.7 104.56 1070.86 106.55 1071.23 69.1 1002.42 64.81"/>
          <polygon class="cls-12" points="1146.83 59.71 1151.7 85.8 1260.1 86.66 1256.92 62.04 1146.83 59.71"/>
          <polygon class="cls-12" points="1426.69 67.38 1426.69 93.48 1572.84 93.31 1575.18 68.73 1426.69 67.38"/>
          <polygon class="cls-12" points="1426.69 99.12 1426.69 164.62 1572.48 177.2 1575.18 100.46 1426.69 99.12"/>
          <polygon class="cls-12" points="858.12 77.69 858.23 117.06 980.39 150.54 989.86 114.31 858.12 77.69"/>
          <polygon class="cls-12" points="858.12 129.45 858.12 164.02 967.64 198.74 977.11 162.5 858.12 129.45"/>
          <polygon class="cls-12" points="1185.41 441.59 1185.73 462.46 1302.97 469.44 1303.3 450.88 1185.41 441.59"/>
          <polygon class="cls-12" points="1185.41 469.44 1185.69 487.52 1303.01 495.2 1303.3 478.73 1185.41 469.44"/>
          <polygon class="cls-12" points="901.05 433.94 898.22 485.95 1036.26 493.62 1039.66 443.23 901.05 433.94"/>
          <polygon class="cls-12" points="897.76 493.62 894.93 545.63 1032.96 553.31 1036.36 502.91 897.76 493.62"/>
          <polygon class="cls-12" points="557.67 372.73 589.67 565.3 725.42 561.87 711.3 371.44 557.67 372.73"/>
          <polygon class="cls-12" points="1345.59 384.88 1345.59 402.92 1455.1 411.12 1457.79 393.72 1345.59 384.88"/>
          <polygon class="cls-12" points="1440.45 257.59 1439.37 275.64 1578.89 297.95 1585.32 282.36 1440.45 257.59"/>
          <polygon class="cls-12" points="1205.11 204.46 1208.51 222.68 1275.75 222.76 1275.75 207.15 1205.11 204.46"/>
          <polygon class="cls-12" points="1209.59 229.52 1211.7 246.79 1275.75 245.06 1275.75 228.57 1209.59 229.52"/>
          <polygon class="cls-12" points="1345.59 409.3 1346.32 487.73 1445.04 492.23 1455.1 418.2 1345.59 409.3"/>
          <polygon class="cls-12" points="1187.11 495.2 1189.84 513.41 1302.02 519.74 1302.31 503.28 1187.11 495.2"/>
          <polyline class="cls-5" points="455.36 50 407.44 361 731.61 50"/>
          <line class="cls-5" x1="410.07" y1="361.89" x2="977.11" y2="50.35"/>
          <line class="cls-5" x1="642.21" y1="462.91" x2="967.24" y2="411.28"/>
          <line class="cls-5" x1="455.36" y1="50" x2="967.24" y2="411.28"/>
          <line class="cls-5" x1="1231.7" y1="197.39" x2="967.24" y2="411.28"/>
          <line class="cls-5" x1="1241.92" y1="432.7" x2="969.5" y2="411.28"/>
          <line class="cls-5" x1="1032.04" y1="50" x2="967.24" y2="411.28"/>
          <polyline class="cls-5" points="1245.05 430.26 1518.74 259.76 1505.67 50"/>
          <polyline class="cls-5" points="1047.75 50.34 1231.7 197.39 1478.41 50"/>
          <line class="cls-5" x1="1235.61" y1="197.39" x2="1518.74" y2="259.76"/>
          <circle class="cls-10" cx="406.52" cy="364.19" r="7.24"/>
          <circle class="cls-10" cx="514.72" cy="383.36" r="7.24"/>
          <circle class="cls-10" cx="547.09" cy="344.39" r="7.24"/>
          <circle class="cls-10" cx="642.21" cy="462.91" r="14.58"/>
          <circle class="cls-10" cx="711.94" cy="344.39" r="7.24"/>
          <circle class="cls-10" cx="967.24" cy="411.28" r="7.24"/>
          <circle class="cls-10" cx="1241.92" cy="432.7" r="7.24"/>
          <circle class="cls-10" cx="1396.69" cy="360.29" r="7.24"/>
          <circle class="cls-10" cx="1520.23" cy="259.76" r="7.24"/>
          <circle class="cls-10" cx="1231.7" cy="197.39" r="7.24"/>
        </g>
        <polygon class="cls-12" points="357.13 381.8 359.97 405.02 470.39 383.72 462.2 366.68 357.13 381.8"/>
        <polygon class="cls-12" points="363.09 412.36 365.93 435.58 476.35 414.28 471.66 395.08 363.09 412.36"/>
      </g>
      <g>
        <g>
          <path class="cls-3" d="M183.32,891.55c.53.07,1,.2,1.42.39.42.19.82.47,1.21.82.39.35.82.82,1.32,1.42l36.41,46.03c-.14-1.47-.25-2.9-.32-4.29-.07-1.39-.11-2.69-.11-3.92v-40.56h15.68v76.65h-9.26c-1.37,0-2.53-.21-3.47-.63-.95-.42-1.86-1.19-2.74-2.31l-36.14-45.67c.11,1.33.19,2.64.26,3.92.07,1.28.11,2.48.11,3.6v41.09h-15.68v-76.65h9.36c.77,0,1.42.04,1.95.11Z"/>
          <path class="cls-3" d="M322.89,968.1h-13.78c-1.54,0-2.81-.36-3.81-1.08s-1.69-1.64-2.08-2.76l-4.52-13.36h-29.15l-4.52,13.36c-.35.98-1.03,1.87-2.05,2.66-1.02.79-2.26,1.18-3.73,1.18h-13.89l29.67-76.65h18.2l29.67,76.65ZM273.65,938.8h20.94l-7.05-20.99c-.46-1.33-.99-2.9-1.6-4.71-.61-1.81-1.22-3.76-1.82-5.87-.56,2.14-1.14,4.12-1.74,5.95-.6,1.82-1.16,3.4-1.68,4.73l-7.05,20.89Z"/>
          <path class="cls-3" d="M371.82,907.02c-.53.84-1.08,1.47-1.66,1.89s-1.32.63-2.24.63c-.81,0-1.68-.25-2.6-.76-.93-.51-1.98-1.08-3.16-1.71-1.18-.63-2.52-1.2-4.03-1.71-1.51-.51-3.23-.76-5.16-.76-3.33,0-5.81.71-7.44,2.13-1.63,1.42-2.45,3.34-2.45,5.76,0,1.54.49,2.82,1.47,3.84.98,1.02,2.27,1.89,3.87,2.63,1.6.74,3.42,1.41,5.47,2.03,2.05.61,4.15,1.3,6.29,2.05,2.14.76,4.24,1.64,6.29,2.66,2.05,1.02,3.87,2.31,5.47,3.89,1.6,1.58,2.88,3.5,3.87,5.76.98,2.26,1.47,4.99,1.47,8.18,0,3.54-.61,6.86-1.84,9.94-1.23,3.09-3.01,5.78-5.34,8.08-2.33,2.3-5.21,4.1-8.63,5.42-3.42,1.32-7.3,1.97-11.65,1.97-2.39,0-4.81-.25-7.29-.74-2.47-.49-4.87-1.18-7.18-2.08-2.31-.89-4.49-1.95-6.52-3.18s-3.81-2.6-5.31-4.1l5.26-8.31c.39-.63.93-1.14,1.63-1.53.7-.39,1.46-.58,2.26-.58,1.05,0,2.11.33,3.18,1,1.07.67,2.28,1.4,3.63,2.21,1.35.81,2.9,1.54,4.66,2.21,1.75.67,3.82,1,6.21,1,3.23,0,5.73-.71,7.52-2.13,1.79-1.42,2.68-3.67,2.68-6.76,0-1.79-.49-3.24-1.47-4.37-.98-1.12-2.27-2.05-3.87-2.79-1.6-.74-3.41-1.39-5.44-1.95-2.03-.56-4.12-1.18-6.26-1.87-2.14-.68-4.23-1.53-6.26-2.53-2.03-1-3.85-2.31-5.44-3.95-1.6-1.63-2.89-3.66-3.87-6.1-.98-2.44-1.47-5.44-1.47-9.02,0-2.88.58-5.68,1.74-8.42,1.16-2.74,2.86-5.17,5.1-7.31,2.24-2.14,5-3.85,8.26-5.13,3.26-1.28,7-1.92,11.21-1.92,2.35,0,4.64.18,6.87.55,2.23.37,4.34.91,6.34,1.63,2,.72,3.87,1.58,5.6,2.58s3.29,2.13,4.66,3.39l-4.42,8.26Z"/>
          <path class="cls-3" d="M438.32,954.05c2.38,0,4.52-.39,6.39-1.18,1.88-.79,3.46-1.92,4.76-3.39,1.3-1.47,2.29-3.27,2.97-5.39.68-2.12,1.03-4.53,1.03-7.23v-45.4h17.78v45.4c0,4.7-.76,9.01-2.29,12.94-1.53,3.93-3.71,7.31-6.55,10.15-2.84,2.84-6.3,5.05-10.36,6.63-4.07,1.58-8.65,2.37-13.73,2.37s-9.72-.79-13.78-2.37c-4.07-1.58-7.52-3.79-10.36-6.63-2.84-2.84-5.02-6.23-6.52-10.15-1.51-3.93-2.26-8.24-2.26-12.94v-45.4h17.78v45.35c0,2.7.34,5.11,1.03,7.23.68,2.12,1.67,3.93,2.97,5.42,1.3,1.49,2.88,2.63,4.76,3.42,1.88.79,4.01,1.18,6.39,1.18Z"/>
          <path class="cls-3" d="M500.61,939.74v28.36h-17.78v-76.65h24.94c5.54,0,10.27.57,14.18,1.71,3.91,1.14,7.1,2.73,9.58,4.76,2.47,2.03,4.27,4.44,5.39,7.21,1.12,2.77,1.68,5.79,1.68,9.05,0,2.49-.33,4.84-1,7.05s-1.66,4.25-2.97,6.13-2.93,3.55-4.84,5.02c-1.91,1.47-4.11,2.68-6.6,3.63,1.19.6,2.31,1.33,3.34,2.21,1.03.88,1.94,1.95,2.71,3.21l16.31,26.67h-16.1c-2.98,0-5.12-1.12-6.42-3.37l-12.73-22.25c-.56-.98-1.22-1.68-1.97-2.1-.76-.42-1.82-.63-3.18-.63h-4.52ZM500.61,927.49h7.16c2.42,0,4.48-.31,6.18-.92,1.7-.61,3.1-1.46,4.18-2.55s1.88-2.36,2.37-3.81c.49-1.46.74-3.03.74-4.71,0-3.37-1.1-6-3.29-7.89-2.19-1.89-5.59-2.84-10.18-2.84h-7.16v22.73Z"/>
          <path class="cls-3" d="M564.11,891.55c.53.07,1,.2,1.42.39.42.19.82.47,1.21.82.39.35.82.82,1.32,1.42l36.41,46.03c-.14-1.47-.25-2.9-.32-4.29-.07-1.39-.11-2.69-.11-3.92v-40.56h15.68v76.65h-9.26c-1.37,0-2.53-.21-3.47-.63-.95-.42-1.86-1.19-2.74-2.31l-36.14-45.67c.11,1.33.19,2.64.26,3.92.07,1.28.11,2.48.11,3.6v41.09h-15.68v-76.65h9.36c.77,0,1.42.04,1.95.11Z"/>
          <path class="cls-3" d="M703.69,968.1h-13.78c-1.54,0-2.81-.36-3.81-1.08s-1.69-1.64-2.08-2.76l-4.52-13.36h-29.15l-4.52,13.36c-.35.98-1.03,1.87-2.05,2.66-1.02.79-2.26,1.18-3.73,1.18h-13.89l29.67-76.65h18.2l29.67,76.65ZM654.44,938.8h20.94l-7.05-20.99c-.46-1.33-.99-2.9-1.6-4.71-.61-1.81-1.22-3.76-1.82-5.87-.56,2.14-1.14,4.12-1.74,5.95-.6,1.82-1.16,3.4-1.68,4.73l-7.05,20.89Z"/>
          <path class="cls-3" d="M752.61,907.02c-.53.84-1.08,1.47-1.66,1.89s-1.32.63-2.24.63c-.81,0-1.68-.25-2.6-.76-.93-.51-1.98-1.08-3.16-1.71-1.18-.63-2.52-1.2-4.03-1.71-1.51-.51-3.23-.76-5.16-.76-3.33,0-5.81.71-7.44,2.13-1.63,1.42-2.45,3.34-2.45,5.76,0,1.54.49,2.82,1.47,3.84.98,1.02,2.27,1.89,3.87,2.63,1.6.74,3.42,1.41,5.47,2.03,2.05.61,4.15,1.3,6.29,2.05,2.14.76,4.24,1.64,6.29,2.66,2.05,1.02,3.87,2.31,5.47,3.89,1.6,1.58,2.88,3.5,3.87,5.76.98,2.26,1.47,4.99,1.47,8.18,0,3.54-.61,6.86-1.84,9.94-1.23,3.09-3.01,5.78-5.34,8.08-2.33,2.3-5.21,4.1-8.63,5.42-3.42,1.32-7.3,1.97-11.65,1.97-2.39,0-4.81-.25-7.29-.74-2.47-.49-4.87-1.18-7.18-2.08-2.31-.89-4.49-1.95-6.52-3.18s-3.81-2.6-5.31-4.1l5.26-8.31c.39-.63.93-1.14,1.63-1.53.7-.39,1.46-.58,2.26-.58,1.05,0,2.11.33,3.18,1,1.07.67,2.28,1.4,3.63,2.21,1.35.81,2.9,1.54,4.66,2.21,1.75.67,3.82,1,6.21,1,3.23,0,5.73-.71,7.52-2.13,1.79-1.42,2.68-3.67,2.68-6.76,0-1.79-.49-3.24-1.47-4.37-.98-1.12-2.27-2.05-3.87-2.79-1.6-.74-3.41-1.39-5.44-1.95-2.03-.56-4.12-1.18-6.26-1.87-2.14-.68-4.23-1.53-6.26-2.53-2.03-1-3.85-2.31-5.44-3.95-1.6-1.63-2.89-3.66-3.87-6.1-.98-2.44-1.47-5.44-1.47-9.02,0-2.88.58-5.68,1.74-8.42,1.16-2.74,2.86-5.17,5.1-7.31,2.24-2.14,5-3.85,8.26-5.13,3.26-1.28,7-1.92,11.21-1.92,2.35,0,4.64.18,6.87.55,2.23.37,4.34.91,6.34,1.63,2,.72,3.87,1.58,5.6,2.58s3.29,2.13,4.66,3.39l-4.42,8.26Z"/>
        </g>
        <g>
          <path class="cls-3" d="M165.23,779.02h17.2c1.85,0,3.37.42,4.55,1.26,1.18.84,2.02,1.96,2.53,3.35l17.83,49.33c.8,2.15,1.61,4.49,2.44,7.02.82,2.53,1.59,5.19,2.31,7.97.59-2.78,1.27-5.44,2.06-7.97.78-2.53,1.55-4.87,2.31-7.02l17.71-49.33c.42-1.18,1.24-2.25,2.47-3.19s2.72-1.42,4.49-1.42h17.33l-36.93,92.15h-19.35l-36.93-92.15Z"/>
          <path class="cls-3" d="M325.37,779.02v16.44h-37.82v21.5h28.97v15.81h-28.97v21.95h37.82v16.44h-59.32v-92.15h59.32Z"/>
          <path class="cls-3" d="M358.89,837.08v34.09h-21.38v-92.15h29.98c6.66,0,12.34.69,17.04,2.06,4.7,1.37,8.54,3.28,11.51,5.72,2.97,2.45,5.13,5.33,6.48,8.66,1.35,3.33,2.02,6.96,2.02,10.88,0,2.99-.4,5.82-1.2,8.47-.8,2.66-1.99,5.11-3.57,7.37-1.58,2.26-3.52,4.27-5.82,6.04-2.3,1.77-4.94,3.23-7.94,4.36,1.43.72,2.77,1.6,4.02,2.66,1.24,1.05,2.33,2.34,3.26,3.86l19.61,32.06h-19.35c-3.58,0-6.16-1.35-7.72-4.05l-15.31-26.75c-.67-1.18-1.47-2.02-2.37-2.53-.91-.51-2.18-.76-3.83-.76h-5.44ZM358.89,822.34h8.6c2.91,0,5.39-.37,7.43-1.11,2.04-.74,3.72-1.76,5.03-3.07s2.26-2.84,2.85-4.59c.59-1.75.89-3.64.89-5.66,0-4.05-1.32-7.21-3.95-9.49-2.64-2.28-6.71-3.42-12.24-3.42h-8.6v27.32Z"/>
          <path class="cls-3" d="M505.23,825.06c0,6.66-1.15,12.81-3.45,18.44-2.3,5.63-5.53,10.5-9.71,14.61-4.17,4.11-9.2,7.32-15.08,9.61-5.88,2.3-12.41,3.45-19.57,3.45h-35.8v-92.15h35.8c7.17,0,13.69,1.16,19.57,3.48,5.88,2.32,10.91,5.52,15.08,9.61,4.17,4.09,7.41,8.95,9.71,14.58,2.3,5.63,3.45,11.75,3.45,18.37ZM483.35,825.06c0-4.55-.59-8.66-1.77-12.33-1.18-3.67-2.88-6.78-5.09-9.33-2.21-2.55-4.92-4.51-8.13-5.88-3.21-1.37-6.85-2.06-10.94-2.06h-14.29v59.26h14.29c4.09,0,7.74-.69,10.94-2.06,3.2-1.37,5.91-3.33,8.13-5.88,2.21-2.55,3.91-5.66,5.09-9.33,1.18-3.67,1.77-7.8,1.77-12.4Z"/>
          <path class="cls-3" d="M597.44,871.17h-16.57c-1.86,0-3.38-.43-4.59-1.3-1.2-.86-2.04-1.97-2.5-3.32l-5.44-16.06h-35.04l-5.44,16.06c-.42,1.18-1.24,2.25-2.47,3.19-1.22.95-2.72,1.42-4.49,1.42h-16.7l35.67-92.15h21.88l35.67,92.15ZM538.25,835.94h25.17l-8.47-25.24c-.55-1.6-1.19-3.49-1.93-5.66-.74-2.17-1.47-4.52-2.18-7.05-.68,2.57-1.37,4.95-2.09,7.15-.72,2.19-1.39,4.09-2.02,5.69l-8.47,25.11Z"/>
          <path class="cls-3" d="M688.52,825.06c0,6.66-1.15,12.81-3.45,18.44-2.3,5.63-5.53,10.5-9.71,14.61s-9.2,7.32-15.08,9.61c-5.88,2.3-12.41,3.45-19.57,3.45h-35.8v-92.15h35.8c7.17,0,13.69,1.16,19.57,3.48,5.88,2.32,10.91,5.52,15.08,9.61,4.17,4.09,7.41,8.95,9.71,14.58,2.3,5.63,3.45,11.75,3.45,18.37ZM666.63,825.06c0-4.55-.59-8.66-1.77-12.33-1.18-3.67-2.88-6.78-5.09-9.33-2.21-2.55-4.92-4.51-8.13-5.88-3.21-1.37-6.85-2.06-10.94-2.06h-14.29v59.26h14.29c4.09,0,7.74-.69,10.94-2.06,3.2-1.37,5.91-3.33,8.13-5.88,2.21-2.55,3.91-5.66,5.09-9.33,1.18-3.67,1.77-7.8,1.77-12.4Z"/>
          <path class="cls-3" d="M758.08,779.02v16.44h-37.82v21.5h28.97v15.81h-28.97v21.95h37.82v16.44h-59.32v-92.15h59.32Z"/>
        </g>
      </g>
      <g>
        <g>
          <path class="cls-9" d="M190.42,885.76c.53.07,1,.2,1.42.39.42.19.82.47,1.21.82.39.35.82.82,1.32,1.42l36.41,46.03c-.14-1.47-.25-2.9-.32-4.29-.07-1.39-.11-2.69-.11-3.92v-40.56h15.68v76.65h-9.26c-1.37,0-2.53-.21-3.47-.63-.95-.42-1.86-1.19-2.74-2.31l-36.14-45.67c.11,1.33.19,2.64.26,3.92.07,1.28.11,2.48.11,3.6v41.09h-15.68v-76.65h9.36c.77,0,1.42.04,1.95.11Z"/>
          <path class="cls-9" d="M330,962.31h-13.78c-1.54,0-2.81-.36-3.81-1.08s-1.69-1.64-2.08-2.76l-4.52-13.36h-29.15l-4.52,13.36c-.35.98-1.03,1.87-2.05,2.66-1.02.79-2.26,1.18-3.73,1.18h-13.89l29.67-76.65h18.2l29.67,76.65ZM280.75,933.01h20.94l-7.05-20.99c-.46-1.33-.99-2.9-1.6-4.71-.61-1.81-1.22-3.76-1.82-5.87-.56,2.14-1.14,4.12-1.74,5.95-.6,1.82-1.16,3.4-1.68,4.73l-7.05,20.89Z"/>
          <path class="cls-9" d="M378.92,901.23c-.53.84-1.08,1.47-1.66,1.89s-1.32.63-2.24.63c-.81,0-1.68-.25-2.6-.76-.93-.51-1.98-1.08-3.16-1.71-1.18-.63-2.52-1.2-4.03-1.71-1.51-.51-3.23-.76-5.16-.76-3.33,0-5.81.71-7.44,2.13-1.63,1.42-2.45,3.34-2.45,5.76,0,1.54.49,2.82,1.47,3.84.98,1.02,2.27,1.89,3.87,2.63,1.6.74,3.42,1.41,5.47,2.03,2.05.61,4.15,1.3,6.29,2.05,2.14.76,4.24,1.64,6.29,2.66,2.05,1.02,3.87,2.31,5.47,3.89,1.6,1.58,2.88,3.5,3.87,5.76.98,2.26,1.47,4.99,1.47,8.18,0,3.54-.61,6.86-1.84,9.94-1.23,3.09-3.01,5.78-5.34,8.08-2.33,2.3-5.21,4.1-8.63,5.42s-7.3,1.97-11.65,1.97c-2.39,0-4.81-.25-7.29-.74-2.47-.49-4.87-1.18-7.18-2.08-2.31-.89-4.49-1.95-6.52-3.18s-3.81-2.6-5.31-4.1l5.26-8.31c.39-.63.93-1.14,1.63-1.53.7-.39,1.46-.58,2.26-.58,1.05,0,2.11.33,3.18,1,1.07.67,2.28,1.4,3.63,2.21,1.35.81,2.9,1.54,4.66,2.21,1.75.67,3.82,1,6.21,1,3.23,0,5.73-.71,7.52-2.13,1.79-1.42,2.68-3.67,2.68-6.76,0-1.79-.49-3.24-1.47-4.37-.98-1.12-2.27-2.05-3.87-2.79-1.6-.74-3.41-1.39-5.44-1.95-2.03-.56-4.12-1.18-6.26-1.87-2.14-.68-4.23-1.53-6.26-2.53-2.03-1-3.85-2.31-5.44-3.95-1.6-1.63-2.89-3.66-3.87-6.1-.98-2.44-1.47-5.44-1.47-9.02,0-2.88.58-5.68,1.74-8.42,1.16-2.74,2.86-5.17,5.1-7.31,2.24-2.14,5-3.85,8.26-5.13,3.26-1.28,7-1.92,11.21-1.92,2.35,0,4.64.18,6.87.55,2.23.37,4.34.91,6.34,1.63,2,.72,3.87,1.58,5.6,2.58s3.29,2.13,4.66,3.39l-4.42,8.26Z"/>
          <path class="cls-9" d="M445.42,948.27c2.38,0,4.52-.39,6.39-1.18,1.88-.79,3.46-1.92,4.76-3.39,1.3-1.47,2.29-3.27,2.97-5.39.68-2.12,1.03-4.53,1.03-7.23v-45.4h17.78v45.4c0,4.7-.76,9.01-2.29,12.94-1.53,3.93-3.71,7.31-6.55,10.15-2.84,2.84-6.3,5.05-10.36,6.63-4.07,1.58-8.65,2.37-13.73,2.37s-9.72-.79-13.78-2.37c-4.07-1.58-7.52-3.79-10.36-6.63s-5.02-6.23-6.52-10.15c-1.51-3.93-2.26-8.24-2.26-12.94v-45.4h17.78v45.35c0,2.7.34,5.11,1.03,7.23.68,2.12,1.67,3.93,2.97,5.42,1.3,1.49,2.88,2.63,4.76,3.42,1.88.79,4.01,1.18,6.39,1.18Z"/>
          <path class="cls-9" d="M507.71,933.96v28.36h-17.78v-76.65h24.94c5.54,0,10.27.57,14.18,1.71,3.91,1.14,7.1,2.73,9.58,4.76,2.47,2.03,4.27,4.44,5.39,7.21,1.12,2.77,1.68,5.79,1.68,9.05,0,2.49-.33,4.84-1,7.05s-1.66,4.25-2.97,6.13-2.93,3.55-4.84,5.02c-1.91,1.47-4.11,2.68-6.6,3.63,1.19.6,2.31,1.33,3.34,2.21,1.03.88,1.94,1.95,2.71,3.21l16.31,26.67h-16.1c-2.98,0-5.12-1.12-6.42-3.37l-12.73-22.25c-.56-.98-1.22-1.68-1.97-2.1-.76-.42-1.82-.63-3.18-.63h-4.52ZM507.71,921.7h7.16c2.42,0,4.48-.31,6.18-.92,1.7-.61,3.1-1.46,4.18-2.55s1.88-2.36,2.37-3.81c.49-1.46.74-3.03.74-4.71,0-3.37-1.1-6-3.29-7.89-2.19-1.89-5.59-2.84-10.18-2.84h-7.16v22.73Z"/>
          <path class="cls-9" d="M571.21,885.76c.53.07,1,.2,1.42.39.42.19.82.47,1.21.82.39.35.82.82,1.32,1.42l36.41,46.03c-.14-1.47-.25-2.9-.32-4.29-.07-1.39-.11-2.69-.11-3.92v-40.56h15.68v76.65h-9.26c-1.37,0-2.53-.21-3.47-.63-.95-.42-1.86-1.19-2.74-2.31l-36.14-45.67c.11,1.33.19,2.64.26,3.92.07,1.28.11,2.48.11,3.6v41.09h-15.68v-76.65h9.36c.77,0,1.42.04,1.95.11Z"/>
          <path class="cls-9" d="M710.79,962.31h-13.78c-1.54,0-2.81-.36-3.81-1.08s-1.69-1.64-2.08-2.76l-4.52-13.36h-29.15l-4.52,13.36c-.35.98-1.03,1.87-2.05,2.66-1.02.79-2.26,1.18-3.73,1.18h-13.89l29.67-76.65h18.2l29.67,76.65ZM661.54,933.01h20.94l-7.05-20.99c-.46-1.33-.99-2.9-1.6-4.71-.61-1.81-1.22-3.76-1.82-5.87-.56,2.14-1.14,4.12-1.74,5.95-.6,1.82-1.16,3.4-1.68,4.73l-7.05,20.89Z"/>
          <path class="cls-9" d="M759.72,901.23c-.53.84-1.08,1.47-1.66,1.89s-1.32.63-2.24.63c-.81,0-1.68-.25-2.6-.76-.93-.51-1.98-1.08-3.16-1.71-1.18-.63-2.52-1.2-4.03-1.71-1.51-.51-3.23-.76-5.16-.76-3.33,0-5.81.71-7.44,2.13-1.63,1.42-2.45,3.34-2.45,5.76,0,1.54.49,2.82,1.47,3.84.98,1.02,2.27,1.89,3.87,2.63,1.6.74,3.42,1.41,5.47,2.03,2.05.61,4.15,1.3,6.29,2.05,2.14.76,4.24,1.64,6.29,2.66,2.05,1.02,3.87,2.31,5.47,3.89,1.6,1.58,2.88,3.5,3.87,5.76.98,2.26,1.47,4.99,1.47,8.18,0,3.54-.61,6.86-1.84,9.94-1.23,3.09-3.01,5.78-5.34,8.08-2.33,2.3-5.21,4.1-8.63,5.42s-7.3,1.97-11.65,1.97c-2.39,0-4.81-.25-7.29-.74-2.47-.49-4.87-1.18-7.18-2.08-2.31-.89-4.49-1.95-6.52-3.18s-3.81-2.6-5.31-4.1l5.26-8.31c.39-.63.93-1.14,1.63-1.53.7-.39,1.46-.58,2.26-.58,1.05,0,2.11.33,3.18,1,1.07.67,2.28,1.4,3.63,2.21,1.35.81,2.9,1.54,4.66,2.21,1.75.67,3.82,1,6.21,1,3.23,0,5.73-.71,7.52-2.13,1.79-1.42,2.68-3.67,2.68-6.76,0-1.79-.49-3.24-1.47-4.37-.98-1.12-2.27-2.05-3.87-2.79-1.6-.74-3.41-1.39-5.44-1.95-2.03-.56-4.12-1.18-6.26-1.87-2.14-.68-4.23-1.53-6.26-2.53-2.03-1-3.85-2.31-5.44-3.95-1.6-1.63-2.89-3.66-3.87-6.1-.98-2.44-1.47-5.44-1.47-9.02,0-2.88.58-5.68,1.74-8.42,1.16-2.74,2.86-5.17,5.1-7.31,2.24-2.14,5-3.85,8.26-5.13,3.26-1.28,7-1.92,11.21-1.92,2.35,0,4.64.18,6.87.55,2.23.37,4.34.91,6.34,1.63,2,.72,3.87,1.58,5.6,2.58s3.29,2.13,4.66,3.39l-4.42,8.26Z"/>
        </g>
        <g>
          <path class="cls-9" d="M172.33,773.23h17.2c1.85,0,3.37.42,4.55,1.26,1.18.84,2.02,1.96,2.53,3.35l17.83,49.33c.8,2.15,1.61,4.49,2.44,7.02.82,2.53,1.59,5.19,2.31,7.97.59-2.78,1.27-5.44,2.06-7.97.78-2.53,1.55-4.87,2.31-7.02l17.71-49.33c.42-1.18,1.24-2.25,2.47-3.19s2.72-1.42,4.49-1.42h17.33l-36.93,92.15h-19.35l-36.93-92.15Z"/>
          <path class="cls-9" d="M332.47,773.23v16.44h-37.82v21.5h28.97v15.81h-28.97v21.95h37.82v16.44h-59.32v-92.15h59.32Z"/>
          <path class="cls-9" d="M365.99,831.29v34.09h-21.38v-92.15h29.98c6.66,0,12.34.69,17.04,2.06,4.7,1.37,8.54,3.28,11.51,5.72,2.97,2.45,5.13,5.33,6.48,8.66,1.35,3.33,2.02,6.96,2.02,10.88,0,2.99-.4,5.82-1.2,8.47-.8,2.66-1.99,5.11-3.57,7.37-1.58,2.26-3.52,4.27-5.82,6.04-2.3,1.77-4.94,3.23-7.94,4.36,1.43.72,2.77,1.6,4.02,2.66,1.24,1.05,2.33,2.34,3.26,3.86l19.61,32.06h-19.35c-3.58,0-6.16-1.35-7.72-4.05l-15.31-26.75c-.67-1.18-1.47-2.02-2.37-2.53-.91-.51-2.18-.76-3.83-.76h-5.44ZM365.99,816.55h8.6c2.91,0,5.39-.37,7.43-1.11,2.04-.74,3.72-1.76,5.03-3.07,1.31-1.31,2.26-2.84,2.85-4.59.59-1.75.89-3.64.89-5.66,0-4.05-1.32-7.21-3.95-9.49-2.64-2.28-6.71-3.42-12.24-3.42h-8.6v27.32Z"/>
          <path class="cls-9" d="M512.34,819.27c0,6.66-1.15,12.81-3.45,18.44-2.3,5.63-5.53,10.5-9.71,14.61s-9.2,7.32-15.08,9.61c-5.88,2.3-12.41,3.45-19.57,3.45h-35.8v-92.15h35.8c7.17,0,13.69,1.16,19.57,3.48,5.88,2.32,10.91,5.52,15.08,9.61,4.17,4.09,7.41,8.95,9.71,14.58,2.3,5.63,3.45,11.75,3.45,18.37ZM490.45,819.27c0-4.55-.59-8.66-1.77-12.33-1.18-3.67-2.88-6.78-5.09-9.33-2.21-2.55-4.92-4.51-8.13-5.88-3.21-1.37-6.85-2.06-10.94-2.06h-14.29v59.26h14.29c4.09,0,7.74-.69,10.94-2.06,3.2-1.37,5.91-3.33,8.13-5.88,2.21-2.55,3.91-5.66,5.09-9.33,1.18-3.67,1.77-7.8,1.77-12.4Z"/>
          <path class="cls-9" d="M604.55,865.38h-16.57c-1.86,0-3.38-.43-4.59-1.3-1.2-.86-2.04-1.97-2.5-3.32l-5.44-16.06h-35.04l-5.44,16.06c-.42,1.18-1.24,2.25-2.47,3.19-1.22.95-2.72,1.42-4.49,1.42h-16.7l35.67-92.15h21.88l35.67,92.15ZM545.35,830.15h25.17l-8.47-25.24c-.55-1.6-1.19-3.49-1.93-5.66-.74-2.17-1.47-4.52-2.18-7.05-.68,2.57-1.37,4.95-2.09,7.15-.72,2.19-1.39,4.09-2.02,5.69l-8.47,25.11Z"/>
          <path class="cls-9" d="M695.62,819.27c0,6.66-1.15,12.81-3.45,18.44-2.3,5.63-5.53,10.5-9.71,14.61s-9.2,7.32-15.08,9.61c-5.88,2.3-12.41,3.45-19.57,3.45h-35.8v-92.15h35.8c7.17,0,13.69,1.16,19.57,3.48,5.88,2.32,10.91,5.52,15.08,9.61,4.17,4.09,7.41,8.95,9.71,14.58,2.3,5.63,3.45,11.75,3.45,18.37ZM673.74,819.27c0-4.55-.59-8.66-1.77-12.33-1.18-3.67-2.88-6.78-5.09-9.33-2.21-2.55-4.92-4.51-8.13-5.88-3.21-1.37-6.85-2.06-10.94-2.06h-14.29v59.26h14.29c4.09,0,7.74-.69,10.94-2.06,3.2-1.37,5.91-3.33,8.13-5.88,2.21-2.55,3.91-5.66,5.09-9.33,1.18-3.67,1.77-7.8,1.77-12.4Z"/>
          <path class="cls-9" d="M765.19,773.23v16.44h-37.82v21.5h28.97v15.81h-28.97v21.95h37.82v16.44h-59.32v-92.15h59.32Z"/>
        </g>
      </g>
    </g>
    <rect class="cls-6" width="1920" height="1080"/>
  </g>
</svg>