<?xml version="1.0" encoding="UTF-8"?>
<svg id="Camada_2" data-name="Camada 2" xmlns="http://www.w3.org/2000/svg" viewBox="0 0 1920 1081.72">
  <defs>
    <style>
      .cls-1 {
        opacity: .6;
      }

      .cls-2, .cls-3 {
        fill: #605a5c;
      }

      .cls-4 {
        fill: #d8d6d2;
      }

      .cls-5 {
        fill: none;
        stroke: #916568;
        stroke-miterlimit: 10;
        stroke-width: 4px;
      }

      .cls-6 {
        fill: #383838;
      }

      .cls-7 {
        fill: #766f71;
      }

      .cls-3, .cls-8 {
        opacity: .95;
      }

      .cls-9 {
        fill: #916568;
      }

      .cls-8 {
        fill: #fff;
      }

      .cls-10 {
        fill: #c0bcb8;
      }

      .cls-11 {
        fill: #b4b2ae;
      }

      .cls-12 {
        fill: #77716a;
      }

      .cls-13 {
        fill: #c4c2c0;
      }

      .cls-14 {
        fill: #8e8b8c;
      }

      .cls-15 {
        fill: #a5a1a2;
      }

      .cls-16 {
        fill: #67615b;
      }

      .cls-17 {
        fill: #757372;
      }
    </style>
  </defs>
  <g id="Camada_28" data-name="Camada 28">
    <g>
      <g>
        <polygon class="cls-7" points="0 2.7 0 1081.72 1920 1081.72 1920 1.72 0 2.7"/>
        <polygon class="cls-2" points="26.36 90 241.48 724 1711.64 714.12 1920 1.72 26.36 90"/>
        <g>
          <polygon class="cls-12" points="62.05 2.49 277.09 643.74 1685.7 644.75 1870.32 1.72 62.05 2.49"/>
          <polygon class="cls-16" points="417.23 432.18 426.27 528.38 510.61 528.38 517.77 443.42 517.77 357.29 424.32 355.87 417.23 432.18"/>
          <polygon class="cls-13" points="422.92 426.64 431.96 522.84 516.29 522.84 523.45 437.88 523.45 351.75 430.01 350.33 422.92 426.64"/>
          <polygon class="cls-16" points="1061.73 385.44 1056.74 593.91 887.22 586.76 890.05 379.31 1061.73 385.44"/>
          <polygon class="cls-16" points="1378.07 328.99 1468.13 328.99 1529.12 332.84 1505.2 513.23 1378.07 510.66 1378.07 328.99"/>
          <polyline class="cls-16" points="969.18 6.38 982.87 99.2 981.63 112.27 1088.06 114.44 1097.4 5.99 969.18 6.38"/>
          <polyline class="cls-4" points="964.28 2.11 977.97 94.92 976.73 107.99 1083.16 110.17 1092.5 1.72 964.28 2.11"/>
          <polyline class="cls-16" points="1156.76 7.16 1168.59 77.18 1252.92 77.18 1295.25 86.83 1300.54 76.56 1300.54 63.8 1308.01 51.98 1301.16 20.23 1316.1 39.53 1322.01 7.16 1156.76 7.16"/>
          <polyline class="cls-13" points="1152.4 2.03 1164.23 72.05 1248.57 72.05 1290.89 81.7 1296.18 71.43 1296.18 58.67 1303.65 46.84 1296.81 15.1 1311.74 34.39 1317.66 2.03 1152.4 2.03"/>
          <polygon class="cls-11" points="429.99 390.77 432.15 410.06 507.5 412.59 502.36 391.54 429.99 390.77"/>
          <polygon class="cls-11" points="435.59 426.44 437.75 445.73 513.11 448.26 507.96 427.22 435.59 426.44"/>
          <polygon class="cls-11" points="441.58 463.45 443.74 482.74 519.1 485.27 513.95 464.22 441.58 463.45"/>
          <polyline class="cls-16" points="1469.21 12.47 1469.21 159.97 1651.74 171.17 1649.56 112.35 1661.39 12.47 1469.21 12.47"/>
          <polygon class="cls-16" points="277.09 340.78 295.76 457.01 366.25 451.88 448.88 421.54 409.2 321.17 277.09 340.78"/>
          <polygon class="cls-13" points="283.67 333.93 302.34 450.17 372.83 445.03 455.45 414.69 415.77 314.33 283.67 333.93"/>
          <polyline class="cls-13" points="1459.72 1.89 1459.72 149.39 1642.25 160.59 1640.07 101.77 1651.89 1.89 1459.72 1.89"/>
          <polygon class="cls-16" points="1480.73 180.58 1678.66 213.88 1657.96 265.86 1631.04 382.56 1522.74 366.06 1530.21 332.76 1469.21 328.91 1480.73 180.58"/>
          <polygon class="cls-13" points="1474.66 174.9 1672.59 208.2 1651.89 260.18 1624.97 376.88 1516.67 360.38 1524.14 327.09 1463.15 323.23 1474.66 174.9"/>
          <polygon class="cls-13" points="1373.09 323.23 1463.15 323.23 1524.14 327.09 1500.22 507.47 1373.09 504.9 1373.09 323.23"/>
          <polygon class="cls-16" points="1201.3 392.01 1356.99 406.95 1346.95 574.77 1215.88 565.33 1210.33 500.39 1201.3 392.01"/>
          <polygon class="cls-13" points="1192.43 386.41 1348.12 401.35 1338.08 569.17 1207.02 559.72 1201.46 494.79 1192.43 386.41"/>
          <polygon class="cls-16" points="1218.42 155.3 1331.62 155.3 1324.39 216.45 1331.62 277.14 1230.09 281.57 1232.19 226.25 1218.42 155.3"/>
          <polygon class="cls-13" points="1212.35 149.97 1325.55 149.97 1318.32 211.12 1325.55 271.81 1224.02 276.24 1226.12 220.92 1212.35 149.97"/>
          <g class="cls-1">
            <polygon class="cls-16" points="707.37 316.39 717.17 607.68 531.23 606.74 479.26 316.5 707.37 316.39"/>
          </g>
          <polygon class="cls-13" points="714.3 302.62 724.1 593.91 538.16 592.97 486.19 302.73 714.3 302.62"/>
          <polygon class="cls-13" points="1057.14 378.42 1048.61 586.75 878.34 579.54 881.92 372.16 1057.14 378.42"/>
          <polygon class="cls-16" points="769.77 194.57 834.82 219.47 956.97 265.77 996.8 115.02 992.13 6.94 814.43 6.93 769.77 194.57"/>
          <polygon class="cls-13" points="775.84 189.73 840.89 214.62 963.03 260.92 1002.87 110.17 998.2 2.09 820.5 2.08 775.84 189.73"/>
          <polygon class="cls-15" points="62.05 2.49 277.09 643.74 260.29 659.92 37.85 2.49 62.05 2.49"/>
          <polygon class="cls-17" points="260.29 659.92 1697.52 660.31 1685.7 644.75 277.09 643.74 260.29 659.92"/>
          <polygon class="cls-6" points="1685.7 644.75 1870.32 1.72 1895.53 1.72 1697.52 660.31 1685.7 644.75"/>
          <polygon class="cls-14" points="37.85 2.49 0 2.49 0 62.25 227.34 699.45 1724.87 701.78 1920 53.84 1920 1.72 1895.53 1.72 1697.52 660.31 260.29 659.92 37.85 2.49"/>
          <polygon class="cls-16" points="194.19 9.98 247.72 215.68 247.72 279.64 484.86 279.64 484.86 197.01 496.84 104.58 496.84 9.2 194.19 9.98"/>
          <polygon class="cls-10" points="206.02 2.49 259.55 208.2 259.55 272.16 496.69 272.16 496.69 189.53 508.67 97.1 508.67 1.72 206.02 2.49"/>
          <polygon class="cls-11" points="238.58 26.03 253.52 88.27 498.13 73.96 482.57 15.45 238.58 26.03"/>
          <polygon class="cls-11" points="256.79 102.43 267.06 159.38 489.73 152.38 490.19 87.96 256.79 102.43"/>
          <path class="cls-16" d="M660.38,6.93s4.05,23.81,4.05,24.74,2.18,100.21,2.18,100.21h174.28V30.74l3.11-23.37-183.61-.44Z"/>
          <path class="cls-4" d="M667.85,1.72s4.05,23.81,4.05,24.74,2.18,100.21,2.18,100.21h174.28V25.52l3.11-23.37-183.61-.44Z"/>
          <polygon class="cls-11" points="680.22 15.45 683.76 91.23 836.41 88.27 828.94 10.47 680.22 15.45"/>
          <polygon class="cls-11" points="1006.49 17.94 1006.8 61.51 1081.49 63.69 1081.89 22.65 1006.49 17.94"/>
          <polygon class="cls-11" points="1164.74 12.36 1170.08 40.95 1288.87 41.89 1285.38 14.91 1164.74 12.36"/>
          <polygon class="cls-11" points="1471.43 20.76 1471.43 49.36 1631.59 49.17 1634.16 22.24 1471.43 20.76"/>
          <polygon class="cls-11" points="1471.43 55.54 1471.43 127.33 1631.19 141.11 1634.16 57.02 1471.43 55.54"/>
          <polygon class="cls-11" points="848.35 32.06 848.47 75.2 982.35 111.9 992.72 72.18 848.35 32.06"/>
          <polygon class="cls-11" points="848.35 88.78 848.35 126.67 968.38 164.71 978.75 125 848.35 88.78"/>
          <polygon class="cls-11" points="1207.02 430.84 1207.37 453.72 1335.86 461.37 1336.21 441.03 1207.02 430.84"/>
          <polygon class="cls-11" points="1207.02 461.37 1207.32 481.18 1335.9 489.59 1336.21 471.55 1207.02 461.37"/>
          <polygon class="cls-11" points="895.4 422.46 892.3 479.45 1043.57 487.87 1047.29 432.64 895.4 422.46"/>
          <polygon class="cls-11" points="891.79 487.87 888.69 544.86 1039.96 553.28 1043.68 498.05 891.79 487.87"/>
          <polygon class="cls-11" points="519.1 355.38 554.17 566.42 702.93 562.66 687.46 353.97 519.1 355.38"/>
          <polygon class="cls-11" points="1382.56 368.69 1382.56 388.47 1502.56 397.46 1505.52 378.38 1382.56 368.69"/>
          <polygon class="cls-11" points="1486.51 229.21 1485.33 248.99 1638.22 273.44 1645.27 256.35 1486.51 229.21"/>
          <polygon class="cls-11" points="1228.61 170.98 1232.33 190.95 1306.03 191.04 1306.03 173.93 1228.61 170.98"/>
          <polygon class="cls-11" points="1233.51 198.44 1235.84 217.37 1306.03 215.48 1306.03 197.41 1233.51 198.44"/>
          <polygon class="cls-11" points="1382.56 395.46 1383.36 481.41 1491.54 486.35 1502.56 405.22 1382.56 395.46"/>
          <polygon class="cls-11" points="1208.88 489.59 1211.88 509.55 1334.81 516.49 1335.13 498.45 1208.88 489.59"/>
          <polyline class="cls-5" points="406.98 1.72 354.47 342.53 709.71 1.72"/>
          <line class="cls-5" x1="357.35" y1="343.5" x2="978.75" y2="2.1"/>
          <line class="cls-5" x1="611.74" y1="454.21" x2="967.94" y2="397.63"/>
          <line class="cls-5" x1="406.98" y1="1.72" x2="967.94" y2="397.63"/>
          <line class="cls-5" x1="1257.75" y1="163.23" x2="967.94" y2="397.63"/>
          <line class="cls-5" x1="1268.95" y1="421.11" x2="970.41" y2="397.63"/>
          <line class="cls-5" x1="1038.95" y1="1.72" x2="967.94" y2="397.63"/>
          <polyline class="cls-5" points="1272.38 418.42 1572.3 231.58 1557.99 1.72"/>
          <polyline class="cls-5" points="1056.16 2.08 1257.75 163.23 1528.11 1.72"/>
          <line class="cls-5" x1="1262.03" y1="163.23" x2="1572.3" y2="231.58"/>
          <circle class="cls-9" cx="353.46" cy="346.03" r="7.94"/>
          <circle class="cls-9" cx="472.03" cy="367.04" r="7.94"/>
          <circle class="cls-9" cx="507.5" cy="324.32" r="7.94"/>
          <circle class="cls-9" cx="611.74" cy="454.21" r="15.98"/>
          <circle class="cls-9" cx="688.16" cy="324.32" r="7.94"/>
          <circle class="cls-9" cx="967.94" cy="397.63" r="7.94"/>
          <circle class="cls-9" cx="1268.95" cy="421.11" r="7.94"/>
          <circle class="cls-9" cx="1438.56" cy="341.75" r="7.94"/>
          <circle class="cls-9" cx="1573.94" cy="231.58" r="7.94"/>
          <circle class="cls-9" cx="1257.75" cy="163.23" r="7.94"/>
        </g>
        <polygon class="cls-11" points="299.33 365.32 302.44 390.77 423.45 367.43 414.48 348.75 299.33 365.32"/>
        <polygon class="cls-11" points="305.87 398.82 308.98 424.26 429.99 400.92 424.84 379.87 305.87 398.82"/>
      </g>
      <g>
        <g>
          <path class="cls-3" d="M116.64,917.82c.55.07,1.04.21,1.48.41.44.2.86.49,1.26.85.4.37.86.86,1.37,1.48l38.04,48.1c-.15-1.54-.26-3.03-.33-4.48-.07-1.45-.11-2.81-.11-4.1v-42.38h16.38v80.09h-9.67c-1.43,0-2.64-.22-3.63-.66-.99-.44-1.94-1.25-2.86-2.42l-37.76-47.71c.11,1.39.2,2.76.28,4.1.07,1.34.11,2.59.11,3.77v42.93h-16.38v-80.09h9.78c.81,0,1.48.04,2.03.11Z"/>
          <path class="cls-3" d="M262.46,997.79h-14.4c-1.61,0-2.94-.38-3.98-1.13s-1.77-1.71-2.17-2.89l-4.73-13.96h-30.45l-4.73,13.96c-.37,1.03-1.08,1.95-2.14,2.78-1.06.82-2.36,1.24-3.9,1.24h-14.51l31-80.09h19.02l31,80.09ZM211.01,967.17h21.88l-7.37-21.93c-.48-1.39-1.04-3.03-1.68-4.92-.64-1.89-1.27-3.93-1.9-6.13-.59,2.24-1.19,4.31-1.81,6.21-.62,1.91-1.21,3.55-1.76,4.95l-7.37,21.82Z"/>
          <path class="cls-3" d="M313.58,933.98c-.55.88-1.13,1.54-1.73,1.98s-1.38.66-2.34.66c-.84,0-1.75-.27-2.72-.8-.97-.53-2.07-1.13-3.3-1.79-1.23-.66-2.63-1.26-4.21-1.79-1.58-.53-3.37-.8-5.39-.8-3.48,0-6.07.74-7.78,2.23-1.7,1.48-2.56,3.49-2.56,6.02,0,1.61.51,2.95,1.54,4.01,1.03,1.06,2.37,1.98,4.04,2.75,1.67.77,3.57,1.48,5.72,2.12,2.14.64,4.33,1.36,6.57,2.14,2.23.79,4.42,1.71,6.57,2.78,2.14,1.06,4.05,2.42,5.72,4.07,1.67,1.65,3.01,3.66,4.04,6.02,1.03,2.36,1.54,5.21,1.54,8.55,0,3.7-.64,7.16-1.92,10.39-1.28,3.23-3.14,6.04-5.58,8.44-2.44,2.4-5.44,4.29-9.01,5.66-3.57,1.37-7.63,2.06-12.18,2.06-2.49,0-5.03-.26-7.61-.77-2.58-.51-5.08-1.24-7.5-2.17-2.42-.93-4.69-2.04-6.82-3.32s-3.98-2.71-5.55-4.29l5.5-8.68c.4-.66.97-1.19,1.7-1.59.73-.4,1.52-.6,2.36-.6,1.1,0,2.21.35,3.33,1.04,1.12.7,2.38,1.47,3.79,2.31,1.41.84,3.03,1.61,4.86,2.31,1.83.7,3.99,1.04,6.49,1.04,3.37,0,5.99-.74,7.86-2.23,1.87-1.48,2.8-3.84,2.8-7.06,0-1.87-.51-3.39-1.54-4.56-1.03-1.17-2.37-2.14-4.04-2.91-1.67-.77-3.56-1.45-5.69-2.03-2.13-.59-4.31-1.24-6.54-1.95-2.24-.71-4.42-1.59-6.54-2.64-2.13-1.04-4.02-2.42-5.69-4.12-1.67-1.7-3.01-3.83-4.04-6.38-1.03-2.55-1.54-5.69-1.54-9.43,0-3,.6-5.94,1.81-8.79,1.21-2.86,2.99-5.4,5.33-7.64,2.34-2.24,5.22-4.02,8.63-5.36,3.41-1.34,7.31-2.01,11.71-2.01,2.45,0,4.85.19,7.17.58,2.33.39,4.53.95,6.62,1.7,2.09.75,4.04,1.65,5.85,2.69s3.44,2.23,4.86,3.55l-4.62,8.63Z"/>
          <path class="cls-3" d="M383.06,983.11c2.49,0,4.72-.41,6.68-1.24,1.96-.83,3.62-2.01,4.97-3.55,1.36-1.54,2.39-3.42,3.11-5.63.71-2.22,1.07-4.74,1.07-7.56v-47.44h18.58v47.44c0,4.91-.8,9.42-2.39,13.52-1.59,4.1-3.87,7.64-6.84,10.61-2.97,2.97-6.58,5.28-10.83,6.93-4.25,1.65-9.03,2.47-14.35,2.47s-10.15-.83-14.4-2.47c-4.25-1.65-7.86-3.96-10.83-6.93-2.97-2.97-5.24-6.5-6.82-10.61-1.58-4.1-2.36-8.61-2.36-13.52v-47.44h18.58v47.38c0,2.82.36,5.34,1.07,7.56.71,2.22,1.75,4.1,3.11,5.66,1.36,1.56,3.01,2.75,4.97,3.57,1.96.82,4.19,1.24,6.68,1.24Z"/>
          <path class="cls-3" d="M448.13,968.16v29.63h-18.58v-80.09h26.05c5.79,0,10.73.6,14.81,1.79,4.09,1.19,7.42,2.85,10,4.97,2.58,2.13,4.46,4.64,5.63,7.53,1.17,2.89,1.76,6.05,1.76,9.45,0,2.6-.35,5.06-1.04,7.37s-1.73,4.44-3.11,6.4-3.06,3.71-5.06,5.25c-2,1.54-4.3,2.8-6.9,3.79,1.24.62,2.41,1.39,3.49,2.31,1.08.92,2.02,2.03,2.83,3.35l17.04,27.87h-16.82c-3.11,0-5.35-1.17-6.71-3.52l-13.3-23.25c-.59-1.03-1.27-1.76-2.06-2.2-.79-.44-1.9-.66-3.33-.66h-4.73ZM448.13,955.36h7.48c2.53,0,4.68-.32,6.46-.96,1.78-.64,3.23-1.53,4.37-2.67s1.96-2.46,2.47-3.98c.51-1.52.77-3.16.77-4.92,0-3.52-1.15-6.27-3.43-8.24-2.29-1.98-5.84-2.97-10.64-2.97h-7.48v23.75Z"/>
          <path class="cls-3" d="M514.48,917.82c.55.07,1.04.21,1.48.41.44.2.86.49,1.26.85.4.37.86.86,1.37,1.48l38.04,48.1c-.15-1.54-.26-3.03-.33-4.48-.07-1.45-.11-2.81-.11-4.1v-42.38h16.38v80.09h-9.67c-1.43,0-2.64-.22-3.63-.66-.99-.44-1.94-1.25-2.86-2.42l-37.76-47.71c.11,1.39.2,2.76.28,4.1.07,1.34.11,2.59.11,3.77v42.93h-16.38v-80.09h9.78c.81,0,1.48.04,2.03.11Z"/>
          <path class="cls-3" d="M660.3,997.79h-14.4c-1.61,0-2.94-.38-3.98-1.13s-1.77-1.71-2.17-2.89l-4.73-13.96h-30.45l-4.73,13.96c-.37,1.03-1.08,1.95-2.14,2.78-1.06.82-2.36,1.24-3.9,1.24h-14.51l31-80.09h19.02l31,80.09ZM608.86,967.17h21.88l-7.37-21.93c-.48-1.39-1.04-3.03-1.68-4.92-.64-1.89-1.27-3.93-1.9-6.13-.59,2.24-1.19,4.31-1.81,6.21-.62,1.91-1.21,3.55-1.76,4.95l-7.37,21.82Z"/>
          <path class="cls-3" d="M711.42,933.98c-.55.88-1.13,1.54-1.73,1.98s-1.38.66-2.34.66c-.84,0-1.75-.27-2.72-.8-.97-.53-2.07-1.13-3.3-1.79-1.23-.66-2.63-1.26-4.21-1.79-1.58-.53-3.37-.8-5.39-.8-3.48,0-6.07.74-7.78,2.23-1.7,1.48-2.56,3.49-2.56,6.02,0,1.61.51,2.95,1.54,4.01,1.03,1.06,2.37,1.98,4.04,2.75,1.67.77,3.57,1.48,5.72,2.12,2.14.64,4.33,1.36,6.57,2.14,2.23.79,4.42,1.71,6.57,2.78s4.05,2.42,5.72,4.07c1.67,1.65,3.01,3.66,4.04,6.02,1.03,2.36,1.54,5.21,1.54,8.55,0,3.7-.64,7.16-1.92,10.39-1.28,3.23-3.14,6.04-5.58,8.44-2.44,2.4-5.44,4.29-9.01,5.66-3.57,1.37-7.63,2.06-12.18,2.06-2.49,0-5.03-.26-7.61-.77-2.58-.51-5.08-1.24-7.5-2.17-2.42-.93-4.69-2.04-6.82-3.32s-3.98-2.71-5.55-4.29l5.5-8.68c.4-.66.97-1.19,1.7-1.59.73-.4,1.52-.6,2.36-.6,1.1,0,2.21.35,3.33,1.04,1.12.7,2.38,1.47,3.79,2.31,1.41.84,3.03,1.61,4.86,2.31,1.83.7,3.99,1.04,6.49,1.04,3.37,0,5.99-.74,7.86-2.23,1.87-1.48,2.8-3.84,2.8-7.06,0-1.87-.51-3.39-1.54-4.56-1.03-1.17-2.37-2.14-4.04-2.91-1.67-.77-3.56-1.45-5.69-2.03-2.13-.59-4.31-1.24-6.54-1.95-2.24-.71-4.42-1.59-6.54-2.64-2.13-1.04-4.02-2.42-5.69-4.12-1.67-1.7-3.01-3.83-4.04-6.38-1.03-2.55-1.54-5.69-1.54-9.43,0-3,.6-5.94,1.81-8.79,1.21-2.86,2.99-5.4,5.33-7.64,2.34-2.24,5.22-4.02,8.63-5.36,3.41-1.34,7.31-2.01,11.71-2.01,2.45,0,4.85.19,7.17.58,2.33.39,4.53.95,6.62,1.7,2.09.75,4.04,1.65,5.85,2.69s3.44,2.23,4.86,3.55l-4.62,8.63Z"/>
        </g>
        <g>
          <path class="cls-3" d="M97.74,800.24h17.97c1.94,0,3.52.44,4.76,1.32,1.23.88,2.11,2.05,2.64,3.5l18.63,51.54c.84,2.25,1.68,4.69,2.54,7.33.86,2.64,1.66,5.42,2.41,8.33.62-2.91,1.33-5.68,2.15-8.33.81-2.64,1.62-5.09,2.41-7.33l18.5-51.54c.44-1.23,1.3-2.35,2.58-3.34s2.84-1.49,4.69-1.49h18.1l-38.59,96.27h-20.22l-38.59-96.27Z"/>
          <path class="cls-3" d="M265.05,800.24v17.18h-39.51v22.47h30.26v16.52h-30.26v22.93h39.51v17.18h-61.98v-96.27h61.98Z"/>
          <path class="cls-3" d="M300.06,860.9v35.62h-22.33v-96.27h31.32c6.96,0,12.9.72,17.81,2.15,4.91,1.43,8.92,3.43,12.03,5.98,3.11,2.56,5.36,5.57,6.77,9.05,1.41,3.48,2.11,7.27,2.11,11.36,0,3.13-.42,6.08-1.26,8.85-.84,2.78-2.08,5.34-3.73,7.7-1.65,2.36-3.68,4.46-6.08,6.31-2.4,1.85-5.17,3.37-8.29,4.56,1.5.75,2.9,1.68,4.2,2.78,1.3,1.1,2.43,2.44,3.4,4.03l20.48,33.5h-20.22c-3.74,0-6.43-1.41-8.06-4.23l-15.99-27.95c-.7-1.23-1.53-2.11-2.48-2.64-.95-.53-2.28-.79-4-.79h-5.68ZM300.06,845.5h8.99c3.04,0,5.63-.39,7.76-1.16,2.14-.77,3.89-1.84,5.25-3.2s2.36-2.96,2.97-4.79c.62-1.83.93-3.8.93-5.91,0-4.23-1.38-7.53-4.13-9.91-2.75-2.38-7.01-3.57-12.79-3.57h-8.99v28.55Z"/>
          <path class="cls-3" d="M452.96,848.35c0,6.96-1.2,13.38-3.6,19.26-2.4,5.88-5.78,10.97-10.14,15.26-4.36,4.3-9.61,7.64-15.76,10.04-6.15,2.4-12.96,3.6-20.45,3.6h-37.4v-96.27h37.4c7.49,0,14.31,1.21,20.45,3.63,6.14,2.42,11.4,5.77,15.76,10.04,4.36,4.27,7.74,9.35,10.14,15.23,2.4,5.88,3.6,12.28,3.6,19.2ZM430.1,848.35c0-4.76-.62-9.05-1.85-12.89-1.23-3.83-3.01-7.08-5.32-9.75-2.31-2.67-5.14-4.71-8.49-6.15-3.35-1.43-7.16-2.15-11.43-2.15h-14.93v61.91h14.93c4.27,0,8.08-.72,11.43-2.15,3.35-1.43,6.18-3.48,8.49-6.15,2.31-2.66,4.09-5.91,5.32-9.75,1.23-3.83,1.85-8.15,1.85-12.95Z"/>
          <path class="cls-3" d="M549.3,896.51h-17.31c-1.94,0-3.54-.45-4.79-1.35-1.26-.9-2.13-2.06-2.61-3.47l-5.68-16.78h-36.61l-5.68,16.78c-.44,1.23-1.3,2.35-2.58,3.34-1.28.99-2.84,1.49-4.69,1.49h-17.44l37.27-96.27h22.86l37.27,96.27ZM487.46,859.71h26.3l-8.85-26.36c-.57-1.67-1.25-3.64-2.02-5.91-.77-2.27-1.53-4.72-2.28-7.37-.71,2.69-1.43,5.18-2.18,7.47-.75,2.29-1.45,4.27-2.11,5.95l-8.85,26.23Z"/>
          <path class="cls-3" d="M644.45,848.35c0,6.96-1.2,13.38-3.6,19.26-2.4,5.88-5.78,10.97-10.14,15.26-4.36,4.3-9.61,7.64-15.76,10.04-6.15,2.4-12.96,3.6-20.45,3.6h-37.4v-96.27h37.4c7.49,0,14.31,1.21,20.45,3.63,6.14,2.42,11.4,5.77,15.76,10.04,4.36,4.27,7.74,9.35,10.14,15.23,2.4,5.88,3.6,12.28,3.6,19.2ZM621.59,848.35c0-4.76-.62-9.05-1.85-12.89-1.23-3.83-3.01-7.08-5.32-9.75-2.31-2.67-5.14-4.71-8.49-6.15-3.35-1.43-7.16-2.15-11.43-2.15h-14.93v61.91h14.93c4.27,0,8.08-.72,11.43-2.15,3.35-1.43,6.18-3.48,8.49-6.15,2.31-2.66,4.09-5.91,5.32-9.75,1.23-3.83,1.85-8.15,1.85-12.95Z"/>
          <path class="cls-3" d="M717.14,800.24v17.18h-39.51v22.47h30.26v16.52h-30.26v22.93h39.51v17.18h-61.98v-96.27h61.98Z"/>
        </g>
      </g>
      <g>
        <g>
          <path class="cls-8" d="M124.06,911.77c.55.07,1.04.21,1.48.41.44.2.86.49,1.26.85.4.37.86.86,1.37,1.48l38.04,48.1c-.15-1.54-.26-3.03-.33-4.48-.07-1.45-.11-2.81-.11-4.1v-42.38h16.38v80.09h-9.67c-1.43,0-2.64-.22-3.63-.66-.99-.44-1.94-1.25-2.86-2.42l-37.76-47.71c.11,1.39.2,2.76.28,4.1.07,1.34.11,2.59.11,3.77v42.93h-16.38v-80.09h9.78c.81,0,1.48.04,2.03.11Z"/>
          <path class="cls-8" d="M269.88,991.74h-14.4c-1.61,0-2.94-.38-3.98-1.13s-1.77-1.71-2.17-2.89l-4.73-13.96h-30.45l-4.73,13.96c-.37,1.03-1.08,1.95-2.14,2.78-1.06.82-2.36,1.24-3.9,1.24h-14.51l31-80.09h19.02l31,80.09ZM218.43,961.13h21.88l-7.37-21.93c-.48-1.39-1.04-3.03-1.68-4.92-.64-1.89-1.27-3.93-1.9-6.13-.59,2.24-1.19,4.31-1.81,6.21-.62,1.91-1.21,3.55-1.76,4.95l-7.37,21.82Z"/>
          <path class="cls-8" d="M321,927.93c-.55.88-1.13,1.54-1.73,1.98s-1.38.66-2.34.66c-.84,0-1.75-.27-2.72-.8-.97-.53-2.07-1.13-3.3-1.79-1.23-.66-2.63-1.26-4.21-1.79-1.58-.53-3.37-.8-5.39-.8-3.48,0-6.07.74-7.78,2.23-1.7,1.48-2.56,3.49-2.56,6.02,0,1.61.51,2.95,1.54,4.01,1.03,1.06,2.37,1.98,4.04,2.75,1.67.77,3.57,1.48,5.72,2.12,2.14.64,4.33,1.36,6.57,2.14,2.23.79,4.42,1.71,6.57,2.78s4.05,2.42,5.72,4.07c1.67,1.65,3.01,3.66,4.04,6.02,1.03,2.36,1.54,5.21,1.54,8.55,0,3.7-.64,7.16-1.92,10.39-1.28,3.23-3.14,6.04-5.58,8.44-2.44,2.4-5.44,4.29-9.01,5.66-3.57,1.37-7.63,2.06-12.18,2.06-2.49,0-5.03-.26-7.61-.77-2.58-.51-5.08-1.24-7.5-2.17-2.42-.93-4.69-2.04-6.82-3.32s-3.98-2.71-5.55-4.29l5.5-8.68c.4-.66.97-1.19,1.7-1.59.73-.4,1.52-.6,2.36-.6,1.1,0,2.21.35,3.33,1.04,1.12.7,2.38,1.47,3.79,2.31,1.41.84,3.03,1.61,4.86,2.31,1.83.7,3.99,1.04,6.49,1.04,3.37,0,5.99-.74,7.86-2.23,1.87-1.48,2.8-3.84,2.8-7.06,0-1.87-.51-3.39-1.54-4.56-1.03-1.17-2.37-2.14-4.04-2.91-1.67-.77-3.56-1.45-5.69-2.03-2.13-.59-4.31-1.24-6.54-1.95-2.24-.71-4.42-1.59-6.54-2.64-2.13-1.04-4.02-2.42-5.69-4.12-1.67-1.7-3.01-3.83-4.04-6.38-1.03-2.55-1.54-5.69-1.54-9.43,0-3,.6-5.94,1.81-8.79,1.21-2.86,2.99-5.4,5.33-7.64,2.34-2.24,5.22-4.02,8.63-5.36,3.41-1.34,7.31-2.01,11.71-2.01,2.45,0,4.85.19,7.17.58,2.33.39,4.53.95,6.62,1.7,2.09.75,4.04,1.65,5.85,2.69,1.81,1.04,3.44,2.23,4.86,3.55l-4.62,8.63Z"/>
          <path class="cls-8" d="M390.48,977.07c2.49,0,4.72-.41,6.68-1.24,1.96-.83,3.62-2.01,4.97-3.55,1.36-1.54,2.39-3.42,3.11-5.63.71-2.22,1.07-4.74,1.07-7.56v-47.44h18.58v47.44c0,4.91-.8,9.42-2.39,13.52-1.59,4.1-3.87,7.64-6.84,10.61-2.97,2.97-6.58,5.28-10.83,6.93-4.25,1.65-9.03,2.47-14.35,2.47s-10.15-.83-14.4-2.47c-4.25-1.65-7.86-3.96-10.83-6.93-2.97-2.97-5.24-6.5-6.82-10.61-1.58-4.1-2.36-8.61-2.36-13.52v-47.44h18.58v47.38c0,2.82.36,5.34,1.07,7.56.71,2.22,1.75,4.1,3.11,5.66,1.36,1.56,3.01,2.75,4.97,3.57,1.96.82,4.19,1.24,6.68,1.24Z"/>
          <path class="cls-8" d="M455.55,962.12v29.63h-18.58v-80.09h26.05c5.79,0,10.73.6,14.81,1.79,4.09,1.19,7.42,2.85,10,4.97,2.58,2.13,4.46,4.64,5.63,7.53,1.17,2.89,1.76,6.05,1.76,9.45,0,2.6-.35,5.06-1.04,7.37s-1.73,4.44-3.11,6.4-3.06,3.71-5.06,5.25c-2,1.54-4.3,2.8-6.9,3.79,1.24.62,2.41,1.39,3.49,2.31,1.08.92,2.02,2.03,2.83,3.35l17.04,27.87h-16.82c-3.11,0-5.35-1.17-6.71-3.52l-13.3-23.25c-.59-1.03-1.27-1.76-2.06-2.2-.79-.44-1.9-.66-3.33-.66h-4.73ZM455.55,949.31h7.48c2.53,0,4.68-.32,6.46-.96,1.78-.64,3.23-1.53,4.37-2.67s1.96-2.46,2.47-3.98c.51-1.52.77-3.16.77-4.92,0-3.52-1.15-6.27-3.43-8.24-2.29-1.98-5.84-2.97-10.64-2.97h-7.48v23.75Z"/>
          <path class="cls-8" d="M521.9,911.77c.55.07,1.04.21,1.48.41.44.2.86.49,1.26.85.4.37.86.86,1.37,1.48l38.04,48.1c-.15-1.54-.26-3.03-.33-4.48-.07-1.45-.11-2.81-.11-4.1v-42.38h16.38v80.09h-9.67c-1.43,0-2.64-.22-3.63-.66-.99-.44-1.94-1.25-2.86-2.42l-37.76-47.71c.11,1.39.2,2.76.28,4.1.07,1.34.11,2.59.11,3.77v42.93h-16.38v-80.09h9.78c.81,0,1.48.04,2.03.11Z"/>
          <path class="cls-8" d="M667.72,991.74h-14.4c-1.61,0-2.94-.38-3.98-1.13s-1.77-1.71-2.17-2.89l-4.73-13.96h-30.45l-4.73,13.96c-.37,1.03-1.08,1.95-2.14,2.78-1.06.82-2.36,1.24-3.9,1.24h-14.51l31-80.09h19.02l31,80.09ZM616.28,961.13h21.88l-7.37-21.93c-.48-1.39-1.04-3.03-1.68-4.92-.64-1.89-1.27-3.93-1.9-6.13-.59,2.24-1.19,4.31-1.81,6.21-.62,1.91-1.21,3.55-1.76,4.95l-7.37,21.82Z"/>
          <path class="cls-8" d="M718.84,927.93c-.55.88-1.13,1.54-1.73,1.98s-1.38.66-2.34.66c-.84,0-1.75-.27-2.72-.8-.97-.53-2.07-1.13-3.3-1.79-1.23-.66-2.63-1.26-4.21-1.79-1.58-.53-3.37-.8-5.39-.8-3.48,0-6.07.74-7.78,2.23-1.7,1.48-2.56,3.49-2.56,6.02,0,1.61.51,2.95,1.54,4.01,1.03,1.06,2.37,1.98,4.04,2.75,1.67.77,3.57,1.48,5.72,2.12,2.14.64,4.33,1.36,6.57,2.14,2.23.79,4.42,1.71,6.57,2.78s4.05,2.42,5.72,4.07c1.67,1.65,3.01,3.66,4.04,6.02,1.03,2.36,1.54,5.21,1.54,8.55,0,3.7-.64,7.16-1.92,10.39-1.28,3.23-3.14,6.04-5.58,8.44-2.44,2.4-5.44,4.29-9.01,5.66-3.57,1.37-7.63,2.06-12.18,2.06-2.49,0-5.03-.26-7.61-.77-2.58-.51-5.08-1.24-7.5-2.17-2.42-.93-4.69-2.04-6.82-3.32s-3.98-2.71-5.55-4.29l5.5-8.68c.4-.66.97-1.19,1.7-1.59.73-.4,1.52-.6,2.36-.6,1.1,0,2.21.35,3.33,1.04,1.12.7,2.38,1.47,3.79,2.31,1.41.84,3.03,1.61,4.86,2.31,1.83.7,3.99,1.04,6.49,1.04,3.37,0,5.99-.74,7.86-2.23,1.87-1.48,2.8-3.84,2.8-7.06,0-1.87-.51-3.39-1.54-4.56-1.03-1.17-2.37-2.14-4.04-2.91-1.67-.77-3.56-1.45-5.69-2.03-2.13-.59-4.31-1.24-6.54-1.95-2.24-.71-4.42-1.59-6.54-2.64-2.13-1.04-4.02-2.42-5.69-4.12-1.67-1.7-3.01-3.83-4.04-6.38-1.03-2.55-1.54-5.69-1.54-9.43,0-3,.6-5.94,1.81-8.79,1.21-2.86,2.99-5.4,5.33-7.64,2.34-2.24,5.22-4.02,8.63-5.36,3.41-1.34,7.31-2.01,11.71-2.01,2.45,0,4.85.19,7.17.58,2.33.39,4.53.95,6.62,1.7,2.09.75,4.04,1.65,5.85,2.69s3.44,2.23,4.86,3.55l-4.62,8.63Z"/>
        </g>
        <g>
          <path class="cls-8" d="M105.16,794.19h17.97c1.94,0,3.52.44,4.76,1.32,1.23.88,2.11,2.05,2.64,3.5l18.63,51.54c.84,2.25,1.68,4.69,2.54,7.33.86,2.64,1.66,5.42,2.41,8.33.62-2.91,1.33-5.68,2.15-8.33.81-2.64,1.62-5.09,2.41-7.33l18.5-51.54c.44-1.23,1.3-2.35,2.58-3.34s2.84-1.49,4.69-1.49h18.1l-38.59,96.27h-20.22l-38.59-96.27Z"/>
          <path class="cls-8" d="M272.47,794.19v17.18h-39.51v22.47h30.26v16.52h-30.26v22.93h39.51v17.18h-61.98v-96.27h61.98Z"/>
          <path class="cls-8" d="M307.48,854.85v35.62h-22.33v-96.27h31.32c6.96,0,12.9.72,17.81,2.15,4.91,1.43,8.92,3.43,12.03,5.98,3.11,2.56,5.36,5.57,6.77,9.05,1.41,3.48,2.11,7.27,2.11,11.36,0,3.13-.42,6.08-1.26,8.85-.84,2.78-2.08,5.34-3.73,7.7-1.65,2.36-3.68,4.46-6.08,6.31-2.4,1.85-5.17,3.37-8.29,4.56,1.5.75,2.9,1.68,4.2,2.78,1.3,1.1,2.43,2.44,3.4,4.03l20.48,33.5h-20.22c-3.74,0-6.43-1.41-8.06-4.23l-15.99-27.95c-.7-1.23-1.53-2.11-2.48-2.64-.95-.53-2.28-.79-4-.79h-5.68ZM307.48,839.46h8.99c3.04,0,5.63-.39,7.76-1.16,2.14-.77,3.89-1.84,5.25-3.2s2.36-2.96,2.97-4.79c.62-1.83.93-3.8.93-5.91,0-4.23-1.38-7.53-4.13-9.91-2.75-2.38-7.01-3.57-12.79-3.57h-8.99v28.55Z"/>
          <path class="cls-8" d="M460.38,842.3c0,6.96-1.2,13.38-3.6,19.26-2.4,5.88-5.78,10.97-10.14,15.26s-9.61,7.64-15.76,10.04c-6.15,2.4-12.96,3.6-20.45,3.6h-37.4v-96.27h37.4c7.49,0,14.31,1.21,20.45,3.63,6.14,2.42,11.4,5.77,15.76,10.04,4.36,4.27,7.74,9.35,10.14,15.23,2.4,5.88,3.6,12.28,3.6,19.2ZM437.52,842.3c0-4.76-.62-9.05-1.85-12.89-1.23-3.83-3.01-7.08-5.32-9.75-2.31-2.67-5.14-4.71-8.49-6.15-3.35-1.43-7.16-2.15-11.43-2.15h-14.93v61.91h14.93c4.27,0,8.08-.72,11.43-2.15,3.35-1.43,6.18-3.48,8.49-6.15,2.31-2.66,4.09-5.91,5.32-9.75,1.23-3.83,1.85-8.15,1.85-12.95Z"/>
          <path class="cls-8" d="M556.72,890.47h-17.31c-1.94,0-3.54-.45-4.79-1.35-1.26-.9-2.13-2.06-2.61-3.47l-5.68-16.78h-36.61l-5.68,16.78c-.44,1.23-1.3,2.35-2.58,3.34-1.28.99-2.84,1.49-4.69,1.49h-17.44l37.27-96.27h22.86l37.27,96.27ZM494.88,853.66h26.3l-8.85-26.36c-.57-1.67-1.25-3.64-2.02-5.91-.77-2.27-1.53-4.72-2.28-7.37-.71,2.69-1.43,5.18-2.18,7.47-.75,2.29-1.45,4.27-2.11,5.95l-8.85,26.23Z"/>
          <path class="cls-8" d="M651.87,842.3c0,6.96-1.2,13.38-3.6,19.26-2.4,5.88-5.78,10.97-10.14,15.26-4.36,4.3-9.61,7.64-15.76,10.04-6.15,2.4-12.96,3.6-20.45,3.6h-37.4v-96.27h37.4c7.49,0,14.31,1.21,20.45,3.63,6.14,2.42,11.4,5.77,15.76,10.04,4.36,4.27,7.74,9.35,10.14,15.23,2.4,5.88,3.6,12.28,3.6,19.2ZM629.01,842.3c0-4.76-.62-9.05-1.85-12.89-1.23-3.83-3.01-7.08-5.32-9.75-2.31-2.67-5.14-4.71-8.49-6.15-3.35-1.43-7.16-2.15-11.43-2.15h-14.93v61.91h14.93c4.27,0,8.08-.72,11.43-2.15,3.35-1.43,6.18-3.48,8.49-6.15,2.31-2.66,4.09-5.91,5.32-9.75,1.23-3.83,1.85-8.15,1.85-12.95Z"/>
          <path class="cls-8" d="M724.56,794.19v17.18h-39.51v22.47h30.26v16.52h-30.26v22.93h39.51v17.18h-61.98v-96.27h61.98Z"/>
        </g>
      </g>
    </g>
  </g>
</svg>